<?xml version="1.0" encoding="UTF-8"?>
<svg width="250px" height="224px" viewBox="0 0 250 224" version="1.1" xmlns="http://www.w3.org/2000/svg" xmlns:xlink="http://www.w3.org/1999/xlink">
    <!-- Generator: sketchtool 58 (101010) - https://sketch.com -->
    <title>DCD7B0D2-4F3F-4E05-A21A-B951013006D6</title>
    <desc>Created with sketchtool.</desc>
    <defs>
        <rect id="path-1" x="0.380368098" y="0" width="7.82208589" height="7.82208589"></rect>
        <path d="M1.45398773,1.22699387 C2.98773006,-0.306748466 5.44171779,-0.306748466 6.97546012,1.22699387 C8.50920245,2.7607362 8.50920245,5.21472393 6.97546012,6.74846626 C5.44171779,8.28220859 2.98773006,8.28220859 1.45398773,6.74846626 C-0.0797546012,5.21472393 -0.0797546012,2.7607362 1.45398773,1.22699387" id="path-3"></path>
        <linearGradient x1="66.0580592%" y1="65.6923876%" x2="34.3447535%" y2="33.6959274%" id="linearGradient-5">
            <stop stop-color="#817EF9" offset="0%"></stop>
            <stop stop-color="#817EF9" offset="0.942211%"></stop>
            <stop stop-color="#E4ABF9" offset="99.76%"></stop>
            <stop stop-color="#E4ABF9" offset="100%"></stop>
        </linearGradient>
        <rect id="path-6" x="0.153374233" y="0.613496933" width="7.82208589" height="7.82208589"></rect>
        <path d="M1.22699387,1.68711656 C2.7607362,0.153374233 5.21472393,0.153374233 6.74846626,1.68711656 C8.28220859,3.2208589 8.28220859,5.67484663 6.74846626,7.20858896 C5.21472393,8.74233129 2.7607362,8.74233129 1.22699387,7.20858896 C-0.306748466,5.67484663 -0.306748466,3.2208589 1.22699387,1.68711656" id="path-8"></path>
        <linearGradient x1="65.8393522%" y1="65.6264526%" x2="33.842892%" y2="33.913147%" id="linearGradient-10">
            <stop stop-color="#817EF9" offset="0%"></stop>
            <stop stop-color="#817EF9" offset="0.942211%"></stop>
            <stop stop-color="#E4ABF9" offset="99.76%"></stop>
            <stop stop-color="#E4ABF9" offset="100%"></stop>
        </linearGradient>
        <path d="M82.4355828,1.3803681 L1.14723926,48.3128834 C0.226993865,48.9263804 0.226993865,49.8466258 1.14723926,50.3067485 L139.797546,130.368098 C140.717791,130.981595 142.404908,130.981595 143.325153,130.368098 L224.613497,83.4355828 C225.533742,82.8220859 225.533742,81.9018405 224.613497,81.4417178 L85.9631902,1.3803681 C85.5030675,1.07361963 84.8895706,0.920245399 84.2760736,0.920245399 C83.5092025,0.920245399 82.8957055,1.07361963 82.4355828,1.3803681" id="path-11"></path>
        <linearGradient x1="0.121292845%" y1="50.0084991%" x2="99.8975352%" y2="50.0084991%" id="linearGradient-13">
            <stop stop-color="#409BAA" offset="0%"></stop>
            <stop stop-color="#7FBCC6" offset="99.76%"></stop>
            <stop stop-color="#7FBCC6" offset="100%"></stop>
        </linearGradient>
        <rect id="path-14" x="0" y="0.920245399" width="106.595092" height="52.1472393"></rect>
        <rect id="path-16" x="0.920245399" y="0.460122699" width="105.06135" height="52.9141104"></rect>
    </defs>
    <g id="Diseño-sin-lo-que-no-va" stroke="none" stroke-width="1" fill="none" fill-rule="evenodd">
        <g id="Tutorial-3" transform="translate(-62.000000, -142.000000)">
            <g id="Untitled-3" transform="translate(63.000000, 142.000000)">
                <g id="Group" transform="translate(0.000000, 62.883436)" stroke="#00798E" stroke-dasharray="1.052147223174206,4.142637998779858" stroke-linecap="round" stroke-width="0.920245399">
                    <path d="M60.2760736,38.4969325 C53.5276074,22.5460123 34.9693252,15.1840491 19.0184049,21.9325153 C3.06748466,28.8343558 -3.2208589,46.7791411 2.45398773,63.190184 C8.74233129,81.2883436 39.5705521,76.993865 35.2760736,120.092025 C35.2760736,120.092025 29.1411043,147.546012 49.0797546,156.748466 C69.0184049,165.95092 103.220859,154.294479 104.907975,117.02454" id="Path"></path>
                    <path d="M155.06135,128.220859 C158.128834,145.245399 174.539877,156.595092 191.564417,153.527607 C208.588957,150.460123 218.711656,134.355828 216.871166,117.02454 C214.877301,98.006135 183.742331,95.398773 197.546012,54.1411043 C197.546012,54.1411043 209.662577,28.8343558 192.177914,15.3374233" id="Path"></path>
                    <path d="M95.0920245,57.9754601 C93.7116564,27.607362 117.177914,1.99386503 147.546012,0.613496933 C147.546012,0.613496933 165.490798,-1.07361963 180.214724,14.4171779" id="Path"></path>
                </g>
                <g id="Group" transform="translate(50.079755, 33.742331)">
                    <path d="M12.190184,1.68711656 C14.1840491,-0.306748466 17.404908,-0.306748466 19.2453988,1.68711656 C21.2392638,3.6809816 21.2392638,6.90184049 19.2453988,8.74233129 C17.2515337,10.7361963 14.0306748,10.7361963 12.190184,8.74233129 C10.196319,6.90184049 10.196319,3.6809816 12.190184,1.68711656" id="Path" fill="#7FBCC6" fill-rule="nonzero"></path>
                    <path d="M183.509202,165.030675 C185.503067,163.03681 188.723926,163.03681 190.564417,165.030675 C192.558282,167.02454 192.558282,170.245399 190.564417,172.08589 C188.570552,174.079755 185.349693,174.079755 183.509202,172.08589 C181.515337,170.245399 181.515337,167.02454 183.509202,165.030675" id="Path" fill="#7FBCC6" fill-rule="nonzero"></path>
                    <g id="Clipped" transform="translate(0.000000, 26.073620)">
                        <mask id="mask-2" fill="white">
                            <use xlink:href="#path-1"></use>
                        </mask>
                        <g id="SVGID_1_"></g>
                        <g mask="url(#mask-2)">
                            <mask id="mask-4" fill="white">
                                <use xlink:href="#path-3"></use>
                            </mask>
                            <g id="SVGID_3_"></g>
                            <polygon id="Path" fill="url(#linearGradient-5)" fill-rule="nonzero" mask="url(#mask-4)" points="4.21472393 12.5766871 -4.37423313 3.98773006 4.21472393 -4.75460123 12.803681 3.98773006"></polygon>
                        </g>
                    </g>
                    <g id="Clipped" transform="translate(186.116564, 142.638037)">
                        <mask id="mask-7" fill="white">
                            <use xlink:href="#path-6"></use>
                        </mask>
                        <g id="SVGID_6_"></g>
                        <g mask="url(#mask-7)">
                            <mask id="mask-9" fill="white">
                                <use xlink:href="#path-8"></use>
                            </mask>
                            <g id="SVGID_8_"></g>
                            <polygon id="Path" fill="url(#linearGradient-10)" fill-rule="nonzero" mask="url(#mask-9)" points="3.98773006 13.0368098 -4.60122699 4.44785276 3.98773006 -4.14110429 12.7300613 4.44785276"></polygon>
                        </g>
                    </g>
                </g>
                <g id="Clipped" transform="translate(11.736196, 87.423313)">
                    <mask id="mask-12" fill="white">
                        <use xlink:href="#path-11"></use>
                    </mask>
                    <g id="SVGID_11_"></g>
                    <rect id="Rectangle" fill="url(#linearGradient-13)" fill-rule="nonzero" mask="url(#mask-12)" x="0.226993865" y="0.920245399" width="225.306748" height="129.907975"></rect>
                </g>
                <g id="Group" transform="translate(11.736196, 0.000000)">
                    <polygon id="Path" fill="#409BAA" fill-rule="nonzero" points="103.447853 15.797546 127.98773 1.53374233 133.355828 4.75460123 127.98773 14.2638037 103.447853 28.3742331"></polygon>
                    <polygon id="Path" fill="#7FBCC6" fill-rule="nonzero" points="127.98773 1.53374233 125.226994 0 100.533742 14.2638037 103.447853 15.797546"></polygon>
                    <polygon id="Path" fill="#409BAA" fill-rule="nonzero" points="100.533742 29.9079755 75.993865 15.797546 70.4723926 18.8650307 75.993865 28.3742331 100.533742 42.6380368"></polygon>
                    <polygon id="Path" fill="#7FBCC6" fill-rule="nonzero" points="75.993865 15.797546 78.7546012 14.1104294 103.294479 28.3742331 100.533742 29.9079755"></polygon>
                    <path d="M103.447853,2.60736196 C103.447853,2.14723926 103.141104,1.8404908 102.680982,1.53374233 C101.607362,0.920245399 99.7668712,0.920245399 98.6932515,1.53374233 C98.2331288,1.8404908 97.9263804,2.3006135 97.9263804,2.60736196 L97.9263804,2.60736196 L97.9263804,150.766871 L103.447853,150.766871 L103.447853,2.60736196 L103.447853,2.60736196 Z" id="Path" fill="#BFDDE3" fill-rule="nonzero"></path>
                    <path d="M152.527607,114.570552 L119.705521,105.06135 L85.809816,76.3803681 C84.8895706,75.6134969 83.5092025,75.4601227 82.5889571,76.0736196 L1.3006135,123.006135 C0.380368098,123.619632 0.226993865,124.539877 1.14723926,125.306748 L35.196319,153.98773 L68.0184049,163.496933 L103.294479,193.558282 L139.644172,205.521472 C140.717791,205.828221 142.404908,205.674847 143.325153,205.214724 L147.006135,203.067485 L224.460123,158.282209 C225.380368,157.668712 225.380368,157.055215 224.306748,156.595092 L187.957055,144.631902 L152.527607,114.570552 Z" id="Path" fill="#409BAA" fill-rule="nonzero"></path>
                    <polygon id="Path" fill="#00798E" fill-rule="nonzero" points="119.705521 105.06135 35.0429448 153.98773 67.8650307 163.496933 152.527607 114.570552"></polygon>
                    <path d="M103.294479,193.558282 L139.644172,205.521472 C140.717791,205.828221 142.404908,205.674847 143.325153,205.214724 L224.613497,158.282209 C225.533742,157.668712 225.533742,157.055215 224.460123,156.595092 L188.110429,144.631902 L103.294479,193.558282 Z" id="Path" fill="#00798E" fill-rule="nonzero"></path>
                    <polygon id="Path" fill="#F17D9B" fill-rule="nonzero" points="114.337423 108.282209 83.202454 82.0552147 9.42944785 124.693252 40.4110429 150.920245"></polygon>
                    <polygon id="Path" fill="#F17D9B" fill-rule="nonzero" points="147.006135 117.791411 73.2331288 160.276074 40.4110429 150.920245 114.337423 108.282209"></polygon>
                    <g id="Clipped" transform="translate(40.411043, 107.361963)">
                        <mask id="mask-15" fill="white">
                            <use xlink:href="#path-14"></use>
                        </mask>
                        <g id="SVGID_14_"></g>
                        <polygon id="Path" fill="#F17D9B" fill-rule="nonzero" mask="url(#mask-15)" points="106.595092 10.4294479 32.8220859 52.9141104 0 43.5582822 73.9263804 0.920245399"></polygon>
                    </g>
                    <polygon id="Path" fill="#F17D9B" fill-rule="nonzero" points="182.588957 147.699387 108.815951 190.337423 73.2331288 160.276074 147.006135 117.791411"></polygon>
                    <polygon id="Path" fill="#F17D9B" fill-rule="nonzero" points="213.877301 157.97546 140.104294 200.613497 108.815951 190.337423 182.588957 147.699387"></polygon>
                    <g id="Clipped" transform="translate(107.895706, 147.239264)">
                        <mask id="mask-17" fill="white">
                            <use xlink:href="#path-16"></use>
                        </mask>
                        <g id="SVGID_16_"></g>
                        <polygon id="Path" fill="#F17D9B" fill-rule="nonzero" mask="url(#mask-17)" points="105.981595 10.7361963 32.208589 53.3742331 0.920245399 43.0981595 74.6932515 0.460122699"></polygon>
                    </g>
                    <polygon id="Path" fill="#FBDCE4" fill-rule="nonzero" points="27.3742331 139.877301 37.803681 133.588957 21.392638 117.791411 9.42944785 124.693252"></polygon>
                    <polygon id="Path" fill="#FBDCE4" fill-rule="nonzero" points="40.4110429 131.90184 24 116.104294 48.6932515 101.840491 65.1042945 117.791411"></polygon>
                    <polygon id="Path" fill="#FBDCE4" fill-rule="nonzero" points="51.4539877 100.306748 67.8650307 116.104294 75.993865 111.349693 73.2331288 87.7300613"></polygon>
                    <polygon id="Path" fill="#FBDCE4" fill-rule="nonzero" points="78.7546012 109.815951 75.993865 86.196319 83.202454 82.0552147 109.889571 104.447853"></polygon>
                    <polygon id="Path" fill="#FBDCE4" fill-rule="nonzero" points="50.0736196 145.398773 41.791411 137.423313 31.5153374 143.404908 40.4110429 150.920245"></polygon>
                    <polygon id="Path" fill="#FBDCE4" fill-rule="nonzero" points="44.5521472 135.889571 52.8343558 143.711656 77.3742331 129.601227 69.0920245 121.625767"></polygon>
                    <polygon id="Path" fill="#FBDCE4" fill-rule="nonzero" points="80.1349693 128.067485 71.8527607 120.092025 79.3680982 115.797546 95.1656442 113.03681 95.1656442 119.325153"></polygon>
                    <polygon id="Path" fill="#FBDCE4" fill-rule="nonzero" points="97.9263804 117.791411 97.9263804 112.576687 110.809816 110.276074"></polygon>
                    <path d="M111.576687,122.546012 C108.509202,121.625767 104.214724,122.08589 102.067485,123.312883 C99.7668712,124.693252 100.380368,126.380368 103.447853,127.300613 C106.515337,128.220859 110.809816,127.760736 112.957055,126.533742 C115.104294,125.153374 114.490798,123.312883 111.576687,122.546012" id="Path" fill="#F5A8BC" fill-rule="nonzero"></path>
                    <path d="M102.680982,120.705521 C102.067485,120.858896 101.453988,121.165644 100.993865,121.472393 C98.5398773,122.852761 98.5398773,124.693252 98.6932515,125.306748 C98.6932515,125.613497 98.8466258,126.07362 99.1533742,126.533742 L92.404908,130.368098 L80.1349693,128.067485 L95.1656442,119.325153 L102.680982,120.705521 Z" id="Path" fill="#F5A8BC" fill-rule="nonzero"></path>
                    <polygon id="Path" fill="#F5A8BC" fill-rule="nonzero" points="97.9263804 117.791411 106.361963 119.171779 110.656442 119.785276 125.226994 111.349693 114.337423 108.282209"></polygon>
                    <path d="M147.006135,117.791411 L126.453988,129.601227 L114.184049,127.91411 C116.177914,126.533742 116.177914,125 116.177914,124.233129 C116.177914,123.92638 116.02454,123.466258 115.871166,123.006135 L132.435583,113.496933 L147.006135,117.791411 Z" id="Path" fill="#F5A8BC" fill-rule="nonzero"></path>
                    <path d="M124,130.981595 L114.184049,136.656442 L97.7730061,133.435583 L104.674847,129.447853 C104.674847,129.447853 104.674847,129.447853 104.674847,129.447853 L104.674847,129.447853 C105.441718,129.601227 106.208589,129.601227 106.97546,129.601227 C108.662577,129.601227 110.196319,129.447853 111.576687,128.98773 L111.576687,128.98773 L124,130.981595 Z" id="Path" fill="#F5A8BC" fill-rule="nonzero"></path>
                    <polygon id="Path" fill="#F5A8BC" fill-rule="nonzero" points="77.3742331 129.601227 52.8343558 143.711656 65.1042945 146.165644 89.6441718 131.90184"></polygon>
                    <polygon id="Path" fill="#F5A8BC" fill-rule="nonzero" points="114.337423 136.656442 97.7730061 133.588957 73.2331288 147.699387 89.6441718 150.920245"></polygon>
                    <polygon id="Path" fill="#F5A8BC" fill-rule="nonzero" points="50.0736196 145.398773 40.4110429 150.920245 51.4539877 153.98773 62.3435583 147.699387"></polygon>
                    <polygon id="Path" fill="#F5A8BC" fill-rule="nonzero" points="86.8834356 152.453988 70.4723926 149.233129 58.6625767 156.134969 73.2331288 160.276074"></polygon>
                    <polygon id="Path" fill="#FBDCE4" fill-rule="nonzero" points="130.595092 136.656442 139.797546 153.527607 163.417178 139.877301 141.638037 130.368098"></polygon>
                    <polygon id="Path" fill="#FBDCE4" fill-rule="nonzero" points="86.8834356 152.453988 89.6441718 157.208589 88.8773006 173.466258 73.2331288 160.276074"></polygon>
                    <polygon id="Path" fill="#FBDCE4" fill-rule="nonzero" points="89.6441718 150.920245 92.404908 155.674847 126.607362 135.889571 124 130.981595"></polygon>
                    <polygon id="Path" fill="#FBDCE4" fill-rule="nonzero" points="126.607362 129.601227 129.368098 134.355828 151.453988 121.472393 147.006135 117.791411"></polygon>
                    <polygon id="Path" fill="#FBDCE4" fill-rule="nonzero" points="127.98773 138.190184 93.7852761 157.97546 92.8650307 176.840491 95.4723926 179.141104 137.03681 155.06135"></polygon>
                    <polygon id="Path" fill="#FBDCE4" fill-rule="nonzero" points="144.398773 128.834356 153.754601 123.312883 169.245399 136.503067 166.177914 138.190184"></polygon>
                    <polygon id="Path" fill="#FBDCE4" fill-rule="nonzero" points="99.9202454 182.822086 111.576687 176.07362 116.944785 185.582822 108.815951 190.337423"></polygon>
                    <rect id="Rectangle" fill="#FBDCE4" fill-rule="nonzero" transform="translate(122.474540, 176.144632) rotate(-30.000728) translate(-122.474540, -176.144632) " x="116.186335" y="170.699966" width="12.5764104" height="10.889331"></rect>
                    <polygon id="Path" fill="#FBDCE4" fill-rule="nonzero" points="127.98773 166.717791 139.644172 159.815951 145.01227 169.478528 133.355828 176.07362"></polygon>
                    <polygon id="Path" fill="#FBDCE4" fill-rule="nonzero" points="147.619632 167.944785 142.404908 158.282209 166.177914 144.631902 178.141104 144.018405 182.588957 147.699387"></polygon>
                    <polygon id="Path" fill="#FBDCE4" fill-rule="nonzero" points="171.546012 138.343558 166.177914 141.411043 174.766871 141.104294"></polygon>
                    <path d="M160.96319,173.006135 C157.895706,172.08589 153.601227,172.546012 151.453988,173.773006 C149.153374,175.153374 149.766871,176.840491 152.834356,177.760736 C155.90184,178.680982 160.196319,178.220859 162.343558,176.993865 C164.490798,175.766871 163.877301,173.92638 160.96319,173.006135" id="Path" fill="#F5A8BC" fill-rule="nonzero"></path>
                    <polygon id="Path" fill="#F5A8BC" fill-rule="nonzero" points="116.944785 185.582822 127.98773 188.803681 119.245399 193.711656 108.815951 190.337423"></polygon>
                    <polygon id="Path" fill="#F5A8BC" fill-rule="nonzero" points="119.705521 184.04908 130.595092 187.116564 141.638037 180.828221 130.595092 177.760736"></polygon>
                    <path d="M133.355828,176.07362 L144.245399,179.294479 L147.92638,177.147239 C147.92638,177.147239 146.239264,173.312883 151.300613,171.625767 L144.858896,169.325153 L133.355828,176.07362 Z" id="Path" fill="#F5A8BC" fill-rule="nonzero"></path>
                    <path d="M147.619632,167.944785 L154.368098,170.398773 C154.368098,170.398773 156.515337,170.092025 159.889571,170.398773 L179.981595,158.895706 L169.092025,155.674847 L147.619632,167.944785 Z" id="Path" fill="#F5A8BC" fill-rule="nonzero"></path>
                    <polygon id="Path" fill="#F5A8BC" fill-rule="nonzero" points="171.699387 153.98773 182.588957 157.208589 193.018405 151.226994 182.588957 147.699387"></polygon>
                    <polygon id="Path" fill="#F5A8BC" fill-rule="nonzero" points="199.920245 153.527607 182.588957 163.496933 196.239264 168.251534 213.877301 157.97546"></polygon>
                    <path d="M179.828221,165.030675 L165.411043,173.312883 C165.411043,173.312883 167.251534,176.07362 164.95092,178.220859 L174.306748,180.828221 L193.478528,169.785276 L180.134969,165.184049" id="Path" fill="#F5A8BC" fill-rule="nonzero"></path>
                    <path d="M171.699387,182.361963 L162.03681,179.907975 C162.03681,179.907975 157.282209,181.748466 153.447853,180.368098 L139.030675,188.650307 L136.269939,199.233129 L140.257669,200.613497 L171.699387,182.361963 Z" id="Path" fill="#F5A8BC" fill-rule="nonzero"></path>
                    <polygon id="Path" fill="#F5A8BC" fill-rule="nonzero" points="136.116564 190.337423 133.815951 198.619632 126.147239 196.01227"></polygon>
                    <path d="M174.766871,65.797546 C174.766871,65.797546 174.766871,65.797546 174.766871,65.797546 L170.01227,63.0368098 C168.93865,62.2699387 167.711656,61.9631902 166.331288,61.9631902 C164.644172,61.9631902 162.957055,62.4233129 160.96319,63.6503067 C154.06135,67.6380368 148.386503,77.7607362 148.386503,86.3496933 L148.386503,88.3435583 C148.386503,96.9325153 159.889571,106.134969 159.889571,106.134969 L164.490798,108.742331 C164.490798,108.742331 164.490798,108.742331 164.490798,108.742331 C164.337423,108.588957 161.730061,105.521472 162.03681,104.907975 C165.104294,98.6196319 173.386503,80.8282209 173.386503,73.9263804 L173.386503,71.9325153 C173.386503,70.398773 173.233129,69.0184049 172.92638,67.791411 L173.386503,68.0981595 L174.766871,65.797546 Z M166.177914,88.3435583 C163.110429,90.1840491 160.503067,89.1104294 160.042945,86.0429448 C157.128834,87.1165644 154.981595,85.4294479 154.981595,81.9018405 C156.822086,81.595092 161.576687,73.6196319 161.269939,71.0122699 C164.337423,69.1717791 166.944785,70.2453988 167.404908,73.3128834 C170.319018,72.2392638 172.466258,73.9263804 172.466258,77.4539877 C172.466258,81.4417178 169.552147,86.196319 166.177914,88.3435583" id="Shape" fill="#409BAA" fill-rule="nonzero"></path>
                    <path d="M174.766871,65.797546 C174.766871,65.797546 174.766871,65.797546 174.766871,65.797546 C172.312883,64.4171779 169.398773,64.5705521 166.02454,66.5644172 C161.116564,69.4785276 156.822086,75.4601227 154.674847,81.7484663 C153.907975,84.202454 153.447853,86.809816 153.447853,89.2638037 L153.447853,91.2576687 C153.447853,97.8527607 160.809816,105.368098 164.337423,108.588957 C164.490798,108.588957 164.490798,108.742331 164.644172,108.742331 C164.644172,108.742331 164.644172,108.742331 164.644172,108.742331 C165.411043,109.202454 166.638037,108.895706 167.09816,107.97546 C170.01227,101.993865 178.601227,83.7423313 178.601227,76.6871166 L178.601227,74.6932515 C178.754601,70.398773 177.220859,67.3312883 174.766871,65.797546 M160.042945,85.8895706 C160.042945,85.4294479 159.889571,85.1226994 159.889571,84.6625767 C159.889571,80.6748466 162.650307,75.7668712 166.177914,73.7730061 C166.638037,73.6196319 166.944785,73.3128834 167.251534,73.1595092 C170.165644,72.0858896 172.312883,73.7730061 172.312883,77.3006135 C172.312883,81.2883436 169.552147,86.196319 166.02454,88.190184 C163.110429,90.0306748 160.503067,88.9570552 160.042945,85.8895706" id="Shape" fill="#7FBCC6" fill-rule="nonzero"></path>
                    <path d="M168.171779,71.6257669 C167.711656,71.7791411 167.251534,71.9325153 166.791411,72.2392638 C162.650307,74.6932515 159.276074,80.5214724 159.276074,85.4294479 C159.276074,86.0429448 159.276074,86.5030675 159.429448,86.9631902 C160.042945,90.6441718 163.110429,92.0245399 166.944785,89.8773006 C171.08589,87.4233129 174.460123,81.595092 174.460123,76.6871166 C174.460123,72.392638 171.699387,70.398773 168.171779,71.6257669" id="Path" fill="#FFF6D2" fill-rule="nonzero"></path>
                    <path d="M167.404908,73.4662577 L168.631902,76.2269939 C168.785276,76.3803681 168.93865,76.5337423 169.092025,76.3803681 L172.006135,75.3067485 C172.466258,75.1533742 172.619632,75.7668712 172.312883,76.3803681 L170.319018,80.2147239 C170.165644,80.5214724 170.165644,80.6748466 170.165644,80.9815951 L170.625767,84.5092025 C170.625767,85.1226994 170.165644,85.7361963 169.858896,85.7361963 L167.251534,85.4294479 C167.09816,85.4294479 166.944785,85.5828221 166.791411,85.7361963 L164.184049,88.9570552 C163.723926,89.4171779 163.263804,89.2638037 163.417178,88.6503067 L163.877301,84.6625767 C163.877301,84.3558282 163.877301,84.202454 163.723926,84.0490798 L161.730061,82.5153374 C161.423313,82.208589 161.576687,81.4417178 162.03681,81.1349693 L164.95092,78.9877301 C165.104294,78.8343558 165.257669,78.6809816 165.411043,78.3742331 L166.638037,74.2331288 C166.638037,73.4662577 167.09816,73.1595092 167.404908,73.4662577" id="Path" fill="#F5A8BC" fill-rule="nonzero"></path>
                    <path d="M204.06135,82.6687117 C204.06135,82.6687117 204.06135,82.6687117 204.06135,82.6687117 L199.306748,79.9079755 C198.233129,79.1411043 197.006135,78.8343558 195.625767,78.8343558 C193.93865,78.8343558 192.251534,79.2944785 190.257669,80.5214724 C183.355828,84.5092025 177.680982,94.6319018 177.680982,103.220859 L177.680982,105.214724 C177.680982,113.803681 189.184049,123.006135 189.184049,123.006135 L193.785276,125.613497 C193.785276,125.613497 193.785276,125.613497 193.785276,125.613497 C193.631902,125.460123 191.02454,122.392638 191.331288,121.779141 C194.398773,115.490798 202.680982,97.6993865 202.680982,90.797546 L202.680982,88.803681 C202.680982,87.2699387 202.527607,85.8895706 202.220859,84.6625767 L202.680982,84.9693252 L204.06135,82.6687117 Z M195.472393,105.214724 C192.404908,107.055215 189.797546,105.981595 189.337423,102.91411 C186.423313,103.98773 184.276074,102.300613 184.276074,98.7730061 C186.116564,98.4662577 190.871166,90.4907975 190.564417,87.8834356 C193.631902,86.0429448 196.239264,87.1165644 196.699387,90.1840491 C199.613497,89.1104294 201.760736,90.797546 201.760736,94.3251534 C201.760736,98.3128834 198.846626,103.067485 195.472393,105.214724" id="Shape" fill="#409BAA" fill-rule="nonzero"></path>
                    <path d="M204.06135,82.6687117 C204.06135,82.6687117 204.06135,82.6687117 204.06135,82.6687117 C201.607362,81.2883436 198.693252,81.4417178 195.319018,83.4355828 C190.411043,86.3496933 186.116564,92.3312883 183.969325,98.6196319 C183.202454,101.07362 182.742331,103.680982 182.742331,106.134969 L182.742331,108.128834 C182.742331,114.723926 190.104294,122.239264 193.631902,125.460123 C193.785276,125.460123 193.785276,125.613497 193.93865,125.613497 C193.93865,125.613497 193.93865,125.613497 193.93865,125.613497 C194.705521,126.07362 195.932515,125.766871 196.392638,124.846626 C199.306748,118.865031 207.895706,100.613497 207.895706,93.5582822 L207.895706,91.5644172 C208.04908,87.2699387 206.515337,84.202454 204.06135,82.6687117 M189.337423,102.760736 C189.337423,102.300613 189.184049,101.993865 189.184049,101.533742 C189.184049,97.5460123 191.944785,92.6380368 195.472393,90.6441718 C195.932515,90.4907975 196.239264,90.1840491 196.546012,90.0306748 C199.460123,88.9570552 201.607362,90.6441718 201.607362,94.1717791 C201.607362,98.1595092 198.846626,103.067485 195.319018,105.06135 C192.404908,106.90184 189.797546,105.828221 189.337423,102.760736" id="Shape" fill="#7FBCC6" fill-rule="nonzero"></path>
                    <path d="M197.466258,88.4969325 C197.006135,88.6503067 196.546012,88.803681 196.08589,89.1104294 C191.944785,91.5644172 188.570552,97.392638 188.570552,102.300613 C188.570552,102.91411 188.570552,103.374233 188.723926,103.834356 C189.337423,107.515337 192.404908,108.895706 196.239264,106.748466 C200.380368,104.294479 203.754601,98.4662577 203.754601,93.5582822 C203.754601,89.2638037 200.993865,87.2699387 197.466258,88.4969325" id="Path" fill="#FFF6D2" fill-rule="nonzero"></path>
                    <polygon id="Path" fill="#F5A8BC" fill-rule="nonzero" points="202.374233 93.404908 196.392638 91.8711656 190.411043 100.306748 192.09816 99.3865031 192.09816 104.447853 195.472393 102.453988 195.472393 99.6932515 197.312883 98.6196319 197.312883 101.380368 200.840491 99.3865031 200.840491 94.3251534"></polygon>
                    <path d="M233.355828,99.3865031 C233.355828,99.3865031 233.355828,99.3865031 233.355828,99.3865031 L228.601227,96.6257669 C227.527607,95.8588957 226.300613,95.5521472 224.920245,95.5521472 C223.233129,95.5521472 221.546012,96.0122699 219.552147,97.2392638 C212.650307,101.226994 206.97546,111.349693 206.97546,119.93865 L206.97546,121.932515 C206.97546,130.521472 218.478528,139.723926 218.478528,139.723926 L223.079755,142.331288 C223.079755,142.331288 223.079755,142.331288 223.079755,142.331288 C222.92638,142.177914 220.319018,139.110429 220.625767,138.496933 C223.693252,132.208589 231.97546,114.417178 231.97546,107.515337 L231.97546,105.521472 C231.97546,103.98773 231.822086,102.607362 231.515337,101.380368 L231.97546,101.687117 L233.355828,99.3865031 Z M224.766871,121.932515 C221.699387,123.773006 219.092025,122.699387 218.631902,119.631902 C215.717791,120.705521 213.570552,119.018405 213.570552,115.490798 C215.411043,115.184049 220.165644,107.208589 219.858896,104.601227 C222.92638,102.760736 225.533742,103.834356 225.993865,106.90184 C228.907975,105.828221 231.055215,107.515337 231.055215,111.042945 C231.055215,115.030675 228.141104,119.93865 224.766871,121.932515" id="Shape" fill="#409BAA" fill-rule="nonzero"></path>
                    <path d="M233.355828,99.3865031 C233.355828,99.3865031 233.355828,99.3865031 233.355828,99.3865031 C230.90184,98.006135 227.98773,98.1595092 224.613497,100.153374 C219.705521,103.067485 215.411043,109.04908 213.263804,115.337423 C212.496933,117.791411 212.03681,120.398773 212.03681,122.852761 L212.03681,124.846626 C212.03681,131.441718 219.398773,138.957055 222.92638,142.177914 C223.079755,142.177914 223.079755,142.331288 223.233129,142.331288 C223.233129,142.331288 223.233129,142.331288 223.233129,142.331288 C224,142.791411 225.226994,142.484663 225.687117,141.564417 C228.601227,135.582822 237.190184,117.331288 237.190184,110.276074 L237.190184,108.282209 C237.190184,103.98773 235.809816,100.920245 233.355828,99.3865031 M218.631902,119.478528 C218.631902,119.018405 218.478528,118.711656 218.478528,118.251534 C218.478528,114.263804 221.239264,109.355828 224.766871,107.361963 C225.226994,107.208589 225.533742,106.90184 225.840491,106.748466 C228.754601,105.674847 230.90184,107.361963 230.90184,110.889571 C230.90184,114.877301 228.141104,119.785276 224.613497,121.779141 C221.699387,123.619632 219.092025,122.546012 218.631902,119.478528" id="Shape" fill="#7FBCC6" fill-rule="nonzero"></path>
                    <path d="M226.760736,105.214724 C226.300613,105.368098 225.840491,105.521472 225.380368,105.828221 C221.239264,108.282209 217.865031,114.110429 217.865031,119.018405 C217.865031,119.631902 217.865031,120.092025 218.018405,120.552147 C218.631902,124.233129 221.699387,125.613497 225.533742,123.466258 C229.674847,121.01227 233.04908,115.184049 233.04908,110.276074 C233.04908,105.981595 230.288344,103.98773 226.760736,105.214724" id="Path" fill="#FFF6D2" fill-rule="nonzero"></path>
                    <path d="M225.380368,109.04908 C226.760736,108.282209 227.98773,108.895706 227.98773,110.582822 C227.98773,112.269939 226.760736,114.263804 225.380368,115.030675 C224,115.797546 222.773006,115.184049 222.773006,113.496933 C222.773006,111.96319 223.846626,109.815951 225.380368,109.04908" id="Path" fill="#F5A8BC" fill-rule="nonzero"></path>
                    <path d="M220.319018,124.079755 C221.699387,124.693252 223.386503,124.539877 225.380368,123.312883 C227.374233,122.239264 229.06135,120.398773 230.441718,118.251534 L230.441718,117.791411 C230.441718,115.030675 228.601227,113.957055 226.147239,115.337423 L224.613497,116.257669 C222.312883,117.638037 220.319018,120.858896 220.319018,123.619632 L220.319018,124.079755 Z" id="Path" fill="#F5A8BC" fill-rule="nonzero"></path>
                </g>
                <g id="Group" transform="translate(55.214724, 80.754601)" fill-rule="nonzero">
                    <path d="M30.8282209,20.4723926 C32.5153374,18.1717791 33.5889571,15.2576687 33.2822086,12.0368098 C32.8220859,5.74846626 27.7607362,0.533742331 21.3190184,0.226993865 C13.9570552,-0.233128834 7.82208589,5.59509202 7.82208589,12.9570552 C7.82208589,15.8711656 8.74233129,18.4785276 10.2760736,20.6257669 L19.0184049,34.1226994 C19.6319018,35.196319 21.1656442,35.196319 21.9325153,34.1226994 L30.8282209,20.4723926 Z M20.7055215,4.67484663 C25.3067485,4.67484663 28.9877301,8.35582822 28.9877301,12.9570552 C28.9877301,17.5582822 25.3067485,21.2392638 20.7055215,21.2392638 C16.1042945,21.2392638 12.4233129,17.5582822 12.4233129,12.9570552 C12.4233129,8.35582822 16.1042945,4.67484663 20.7055215,4.67484663" id="Shape" fill="#7FBCC6"></path>
                    <path d="M31.595092,12.9570552 C31.595092,18.9386503 26.8404908,23.6932515 20.8588957,23.6932515 C14.8773006,23.6932515 10.1226994,18.9386503 10.1226994,12.9570552 C10.1226994,6.97546012 14.8773006,2.2208589 20.8588957,2.2208589 C26.6871166,2.2208589 31.595092,6.97546012 31.595092,12.9570552" id="Path" fill="#FFFFFF"></path>
                    <path d="M27.1472393,7.89570552 C26.5337423,7.28220859 25.6134969,6.82208589 24.6932515,6.82208589 C23.7730061,6.82208589 22.8527607,7.12883436 22.2392638,7.89570552 L21.0122699,9.12269939 C21.3190184,9.42944785 23.006135,10.9631902 23.7730061,11.7300613 C23.9263804,11.8834356 24.8466258,12.803681 24.6932515,14.1840491 C24.6932515,14.6441718 24.6932515,15.1042945 24.3865031,15.7177914 L27.1472393,12.9570552 C28.5276074,11.4233129 28.5276074,9.27607362 27.1472393,7.89570552" id="Path" fill="#007F91"></path>
                    <path d="M20.5521472,9.12269939 L20.0920245,8.50920245 L19.4785276,7.89570552 C18.8650307,7.28220859 17.9447853,6.82208589 17.0245399,6.82208589 C16.1042945,6.82208589 15.3374233,7.12883436 14.7239264,7.74233129 C13.3435583,9.12269939 13.3435583,11.2699387 14.7239264,12.6503067 L17.4846626,15.4110429 C17.3312883,15.2576687 17.3312883,14.9509202 17.1779141,14.797546 C16.8711656,13.7239264 17.3312883,12.4969325 17.791411,11.7300613 C18.0981595,11.4233129 18.404908,10.9631902 18.8650307,10.809816 C19.0184049,10.6564417 19.1717791,10.6564417 19.3251534,10.5030675 C19.3251534,10.5030675 20.5521472,9.88957055 22.0858896,10.196319 L20.5521472,9.12269939 Z" id="Path" fill="#007F91"></path>
                    <path d="M23.6196319,12.3435583 L23.6196319,12.3435583 C23.1595092,11.7300613 22.0858896,10.9631902 20.8588957,10.9631902 L20.8588957,10.9631902 L20.8588957,10.9631902 C19.6319018,10.9631902 18.5582822,11.7300613 18.0981595,12.3435583 C17.6380368,12.9570552 17.3312883,14.0306748 17.6380368,14.9509202 L17.6380368,14.9509202 C17.9447853,16.0245399 18.5582822,16.4846626 18.5582822,16.4846626 L21.0122699,18.9386503 L23.4662577,16.4846626 C23.4662577,16.4846626 24.0797546,15.8711656 24.3865031,14.9509202 L24.3865031,14.9509202 C24.3865031,14.0306748 24.0797546,12.803681 23.6196319,12.3435583 M20.8588957,15.5644172 C20.0920245,15.5644172 19.4785276,14.9509202 19.4785276,14.1840491 C19.4785276,13.4171779 20.0920245,12.803681 20.8588957,12.803681 C21.6257669,12.803681 22.2392638,13.4171779 22.2392638,14.1840491 C22.0858896,14.9509202 21.6257669,15.5644172 20.8588957,15.5644172" id="Shape" fill="#007F91"></path>
                    <path d="M79.601227,75.5337423 C81.2883436,73.2331288 82.3619632,70.3190184 82.0552147,67.0981595 C81.595092,60.809816 76.5337423,55.595092 70.0920245,55.2883436 C62.8834356,54.6748466 56.7484663,60.6564417 56.7484663,67.8650307 C56.7484663,70.7791411 57.6687117,73.3865031 59.202454,75.5337423 L67.9447853,89.0306748 C68.5582822,90.1042945 70.0920245,90.1042945 70.8588957,89.0306748 L79.601227,75.5337423 Z M69.4785276,59.5828221 C74.0797546,59.5828221 77.7607362,63.2638037 77.7607362,67.8650307 C77.7607362,72.4662577 74.0797546,76.1472393 69.4785276,76.1472393 C64.8773006,76.1472393 61.196319,72.4662577 61.196319,67.8650307 C61.0429448,63.2638037 64.8773006,59.5828221 69.4785276,59.5828221" id="Shape" fill="#7FBCC6"></path>
                    <path d="M80.3680982,67.8650307 C80.3680982,73.8466258 75.6134969,78.601227 69.6319018,78.601227 C63.6503067,78.601227 58.8957055,73.8466258 58.8957055,67.8650307 C58.8957055,61.8834356 63.6503067,57.1288344 69.6319018,57.1288344 C75.4601227,57.1288344 80.3680982,62.0368098 80.3680982,67.8650307" id="Path" fill="#FFFFFF"></path>
                    <path d="M75.9202454,62.803681 C75.3067485,62.190184 74.3865031,61.7300613 73.4662577,61.7300613 C72.5460123,61.7300613 71.6257669,62.0368098 71.0122699,62.803681 L69.7852761,64.0306748 C70.0920245,64.3374233 71.7791411,65.8711656 72.5460123,66.6380368 C72.6993865,66.791411 73.6196319,67.7116564 73.4662577,69.0920245 C73.4662577,69.5521472 73.4662577,70.0122699 73.1595092,70.6257669 L75.9202454,67.8650307 C77.3006135,66.4846626 77.3006135,64.1840491 75.9202454,62.803681" id="Path" fill="#007F91"></path>
                    <path d="M69.3251534,64.1840491 L68.8650307,63.5705521 L68.2515337,62.9570552 C67.6380368,62.3435583 66.7177914,61.8834356 65.797546,61.8834356 C64.8773006,61.8834356 64.1104294,62.190184 63.4969325,62.803681 C62.1165644,64.1840491 62.1165644,66.3312883 63.4969325,67.7116564 L66.2576687,70.4723926 C66.1042945,70.3190184 66.1042945,70.0122699 65.9509202,69.8588957 C65.6441718,68.7852761 66.1042945,67.5582822 66.5644172,66.791411 C66.8711656,66.4846626 67.1779141,66.0245399 67.6380368,65.8711656 C67.791411,65.7177914 67.9447853,65.7177914 68.0981595,65.5644172 C68.0981595,65.5644172 69.3251534,64.9509202 70.8588957,65.2576687 L69.3251534,64.1840491 Z" id="Path" fill="#007F91"></path>
                    <path d="M72.392638,67.2515337 L72.392638,67.2515337 C71.9325153,66.6380368 70.8588957,65.8711656 69.6319018,65.8711656 L69.6319018,65.8711656 L69.6319018,65.8711656 C68.404908,65.8711656 67.3312883,66.6380368 66.8711656,67.2515337 C66.4110429,67.8650307 66.1042945,68.9386503 66.4110429,69.8588957 L66.4110429,69.8588957 C66.7177914,70.9325153 67.3312883,71.392638 67.3312883,71.392638 L69.7852761,73.8466258 L72.2392638,71.392638 C72.2392638,71.392638 72.8527607,70.7791411 73.1595092,69.8588957 L73.1595092,69.8588957 C73.1595092,68.9386503 72.8527607,67.8650307 72.392638,67.2515337 M69.6319018,70.4723926 C68.8650307,70.4723926 68.2515337,69.8588957 68.2515337,69.0920245 C68.2515337,68.3251534 68.8650307,67.7116564 69.6319018,67.7116564 C70.398773,67.7116564 71.0122699,68.3251534 71.0122699,69.0920245 C70.8588957,69.8588957 70.398773,70.4723926 69.6319018,70.4723926" id="Shape" fill="#007F91"></path>
                    <path d="M143.711656,71.6993865 C144.785276,70.1656442 145.552147,68.1717791 145.398773,66.1779141 C145.092025,62.0368098 141.717791,58.6625767 137.576687,58.3558282 C132.668712,58.0490798 128.680982,61.8834356 128.680982,66.791411 C128.680982,68.6319018 129.294479,70.4723926 130.368098,71.8527607 L136.196319,80.7484663 C136.656442,81.3619632 137.576687,81.3619632 138.03681,80.7484663 L143.711656,71.6993865 Z M136.96319,61.1165644 C140.030675,61.1165644 142.484663,63.5705521 142.484663,66.6380368 C142.484663,69.7055215 140.030675,72.1595092 136.96319,72.1595092 C133.895706,72.1595092 131.441718,69.7055215 131.441718,66.6380368 C131.595092,63.5705521 134.04908,61.1165644 136.96319,61.1165644" id="Shape" fill="#7FBCC6"></path>
                    <path d="M144.171779,66.6380368 C144.171779,70.4723926 140.95092,73.6932515 137.116564,73.6932515 C133.282209,73.6932515 130.06135,70.4723926 130.06135,66.6380368 C130.06135,62.803681 133.282209,59.5828221 137.116564,59.5828221 C140.95092,59.5828221 144.171779,62.803681 144.171779,66.6380368" id="Path" fill="#FFFFFF"></path>
                    <path d="M141.257669,63.2638037 C140.797546,62.803681 140.184049,62.6503067 139.570552,62.6503067 C138.957055,62.6503067 138.343558,62.9570552 137.883436,63.2638037 L137.116564,64.0306748 C137.269939,64.1840491 138.496933,65.2576687 138.957055,65.7177914 C138.957055,65.7177914 139.570552,66.4846626 139.570552,67.2515337 C139.570552,67.5582822 139.570552,67.8650307 139.417178,68.3251534 L141.257669,66.4846626 C142.177914,65.7177914 142.177914,64.1840491 141.257669,63.2638037" id="Path" fill="#007F91"></path>
                    <path d="M136.96319,64.1840491 L136.656442,63.8773006 L136.196319,63.4171779 C135.736196,62.9570552 135.122699,62.803681 134.509202,62.803681 C133.895706,62.803681 133.435583,62.9570552 132.97546,63.4171779 C132.055215,64.3374233 132.055215,65.7177914 132.97546,66.6380368 L134.815951,68.4785276 C134.815951,68.3251534 134.662577,68.1717791 134.662577,68.0184049 C134.509202,67.2515337 134.662577,66.4846626 134.969325,66.0245399 C135.122699,65.7177914 135.429448,65.5644172 135.582822,65.4110429 C135.736196,65.4110429 135.736196,65.2576687 135.889571,65.2576687 C135.889571,65.2576687 136.656442,64.797546 137.730061,65.1042945 L136.96319,64.1840491 Z" id="Path" fill="#007F91"></path>
                    <path d="M138.957055,66.1779141 L138.957055,66.1779141 C138.650307,65.7177914 138.03681,65.2576687 137.116564,65.2576687 L137.116564,65.2576687 L137.116564,65.2576687 C136.349693,65.2576687 135.582822,65.7177914 135.276074,66.1779141 C134.969325,66.4846626 134.815951,67.2515337 134.969325,68.0184049 L134.969325,68.0184049 C135.122699,68.6319018 135.582822,69.0920245 135.582822,69.0920245 L137.116564,70.6257669 L138.650307,69.0920245 C138.650307,69.0920245 139.110429,68.6319018 139.263804,68.0184049 L139.263804,68.0184049 C139.417178,67.404908 139.263804,66.6380368 138.957055,66.1779141 M137.116564,68.3251534 C136.656442,68.3251534 136.196319,67.8650307 136.196319,67.404908 C136.196319,66.9447853 136.656442,66.4846626 137.116564,66.4846626 C137.576687,66.4846626 138.03681,66.9447853 138.03681,67.404908 C138.03681,68.0184049 137.576687,68.3251534 137.116564,68.3251534" id="Shape" fill="#007F91"></path>
                    <path d="M14.4171779,54.6748466 C15.4907975,53.1411043 16.1042945,51.3006135 15.9509202,49.3067485 C15.6441718,45.3190184 12.4233129,42.0981595 8.43558282,41.791411 C3.83435583,41.4846626 0,45.1656442 0,49.7668712 C0,51.607362 0.613496933,53.1411043 1.53374233,54.5214724 L7.05521472,62.9570552 C7.51533742,63.5705521 8.43558282,63.5705521 8.89570552,62.9570552 L14.4171779,54.6748466 Z M7.97546012,44.7055215 C10.8895706,44.7055215 13.190184,47.006135 13.190184,49.9202454 C13.190184,52.8343558 10.8895706,55.1349693 7.97546012,55.1349693 C5.06134969,55.1349693 2.7607362,52.8343558 2.7607362,49.9202454 C2.7607362,47.006135 5.06134969,44.7055215 7.97546012,44.7055215" id="Shape" fill="#7FBCC6"></path>
                    <path d="M14.7239264,49.9202454 C14.7239264,53.601227 11.6564417,56.6687117 7.97546012,56.6687117 C4.29447853,56.6687117 1.22699387,53.601227 1.22699387,49.9202454 C1.22699387,46.2392638 4.29447853,43.1717791 7.97546012,43.1717791 C11.809816,43.1717791 14.7239264,46.2392638 14.7239264,49.9202454" id="Path" fill="#FFFFFF"></path>
                    <path d="M11.9631902,46.6993865 C11.5030675,46.2392638 11.0429448,46.0858896 10.4294479,46.0858896 C9.81595092,46.0858896 9.35582822,46.2392638 8.89570552,46.6993865 L8.12883436,47.4662577 C8.28220859,47.6196319 9.35582822,48.6932515 9.81595092,49.1533742 C9.81595092,49.1533742 10.4294479,49.9202454 10.4294479,50.6871166 C10.4294479,50.993865 10.4294479,51.3006135 10.2760736,51.607362 L12.1165644,49.7668712 C12.8834356,49 12.8834356,47.6196319 11.9631902,46.6993865" id="Path" fill="#007F91"></path>
                    <path d="M7.82208589,47.4662577 L7.51533742,47.1595092 L7.05521472,46.6993865 C6.59509202,46.2392638 6.13496933,46.0858896 5.52147239,46.0858896 C4.90797546,46.0858896 4.44785276,46.2392638 3.98773006,46.6993865 C3.06748466,47.6196319 3.06748466,49 3.98773006,49.7668712 L5.82822086,51.607362 C5.82822086,51.4539877 5.67484663,51.3006135 5.67484663,51.1472393 C5.52147239,50.3803681 5.67484663,49.6134969 5.98159509,49.3067485 C6.13496933,49.1533742 6.44171779,48.8466258 6.59509202,48.6932515 C6.74846626,48.6932515 6.74846626,48.5398773 6.90184049,48.5398773 C6.90184049,48.5398773 7.66871166,48.0797546 8.58895706,48.3865031 L7.82208589,47.4662577 Z" id="Path" fill="#007F91"></path>
                    <path d="M9.81595092,49.4601227 L9.81595092,49.4601227 C9.50920245,49 8.89570552,48.5398773 8.12883436,48.5398773 L8.12883436,48.5398773 L8.12883436,48.5398773 C7.36196319,48.5398773 6.74846626,49 6.44171779,49.4601227 C6.13496933,49.7668712 5.98159509,50.5337423 6.13496933,51.1472393 L6.13496933,51.1472393 C6.28834356,51.7607362 6.74846626,52.2208589 6.74846626,52.2208589 L8.28220859,53.7546012 L9.81595092,52.2208589 C9.81595092,52.2208589 10.2760736,51.9141104 10.4294479,51.1472393 L10.4294479,51.1472393 C10.2760736,50.5337423 9.96932515,49.7668712 9.81595092,49.4601227 M7.97546012,51.4539877 C7.51533742,51.4539877 7.20858896,50.993865 7.20858896,50.5337423 C7.20858896,50.0736196 7.51533742,49.6134969 7.97546012,49.6134969 C8.43558282,49.6134969 8.74233129,50.0736196 8.74233129,50.5337423 C8.89570552,51.1472393 8.43558282,51.4539877 7.97546012,51.4539877" id="Shape" fill="#007F91"></path>
                </g>
            </g>
        </g>
    </g>
</svg>