<?xml version="1.0" encoding="UTF-8"?>
<svg width="209px" height="172px" viewBox="0 0 209 172" version="1.1" xmlns="http://www.w3.org/2000/svg" xmlns:xlink="http://www.w3.org/1999/xlink">
    <!-- Generator: sketchtool 58 (101010) - https://sketch.com -->
    <title>FFE56214-AE2A-4AD1-B09F-B7809E9DB8E6</title>
    <desc>Created with sketchtool.</desc>
    <defs>
        <path d="M1.75346518,0.375742539 C0.751485078,0.375742539 0,1.12722762 0,2.12920772 L0,15.7811866 C0,16.7831667 0.751485078,17.5346518 1.75346518,17.5346518 L40.2044517,17.5346518 C41.2064318,17.5346518 41.9579168,16.7831667 41.9579168,15.7811866 L41.9579168,2.00396021 C41.9579168,1.0019801 41.2064318,0.250495026 40.2044517,0.250495026 L1.75346518,0.250495026 L1.75346518,0.375742539 Z" id="path-1"></path>
        <linearGradient x1="100.115247%" y1="49.5261314%" x2="0.109277015%" y2="49.5261314%" id="linearGradient-3">
            <stop stop-color="#EC5279" offset="0%"></stop>
            <stop stop-color="#EC5279" offset="0.942211%"></stop>
            <stop stop-color="#FFFFFF" offset="99.76%"></stop>
            <stop stop-color="#FFFFFF" offset="100%"></stop>
        </linearGradient>
        <rect id="path-4" x="0.125247513" y="0.0400792041" width="8.01584083" height="8.01584083"></rect>
        <path d="M8.14108834,4.04799962 C8.14108834,6.30245485 6.38762316,8.05592003 4.13316793,8.05592003 C1.87871269,8.05592003 0.125247513,6.30245485 0.125247513,4.04799962 C0.125247513,1.79354439 1.87871269,0.0400792041 4.13316793,0.0400792041 C6.26237565,0.0400792041 8.14108834,1.9187919 8.14108834,4.04799962" id="path-6"></path>
        <linearGradient x1="-0.35073%" y1="50.7684613%" x2="99.7517588%" y2="50.7684613%" id="linearGradient-8">
            <stop stop-color="#817EF9" offset="0%"></stop>
            <stop stop-color="#817EF9" offset="0.942211%"></stop>
            <stop stop-color="#E4ABF9" offset="99.76%"></stop>
            <stop stop-color="#E4ABF9" offset="100%"></stop>
        </linearGradient>
        <path d="M24.17277,0 L19.9143546,0 L17.5346518,0 L17.5346518,5.88663311 L13.2762364,5.88663311 L0.125247513,5.88663311 L0.125247513,36.5722738 C0.125247513,36.5722738 7.01386072,41.9579168 21.9183148,42.4589069 C36.8227688,41.9579168 43.711382,36.5722738 43.711382,36.5722738 L43.711382,5.88663311 L30.5603932,5.88663311 L26.3019777,5.88663311 L26.3019777,0 L24.17277,0 Z" id="path-9"></path>
        <linearGradient x1="-0.0301448276%" y1="49.9790838%" x2="100.067556%" y2="49.9790838%" id="linearGradient-11">
            <stop stop-color="#EC5279" offset="0%"></stop>
            <stop stop-color="#EC5279" offset="0.942211%"></stop>
            <stop stop-color="#FFFFFF" offset="99.76%"></stop>
            <stop stop-color="#FFFFFF" offset="100%"></stop>
        </linearGradient>
        <rect id="path-12" x="0.500990052" y="0.500990052" width="1.50297016" height="19.6638595"></rect>
        <rect id="path-14" x="0.751485078" y="0" width="8.01584083" height="8.01584083"></rect>
        <path d="M7.38960326,7.01386072 C5.7613856,8.51683088 3.13118782,8.26633585 1.75346518,6.63811819 C0.250495026,5.00990052 0.500990052,2.37970275 2.12920772,1.0019801 C3.75742539,-0.500990052 6.38762316,-0.250495026 7.7653458,1.37772264 C9.26831596,3.00594031 9.14306844,5.51089057 7.38960326,7.01386072" id="path-16"></path>
        <linearGradient x1="35.1618435%" y1="33.2959832%" x2="64.997759%" y2="67.1537296%" id="linearGradient-18">
            <stop stop-color="#817EF9" offset="0%"></stop>
            <stop stop-color="#817EF9" offset="0.942211%"></stop>
            <stop stop-color="#E4ABF9" offset="99.76%"></stop>
            <stop stop-color="#E4ABF9" offset="100%"></stop>
        </linearGradient>
        <rect id="path-19" x="0" y="0.125247513" width="62.3732614" height="134.766324"></rect>
        <path d="M4.29849464,0 C2.04403941,0 0.165326717,1.87871269 0.165326717,4.13316793 L0.165326717,130.507908 C0.165326717,132.762364 2.04403941,134.641076 4.29849464,134.641076 L121.655414,134.641076 C123.90987,134.641076 125.788582,132.762364 125.788582,130.507908 L125.788582,4.13316793 C125.788582,1.87871269 123.90987,0 121.655414,0 L4.29849464,0 Z" id="path-21"></path>
        <linearGradient x1="12.1713821%" y1="68.0262499%" x2="94.5456966%" y2="28.7991834%" id="linearGradient-23">
            <stop stop-color="#EC5279" offset="0%"></stop>
            <stop stop-color="#EC5279" offset="0.942211%"></stop>
            <stop stop-color="#FFFFFF" offset="99.76%"></stop>
            <stop stop-color="#FFFFFF" offset="100%"></stop>
        </linearGradient>
        <path d="M3.04601951,0.29057423 C1.54304936,0.29057423 0.29057423,1.54304936 0.29057423,3.04601951 L0.29057423,38.4910657 C0.29057423,39.9940358 1.54304936,41.246511 3.04601951,41.246511 L48.2603717,41.246511 C49.7633418,41.246511 51.015817,39.9940358 51.015817,38.4910657 L51.015817,3.04601951 C51.015817,1.54304936 49.7633418,0.29057423 48.2603717,0.29057423 L3.04601951,0.29057423 Z" id="path-24"></path>
        <linearGradient x1="-0.0564619012%" y1="50.1690654%" x2="99.9506986%" y2="50.1690654%" id="linearGradient-26">
            <stop stop-color="#00798E" offset="0%"></stop>
            <stop stop-color="#00798E" offset="0.942211%"></stop>
            <stop stop-color="#7FBCC6" offset="99.76%"></stop>
            <stop stop-color="#7FBCC6" offset="100%"></stop>
        </linearGradient>
        <rect id="path-27" x="0.250495026" y="0.250495026" width="5.26039554" height="23.7970275"></rect>
        <rect id="path-29" x="0" y="0.500990052" width="31.3118782" height="102.577713"></rect>
        <path d="M14.4435432,0 L14.4435432,8.01584083 L7.05393993,8.01584083 C5.17522723,8.01584083 3.79750459,9.51881098 3.79750459,11.2722762 L0.165326717,37.0732638 C0.165326717,38.9519765 1.66829687,40.3296992 3.42176205,40.3296992 L39.7435408,40.3296992 C41.6222535,40.3296992 42.9999761,38.826729 42.9999761,37.0732638 L39.3677983,11.2722762 C39.3677983,9.39356347 37.8648281,8.01584083 36.1113629,8.01584083 L28.7217597,8.01584083 L28.7217597,0 L14.4435432,0 Z" id="path-31"></path>
        <linearGradient x1="0.0144513119%" y1="49.9524217%" x2="100.052352%" y2="49.9524217%" id="linearGradient-33">
            <stop stop-color="#00798E" offset="0%"></stop>
            <stop stop-color="#00798E" offset="0.942211%"></stop>
            <stop stop-color="#7FBCC6" offset="99.76%"></stop>
            <stop stop-color="#7FBCC6" offset="100%"></stop>
        </linearGradient>
        <rect id="path-34" x="0.375742539" y="0.0400792041" width="4.00792041" height="17.0336618"></rect>
        <rect id="path-36" x="0.626237565" y="0" width="1.37772264" height="17.6598993"></rect>
    </defs>
    <g id="Diseño-sin-lo-que-no-va" stroke="none" stroke-width="1" fill="none" fill-rule="evenodd">
        <g id="Tutorial-2" transform="translate(-83.000000, -191.000000)">
            <g id="Untitled-2" transform="translate(83.000000, 191.000000)">
                <g id="Clipped" transform="translate(145.287115, 6.262376)">
                    <mask id="mask-2" fill="white">
                        <use xlink:href="#path-1"></use>
                    </mask>
                    <g id="SVGID_1_"></g>
                    <rect id="Rectangle" fill="url(#linearGradient-3)" fill-rule="nonzero" mask="url(#mask-2)" x="0" y="0.375742539" width="41.9579168" height="17.1589093"></rect>
                </g>
                <g id="Group" transform="translate(22.128731, 0.000000)">
                    <path d="M154.846005,20.1648496 L112.261851,20.1648496 C111.009376,20.1648496 109.882148,21.1668297 109.882148,22.5445523 L109.882148,35.5702937 C109.882148,36.8227688 110.884128,37.9499964 112.261851,37.9499964 L154.846005,37.9499964 C156.09848,37.9499964 157.225708,36.9480163 157.225708,35.5702937 L157.225708,22.4193048 C157.225708,21.1668297 156.223728,20.1648496 154.846005,20.1648496" id="Path" fill="#FFFFFF" fill-rule="nonzero"></path>
                    <path d="M154.846005,20.1648496 L112.261851,20.1648496 C111.009376,20.1648496 109.882148,21.1668297 109.882148,22.5445523 L109.882148,35.5702937 C109.882148,36.8227688 110.884128,37.9499964 112.261851,37.9499964 L154.846005,37.9499964 C156.09848,37.9499964 157.225708,36.9480163 157.225708,35.5702937 L157.225708,22.4193048 C157.225708,21.1668297 156.223728,20.1648496 154.846005,20.1648496" id="Path" fill="#00798E" fill-rule="nonzero"></path>
                    <path d="M122.907889,29.057423 C122.907889,27.9301954 123.784622,27.0534628 124.91185,27.0534628 C126.039077,27.0534628 126.91581,27.9301954 126.91581,29.057423 C126.91581,30.1846506 126.039077,31.0613832 124.91185,31.0613832 C123.784622,31.0613832 122.907889,30.1846506 122.907889,29.057423 M123.408879,29.057423 C123.408879,29.9341556 124.160365,30.5603932 124.91185,30.5603932 C125.788582,30.5603932 126.41482,29.8089081 126.41482,29.057423 C126.41482,28.1806904 125.663335,27.5544528 124.91185,27.5544528 C124.035117,27.4292053 123.408879,28.1806904 123.408879,29.057423" id="Shape" fill="#FFFFFF" fill-rule="nonzero"></path>
                    <path d="M131.299473,29.057423 C131.299473,27.9301954 132.176205,27.0534628 133.303433,27.0534628 C134.430661,27.0534628 135.307393,27.9301954 135.307393,29.057423 C135.307393,30.1846506 134.430661,31.0613832 133.303433,31.0613832 C132.176205,31.0613832 131.299473,30.1846506 131.299473,29.057423 M131.800463,29.057423 C131.800463,29.9341556 132.551948,30.5603932 133.303433,30.5603932 C134.180166,30.5603932 134.806403,29.8089081 134.806403,29.057423 C134.806403,28.1806904 134.054918,27.5544528 133.303433,27.5544528 C132.551948,27.4292053 131.800463,28.1806904 131.800463,29.057423" id="Shape" fill="#FFFFFF" fill-rule="nonzero"></path>
                    <path d="M139.190066,29.057423 C139.190066,27.9301954 140.066799,27.0534628 141.194026,27.0534628 C142.321254,27.0534628 143.197986,27.9301954 143.197986,29.057423 C143.197986,30.1846506 142.321254,31.0613832 141.194026,31.0613832 C140.192046,31.0613832 139.190066,30.1846506 139.190066,29.057423 M139.816304,29.057423 C139.816304,29.9341556 140.567789,30.5603932 141.319274,30.5603932 C142.196006,30.5603932 142.822244,29.8089081 142.822244,29.057423 C142.822244,28.1806904 142.070759,27.5544528 141.319274,27.5544528 C140.442541,27.4292053 139.816304,28.1806904 139.816304,29.057423" id="Shape" fill="#FFFFFF" fill-rule="nonzero"></path>
                    <path d="M182.901448,85.4188038 C182.901448,88.2994966 180.646993,90.5539519 177.7663,90.5539519 C174.885607,90.5539519 172.631152,88.2994966 172.631152,85.4188038 C172.631152,82.538111 174.885607,80.2836558 177.7663,80.2836558 C180.646993,80.2836558 182.901448,82.538111 182.901448,85.4188038" id="Path" fill="#7FBCC6" fill-rule="nonzero"></path>
                    <g id="Clipped" transform="translate(156.975213, 60.955460)">
                        <mask id="mask-5" fill="white">
                            <use xlink:href="#path-4"></use>
                        </mask>
                        <g id="SVGID_4_"></g>
                        <g mask="url(#mask-5)">
                            <mask id="mask-7" fill="white">
                                <use xlink:href="#path-6"></use>
                            </mask>
                            <g id="SVGID_6_"></g>
                            <rect id="Rectangle" fill="url(#linearGradient-8)" fill-rule="nonzero" mask="url(#mask-7)" x="0.125247513" y="0.0400792041" width="8.01584083" height="8.01584083"></rect>
                        </g>
                    </g>
                    <path d="M185.531646,46.2163323 C183.903428,47.5940549 181.398478,47.4688074 180.020755,45.8405897 C178.643033,44.2123721 178.76828,41.7074218 180.396498,40.3296992 C182.024716,38.9519765 184.529666,39.077224 185.907388,40.7054417 C187.285111,42.3336594 187.159864,44.8386096 185.531646,46.2163323" id="Path" fill="#7FBCC6" fill-rule="nonzero"></path>
                    <path d="M6.55294988,6.88861321 C4.92473221,8.26633585 2.41978195,8.14108834 1.04205931,6.51287067 C-0.335663335,4.884653 -0.210415822,2.37970275 1.41780185,1.0019801 C3.04601951,-0.375742539 5.55096977,-0.250495026 6.92869242,1.37772264 C8.30641506,3.00594031 8.18116755,5.51089057 6.55294988,6.88861321" id="Path" fill="#7FBCC6" fill-rule="nonzero"></path>
                    <path d="M180.020755,130.507908 L165.867786,130.507908 L165.867786,126.499988 L147.832144,126.499988 L147.832144,130.507908 L133.679176,130.507908 C131.299473,130.507908 129.42076,132.386621 129.42076,134.766324 L129.42076,167.581172 C129.42076,169.960875 131.299473,171.839588 133.679176,171.839588 L180.020755,171.839588 C182.400458,171.839588 184.279171,169.960875 184.279171,167.581172 L184.279171,134.766324 C184.279171,132.386621 182.400458,130.507908 180.020755,130.507908" id="Path" fill="#D4E4E8" fill-rule="nonzero"></path>
                    <path d="M163.488084,132.386621 L163.488084,126.499988 L156.849965,126.499988 L150.211847,126.499988 L150.211847,132.386621 L132.92769,132.386621 L132.92769,163.072262 C132.92769,163.072262 140.442541,168.958895 156.849965,168.958895 C173.25739,168.958895 180.77224,163.072262 180.77224,163.072262 L180.77224,132.386621 L163.488084,132.386621 L163.488084,132.386621 Z" id="Path" fill="#EC5279" fill-rule="nonzero"></path>
                </g>
                <g id="Clipped" transform="translate(159.064341, 126.499988)">
                    <mask id="mask-10" fill="white">
                        <use xlink:href="#path-9"></use>
                    </mask>
                    <g id="SVGID_9_"></g>
                    <rect id="Rectangle" fill="url(#linearGradient-11)" fill-rule="nonzero" mask="url(#mask-10)" x="0.250495026" y="0" width="43.5861345" height="42.4589069"></rect>
                </g>
                <g id="Group" transform="translate(48.846530, 11.272276)">
                    <path d="M137.772264,87.9237541 L130.257413,87.9237541 L129.881671,87.9237541 L122.36682,87.9237541 L119.987117,117.607415 C121.490088,119.611375 129.130186,119.486127 130.006918,119.486127 C130.883651,119.486127 138.523749,119.611375 140.026719,117.607415 L137.772264,87.9237541 Z" id="Path" fill="#4640AD" fill-rule="nonzero"></path>
                    <path d="M130.132166,119.486127 C131.008899,119.486127 138.648997,119.611375 140.151967,117.607415 L139.776224,113.599494 C139.776224,113.599494 126.875731,114.726722 125.873751,112.848009 C124.87177,110.969296 125.873751,88.0490016 125.873751,88.0490016 L122.36682,88.0490016 L119.987117,117.732662 C121.740583,119.486127 129.380681,119.486127 130.132166,119.486127" id="Path" fill="#2C2664" fill-rule="nonzero"></path>
                    <g id="Clipped" transform="translate(149.044540, 125.247513)">
                        <mask id="mask-13" fill="white">
                            <use xlink:href="#path-12"></use>
                        </mask>
                        <g id="SVGID_12_"></g>
                        <path d="M0.500990052,1.25247513 L0.500990052,19.4133645 C0.500990052,20.4153446 2.00396021,20.4153446 2.00396021,19.4133645 L2.00396021,1.25247513 C2.00396021,0.250495026 0.500990052,0.250495026 0.500990052,1.25247513" id="Path" fill="#FFFFFF" fill-rule="nonzero" mask="url(#mask-13)"></path>
                    </g>
                    <path d="M110.468306,121.114345 L110.468306,151.799986 C110.468306,151.799986 117.35692,157.185629 132.261374,157.686619 C147.165828,157.185629 154.054441,151.799986 154.054441,151.799986 C113.098504,156.434144 113.348999,121.114345 113.348999,121.114345 L110.468306,121.114345 L110.468306,121.114345 Z" id="Path" fill="#F17D9B" fill-rule="nonzero"></path>
                    <g id="Clipped">
                        <mask id="mask-15" fill="white">
                            <use xlink:href="#path-14"></use>
                        </mask>
                        <g id="SVGID_14_"></g>
                        <g mask="url(#mask-15)">
                            <mask id="mask-17" fill="white">
                                <use xlink:href="#path-16"></use>
                            </mask>
                            <g id="SVGID_16_"></g>
                            <polygon id="Path" fill="url(#linearGradient-18)" fill-rule="nonzero" mask="url(#mask-17)" points="5.38564306 -4.884653 13.6519789 4.50891047 4.25841544 12.9004938 -4.13316793 3.50693036"></polygon>
                        </g>
                    </g>
                    <g id="Clipped" transform="translate(43.836630, 25.049503)">
                        <mask id="mask-20" fill="white">
                            <use xlink:href="#path-19"></use>
                        </mask>
                        <g id="SVGID_19_"></g>
                        <path d="M58.2400935,0.125247513 L0,0.125247513 L0,134.891571 L58.2400935,134.891571 C60.4945488,134.891571 62.3732614,133.012859 62.3732614,130.758404 L62.3732614,4.25841544 C62.3732614,2.00396021 60.4945488,0.125247513 58.2400935,0.125247513" id="Path" fill="#C5D9FF" fill-rule="nonzero" mask="url(#mask-20)"></path>
                    </g>
                </g>
                <g id="Clipped" transform="translate(24.633681, 31.311878)">
                    <mask id="mask-22" fill="white">
                        <use xlink:href="#path-21"></use>
                    </mask>
                    <g id="SVGID_21_"></g>
                    <polygon id="Path" fill="url(#linearGradient-23)" fill-rule="nonzero" mask="url(#mask-22)" points="-51.9376387 24.423265 102.868287 -48.596035 177.7663 110.092564 22.9603741 183.237111"></polygon>
                </g>
                <g id="Group" transform="translate(32.148532, 37.574254)">
                    <path d="M7.17918744,3.13118782 C7.17918744,4.63415798 6.05195983,5.7613856 4.54898967,5.7613856 C3.04601951,5.7613856 1.9187919,4.63415798 1.9187919,3.13118782 C1.9187919,1.62821767 3.04601951,0.500990052 4.54898967,0.500990052 C5.92671231,0.500990052 7.17918744,1.62821767 7.17918744,3.13118782 Z" id="Path" stroke="#FFFEFF" stroke-width="0.852935563"></path>
                    <path d="M16.9484935,3.13118782 C16.9484935,4.63415798 15.8212658,5.7613856 14.3182957,5.7613856 C12.8153255,5.7613856 11.6880979,4.63415798 11.6880979,3.13118782 C11.6880979,1.62821767 12.8153255,0.500990052 14.3182957,0.500990052 C15.8212658,0.500990052 16.9484935,1.62821767 16.9484935,3.13118782 Z" id="Path" stroke="#FFFEFF" stroke-width="0.852935563"></path>
                    <path d="M26.7177995,3.13118782 C26.7177995,4.63415798 25.5905718,5.7613856 24.0876017,5.7613856 C22.5846315,5.7613856 21.4574039,4.63415798 21.4574039,3.13118782 C21.4574039,1.62821767 22.5846315,0.500990052 24.0876017,0.500990052 C25.5905718,0.500990052 26.7177995,1.62821767 26.7177995,3.13118782 Z" id="Path" stroke="#FFFEFF" stroke-width="0.852935563"></path>
                    <path d="M108.629673,68.7608846 L2.29453444,68.7608846 C1.04205931,68.7608846 0.165326717,67.7589045 0.165326717,66.6316769 C0.165326717,65.3792018 1.16730682,64.5024692 2.29453444,64.5024692 L108.629673,64.5024692 C109.882148,64.5024692 110.758881,65.5044493 110.758881,66.6316769 C110.758881,67.884152 109.882148,68.7608846 108.629673,68.7608846" id="Path" fill="#FFFEFF" fill-rule="nonzero"></path>
                    <path d="M121.780662,22.0435623 L64.1668058,22.0435623 C63.5405683,22.0435623 63.0395782,21.0415822 63.0395782,19.9143546 C63.0395782,18.7871269 63.5405683,17.7851468 64.1668058,17.7851468 L121.780662,17.7851468 C122.406899,17.7851468 122.907889,18.7871269 122.907889,19.9143546 C122.907889,21.0415822 122.406899,22.0435623 121.780662,22.0435623" id="Path" fill="#FFFEFF" fill-rule="nonzero"></path>
                    <path d="M121.780662,34.9440561 L64.1668058,34.9440561 C63.5405683,34.9440561 63.0395782,33.942076 63.0395782,32.8148484 C63.0395782,31.5623733 63.5405683,30.6856407 64.1668058,30.6856407 L121.780662,30.6856407 C122.406899,30.6856407 122.907889,31.6876208 122.907889,32.8148484 C122.907889,33.942076 122.406899,34.9440561 121.780662,34.9440561" id="Path" fill="#FFFEFF" fill-rule="nonzero"></path>
                    <path d="M121.780662,47.8445499 L64.1668058,47.8445499 C63.5405683,47.8445499 63.0395782,46.8425698 63.0395782,45.7153422 C63.0395782,44.4628671 63.5405683,43.5861345 64.1668058,43.5861345 L121.780662,43.5861345 C122.406899,43.5861345 122.907889,44.5881146 122.907889,45.7153422 C122.907889,46.8425698 122.406899,47.8445499 121.780662,47.8445499" id="Path" fill="#FFFEFF" fill-rule="nonzero"></path>
                    <path d="M108.629673,80.1584083 L2.29453444,80.1584083 C1.04205931,80.1584083 0.165326717,79.1564282 0.165326717,78.0292006 C0.165326717,76.7767254 1.16730682,75.8999928 2.29453444,75.8999928 L108.629673,75.8999928 C109.882148,75.8999928 110.758881,76.9019729 110.758881,78.0292006 C110.758881,79.1564282 109.882148,80.1584083 108.629673,80.1584083" id="Path" fill="#FFFEFF" fill-rule="nonzero"></path>
                    <path d="M39.9940358,91.4306844 L2.29453444,91.4306844 C1.04205931,91.4306844 0.165326717,90.4287043 0.165326717,89.3014767 C0.165326717,88.1742491 1.16730682,87.172269 2.29453444,87.172269 L39.9940358,87.172269 C41.246511,87.172269 42.1232436,88.1742491 42.1232436,89.3014767 C42.1232436,90.4287043 41.1212634,91.4306844 39.9940358,91.4306844" id="Path" fill="#FFFEFF" fill-rule="nonzero"></path>
                    <path d="M26.4673044,114.225732 L1.66829687,114.225732 C0.916811795,114.225732 0.29057423,113.599494 0.29057423,112.848009 C0.29057423,112.096524 0.916811795,111.470287 1.66829687,111.470287 L26.5925519,111.470287 C27.344037,111.470287 27.9702746,112.096524 27.9702746,112.848009 C27.9702746,113.599494 27.344037,114.225732 26.4673044,114.225732" id="Path" fill="#FFFEFF" fill-rule="nonzero"></path>
                    <path d="M69.4272014,114.225732 L37.6143331,114.225732 C36.862848,114.225732 36.2366104,113.599494 36.2366104,112.848009 C36.2366104,112.096524 36.862848,111.470287 37.6143331,111.470287 L69.4272014,111.470287 C70.1786865,111.470287 70.804924,112.096524 70.804924,112.848009 C70.804924,113.599494 70.1786865,114.225732 69.4272014,114.225732" id="Path" fill="#FFFEFF" fill-rule="nonzero"></path>
                    <path d="M82.2024477,114.225732 L80.57423,114.225732 C79.8227449,114.225732 79.1965074,113.599494 79.1965074,112.848009 C79.1965074,112.096524 79.8227449,111.470287 80.57423,111.470287 L82.0772002,111.470287 C82.8286853,111.470287 83.4549228,112.096524 83.4549228,112.848009 C83.5801703,113.599494 82.9539328,114.225732 82.2024477,114.225732" id="Path" fill="#FFFEFF" fill-rule="nonzero"></path>
                </g>
                <g id="Clipped" transform="translate(32.148532, 50.935659)">
                    <mask id="mask-25" fill="white">
                        <use xlink:href="#path-24"></use>
                    </mask>
                    <g id="SVGID_24_"></g>
                    <rect id="Rectangle" fill="url(#linearGradient-26)" fill-rule="nonzero" mask="url(#mask-25)" x="0.29057423" y="0.29057423" width="50.7252427" height="40.9559367"></rect>
                </g>
                <g id="Group" transform="translate(0.000000, 42.584154)">
                    <path d="M57.7391035,29.1826705 C55.9856383,29.1826705 54.6079156,30.6856407 54.6079156,32.3138583 C54.6079156,34.0673235 55.9856383,35.4450462 57.7391035,35.4450462 C59.4925686,35.4450462 60.8702913,33.942076 60.8702913,32.3138583 C60.8702913,30.5603932 59.4925686,29.1826705 57.7391035,29.1826705 M66.6316769,15.2801966 C68.8861321,15.2801966 70.8900923,16.1569292 72.3930625,17.6598993 C75.5242503,20.7910871 75.6494978,25.9262352 72.51831,29.1826705 L72.3930625,29.307918 L65.8801918,35.8207887 C66.3811819,34.4430661 66.5064294,33.1905909 66.5064294,32.1886108 C66.6316769,29.1826705 64.5024692,26.8029678 64.2519741,26.5524727 C62.749004,24.9242551 58.7410836,21.1668297 57.9895985,20.4153446 L57.9895985,20.4153446 L60.7450438,17.6598993 C62.3732614,16.1569292 64.5024692,15.2801966 66.6316769,15.2801966 M48.596035,15.5306916 C50.7252427,15.5306916 52.7292029,16.2821767 54.2321731,17.7851468 L54.3574206,17.9103944 L55.8603908,19.4133645 L57.1128659,20.6658396 L60.1188062,23.6717799 C56.6118758,22.6697998 53.8564306,24.2980175 53.7311831,24.2980175 C53.3554405,24.423265 53.1049455,24.67376 52.7292029,24.7990076 C51.7272228,25.4252451 50.9757378,26.1767302 50.3495002,27.0534628 C49.2222726,28.6816805 48.34554,31.5623733 48.9717776,34.192571 C49.0970251,34.6935611 49.2222726,35.0693036 49.4727676,35.5702937 L49.5980151,35.8207887 L43.0851445,29.307918 C39.8287091,26.0514827 39.8287091,20.9163347 43.0851445,17.6598993 C44.5881146,16.1569292 46.3415798,15.5306916 48.596035,15.5306916 M57.7391035,24.5485125 C60.6197963,24.5485125 62.999499,26.3019777 64.1267266,27.8049479 L64.2519741,27.9301954 L64.3772217,28.0554429 C65.2539542,29.4331655 66.0054393,31.9381158 65.5044493,34.0673235 L65.5044493,34.192571 L65.5044493,34.192571 C64.8782117,36.4470263 63.5004891,37.8247489 63.5004891,37.9499964 L63.5004891,37.9499964 L57.864351,43.5861345 L52.2282129,37.9499964 L52.2282129,37.9499964 C52.1029654,37.8247489 50.8504903,36.5722738 50.2242527,34.3178185 L50.2242527,34.192571 L50.2242527,34.192571 C49.7232626,31.9381158 50.4747477,29.307918 51.4767278,27.9301954 C52.3534604,26.3019777 54.7331632,24.5485125 57.7391035,24.5485125 C57.7391035,24.5485125 57.7391035,24.5485125 57.7391035,24.5485125 C57.7391035,24.5485125 57.7391035,24.5485125 57.7391035,24.5485125" id="Shape" fill="#FFFFFF"></path>
                    <path d="M158.813846,9.76930601 C157.811866,5.00990052 151.799986,-0.751485078 143.157907,0.500990052 C134.515829,1.75346518 130.507908,9.14306844 130.883651,14.0277214 C131.259394,18.9123745 140.903452,31.6876208 140.903452,31.6876208 L147.792065,30.6856407 L154.680678,29.6836606 C154.555431,29.5584131 159.815827,14.5287115 158.813846,9.76930601" id="Path" fill="#6B4C4B" fill-rule="nonzero"></path>
                    <path d="M143.03266,0.500990052 L143.03266,0.500990052 C134.515829,1.87871269 130.382661,9.14306844 130.883651,13.9024739 C130.883651,14.5287115 131.134146,15.1549491 131.384641,15.9064341 C132.261374,16.6579192 133.639096,17.5346518 133.889591,16.6579192 C134.390581,15.1549491 133.012859,11.2722762 133.012859,11.2722762 C133.012859,11.2722762 135.267314,14.5287115 136.269294,13.7772264 C137.396522,12.9004938 137.271274,7.38960326 137.271274,7.38960326 C137.271274,7.38960326 140.402462,11.0217811 141.905432,10.5207911 C143.408402,10.019801 143.658897,4.75940549 143.658897,4.63415798 C143.658897,4.63415798 145.53761,9.6440585 147.04058,9.6440585 C148.668798,9.6440585 150.547511,5.26039554 150.547511,5.26039554 C150.547511,5.26039554 152.050481,10.6460386 153.302956,11.0217811 C154.555431,11.5227712 155.682659,7.7653458 155.682659,7.7653458 C155.682659,7.7653458 155.557411,11.8985137 156.559391,13.1509889 C157.185629,13.9024739 158.062361,12.7752463 158.688599,11.6480187 C158.688599,10.8965336 158.688599,10.1450485 158.563351,9.51881098 C157.686619,5.00990052 151.674738,-0.751485078 143.03266,0.500990052" id="Path" fill="#876060" fill-rule="nonzero"></path>
                    <path d="M168.958895,122.241573 C169.459885,125.37276 167.20543,128.253453 164.199489,128.754443 L160.817807,129.255433 C157.686619,129.756423 154.805926,127.501968 154.304936,124.496028 L144.159887,57.2381134 C143.658897,54.1069256 145.913353,51.2262328 148.919293,50.7252427 L152.300976,50.2242527 C155.432164,49.7232626 158.312856,51.9777179 158.813846,54.9836582 L168.958895,122.241573 Z" id="Path" fill="#465A65" fill-rule="nonzero"></path>
                    <polygon id="Path" fill="#BACED3" fill-rule="nonzero" points="137.772264 27.4292053 144.03464 57.1128659 158.939094 54.8584107 156.183649 24.67376"></polygon>
                    <g id="Clipped" transform="translate(159.064341, 83.915834)">
                        <mask id="mask-28" fill="white">
                            <use xlink:href="#path-27"></use>
                        </mask>
                        <g id="SVGID_27_"></g>
                        <path d="M5.38564306,22.9202949 C4.00792041,13.7772264 3.50693036,10.2702961 2.00396021,1.0019801 C1.87871269,-0.250495026 -0.125247513,0.125247513 0.125247513,1.25247513 C1.50297016,10.3955436 2.00396021,13.9024739 3.50693036,23.1707899 C3.75742539,24.423265 5.63613808,24.0475225 5.38564306,22.9202949" id="Path" fill="#FFFFFF" fill-rule="nonzero" mask="url(#mask-28)"></path>
                    </g>
                    <g id="Clipped" transform="translate(137.772264, 26.301978)">
                        <mask id="mask-30" fill="white">
                            <use xlink:href="#path-29"></use>
                        </mask>
                        <g id="SVGID_29_"></g>
                        <path d="M6.38762316,30.8108882 C6.38762316,30.9361357 6.38762316,30.9361357 6.38762316,31.0613832 L16.5326717,98.3192977 C17.0336618,101.450485 19.9143546,103.579693 23.0455424,103.078703 L26.4272252,102.577713 C29.5584131,102.076723 31.6876208,99.1960303 31.1866307,96.0648424 L30.5603932,92.1821695 C30.5603932,92.1821695 22.0435623,98.3192977 19.538612,90.6791994 C17.0336618,83.0391011 7.89059332,9.51881098 4.63415798,0.500990052 L-2.84217094e-14,1.25247513 L6.38762316,30.8108882 L6.38762316,30.8108882 Z" id="Path" fill="#0C0B0B" fill-rule="nonzero" mask="url(#mask-30)"></path>
                    </g>
                    <path d="M45.8405897,87.9237541 L36.4470263,87.9237541 L36.4470263,83.9158337 L18.4113844,83.9158337 L18.4113844,87.9237541 L8.89257342,87.9237541 C6.51287067,87.9237541 4.63415798,89.8024668 4.63415798,92.1821695 L0,124.997018 C0,127.376721 1.87871269,129.255433 4.25841544,129.255433 L50.5999952,129.255433 C52.979698,129.255433 54.8584107,127.376721 54.8584107,124.997018 L50.0990052,92.1821695 C50.0990052,89.8024668 48.2202925,87.9237541 45.8405897,87.9237541" id="Path" fill="#D4E4E8" fill-rule="nonzero"></path>
                </g>
                <g id="Clipped" transform="translate(5.846554, 126.499988)">
                    <mask id="mask-32" fill="white">
                        <use xlink:href="#path-31"></use>
                    </mask>
                    <g id="SVGID_31_"></g>
                    <rect id="Rectangle" fill="url(#linearGradient-33)" fill-rule="nonzero" mask="url(#mask-32)" x="0.0400792041" y="0" width="42.9598969" height="40.4549467"></rect>
                </g>
                <g id="Group" transform="translate(5.846554, 92.683160)">
                    <path d="M42.9999761,70.8900923 L41.997996,64.0014791 C19.7039387,78.2796956 1.04205931,64.0014791 1.04205931,64.0014791 L0.0400792041,70.8900923 C0.0400792041,72.768805 1.54304936,74.1465277 3.29651454,74.1465277 L39.6182933,74.1465277 C41.497006,74.2717752 42.9999761,72.768805 42.9999761,70.8900923" id="Path" fill="#7FBCC6" fill-rule="nonzero"></path>
                    <g id="Clipped" transform="translate(34.232650, 47.178233)">
                        <mask id="mask-35" fill="white">
                            <use xlink:href="#path-34"></use>
                        </mask>
                        <g id="SVGID_34_"></g>
                        <path d="M0.375742539,1.04205931 C1.25247513,6.17720734 2.00396021,11.3123554 2.8806928,16.5727509 C3.00594031,17.574731 4.50891047,17.1989885 4.38366295,16.1970084 C3.50693036,11.0618603 2.75544528,5.92671231 1.87871269,0.666316769 C1.75346518,-0.460910848 0.125247513,0.0400792041 0.375742539,1.04205931" id="Path" fill="#FFFFFF" fill-rule="nonzero" mask="url(#mask-35)"></path>
                    </g>
                    <path d="M31.477205,33.0653434 C31.477205,34.8188086 30.0994823,36.1965312 28.3460171,36.1965312 L14.8192857,36.1965312 C13.0658206,36.1965312 11.6880979,34.8188086 11.6880979,33.0653434 L11.6880979,5.38564306 C11.6880979,3.63217788 13.0658206,2.25445523 14.8192857,2.25445523 L28.3460171,2.25445523 C30.0994823,2.25445523 31.477205,3.63217788 31.477205,5.38564306 L31.477205,33.0653434 Z" id="Path" fill="#2C2664" fill-rule="nonzero"></path>
                    <path d="M28.3460171,2.12920772 L14.8192857,2.12920772 C14.5687907,2.12920772 14.3182957,2.12920772 14.0678007,2.25445523 C14.0678007,2.50495026 13.9425531,2.75544528 13.9425531,3.00594031 L13.9425531,30.8108882 C13.9425531,32.5643534 15.3202758,33.942076 17.073741,33.942076 L30.6004724,33.942076 C30.8509674,33.942076 31.1014624,33.942076 31.3519574,33.8168285 C31.3519574,33.5663335 31.477205,33.3158384 31.477205,33.0653434 L31.477205,5.38564306 C31.477205,3.63217788 30.0994823,2.12920772 28.3460171,2.12920772" id="Path" fill="#2F2F9B" fill-rule="nonzero"></path>
                    <rect id="Rectangle" fill="#BACED3" fill-rule="nonzero" x="130.297493" y="20.9163347" width="15.5306916" height="22.9202949"></rect>
                    <path d="M147.706897,75.6494978 C147.706897,77.152468 146.454422,78.5301906 144.826204,78.5301906 L131.174225,78.5301906 C129.671255,78.5301906 128.293532,77.2777155 128.293532,75.6494978 L128.293532,48.095045 C128.293532,46.5920748 129.546008,45.2143522 131.174225,45.2143522 L144.826204,45.2143522 C146.329174,45.2143522 147.706897,46.4668273 147.706897,48.095045 L147.706897,75.6494978 Z" id="Path" fill="#7FBCC6" fill-rule="nonzero"></path>
                    <rect id="Rectangle" fill="#409BAA" fill-rule="nonzero" x="128.41878" y="42.0831643" width="19.288117" height="9.14306844"></rect>
                    <path d="M132.802443,20.9163347 L132.802443,7.89059332 C132.802443,7.89059332 135.307393,1.12722762 143.448482,0.626237565 L143.448482,20.9163347 L132.802443,20.9163347 Z" id="Path" fill="#E19ABA" fill-rule="nonzero"></path>
                    <path d="M128.41878,51.2262328 L128.41878,75.6494978 C128.41878,77.152468 129.671255,78.5301906 131.299473,78.5301906 L144.951452,78.5301906 C146.454422,78.5301906 147.832144,77.2777155 147.832144,75.6494978 L147.832144,70.6395973 C147.832144,70.6395973 135.808383,74.5222702 135.808383,67.2579144 C135.808383,59.8683112 134.430661,42.0831643 134.430661,42.0831643 L128.544027,42.0831643 L128.544027,48.095045 L128.544027,51.2262328 L128.41878,51.2262328 Z" id="Path" fill="#00798E" fill-rule="nonzero"></path>
                    <g id="Clipped" transform="translate(141.945511, 22.544552)">
                        <mask id="mask-37" fill="white">
                            <use xlink:href="#path-36"></use>
                        </mask>
                        <g id="SVGID_36_"></g>
                        <path d="M2.12920772,17.0336618 L2.12920772,0.751485078 C2.12920772,-0.125247513 0.751485078,-0.125247513 0.751485078,0.751485078 L0.751485078,17.0336618 C0.626237565,17.9103944 2.12920772,17.9103944 2.12920772,17.0336618" id="Path" fill="#FFFFFF" fill-rule="nonzero" mask="url(#mask-37)"></path>
                    </g>
                    <path d="M135.056898,4.38366295 C133.42868,6.13712813 132.802443,7.89059332 132.802443,7.89059332 L132.802443,20.9163347 L143.448482,20.9163347 L143.448482,18.1608894 C143.323234,18.1608894 134.555908,18.2861369 135.056898,4.38366295" id="Path" fill="#D68AB0" fill-rule="nonzero"></path>
                </g>
            </g>
        </g>
    </g>
</svg>