<svg xmlns="http://www.w3.org/2000/svg" xmlns:xlink="http://www.w3.org/1999/xlink" width="50" height="50" viewBox="0 0 50 50">
  <defs>
    <clipPath id="clip-Mesa_de_trabajo_1">
      <rect width="50" height="50"/>
    </clipPath>
  </defs>
  <g id="Mesa_de_trabajo_1" data-name="Mesa de trabajo – 1" clip-path="url(#clip-Mesa_de_trabajo_1)">
    <g id="Grupo_12599" data-name="Grupo 12599">
      <path id="Trazado_39" data-name="Trazado 39" d="M283.755,100.154v10.177h-5.923V89.88h5.923V98.1h4.836V89.88h5.925v20.451h-5.925V100.154Z" transform="translate(-260.474 -74.872)" fill="#8c8c8b"/>
      <path id="Trazado_40" data-name="Trazado 40" d="M278.612,128.753l7.659-7.656,7.659,7.656" transform="translate(-260.571 -78.753)" fill="#8c8c8b"/>
      <path id="Trazado_41" data-name="Trazado 41" d="M293.931,72.74,286.272,80.4l-7.66-7.658" transform="translate(-260.571 -72.74)" fill="#8c8c8b"/>
      <path id="Trazado_42" data-name="Trazado 42" d="M314.182,107.923l-7.665-7.661,7.665-7.659" transform="translate(-264.04 -75.209)" fill="#8c8c8b"/>
      <path id="Trazado_43" data-name="Trazado 43" d="M258.009,92.6l7.663,7.664-7.663,7.659" transform="translate(-258.009 -75.209)" fill="#8c8c8b"/>
      <rect id="Rectángulo_77" data-name="Rectángulo 77" width="11.092" height="11.092" transform="matrix(0.707, -0.707, 0.707, 0.707, 3.387, 11.685)" fill="#f87f11"/>
      <rect id="Rectángulo_78" data-name="Rectángulo 78" width="11.092" height="11.092" transform="translate(32.284 11.685) rotate(-45.003)" fill="#f87f11"/>
      <rect id="Rectángulo_79" data-name="Rectángulo 79" width="11.092" height="11.092" transform="matrix(0.707, -0.707, 0.707, 0.707, 3.387, 38.392)" fill="#f87f11"/>
      <rect id="Rectángulo_80" data-name="Rectángulo 80" width="11.092" height="11.092" transform="translate(32.284 38.392) rotate(-45.003)" fill="#f87f11"/>
    </g>
  </g>
</svg>
