<svg xmlns="http://www.w3.org/2000/svg" xmlns:xlink="http://www.w3.org/1999/xlink" width="176.684" height="50" viewBox="0 0 176.684 50">
  <defs>
    <clipPath id="clip-path">
      <rect width="176.683" height="50" fill="none"/>
    </clipPath>
  </defs>
  <g id="logo-hausnet" clip-path="url(#clip-path)">
    <g id="Grupo_117" data-name="Grupo 117" transform="translate(62.1 15)">
      <path id="Trazado_32" data-name="Trazado 32" d="M141.2,150.752v9.614h-5.6V141.041h5.6V148.8h4.568v-7.763h5.6v19.325h-5.6v-9.614Z" transform="translate(-135.602 -140.728)" fill="#3f3f3f"/>
      <path id="Trazado_33" data-name="Trazado 33" d="M191.673,141.041l5.377,19.325h-5.632l-1.146-4.181h-5.82l-1.232,4.181h-2.2l5.722-19.325ZM185,154.235h4.744l-2.282-8.571Z" transform="translate(-163.795 -140.728)" fill="#3f3f3f"/>
      <path id="Trazado_34" data-name="Trazado 34" d="M241.452,141.041v12.966q0,6.669-7.382,6.672-7.352,0-7.352-6.672V141.041h5.6v13.135a5.943,5.943,0,0,0,.727,3.478,3.287,3.287,0,0,0,2.712.931q3.815,0,3.818-4.578V141.041Z" transform="translate(-192.157 -140.728)" fill="#3f3f3f"/>
      <path id="Trazado_35" data-name="Trazado 35" d="M284.736,145.932l-2.6.484a6.737,6.737,0,0,0,.161-1.3q0-3.361-4.088-3.36-3.217,0-3.219,2.322c0,1.158,1.2,2.158,3.607,2.986q6.965,2.391,6.969,7.08a5.492,5.492,0,0,1-1.954,4.407,7.75,7.75,0,0,1-5.195,1.667q-7.18,0-7.179-5.574a11.023,11.023,0,0,1,.072-1.121l2.7-.592a8.621,8.621,0,0,0-.319,2.143q0,3.605,4.12,3.6,3.3,0,3.3-2.591,0-1.923-3.952-3.383-5.708-2.094-5.711-6.694a5.206,5.206,0,0,1,1.906-4.2,7.546,7.546,0,0,1,5.008-1.594Q284.739,140.217,284.736,145.932Z" transform="translate(-219.788 -140.217)" fill="#3f3f3f"/>
      <path id="Trazado_36" data-name="Trazado 36" d="M329.425,141.041v19.325h-4.28l-8.071-12.236v12.236H315.2V141.041h3.542l8.808,13.2v-13.2Z" transform="translate(-247.078 -140.728)" fill="#3f3f3f"/>
      <path id="Trazado_37" data-name="Trazado 37" d="M373.712,141.041v1.946h-6.927v5.842H372.6v1.946h-5.815v7.643h8.1v1.947h-13.7V141.041Z" transform="translate(-275.62 -140.728)" fill="#3f3f3f"/>
      <path id="Trazado_38" data-name="Trazado 38" d="M412.391,141.041v1.946h-4.763v17.378h-5.935V142.987h-4.76v-1.946Z" transform="translate(-297.808 -140.728)" fill="#3f3f3f"/>
    </g>
    <g id="Grupo_121" data-name="Grupo 121">
      <path id="Trazado_39" data-name="Trazado 39" d="M283.755,100.154v10.177h-5.923V89.88h5.923V98.1h4.836V89.88h5.925v20.451h-5.925V100.154Z" transform="translate(-260.474 -74.872)" fill="#8c8c8b"/>
      <path id="Trazado_40" data-name="Trazado 40" d="M278.612,128.753l7.659-7.656,7.659,7.656" transform="translate(-260.571 -78.753)" fill="#8c8c8b"/>
      <path id="Trazado_41" data-name="Trazado 41" d="M293.931,72.74,286.272,80.4l-7.66-7.658" transform="translate(-260.571 -72.74)" fill="#8c8c8b"/>
      <path id="Trazado_42" data-name="Trazado 42" d="M314.182,107.923l-7.665-7.661,7.665-7.659" transform="translate(-264.04 -75.209)" fill="#8c8c8b"/>
      <path id="Trazado_43" data-name="Trazado 43" d="M258.009,92.6l7.663,7.664-7.663,7.659" transform="translate(-258.009 -75.209)" fill="#8c8c8b"/>
      <rect id="Rectángulo_77" data-name="Rectángulo 77" width="11.092" height="11.092" transform="matrix(0.707, -0.707, 0.707, 0.707, 3.387, 11.685)" fill="#f87f11"/>
      <rect id="Rectángulo_78" data-name="Rectángulo 78" width="11.092" height="11.092" transform="translate(32.284 11.685) rotate(-45.003)" fill="#f87f11"/>
      <rect id="Rectángulo_79" data-name="Rectángulo 79" width="11.092" height="11.092" transform="matrix(0.707, -0.707, 0.707, 0.707, 3.387, 38.392)" fill="#f87f11"/>
      <rect id="Rectángulo_80" data-name="Rectángulo 80" width="11.092" height="11.092" transform="translate(32.284 38.392) rotate(-45.003)" fill="#f87f11"/>
    </g>
  </g>
</svg>
