<svg xmlns="http://www.w3.org/2000/svg" width="45" height="51" viewBox="0 0 45 51">
    <path fill="#008E8C" fill-opacity=".9" fill-rule="nonzero" d="M44.556 49.008V51H0v-1.992c0-.66.534-1.195 1.193-1.195h1.99v-35.86c0-1.32 1.068-2.39 2.386-2.39h8.753V2.39C14.322 1.07 15.39 0 16.708 0h11.14a2.389 2.389 0 0 1 2.386 2.39v7.173h8.752a2.389 2.389 0 0 1 2.387 2.39v35.86h1.99c.659 0 1.193.535 1.193 1.195zM30.632 19.125h-3.978c-.66 0-1.193.535-1.193 1.195v3.985c0 .66.534 1.195 1.193 1.195h3.978c.66 0 1.194-.535 1.194-1.195V20.32c0-.66-.535-1.195-1.194-1.195zM13.924 25.5h3.978c.659 0 1.193-.535 1.193-1.195V20.32c0-.66-.534-1.195-1.193-1.195h-3.978c-.66 0-1.194.535-1.194 1.195v3.985c0 .66.535 1.195 1.194 1.195zm10.343 12.75H20.29c-.66 0-1.194.535-1.194 1.195v8.368h6.366v-8.368c0-.66-.535-1.195-1.194-1.195zm6.365-9.562h-3.978c-.66 0-1.193.535-1.193 1.195v3.984c0 .66.534 1.196 1.193 1.196h3.978c.66 0 1.194-.536 1.194-1.196v-3.984c0-.66-.535-1.195-1.194-1.195zm-11.537 1.195c0-.66-.534-1.195-1.193-1.195h-3.978c-.66 0-1.194.535-1.194 1.195v3.984c0 .66.535 1.196 1.194 1.196h3.978c.659 0 1.193-.536 1.193-1.196v-3.984zm-.994-20.32h2.586v2.59c0 .33.267.597.596.597h1.99c.33 0 .596-.268.596-.598v-2.59h2.586c.33 0 .597-.267.597-.597V6.973a.597.597 0 0 0-.597-.598H23.87v-2.59a.597.597 0 0 0-.596-.597h-1.99a.597.597 0 0 0-.596.597v2.59H18.1a.597.597 0 0 0-.597.598v1.992c0 .33.267.598.597.598z"/>
</svg>
