<svg xmlns="http://www.w3.org/2000/svg" width="45" height="51" viewBox="0 0 45 51">
    <path fill="#008E8C" fill-opacity=".9" fill-rule="nonzero" d="M22.212 25.5c7.01 0 12.692-5.708 12.692-12.75S29.222 0 22.212 0C15.2 0 9.519 5.708 9.519 12.75S15.201 25.5 22.212 25.5zm-11.9 16.734a2.38 2.38 0 1 0 4.76 0 2.38 2.38 0 1 0-4.76 0zm21.419-13.487v4.881c3.62.737 6.346 3.965 6.346 7.81v4.153c0 .757-.536 1.415-1.28 1.564l-3.192.638a.79.79 0 0 1-.932-.628l-.308-1.564a.788.788 0 0 1 .625-.936l1.914-.389v-2.839c0-6.255-9.52-6.484-9.52.19v2.66l1.914.388c.427.09.704.508.625.936l-.307 1.564a.805.805 0 0 1-.932.628l-3.094-.419A1.59 1.59 0 0 1 22.22 45.8v-4.362a7.98 7.98 0 0 1 6.347-7.81v-4.502c-.219.07-.437.11-.655.189a17.125 17.125 0 0 1-5.692.976c-1.993 0-3.906-.348-5.691-.976a10.917 10.917 0 0 0-2.241-.518v8.128a5.555 5.555 0 0 1 3.966 5.32c0 3.077-2.489 5.577-5.553 5.577s-5.553-2.5-5.553-5.578a5.555 5.555 0 0 1 3.967-5.319v-8.008C4.809 29.982 0 35.44 0 42.075v4.462C0 48.998 1.993 51 4.442 51h35.539c2.449 0 4.442-2.002 4.442-4.462v-4.463c0-7.172-5.632-12.98-12.692-13.328z"/>
</svg>
