<svg xmlns="http://www.w3.org/2000/svg" width="38" height="51" viewBox="0 0 38 51">
    <path fill="#008E8C" fill-opacity=".9" fill-rule="nonzero" d="M9.632 50.499c-12.852-12.937-12.833-33.893 0-46.81a1.693 1.693 0 0 1 2.104-.241l6.414 4.035c.698.44.984 1.318.678 2.088l-3.207 8.07a1.7 1.7 0 0 1-1.749 1.068l-5.522-.556a26.623 26.623 0 0 0 0 17.881l5.523-.556a1.7 1.7 0 0 1 1.748 1.068l3.207 8.07c.306.77.02 1.65-.678 2.088l-6.414 4.036a1.693 1.693 0 0 1-2.104-.241zM24.455 9.51a6.416 6.416 0 0 1 0 6.48 1.188 1.188 0 0 1-1.852.257l-.591-.57a1.21 1.21 0 0 1-.224-1.436c.49-.933.49-2.05 0-2.982a1.21 1.21 0 0 1 .224-1.436l.59-.57a1.188 1.188 0 0 1 1.853.257zM33.538.427c5.952 7.132 5.947 17.52 0 24.646-.442.53-1.24.572-1.737.093l-.573-.554a1.203 1.203 0 0 1-.092-1.631c4.917-5.93 4.912-14.536 0-20.462-.4-.483-.36-1.196.092-1.631L31.8.334a1.187 1.187 0 0 1 1.737.093zM28.99 4.903a12.835 12.835 0 0 1 0 15.694 1.188 1.188 0 0 1-1.767.13l-.576-.556a1.2 1.2 0 0 1-.127-1.587 9.625 9.625 0 0 0 0-11.668 1.2 1.2 0 0 1 .127-1.587l.576-.555a1.188 1.188 0 0 1 1.767.13z"/>
</svg>
