<?xml version="1.0" encoding="utf-8"?>
<!-- Generator: Adobe Illustrator 16.0.0, SVG Export Plug-In . SVG Version: 6.00 Build 0)  -->
<!DOCTYPE svg PUBLIC "-//W3C//DTD SVG 1.1//EN" "http://www.w3.org/Graphics/SVG/1.1/DTD/svg11.dtd">
<svg version="1.1" id="Layer_1" xmlns="http://www.w3.org/2000/svg" xmlns:xlink="http://www.w3.org/1999/xlink" x="0px" y="0px"
	 width="23px" height="19px" viewBox="0 0 23 19" enable-background="new 0 0 23 19" xml:space="preserve">
<rect x="-985.692" y="113.934" fill="#191919" width="87.681" height="87.682"/>
<rect x="-680.33" y="113.934" fill="#BDBDBD" width="87.682" height="87.682"/>
<rect x="-578.433" y="113.934" fill="#D8D8D8" width="87.682" height="87.682"/>
<rect x="-780.809" y="113.934" fill="#59595A" width="87.682" height="87.682"/>
<rect x="-373.809" y="113.934" fill="#F8F8F8" width="87.682" height="87.682"/>
<rect x="-882.794" y="113.934" fill="#363636" width="87.682" height="87.682"/>
<rect x="-1076.272" y="-103.863" fill="#008E8C" width="87.681" height="87.681"/>
<rect x="-970.475" y="-103.863" fill="#26BAA8" width="87.681" height="87.681"/>
<rect x="-1083.475" y="113.934" width="87.681" height="87.682"/>
<rect x="-473.216" y="113.934" fill="#E2E2E2" width="87.681" height="87.682"/>
<rect x="-849.46" y="-233.211" opacity="0.42" fill="#E2E2E2" width="57.247" height="87.681"/>
<rect x="-534.592" y="-233.211" opacity="0.47" fill="#59595A" width="57.247" height="87.681"/>
<rect x="-955.258" y="-233.211" opacity="0.5" width="57.247" height="87.681"/>
<rect x="-1061.055" y="-233.211" opacity="0.5" fill="#191919" width="57.247" height="87.681"/>
<rect x="-1061.055" y="-47.194" opacity="0.9" fill="#008E8C" width="57.247" height="87.681"/>
<rect x="-1126.055" y="-47.194" opacity="0.8" fill="#008E8C" width="57.247" height="87.681"/>
<rect x="-1061.18" y="-508.099" opacity="0.8" fill="#FFFFFF" width="57.247" height="87.681"/>
<rect x="-999.223" y="-508.099" opacity="0.7" fill="#FFFFFF" width="57.247" height="87.681"/>
<rect x="-272.057" y="113.934" fill="#FFFFFF" width="87.682" height="87.682"/>
<g>
	<rect opacity="0.8" fill="#008E8C" width="23" height="3"/>
	<rect y="8" opacity="0.8" fill="#008E8C" width="23" height="3"/>
	<rect y="16" opacity="0.8" fill="#008E8C" width="23" height="3"/>
</g>
</svg>
