<svg xmlns="http://www.w3.org/2000/svg" width="31" height="50" viewBox="0 0 31 50">
    <path fill="#008E8C" fill-opacity=".9" fill-rule="nonzero" d="M26.35 0H4.65C2.083 0 0 2.1 0 4.688v40.624C0 47.9 2.083 50 4.65 50h21.7c2.567 0 4.65-2.1 4.65-4.688V4.688C31 2.1 28.917 0 26.35 0zM15.5 46.875c-1.715 0-3.1-1.396-3.1-3.125s1.385-3.125 3.1-3.125 3.1 1.396 3.1 3.125-1.385 3.125-3.1 3.125zm10.85-10.547a1.17 1.17 0 0 1-1.163 1.172H5.813a1.17 1.17 0 0 1-1.162-1.172V5.86a1.17 1.17 0 0 1 1.162-1.171h19.375c.64 0 1.163.527 1.163 1.171v30.47z"/>
</svg>
