<svg xmlns="http://www.w3.org/2000/svg" width="56" height="52" viewBox="0 0 56 52">
    <path fill="#008E8C" fill-opacity=".9" fill-rule="nonzero" d="M26.163 14.655l5.078 1.453a.86.86 0 0 1 .62.822.858.858 0 0 1-.854.854h-3.331c-.366 0-.721-.082-1.046-.224-.488-.223-1.057-.172-1.432.203l-1.778 1.778c-.538.538-.477 1.452.153 1.868a7.421 7.421 0 0 0 3.23 1.168v1.798A1.63 1.63 0 0 0 28.426 26h1.625a1.63 1.63 0 0 0 1.625-1.625v-1.788c3.078-.365 5.414-3.148 5.007-6.398-.294-2.336-2.102-4.194-4.357-4.844L27.25 9.892a.86.86 0 0 1-.62-.822c0-.468.387-.854.854-.854h3.331c.366 0 .721.082 1.046.224.488.223 1.056.173 1.432-.203l1.778-1.778c.538-.538.477-1.452-.153-1.868a7.421 7.421 0 0 0-3.23-1.168V1.625A1.63 1.63 0 0 0 30.063 0h-1.625a1.63 1.63 0 0 0-1.625 1.625v1.788c-3.077.365-5.413 3.148-5.007 6.398.295 2.336 2.103 4.194 4.358 4.844zm28.061 18.668c-1.137-1.087-2.894-1.016-4.093 0l-8.856 7.505a5.907 5.907 0 0 1-3.84 1.422H26.092c-.843 0-1.533-.731-1.533-1.625S25.248 39 26.09 39h7.506c1.533 0 2.945-1.107 3.189-2.702.315-2.03-1.168-3.798-3.027-3.798H18.413c-2.59 0-5.098.945-7.099 2.671L6.855 39H1.534C.69 39 0 39.731 0 40.625v9.75C0 51.269.69 52 1.534 52H35.75a5.947 5.947 0 0 0 3.84-1.422L54.091 38.29c1.463-1.229 1.574-3.585.132-4.966z"/>
</svg>
