<?xml version="1.0" encoding="UTF-8"?>
<svg width="270px" height="255px" viewBox="0 0 270 255" version="1.1" xmlns="http://www.w3.org/2000/svg" xmlns:xlink="http://www.w3.org/1999/xlink">
    <!-- Generator: sketchtool 58 (101010) - https://sketch.com -->
    <title>DCA156B0-4F68-435F-84AB-5D955EA08774</title>
    <desc>Created with sketchtool.</desc>
    <defs>
        <path d="M98.5587097,0.313548387 C89.8490323,1.35870968 80.7909677,4.49419355 75.2167742,11.2877419 C72.4296774,14.7716129 70.5135484,19.1264516 67.5522581,22.436129 C62.6748387,27.836129 55.0103226,29.9264516 47.8683871,30.6232258 C40.5522581,31.4941935 33.236129,31.1458065 26.0941935,32.8877419 C14.7716129,35.8490323 4.84258065,44.2103226 0.313548387,55.0103226 C1.18451613,55.0103226 2.05548387,55.1845161 2.92645161,55.3587097 C3.79741935,55.5329032 4.6683871,55.8812903 5.53935484,55.7070968 L228.507097,57.7974194 C229.552258,49.436129 221.190968,42.8167742 213.178065,40.3780645 C205.165161,37.7651613 196.107097,37.2425806 189.487742,32.0167742 C182.52,26.4425806 179.210323,16.3393548 170.849032,13.3780645 C164.752258,11.1135484 158.132903,13.5522581 151.687742,14.5974194 C139.494194,16.6877419 126.603871,13.5522581 116.500645,6.23612903 C113.887742,4.32 111.449032,2.05548387 108.487742,1.01032258 C106.745806,0.313548387 104.829677,0.139354839 102.739355,0.139354839 C101.345806,-0.0348387097 99.9522581,0.139354839 98.5587097,0.313548387" id="path-1"></path>
        <linearGradient x1="0.0633529483%" y1="50.043866%" x2="99.6470916%" y2="50.043866%" id="linearGradient-3">
            <stop stop-color="#EC5279" offset="0%"></stop>
            <stop stop-color="#EC5279" offset="0.942211%"></stop>
            <stop stop-color="#FFFFFF" offset="99.76%"></stop>
            <stop stop-color="#FFFFFF" offset="100%"></stop>
        </linearGradient>
        <path d="M84.7974194,0.487741935 C77.3070968,1.35870968 69.4683871,3.9716129 64.7651613,9.89419355 C62.3264516,12.8554839 60.7587097,16.5135484 58.1458065,19.4748387 C53.9651613,24.003871 47.3458065,25.92 41.2490323,26.4425806 C34.9780645,27.1393548 28.7070968,26.9651613 22.6103226,28.5329032 C12.8554839,30.9716129 4.32,38.2877419 0.487741935,47.52 C1.18451613,47.52 1.88129032,47.6941935 2.75225806,47.8683871 C3.44903226,48.0425806 4.32,48.2167742 5.01677419,48.2167742 L196.629677,49.9587097 C197.500645,42.8167742 190.35871,37.0683871 183.390968,34.9780645 C176.423226,32.7135484 168.75871,32.1909677 163.010323,27.6619355 C157.087742,22.9587097 154.126452,14.2490323 146.984516,11.636129 C141.75871,9.72 136.010323,11.8103226 130.610323,12.6812903 C120.15871,14.4232258 109.010323,11.8103226 100.474839,5.53935484 C98.2103226,3.9716129 96.12,2.05548387 93.5070968,1.01032258 C91.9393548,0.487741935 90.3716129,0.313548387 88.6296774,0.313548387 C87.0619355,0.313548387 86.0167742,0.487741935 84.7974194,0.487741935" id="path-4"></path>
        <linearGradient x1="49.9547951%" y1="0.125221497%" x2="49.954794%" y2="100.150836%" id="linearGradient-6">
            <stop stop-color="#FFFFFF" offset="0%"></stop>
            <stop stop-color="#FFFFFF" offset="14.56%"></stop>
            <stop stop-color="#FFFFFF" offset="100%"></stop>
        </linearGradient>
        <path d="M0.139354839,7.83870968 L4.6683871,18.4645161 C4.6683871,18.4645161 14.7716129,10.2774194 15.2941935,7.14193548 C15.8167742,3.83225806 15.4683871,0.522580645 11.8103226,0.522580645 C11.8103226,0.522580645 11.8103226,0.522580645 11.636129,0.522580645 C6.06193548,0.522580645 0.139354839,7.66451613 0.139354839,7.83870968" id="path-7"></path>
        <linearGradient x1="-0.699133556%" y1="49.6151391%" x2="97.1797553%" y2="49.6151391%" id="linearGradient-9">
            <stop stop-color="#EC5279" offset="0%"></stop>
            <stop stop-color="#EC5279" offset="0.942211%"></stop>
            <stop stop-color="#FFFFFF" offset="99.76%"></stop>
            <stop stop-color="#FFFFFF" offset="100%"></stop>
        </linearGradient>
        <path d="M19.5096774,2.22967742 C12.8903226,3.9716129 9.58064516,5.36516129 9.23225806,5.53935484 C4.87741935,7.45548387 0.174193548,10.0683871 0.174193548,10.0683871 C0.174193548,10.0683871 -2.26451613,11.8103226 13.7612903,42.8167742 C22.8193548,39.8554839 32.0516129,36.8941935 36.4064516,35.5006452 C33.0967742,26.4425806 31.1806452,20.6941935 29.4387097,0.313548387 C29.6129032,0.313548387 24.5612903,0.836129032 19.5096774,2.22967742" id="path-10"></path>
        <linearGradient x1="6.13531005%" y1="50.1058221%" x2="100.508161%" y2="50.1058221%" id="linearGradient-12">
            <stop stop-color="#EC5279" offset="0%"></stop>
            <stop stop-color="#EC5279" offset="0.942211%"></stop>
            <stop stop-color="#FFFFFF" offset="99.76%"></stop>
            <stop stop-color="#FFFFFF" offset="100%"></stop>
        </linearGradient>
        <path d="M0.348387097,1.39354839 C-0.522580645,2.61290323 0.522580645,4.87741935 2.78709677,6.44516129 C5.0516129,7.83870968 7.49032258,8.01290323 8.36129032,6.79354839 C9.23225806,5.57419355 8.18709677,3.30967742 5.92258065,1.74193548 C4.70322581,1.04516129 3.48387097,0.522580645 2.43870968,0.522580645 C1.39354839,0.522580645 0.696774194,0.870967742 0.348387097,1.39354839" id="path-13"></path>
        <linearGradient x1="5.35262857%" y1="50.5639693%" x2="93.3651286%" y2="50.5639693%" id="linearGradient-15">
            <stop stop-color="#38C6D3" offset="0%"></stop>
            <stop stop-color="#38C6D3" offset="0.942211%"></stop>
            <stop stop-color="#9FC6FF" offset="99.76%"></stop>
            <stop stop-color="#9FC6FF" offset="100%"></stop>
        </linearGradient>
        <path d="M6.79354839,6.31612903 C6.79354839,6.31612903 -3.65806452,57.5290323 2.09032258,74.4258065 C8.18709677,92.0193548 18.116129,116.580645 18.116129,116.580645 L27.3483871,116.058065 C27.3483871,116.058065 19.683871,85.0516129 17.7677419,71.116129 C15.1548387,51.7806452 26.3032258,0.0451612903 26.3032258,0.0451612903 L6.79354839,6.31612903 Z" id="path-16"></path>
        <linearGradient x1="12.925701%" y1="49.9597497%" x2="99.6899468%" y2="49.9597497%" id="linearGradient-18">
            <stop stop-color="#38A9D3" offset="0%"></stop>
            <stop stop-color="#38A9D3" offset="0.942211%"></stop>
            <stop stop-color="#CFC6FF" offset="99.76%"></stop>
            <stop stop-color="#CFC6FF" offset="100%"></stop>
        </linearGradient>
        <path d="M0.696774194,5.4 C0.696774194,5.4 16.3741935,42.6774194 26.6516129,63.2322581 C35.0129032,79.7806452 65.8451613,97.2 65.8451613,97.2 L71.4193548,91.2774194 C71.4193548,91.2774194 48.2516129,70.7225806 42.5032258,59.5741935 C24.0387097,23.516129 27.8709677,7.83870968 17.4193548,0 L0.696774194,5.4 Z" id="path-19"></path>
        <linearGradient x1="0.080176601%" y1="50.0281228%" x2="100.065051%" y2="50.0281228%" id="linearGradient-21">
            <stop stop-color="#38A9D3" offset="0%"></stop>
            <stop stop-color="#38A9D3" offset="0.942211%"></stop>
            <stop stop-color="#CFC6FF" offset="99.76%"></stop>
            <stop stop-color="#CFC6FF" offset="100%"></stop>
        </linearGradient>
        <path d="M3.48387097,0.313548387 C0.696774194,0.313548387 0,4.14580645 0,7.45548387 C0,10.7651613 6.79354839,16.6877419 6.79354839,16.6877419 L12.0193548,7.45548387 C12.0193548,7.45548387 5.92258065,0.313548387 3.48387097,0.313548387 C3.48387097,0.313548387 3.48387097,0.313548387 3.48387097,0.313548387" id="path-22"></path>
        <linearGradient x1="0.868585652%" y1="50.1254041%" x2="100.5782%" y2="50.1254041%" id="linearGradient-24">
            <stop stop-color="#EC5279" offset="0%"></stop>
            <stop stop-color="#EC5279" offset="0.942211%"></stop>
            <stop stop-color="#FFFFFF" offset="99.76%"></stop>
            <stop stop-color="#FFFFFF" offset="100%"></stop>
        </linearGradient>
        <path d="M0.870967742,3.44903226 C-1.04516129,15.6425806 5.57419355,29.5780645 5.57419355,29.5780645 C5.57419355,29.5780645 19.683871,27.836129 20.0322581,22.0877419 C20.3806452,16.3393548 14.4580645,0.487741935 14.4580645,0.487741935 C13.0645161,2.05548387 6.27096774,3.79741935 0.870967742,3.44903226" id="path-25"></path>
        <linearGradient x1="98.2109934%" y1="49.9495593%" x2="7.03066557%" y2="49.9495593%" id="linearGradient-27">
            <stop stop-color="#409BAA" offset="0%"></stop>
            <stop stop-color="#7FBCC6" offset="99.76%"></stop>
            <stop stop-color="#7FBCC6" offset="100%"></stop>
        </linearGradient>
        <path d="M0.348387097,26.1741935 C1.04516129,33.1419355 14.283871,34.1870968 14.283871,34.1870968 C14.283871,34.1870968 19.1612903,17.116129 16.5483871,2.65806452 C11.6709677,3.52903226 5.22580645,1.78709677 4.00645161,0.0451612903 C3.83225806,0.0451612903 -0.348387097,19.2064516 0.348387097,26.1741935" id="path-28"></path>
        <linearGradient x1="3.17550143%" y1="50.0309309%" x2="90.2987157%" y2="50.0309309%" id="linearGradient-30">
            <stop stop-color="#409BAA" offset="0%"></stop>
            <stop stop-color="#7FBCC6" offset="99.76%"></stop>
            <stop stop-color="#7FBCC6" offset="100%"></stop>
        </linearGradient>
        <path d="M0.696774194,11.3225806 C0.174193548,11.3225806 0,11.8451613 0,12.3677419 L3.13548387,35.3612903 C3.13548387,36.0580645 3.83225806,36.4064516 4.35483871,36.2322581 C11.3225806,34.316129 50.1677419,24.2129032 109.741935,30.6580645 C110.264516,30.6580645 110.787097,30.3096774 110.787097,29.7870968 C111.832258,24.0387097 113.922581,7.49032258 114.270968,3.13548387 C114.270968,2.61290323 113.922581,2.09032258 113.4,2.09032258 C110.090323,1.56774194 97.0258065,0 79.2580645,0 C57.3096774,0 28.3935484,2.26451613 0.696774194,11.3225806" id="path-31"></path>
        <linearGradient x1="-0.108293997%" y1="50.146907%" x2="99.8179978%" y2="50.146907%" id="linearGradient-33">
            <stop stop-color="#409BAA" offset="0%"></stop>
            <stop stop-color="#7FBCC6" offset="99.76%"></stop>
            <stop stop-color="#7FBCC6" offset="100%"></stop>
        </linearGradient>
    </defs>
    <g id="Diseño-sin-lo-que-no-va" stroke="none" stroke-width="1" fill="none" fill-rule="evenodd">
        <g id="Tutorial-1" transform="translate(-57.000000, -110.000000)">
            <g id="Untitled-1" transform="translate(57.000000, 110.000000)">
                <g id="Clipped" transform="translate(20.241290, 182.241290)">
                    <mask id="mask-2" fill="white">
                        <use xlink:href="#path-1"></use>
                    </mask>
                    <g id="SVGID_1_"></g>
                    <rect id="Rectangle" fill="url(#linearGradient-3)" fill-rule="nonzero" mask="url(#mask-2)" x="0.139354839" y="-0.0348387097" width="229.23871" height="57.8322581"></rect>
                </g>
                <g id="Clipped" transform="translate(55.080000, 204.886452)">
                    <mask id="mask-5" fill="white">
                        <use xlink:href="#path-4"></use>
                    </mask>
                    <g id="SVGID_4_"></g>
                    <rect id="Rectangle" fill="url(#linearGradient-6)" fill-rule="nonzero" mask="url(#mask-5)" x="0.313548387" y="0.313548387" width="197.012903" height="49.6451613"></rect>
                </g>
                <path d="M269.129032,241.432258 C269.129032,245.787097 208.858065,249.270968 134.477419,249.270968 C60.0967742,249.270968 0,245.787097 0,241.432258 C0,237.077419 60.2709677,233.593548 134.651613,233.593548 C209.032258,233.593548 269.129032,237.077419 269.129032,241.432258" id="Path" fill="#BFDDE3" fill-rule="nonzero"></path>
                <path d="M112.354839,89.7096774 C112.180645,90.0580645 112.006452,90.2322581 111.832258,90.4064516 C111.658065,90.5806452 111.483871,90.7548387 111.483871,90.9290323 C111.135484,91.2774194 110.96129,91.6258065 110.612903,91.9741935 C110.090323,92.6709677 109.393548,93.3677419 108.696774,93.8903226 C107.477419,95.1096774 106.083871,96.3290323 104.516129,97.3741935 C103.122581,98.4193548 101.554839,99.2903226 99.9870968,100.16129 C99.116129,100.509677 98.4193548,101.032258 97.5483871,101.380645 L96.3290323,101.903226 L95.9806452,102.077419 C95.8064516,102.077419 95.6322581,102.251613 95.4580645,102.251613 C95.1096774,102.425806 94.5870968,102.425806 94.2387097,102.425806 C93.3677419,102.425806 92.4967742,102.251613 91.8,101.903226 C91.1032258,101.554839 90.5806452,101.206452 90.2322581,100.683871 C89.3612903,99.8129032 88.8387097,98.9419355 88.316129,98.2451613 C87.2709677,96.5032258 86.7483871,94.9354839 86.0516129,93.1935484 C85.0064516,89.883871 84.1354839,86.5741935 83.7870968,83.0903226 L86.7483871,82.3935484 C87.2709677,83.9612903 87.7935484,85.5290323 88.4903226,86.9225806 C89.0129032,88.4903226 89.7096774,89.883871 90.4064516,91.4516129 C91.1032258,92.8451613 91.8,94.2387097 92.6709677,95.4580645 C93.0193548,95.9806452 93.5419355,96.5032258 93.8903226,96.8516129 C94.0645161,97.0258065 94.2387097,97.0258065 94.4129032,97.2 C94.5870968,97.2 94.5870968,97.2 94.4129032,97.2 C94.4129032,97.2 94.4129032,97.2 94.4129032,97.2 C94.4129032,97.2 94.4129032,97.2 94.4129032,97.2 L94.5870968,97.0258065 L95.6322581,96.5032258 C96.3290323,96.1548387 97.0258065,95.8064516 97.7225806,95.4580645 C99.116129,94.7612903 100.335484,93.8903226 101.554839,92.8451613 C102.774194,91.9741935 103.819355,90.9290323 105.03871,89.7096774 C105.56129,89.1870968 106.083871,88.6645161 106.606452,87.9677419 C106.780645,87.6193548 107.129032,87.4451613 107.303226,87.0967742 L107.651613,86.7483871 L108,86.4 L112.354839,89.7096774 Z" id="Path" fill="#CE7A63" fill-rule="nonzero"></path>
                <polygon id="Path" fill="#2C2664" fill-rule="nonzero" points="103.993548 89.5354839 107.477419 97.8967742 104.864516 99.4645161 101.032258 91.8"></polygon>
                <g id="Clipped" transform="translate(102.112258, 81.870968)">
                    <mask id="mask-8" fill="white">
                        <use xlink:href="#path-7"></use>
                    </mask>
                    <g id="SVGID_9_"></g>
                    <rect id="Rectangle" fill="url(#linearGradient-9)" fill-rule="nonzero" mask="url(#mask-8)" x="0.139354839" y="0.522580645" width="15.6774194" height="18.116129"></rect>
                </g>
                <path d="M86.0516129,81.5225806 L82.0451613,78.3870968 L81.1741935,84.483871 C81.1741935,84.483871 85.0064516,86.0516129 87.0967742,84.6580645 L87.0967742,83.6129032 C87.0967742,82.7419355 86.5741935,82.0451613 86.0516129,81.5225806" id="Path" fill="#CE7A63" fill-rule="nonzero"></path>
                <polygon id="Path" fill="#CE7A63" fill-rule="nonzero" points="76.6451613 78.0387097 76.9935484 82.7419355 81.1741935 84.483871 82.0451613 78.3870968"></polygon>
                <path d="M163.741935,81 L169.83871,79.4322581 L165.483871,75.0774194 C165.483871,75.0774194 161.477419,76.6451613 162.522581,80.1290323 L163.741935,81 Z" id="Path" fill="#CE7A63" fill-rule="nonzero"></path>
                <polygon id="Path" fill="#CE7A63" fill-rule="nonzero" points="172.8 78.3870968 172.451613 73.5096774 165.483871 75.0774194 169.83871 79.4322581"></polygon>
                <polygon id="Path" fill="#CE7A63" fill-rule="nonzero" points="143.709677 235.335484 137.96129 235.858065 133.258065 222.445161 139.006452 221.922581"></polygon>
                <polygon id="Path" fill="#CE7A63" fill-rule="nonzero" points="204.851613 206.941935 200.670968 211.122581 189.870968 202.587097 194.051613 198.580645"></polygon>
                <path d="M199.451613,210.251613 L202.76129,204.503226 C202.935484,204.329032 203.109677,204.154839 203.283871,204.329032 L208.16129,206.245161 C208.683871,206.419355 208.858065,207.116129 208.683871,207.63871 C207.464516,209.554839 206.941935,210.6 205.374194,213.03871 C204.503226,214.606452 202.76129,218.090323 201.541935,220.354839 C200.322581,222.445161 198.232258,221.4 198.406452,220.354839 C199.8,215.825806 199.625806,213.387097 199.103226,211.296774 C199.103226,210.948387 199.277419,210.6 199.451613,210.251613" id="Path" fill="#14365B" fill-rule="nonzero"></path>
                <path d="M136.916129,234.116129 L143.883871,234.116129 C144.058065,234.116129 144.406452,234.290323 144.406452,234.464516 L145.974194,240.03871 C146.148387,240.56129 145.625806,241.083871 145.103226,241.083871 C142.664516,241.083871 141.445161,240.909677 138.483871,240.909677 C136.567742,240.909677 130.470968,241.083871 127.858065,241.083871 C125.245161,241.083871 124.722581,238.470968 125.767742,238.296774 C130.470968,237.251613 134.477419,235.858065 135.870968,234.464516 C136.045161,234.290323 136.393548,234.116129 136.916129,234.116129" id="Path" fill="#14365B" fill-rule="nonzero"></path>
                <polygon id="Path" fill="#BC6753" fill-rule="nonzero" points="133.258065 222.445161 135.696774 229.412903 141.619355 229.412903 139.006452 221.922581"></polygon>
                <polygon id="Path" fill="#BC6753" fill-rule="nonzero" points="194.051613 198.580645 189.870968 202.587097 195.445161 206.941935 199.625806 202.935484"></polygon>
                <g id="Clipped" transform="translate(108.000000, 74.241290)">
                    <mask id="mask-11" fill="white">
                        <use xlink:href="#path-10"></use>
                    </mask>
                    <g id="SVGID_12_"></g>
                    <rect id="Rectangle" fill="url(#linearGradient-12)" fill-rule="nonzero" mask="url(#mask-11)" x="-2.09032258" y="0.313548387" width="38.4967742" height="42.5032258"></rect>
                </g>
                <path d="M122.806452,65.1483871 C123.154839,68.6322581 124.548387,74.9032258 127.509677,76.4709677 C127.509677,76.4709677 127.683871,80.1290323 121.587097,82.0451613 C114.793548,84.3096774 117.232258,79.7806452 117.232258,79.7806452 C120.716129,77.6903226 119.670968,75.0774194 118.103226,72.6387097 L122.806452,65.1483871 Z" id="Path" fill="#CE7A63" fill-rule="nonzero"></path>
                <path d="M111.483871,82.5677419 C113.225806,81.6967742 115.316129,80.6516129 117.406452,79.7806452 C120.716129,78.3870968 123.851613,77.516129 127.683871,76.4709677 C129.6,75.9483871 131.690323,75.6 133.432258,75.2516129 C133.606452,75.7741935 133.083871,76.9935484 131.864516,78.5612903 C128.206452,81.6967742 120.193548,85.7032258 114.445161,85.5290323 C111.832258,84.6580645 111.135484,83.6129032 111.483871,82.5677419" id="Path" fill="#CE7A63" fill-rule="nonzero"></path>
                <path d="M131.690323,78.5612903 C130.122581,80.8258065 127.16129,84.1354839 122.806452,87.4451613 C118.8,86.9225806 116.012903,86.2258065 114.270968,85.5290323 C120.193548,85.7032258 128.032258,81.6967742 131.690323,78.5612903" id="Path" fill="#2C2664" fill-rule="nonzero"></path>
                <path d="M120.890323,68.283871 L118.103226,72.6387097 C118.451613,73.1612903 118.8,73.8580645 118.974194,74.3806452 C120.367742,73.683871 122.109677,71.7677419 121.76129,70.2 C121.76129,69.5032258 121.23871,68.4580645 120.890323,68.283871" id="Path" fill="#BC6753" fill-rule="nonzero"></path>
                <path d="M124.2,58.7032258 C124.548387,64.4516129 124.896774,66.8903226 122.283871,70.2 C118.451613,75.2516129 111.309677,74.3806452 109.219355,68.8064516 C107.303226,63.7548387 107.129032,55.0451613 112.529032,52.083871 C117.580645,49.1225806 123.851613,52.7806452 124.2,58.7032258" id="Path" fill="#CE7A63" fill-rule="nonzero"></path>
                <path d="M135.870968,45.8129032 C135.870968,51.7354839 130.993548,56.6129032 125.070968,56.6129032 C119.148387,56.6129032 114.270968,51.7354839 114.270968,45.8129032 C114.270968,39.8903226 119.148387,35.0129032 125.070968,35.0129032 C131.167742,35.1870968 135.870968,39.8903226 135.870968,45.8129032" id="Path" fill="#0F264C" fill-rule="nonzero"></path>
                <g id="Clipped" transform="translate(116.709677, 48.774194)">
                    <mask id="mask-14" fill="white">
                        <use xlink:href="#path-13"></use>
                    </mask>
                    <g id="SVGID_15_"></g>
                    <rect id="Rectangle" fill="url(#linearGradient-15)" fill-rule="nonzero" mask="url(#mask-14)" x="-0.522580645" y="0.522580645" width="9.75483871" height="7.49032258"></rect>
                </g>
                <path d="M121.412903,62.5354839 C121.935484,61.1419355 120.019355,57.3096774 120.367742,55.7419355 C119.148387,54.6967742 107.477419,58.5290323 108.522581,55.7419355 C109.393548,53.1290323 112.180645,49.4709677 118.8,51.0387097 C125.767742,52.6064516 126.290323,58.7032258 125.593548,60.6193548 C124.722581,62.5354839 123.677419,64.4516129 123.677419,64.4516129 L121.412903,62.5354839 Z" id="Path" fill="#0F264C" fill-rule="nonzero"></path>
                <path d="M125.767742,63.7548387 C125.767742,64.9741935 125.245161,66.0193548 124.548387,66.716129 C123.503226,67.7612903 122.283871,67.0645161 121.935484,65.6709677 C121.587097,64.4516129 121.76129,62.3612903 123.154839,61.8387097 C124.374194,61.316129 125.767742,62.3612903 125.767742,63.7548387" id="Path" fill="#CE7A63" fill-rule="nonzero"></path>
                <g id="Clipped" transform="translate(114.967742, 110.741935)">
                    <mask id="mask-17" fill="white">
                        <use xlink:href="#path-16"></use>
                    </mask>
                    <g id="SVGID_18_"></g>
                    <rect id="Rectangle" fill="url(#linearGradient-18)" fill-rule="nonzero" mask="url(#mask-17)" x="-3.65806452" y="0.0451612903" width="31.1806452" height="116.535484"></rect>
                </g>
                <polygon id="Path" fill="#2C2664" fill-rule="nonzero" points="143.187097 226.974194 132.56129 227.670968 130.819355 223.490323 142.664516 222.270968"></polygon>
                <path d="M132.909677,121.064516 C131.341935,126.987097 132.56129,135.870968 135.696774,142.141935 C136.393548,137.264516 137.264516,132.56129 137.96129,128.380645 C136.393548,125.419355 134.651613,122.632258 132.909677,121.064516" id="Path" fill="#77B3FC" fill-rule="nonzero"></path>
                <g id="Clipped" transform="translate(127.161290, 109.741935)">
                    <mask id="mask-20" fill="white">
                        <use xlink:href="#path-19"></use>
                    </mask>
                    <g id="SVGID_21_"></g>
                    <rect id="Rectangle" fill="url(#linearGradient-21)" fill-rule="nonzero" mask="url(#mask-20)" x="0.696774194" y="0" width="70.7225806" height="97.0258065"></rect>
                </g>
                <polygon id="Path" fill="#2C2664" fill-rule="nonzero" points="199.625806 199.974194 191.96129 208.16129 187.083871 205.548387 195.967742 196.664516"></polygon>
                <path d="M144.406452,108.348387 L146.148387,110.090323 C146.322581,110.264516 146.148387,110.43871 145.8,110.43871 L122.109677,118.103226 C121.935484,118.103226 121.76129,118.103226 121.587097,117.929032 L120.716129,116.012903 C120.716129,115.83871 120.716129,115.664516 121.064516,115.664516 L144.058065,108.174194 C144.232258,108.174194 144.406452,108.174194 144.406452,108.348387" id="Path" fill="#2C2664" fill-rule="nonzero"></path>
                <path d="M142.141935,111.832258 L142.83871,111.658065 C143.012903,111.658065 143.012903,111.483871 143.012903,111.483871 L141.793548,108.870968 C141.793548,108.870968 141.619355,108.696774 141.445161,108.870968 L140.748387,109.045161 C140.574194,109.045161 140.574194,109.219355 140.574194,109.219355 L141.793548,111.832258 C141.967742,111.832258 141.967742,111.832258 142.141935,111.832258" id="Path" fill="#9FC6FF" fill-rule="nonzero"></path>
                <path d="M123.851613,117.754839 L124.548387,117.580645 C124.722581,117.580645 124.722581,117.406452 124.722581,117.406452 L123.503226,114.793548 C123.503226,114.793548 123.329032,114.619355 123.154839,114.793548 L122.632258,114.967742 C122.458065,114.967742 122.458065,115.141935 122.458065,115.141935 L123.677419,117.754839 C123.677419,117.754839 123.677419,117.754839 123.851613,117.754839" id="Path" fill="#9FC6FF" fill-rule="nonzero"></path>
                <path d="M133.083871,114.793548 L133.780645,114.619355 C133.954839,114.619355 133.954839,114.445161 133.954839,114.445161 L132.735484,111.832258 C132.735484,111.832258 132.56129,111.658065 132.387097,111.832258 L131.690323,112.006452 C131.516129,112.006452 131.516129,112.180645 131.516129,112.180645 L132.735484,114.793548 C132.735484,114.793548 132.909677,114.793548 133.083871,114.793548" id="Path" fill="#9FC6FF" fill-rule="nonzero"></path>
                <path d="M115.664516,61.316129 C115.664516,61.8387097 115.490323,62.1870968 115.141935,62.1870968 C114.793548,62.1870968 114.619355,61.8387097 114.445161,61.4903226 C114.445161,60.9677419 114.619355,60.6193548 114.967742,60.6193548 C115.316129,60.4451613 115.664516,60.7935484 115.664516,61.316129" id="Path" fill="#0F264C" fill-rule="nonzero"></path>
                <path d="M110.264516,62.0129032 C110.264516,62.5354839 110.090323,62.883871 109.741935,62.883871 C109.393548,62.883871 109.219355,62.5354839 109.045161,62.1870968 C109.045161,61.6645161 109.219355,61.316129 109.567742,61.316129 C109.916129,61.1419355 110.264516,61.4903226 110.264516,62.0129032" id="Path" fill="#0F264C" fill-rule="nonzero"></path>
                <path d="M109.741935,61.1419355 L108.696774,60.9677419 C108.696774,60.9677419 109.393548,61.8387097 109.741935,61.1419355" id="Path" fill="#0F264C" fill-rule="nonzero"></path>
                <path d="M111.832258,62.5354839 C111.832258,62.5354839 111.309677,64.6258065 110.43871,65.6709677 C111.135484,66.1935484 112.180645,65.8451613 112.180645,65.8451613 L111.832258,62.5354839 Z" id="Path" fill="#BA4D3C" fill-rule="nonzero"></path>
                <path d="M114.096774,67.5870968 C114.096774,67.5870968 113.922581,67.5870968 114.096774,67.5870968 C113.922581,67.4129032 113.922581,67.2387097 114.096774,67.2387097 C116.187097,67.0645161 116.883871,65.4967742 116.883871,65.4967742 C116.883871,65.4967742 117.058065,65.3225806 117.058065,65.4967742 C117.058065,65.4967742 117.232258,65.6709677 117.058065,65.6709677 C117.232258,65.6709677 116.36129,67.2387097 114.096774,67.5870968 C114.096774,67.5870968 114.096774,67.5870968 114.096774,67.5870968" id="Path" fill="#0F264C" fill-rule="nonzero"></path>
                <path d="M116.36129,59.7483871 C116.36129,59.7483871 116.187097,59.7483871 116.187097,59.7483871 C115.316129,58.8774194 114.270968,59.2258065 114.270968,59.2258065 C114.096774,59.2258065 113.922581,59.2258065 113.922581,59.0516129 C113.922581,58.8774194 113.922581,58.7032258 114.096774,58.7032258 C114.096774,58.7032258 115.316129,58.3548387 116.535484,59.4 C116.709677,59.5741935 116.709677,59.7483871 116.535484,59.7483871 C116.36129,59.5741935 116.36129,59.7483871 116.36129,59.7483871" id="Path" fill="#0F264C" fill-rule="nonzero"></path>
                <path d="M107.651613,59.7483871 C107.477419,59.7483871 107.477419,59.7483871 107.651613,59.7483871 C107.303226,59.5741935 107.303226,59.4 107.477419,59.4 C108.174194,58.0064516 109.393548,57.8322581 109.567742,57.8322581 C109.741935,57.8322581 109.916129,58.0064516 109.916129,58.0064516 C109.916129,58.1806452 109.741935,58.3548387 109.741935,58.3548387 C109.741935,58.3548387 108.696774,58.5290323 108.174194,59.5741935 C107.825806,59.7483871 107.651613,59.7483871 107.651613,59.7483871" id="Path" fill="#0F264C" fill-rule="nonzero"></path>
                <path d="M142.141935,79.9548387 L142.316129,80.3032258 L142.664516,80.6516129 C142.83871,81 143.187097,81.1741935 143.36129,81.5225806 C143.883871,82.0451613 144.406452,82.5677419 144.929032,83.0903226 C145.974194,84.1354839 147.019355,85.0064516 148.23871,86.0516129 C149.458065,86.9225806 150.677419,87.7935484 151.896774,88.4903226 C152.593548,88.8387097 153.116129,89.1870968 153.812903,89.5354839 L154.858065,90.0580645 L155.380645,90.2322581 C155.554839,90.2322581 155.554839,90.4064516 155.729032,90.4064516 C156.251613,90.5806452 156.6,90.5806452 156.774194,90.5806452 C157.122581,90.5806452 157.296774,90.4064516 157.819355,90.2322581 C158.516129,89.7096774 159.387097,88.6645161 159.909677,87.4451613 C160.606452,86.2258065 160.954839,84.8322581 161.477419,83.2645161 C162,81.8709677 162.174194,80.3032258 162.522581,78.9096774 L165.483871,79.083871 C165.483871,82.3935484 165.135484,85.7032258 164.090323,89.1870968 C163.741935,90.0580645 163.393548,90.9290323 162.870968,91.8 C162.348387,92.6709677 161.825806,93.5419355 160.954839,94.2387097 C160.083871,94.9354839 158.864516,95.6322581 157.645161,95.8064516 C156.425806,95.9806452 155.032258,95.8064516 153.987097,95.6322581 C153.63871,95.6322581 153.464516,95.4580645 153.290323,95.283871 L152.767742,95.1096774 L151.548387,94.5870968 C150.851613,94.2387097 149.980645,93.8903226 149.283871,93.5419355 C147.716129,92.6709677 146.322581,91.8 144.929032,90.7548387 C143.535484,89.7096774 142.141935,88.6645161 140.922581,87.4451613 C140.225806,86.9225806 139.703226,86.2258065 139.180645,85.5290323 C138.832258,85.1806452 138.658065,84.8322581 138.309677,84.483871 L137.612903,83.9612903 C137.43871,83.7870968 137.43871,83.6129032 137.090323,83.2645161 L142.141935,79.9548387 Z" id="Path" fill="#CE7A63" fill-rule="nonzero"></path>
                <polygon id="Path" fill="#2C2664" fill-rule="nonzero" points="147.019355 83.6129032 142.83871 90.9290323 140.574194 89.0129032 144.580645 81.6967742"></polygon>
                <g id="Clipped" transform="translate(134.129032, 74.241290)">
                    <mask id="mask-23" fill="white">
                        <use xlink:href="#path-22"></use>
                    </mask>
                    <g id="SVGID_24_"></g>
                    <rect id="Rectangle" fill="url(#linearGradient-24)" fill-rule="nonzero" mask="url(#mask-23)" x="0" y="0.313548387" width="12.0193548" height="16.3741935"></rect>
                </g>
                <path d="M198.232258,213.387097 C198.058065,213.387097 197.883871,213.387097 197.709677,213.212903 C197.535484,213.03871 197.535484,212.864516 197.535484,212.864516 C197.535484,212.167742 199.451613,211.122581 199.625806,210.948387 C199.625806,210.948387 199.8,210.948387 199.8,210.948387 C199.8,210.948387 199.8,211.122581 199.8,211.122581 C199.625806,211.819355 199.103226,213.212903 198.406452,213.387097 C198.406452,213.387097 198.406452,213.387097 198.232258,213.387097 M199.451613,211.296774 C198.754839,211.645161 197.709677,212.341935 197.709677,212.690323 C197.709677,212.690323 197.709677,212.864516 197.883871,212.864516 C198.058065,213.03871 198.232258,213.03871 198.406452,213.03871 C198.754839,213.03871 199.277419,212.341935 199.451613,211.296774" id="Shape" fill="#407BFF" fill-rule="nonzero"></path>
                <path d="M198.058065,211.645161 C197.709677,211.645161 197.36129,211.645161 197.187097,211.470968 C197.012903,211.470968 197.012903,211.122581 197.012903,210.948387 C197.012903,210.774194 197.187097,210.6 197.535484,210.6 C198.406452,210.251613 199.8,211.122581 199.8,211.122581 C199.8,211.122581 199.8,211.122581 199.8,211.296774 C199.8,211.296774 199.8,211.470968 199.8,211.470968 C199.451613,211.296774 198.754839,211.645161 198.058065,211.645161 M197.883871,210.6 C197.709677,210.6 197.709677,210.6 197.535484,210.6 C197.36129,210.6 197.36129,210.774194 197.187097,210.948387 C197.187097,211.122581 197.187097,211.122581 197.187097,211.296774 C197.535484,211.645161 198.580645,211.470968 199.277419,211.122581 C199.103226,210.774194 198.406452,210.6 197.883871,210.6" id="Shape" fill="#407BFF" fill-rule="nonzero"></path>
                <path d="M133.780645,235.335484 C133.258065,235.335484 132.735484,235.335484 132.387097,234.987097 C132.212903,234.812903 132.03871,234.63871 132.03871,234.290323 C132.03871,234.116129 132.212903,233.941935 132.212903,233.941935 C132.909677,233.593548 135.174194,234.63871 135.696774,234.812903 C135.696774,234.812903 135.696774,234.812903 135.696774,234.987097 C135.696774,234.987097 135.696774,235.16129 135.522581,235.16129 C135.174194,235.16129 134.477419,235.335484 133.780645,235.335484 M132.56129,234.116129 C132.387097,234.116129 132.387097,234.116129 132.212903,234.116129 C132.212903,234.116129 132.212903,234.116129 132.212903,234.290323 C132.212903,234.464516 132.387097,234.63871 132.387097,234.812903 C132.909677,235.16129 134.303226,234.987097 135,234.987097 C134.303226,234.464516 133.258065,234.116129 132.56129,234.116129" id="Shape" fill="#407BFF" fill-rule="nonzero"></path>
                <path d="M135.696774,234.987097 C135.522581,234.987097 135.522581,234.987097 135.696774,234.987097 C134.825806,234.63871 133.258065,233.419355 133.432258,232.722581 C133.432258,232.548387 133.606452,232.374194 133.954839,232.374194 C135.174194,232.2 135.696774,234.812903 135.696774,234.987097 C135.696774,234.987097 135.696774,234.987097 135.696774,234.987097 C135.696774,234.987097 135.696774,234.987097 135.696774,234.987097 M133.954839,232.722581 C133.780645,232.722581 133.780645,232.722581 133.954839,232.722581 C133.780645,232.722581 133.606452,232.722581 133.606452,232.896774 C133.606452,233.245161 134.651613,234.290323 135.522581,234.63871 C135.174194,234.116129 134.651613,232.722581 133.954839,232.722581" id="Shape" fill="#407BFF" fill-rule="nonzero"></path>
                <path d="M115.141935,60.6193548 L113.922581,60.4451613 C113.922581,60.4451613 114.619355,61.1419355 115.141935,60.6193548" id="Path" fill="#0F264C" fill-rule="nonzero"></path>
                <g id="Clipped" transform="translate(57.483871, 11.531613)">
                    <mask id="mask-26" fill="white">
                        <use xlink:href="#path-25"></use>
                    </mask>
                    <g id="SVGID_27_"></g>
                    <rect id="Rectangle" fill="url(#linearGradient-27)" fill-rule="nonzero" mask="url(#mask-26)" x="-1.04516129" y="0.487741935" width="21.2516129" height="29.0903226"></rect>
                </g>
                <g id="Clipped" transform="translate(174.193548, 2.741935)">
                    <mask id="mask-29" fill="white">
                        <use xlink:href="#path-28"></use>
                    </mask>
                    <g id="SVGID_30_"></g>
                    <rect id="Rectangle" fill="url(#linearGradient-30)" fill-rule="nonzero" mask="url(#mask-29)" x="-0.348387097" y="0.0451612903" width="19.5096774" height="34.1419355"></rect>
                </g>
                <path d="M86.0516129,127.509677 L86.0516129,127.509677 C85.7032258,127.509677 85.1806452,127.335484 85.1806452,126.812903 L68.6322581,9.92903226 C68.6322581,9.58064516 68.8064516,9.05806452 69.3290323,9.05806452 C69.6774194,9.05806452 70.2,9.23225806 70.2,9.75483871 L86.7483871,126.63871 C86.7483871,126.987097 86.4,127.335484 86.0516129,127.509677" id="Path" fill="#2C2664" fill-rule="nonzero"></path>
                <path d="M164.43871,118.8 L164.43871,118.8 C164.787097,118.8 165.309677,118.625806 165.309677,118.103226 L181.858065,1.21935484 C181.858065,0.870967742 181.683871,0.348387097 181.16129,0.348387097 C180.812903,0.348387097 180.290323,0.522580645 180.290323,1.04516129 L163.741935,117.929032 C163.741935,118.277419 164.090323,118.8 164.43871,118.8" id="Path" fill="#2C2664" fill-rule="nonzero"></path>
                <g id="Clipped" transform="translate(67.935484, 0.000000)">
                    <mask id="mask-32" fill="white">
                        <use xlink:href="#path-31"></use>
                    </mask>
                    <g id="SVGID_33_"></g>
                    <rect id="Rectangle" fill="url(#linearGradient-33)" fill-rule="nonzero" mask="url(#mask-32)" x="0" y="0" width="114.619355" height="36.2322581"></rect>
                </g>
                <path d="M88.1419355,25.6064516 C86.5741935,25.9548387 85.8774194,26.1290323 84.483871,26.4774194 C83.9612903,26.6516129 83.6129032,26.6516129 83.2645161,26.4774194 C82.916129,26.3032258 82.7419355,25.9548387 82.5677419,25.4322581 C81.6967742,21.7741935 81.6967742,19.5096774 81,15.8516129 C80.8258065,15.3290323 80.8258065,14.9806452 81.1741935,14.6322581 C81.3483871,14.283871 81.6967742,14.1096774 82.2193548,13.9354839 C83.7870968,13.4129032 84.6580645,13.2387097 86.2258065,12.8903226 C86.7483871,12.716129 87.2709677,12.716129 87.7935484,12.5419355 C88.316129,12.5419355 88.6645161,12.5419355 89.0129032,12.716129 C89.3612903,12.8903226 89.7096774,13.0645161 89.883871,13.2387097 C90.2322581,13.4129032 90.4064516,13.7612903 90.5806452,14.1096774 C90.7548387,14.4580645 90.9290323,14.8064516 90.9290323,15.1548387 C91.1032258,16.3741935 89.5354839,18.4645161 89.5354839,18.4645161 C89.5354839,18.6387097 92.1483871,19.683871 92.3225806,21.2516129 C92.4967742,21.9483871 92.3225806,22.6451613 92.1483871,23.3419355 C91.9741935,24.0387097 91.4516129,24.3870968 90.9290323,24.7354839 C90.5806452,24.9096774 90.2322581,25.083871 89.7096774,25.2580645 C89.1870968,25.4322581 88.6645161,25.6064516 88.1419355,25.6064516 M83.6129032,15.5032258 C83.7870968,16.7225806 83.9612903,17.4193548 84.1354839,18.8129032 C85.0064516,18.6387097 85.5290323,18.4645161 86.4,18.2903226 C87.0967742,18.116129 87.4451613,17.9419355 87.7935484,17.7677419 C88.1419355,17.5935484 88.316129,17.2451613 88.4903226,16.8967742 C88.6645161,16.5483871 88.6645161,16.3741935 88.6645161,16.0258065 C88.4903226,15.3290323 88.316129,14.9806452 87.7935484,14.8064516 C87.2709677,14.6322581 86.5741935,14.8064516 85.7032258,14.9806452 C84.8322581,15.1548387 84.3096774,15.3290323 83.6129032,15.5032258 M86.9225806,20.0322581 C85.8774194,20.2064516 85.3548387,20.3806452 84.3096774,20.7290323 C84.483871,22.2967742 84.6580645,22.9935484 84.8322581,24.3870968 C85.8774194,24.0387097 86.4,24.0387097 87.4451613,23.6903226 C89.1870968,23.3419355 89.883871,22.6451613 89.7096774,21.2516129 C89.5354839,20.5548387 89.3612903,20.2064516 88.8387097,19.8580645 C88.4903226,19.8580645 87.7935484,19.8580645 86.9225806,20.0322581" id="Shape" fill="#FFFFFF" fill-rule="nonzero"></path>
                <path d="M93.8903226,13.5870968 C93.5419355,13.5870968 93.3677419,13.5870968 93.0193548,13.4129032 C92.8451613,13.2387097 92.6709677,13.0645161 92.4967742,12.5419355 C92.4967742,12.1935484 92.4967742,11.8451613 92.6709677,11.6709677 C92.8451613,11.4967742 93.0193548,11.3225806 93.3677419,11.1483871 C93.716129,11.1483871 93.8903226,11.1483871 94.2387097,11.3225806 C94.5870968,11.4967742 94.5870968,11.6709677 94.7612903,12.0193548 C94.7612903,12.3677419 94.7612903,12.716129 94.5870968,12.8903226 C94.4129032,13.2387097 94.0645161,13.4129032 93.8903226,13.5870968 M95.283871,15.8516129 C95.6322581,18.8129032 95.8064516,20.3806452 96.3290323,22.9935484 C96.3290323,23.516129 96.3290323,23.8645161 96.1548387,24.0387097 C95.9806452,24.2129032 95.8064516,24.3870968 95.4580645,24.5612903 C95.1096774,24.5612903 94.7612903,24.5612903 94.5870968,24.3870968 C94.4129032,24.2129032 94.2387097,23.8645161 94.0645161,23.3419355 C93.5419355,20.7290323 93.3677419,19.1612903 93.0193548,16.2 C93.0193548,15.6774194 93.0193548,15.3290323 93.1935484,14.9806452 C93.3677419,14.6322581 93.5419355,14.4580645 93.8903226,14.4580645 C94.2387097,14.4580645 94.5870968,14.4580645 94.7612903,14.6322581 C95.1096774,15.1548387 95.283871,15.5032258 95.283871,15.8516129" id="Shape" fill="#FFFFFF" fill-rule="nonzero"></path>
                <path d="M103.993548,19.1612903 C102.251613,19.3354839 101.206452,19.5096774 99.4645161,19.683871 C99.4645161,20.2064516 99.6387097,20.7290323 99.9870968,21.0774194 C100.335484,21.4258065 100.509677,21.7741935 101.032258,21.9483871 C101.554839,22.1225806 101.729032,22.1225806 102.251613,22.1225806 C102.6,22.1225806 102.774194,21.9483871 102.948387,21.9483871 C103.122581,21.7741935 103.296774,21.7741935 103.645161,21.6 C103.819355,21.4258065 103.993548,21.2516129 104.167742,21.0774194 C104.341935,20.9032258 104.516129,20.5548387 104.690323,20.2064516 C104.864516,20.0322581 105.03871,20.0322581 105.212903,20.0322581 C105.387097,20.0322581 105.735484,20.0322581 105.735484,20.2064516 C105.909677,20.3806452 106.083871,20.5548387 106.083871,20.7290323 C106.083871,20.9032258 106.083871,21.2516129 105.909677,21.6 C105.735484,21.9483871 105.56129,22.2967742 105.212903,22.4709677 C104.864516,22.8193548 104.516129,22.9935484 104.167742,23.3419355 C103.645161,23.516129 103.122581,23.6903226 102.425806,23.8645161 C101.032258,24.0387097 99.6387097,23.6903226 98.7677419,22.9935484 C97.7225806,22.2967742 97.2,21.0774194 97.0258065,19.5096774 C96.8516129,18.8129032 96.8516129,18.116129 97.0258065,17.4193548 C97.2,16.7225806 97.3741935,16.2 97.7225806,15.6774194 C98.0709677,15.1548387 98.4193548,14.8064516 98.9419355,14.4580645 C99.4645161,14.1096774 100.16129,13.9354839 100.858065,13.7612903 C101.729032,13.5870968 102.6,13.7612903 103.296774,14.1096774 C103.993548,14.4580645 104.516129,14.9806452 105.03871,15.5032258 C105.387097,16.2 105.735484,16.8967742 105.735484,17.5935484 C105.735484,18.2903226 105.735484,18.6387097 105.387097,18.9870968 C105.03871,18.9870968 104.690323,19.1612903 103.993548,19.1612903 M99.2903226,18.2903226 C101.032258,18.116129 101.729032,17.9419355 103.470968,17.7677419 C103.296774,16.8967742 102.948387,16.2 102.6,15.8516129 C102.251613,15.5032258 101.729032,15.3290323 101.032258,15.3290323 C100.509677,15.3290323 99.9870968,15.6774194 99.6387097,16.2 C99.4645161,16.7225806 99.2903226,17.4193548 99.2903226,18.2903226" id="Shape" fill="#FFFFFF" fill-rule="nonzero"></path>
                <path d="M108.870968,13.9354839 C108.870968,14.1096774 108.870968,14.1096774 108.870968,14.283871 C109.219355,13.5870968 109.567742,13.0645161 110.090323,12.716129 C110.612903,12.3677419 111.135484,12.1935484 111.832258,12.0193548 C112.529032,12.0193548 113.051613,12.0193548 113.574194,12.1935484 C114.096774,12.3677419 114.445161,12.8903226 114.793548,13.4129032 C114.967742,13.7612903 115.141935,14.1096774 115.141935,14.4580645 C115.141935,14.8064516 115.316129,15.3290323 115.316129,15.8516129 C115.490323,17.9419355 115.664516,18.8129032 115.83871,20.7290323 C115.83871,21.2516129 115.83871,21.6 115.664516,21.7741935 C115.490323,21.9483871 115.141935,22.1225806 114.793548,22.2967742 C114.445161,22.2967742 114.096774,22.2967742 113.922581,21.9483871 C113.748387,21.7741935 113.574194,21.4258065 113.4,20.9032258 C113.225806,19.3354839 113.051613,18.2903226 112.877419,16.5483871 C112.703226,15.6774194 112.529032,14.9806452 112.354839,14.6322581 C112.006452,14.1096774 111.658065,13.9354839 110.96129,14.1096774 C110.612903,14.1096774 110.090323,14.283871 109.916129,14.6322581 C109.567742,14.9806452 109.393548,15.3290323 109.219355,15.8516129 C109.219355,16.2 109.219355,17.0709677 109.219355,18.116129 C109.393548,19.5096774 109.393548,20.0322581 109.567742,21.2516129 C109.567742,21.7741935 109.567742,22.1225806 109.393548,22.2967742 C109.219355,22.6451613 108.870968,22.6451613 108.522581,22.8193548 C108.174194,22.8193548 107.825806,22.8193548 107.651613,22.4709677 C107.477419,22.2967742 107.303226,21.9483871 107.129032,21.4258065 C106.780645,18.6387097 106.606452,16.8967742 106.083871,13.9354839 C106.083871,13.4129032 106.083871,13.0645161 106.258065,12.716129 C106.432258,12.3677419 106.606452,12.3677419 106.954839,12.1935484 C107.129032,12.1935484 107.303226,12.1935484 107.477419,12.1935484 C107.651613,12.1935484 107.825806,12.3677419 108,12.5419355 C108.174194,12.716129 108.696774,13.5870968 108.870968,13.9354839" id="Path" fill="#FFFFFF" fill-rule="nonzero"></path>
                <path d="M118.277419,12.8903226 C119.322581,15.3290323 119.670968,16.5483871 120.716129,18.8129032 C121.412903,16.3741935 121.76129,14.9806452 122.283871,12.3677419 C122.458065,11.8451613 122.632258,11.4967742 122.632258,11.3225806 C122.806452,11.1483871 122.980645,10.9741935 123.329032,10.9741935 C123.677419,10.9741935 123.851613,10.9741935 124.2,11.3225806 C124.374194,11.4967742 124.548387,11.8451613 124.548387,12.0193548 C124.548387,12.1935484 124.548387,12.1935484 124.548387,12.3677419 C124.548387,12.5419355 124.548387,12.716129 124.374194,12.8903226 C124.374194,13.0645161 124.2,13.2387097 124.2,13.4129032 C123.329032,16.0258065 122.980645,17.4193548 122.283871,19.8580645 C122.283871,20.0322581 122.109677,20.2064516 122.109677,20.5548387 C122.109677,20.9032258 121.935484,21.0774194 121.76129,21.2516129 C121.587097,21.4258065 121.587097,21.6 121.412903,21.7741935 C121.23871,21.9483871 121.064516,21.9483871 120.716129,21.9483871 C120.367742,21.9483871 120.193548,21.9483871 119.845161,21.7741935 C119.670968,21.6 119.496774,21.4258065 119.322581,21.2516129 C119.148387,21.0774194 118.974194,20.7290323 118.8,20.2064516 C117.754839,17.9419355 117.232258,16.7225806 116.012903,14.283871 C116.012903,14.1096774 115.83871,13.9354839 115.83871,13.7612903 C115.83871,13.5870968 115.664516,13.4129032 115.664516,13.2387097 C115.664516,13.0645161 115.664516,12.8903226 115.490323,12.8903226 C115.490323,12.716129 115.490323,12.5419355 115.664516,12.3677419 C115.664516,12.1935484 115.83871,12.0193548 116.012903,11.8451613 C116.187097,11.6709677 116.36129,11.6709677 116.535484,11.6709677 C116.883871,11.6709677 117.232258,11.6709677 117.406452,12.0193548 C117.929032,12.0193548 118.103226,12.3677419 118.277419,12.8903226" id="Path" fill="#FFFFFF" fill-rule="nonzero"></path>
                <path d="M132.212903,16.5483871 C130.296774,16.5483871 129.425806,16.5483871 127.509677,16.7225806 C127.509677,17.2451613 127.683871,17.7677419 127.858065,18.2903226 C128.032258,18.8129032 128.380645,18.9870968 128.729032,19.3354839 C129.077419,19.5096774 129.425806,19.683871 129.948387,19.683871 C130.296774,19.683871 130.470968,19.683871 130.645161,19.5096774 C130.819355,19.5096774 131.167742,19.3354839 131.341935,19.1612903 C131.516129,18.9870968 131.690323,18.8129032 131.864516,18.6387097 C132.03871,18.4645161 132.212903,18.116129 132.56129,17.9419355 C132.735484,17.7677419 132.909677,17.7677419 133.083871,17.7677419 C133.258065,17.7677419 133.606452,17.7677419 133.606452,17.9419355 C133.780645,18.116129 133.780645,18.2903226 133.780645,18.6387097 C133.780645,18.8129032 133.780645,19.1612903 133.606452,19.5096774 C133.432258,19.8580645 133.258065,20.0322581 132.909677,20.3806452 C132.56129,20.7290323 132.387097,20.7290323 131.864516,20.9032258 C131.341935,21.0774194 130.819355,21.2516129 130.122581,21.2516129 C128.554839,21.2516129 127.509677,20.9032258 126.63871,20.0322581 C125.767742,19.1612903 125.245161,17.9419355 125.245161,16.2 C125.245161,15.3290323 125.245161,14.6322581 125.419355,13.9354839 C125.593548,13.2387097 125.941935,12.716129 126.290323,12.1935484 C126.63871,11.6709677 127.16129,11.3225806 127.683871,10.9741935 C128.206452,10.6258065 128.903226,10.4516129 129.6,10.4516129 C130.470968,10.4516129 131.341935,10.6258065 132.03871,10.9741935 C132.735484,11.3225806 133.258065,12.0193548 133.606452,12.716129 C133.954839,13.4129032 134.129032,14.1096774 134.129032,14.8064516 C134.129032,15.5032258 133.954839,15.8516129 133.606452,16.2 C133.432258,16.5483871 132.909677,16.5483871 132.212903,16.5483871 M127.509677,15.1548387 C129.251613,15.1548387 130.122581,14.9806452 131.864516,14.9806452 C131.864516,14.1096774 131.516129,13.4129032 131.167742,12.8903226 C130.819355,12.3677419 130.296774,12.1935484 129.6,12.1935484 C129.077419,12.1935484 128.554839,12.5419355 128.206452,12.8903226 C127.858065,13.5870968 127.683871,14.283871 127.509677,15.1548387" id="Shape" fill="#FFFFFF" fill-rule="nonzero"></path>
                <path d="M137.787097,11.8451613 C137.787097,12.0193548 137.787097,12.0193548 137.787097,12.1935484 C138.135484,11.4967742 138.658065,11.1483871 139.180645,10.8 C139.703226,10.4516129 140.225806,10.4516129 140.922581,10.4516129 C141.619355,10.4516129 142.141935,10.6258065 142.664516,10.9741935 C143.187097,11.3225806 143.535484,11.6709677 143.709677,12.3677419 C143.883871,12.716129 143.883871,13.0645161 144.058065,13.4129032 C144.058065,13.7612903 144.058065,14.283871 144.058065,14.8064516 C144.058065,16.8967742 144.058065,17.7677419 143.883871,19.683871 C143.883871,20.2064516 143.709677,20.5548387 143.535484,20.7290323 C143.36129,20.9032258 143.012903,21.0774194 142.664516,21.0774194 C142.316129,21.0774194 141.967742,20.9032258 141.793548,20.7290323 C141.619355,20.5548387 141.445161,20.0322581 141.445161,19.683871 C141.445161,17.9419355 141.445161,17.0709677 141.445161,15.3290323 C141.445161,14.4580645 141.445161,13.7612903 141.096774,13.2387097 C140.922581,12.716129 140.4,12.5419355 139.703226,12.5419355 C139.354839,12.5419355 138.832258,12.716129 138.483871,12.8903226 C138.135484,13.2387097 137.787097,13.5870968 137.787097,14.1096774 C137.612903,14.4580645 137.612903,15.3290323 137.612903,16.3741935 C137.612903,17.7677419 137.612903,18.4645161 137.612903,19.683871 C137.612903,20.2064516 137.43871,20.5548387 137.264516,20.7290323 C137.090323,20.9032258 136.741935,21.0774194 136.393548,21.0774194 C136.045161,21.0774194 135.696774,20.9032258 135.522581,20.7290323 C135.348387,20.5548387 135.174194,20.2064516 135.174194,19.683871 C135.174194,16.8967742 135.174194,15.1548387 135.174194,12.0193548 C135.174194,11.4967742 135.348387,11.1483871 135.522581,10.8 C135.696774,10.4516129 136.045161,10.4516129 136.393548,10.4516129 C136.567742,10.4516129 136.741935,10.4516129 136.916129,10.6258065 C137.090323,10.8 137.264516,10.9741935 137.264516,11.1483871 C137.264516,11.3225806 137.787097,11.4967742 137.787097,11.8451613" id="Path" fill="#FFFFFF" fill-rule="nonzero"></path>
                <path d="M147.193548,9.40645161 C146.845161,9.40645161 146.496774,9.23225806 146.322581,9.05806452 C146.148387,8.88387097 145.974194,8.53548387 145.974194,8.18709677 C145.974194,7.83870968 146.148387,7.49032258 146.322581,7.31612903 C146.670968,6.96774194 146.845161,6.96774194 147.193548,6.96774194 C147.541935,6.96774194 147.890323,6.96774194 148.064516,7.31612903 C148.23871,7.49032258 148.412903,7.83870968 148.412903,8.18709677 C148.412903,8.53548387 148.23871,8.88387097 148.064516,9.05806452 C147.716129,9.23225806 147.367742,9.40645161 147.193548,9.40645161 M148.23871,12.0193548 C148.064516,15.1548387 148.064516,16.7225806 147.890323,19.5096774 C147.890323,20.0322581 147.716129,20.3806452 147.541935,20.5548387 C147.367742,20.7290323 147.019355,20.9032258 146.670968,20.9032258 C146.322581,20.9032258 145.974194,20.7290323 145.8,20.5548387 C145.625806,20.3806452 145.451613,19.8580645 145.451613,19.5096774 C145.625806,16.7225806 145.625806,14.9806452 145.8,12.0193548 C145.8,11.4967742 145.974194,11.1483871 146.148387,10.8 C146.322581,10.6258065 146.670968,10.4516129 147.019355,10.4516129 C147.367742,10.4516129 147.716129,10.6258065 147.890323,10.8 C148.064516,11.1483871 148.23871,11.6709677 148.23871,12.0193548" id="Shape" fill="#FFFFFF" fill-rule="nonzero"></path>
                <path d="M155.903226,19.683871 C155.903226,19.5096774 155.903226,19.5096774 155.903226,19.5096774 C155.554839,19.8580645 155.206452,20.2064516 154.858065,20.3806452 C154.509677,20.5548387 154.16129,20.7290323 153.812903,20.9032258 C153.464516,21.0774194 153.116129,21.0774194 152.593548,21.0774194 C152.070968,21.0774194 151.548387,20.9032258 151.025806,20.7290323 C150.503226,20.5548387 150.154839,20.2064516 149.806452,19.683871 C149.458065,19.1612903 149.283871,18.6387097 149.109677,17.9419355 C148.935484,17.2451613 148.935484,16.5483871 148.935484,15.8516129 C148.935484,14.283871 149.458065,12.8903226 150.329032,12.0193548 C151.2,11.1483871 152.070968,10.8 153.290323,10.8 C153.987097,10.8 154.509677,10.9741935 155.032258,11.3225806 C155.554839,11.6709677 155.903226,12.0193548 156.425806,12.5419355 C156.774194,11.1483871 156.774194,10.4516129 156.948387,8.88387097 C156.948387,8.36129032 157.122581,8.01290323 157.296774,7.83870968 C157.470968,7.66451613 157.819355,7.49032258 158.167742,7.49032258 C158.516129,7.49032258 158.864516,7.66451613 159.03871,7.83870968 C159.212903,8.01290323 159.212903,8.36129032 159.212903,8.88387097 C158.690323,13.0645161 158.516129,15.5032258 158.167742,19.683871 C158.167742,20.2064516 157.993548,20.3806452 157.819355,20.7290323 C157.645161,20.9032258 157.296774,21.0774194 156.948387,21.0774194 C156.6,21.0774194 156.425806,20.9032258 156.251613,20.7290323 C156.077419,20.5548387 155.903226,20.2064516 155.903226,19.683871 M151.548387,16.0258065 C151.548387,16.7225806 151.548387,17.2451613 151.722581,17.7677419 C151.896774,18.2903226 152.070968,18.6387097 152.419355,18.8129032 C152.767742,18.9870968 153.116129,19.1612903 153.464516,19.1612903 C153.812903,19.1612903 154.335484,18.9870968 154.683871,18.8129032 C155.032258,18.6387097 155.380645,18.2903226 155.554839,17.7677419 C155.729032,17.2451613 155.903226,16.7225806 156.077419,16.0258065 C156.077419,15.3290323 156.077419,14.8064516 155.903226,14.283871 C155.729032,13.7612903 155.554839,13.4129032 155.206452,13.0645161 C154.858065,12.716129 154.509677,12.716129 153.987097,12.5419355 C153.464516,12.5419355 153.116129,12.5419355 152.767742,12.8903226 C152.419355,13.0645161 152.070968,13.5870968 151.896774,13.9354839 C151.722581,14.8064516 151.722581,15.3290323 151.548387,16.0258065" id="Shape" fill="#FFFFFF" fill-rule="nonzero"></path>
                <path d="M165.658065,20.3806452 C165.483871,20.3806452 164.43871,21.0774194 163.916129,21.2516129 C163.393548,21.4258065 162.696774,21.4258065 162.174194,21.4258065 C161.651613,21.4258065 161.129032,21.2516129 160.606452,20.9032258 C160.258065,20.7290323 159.909677,20.3806452 159.735484,19.8580645 C159.56129,19.5096774 159.387097,18.9870968 159.56129,18.4645161 C159.56129,17.7677419 159.909677,17.2451613 160.432258,16.8967742 C160.954839,16.3741935 161.477419,16.2 162.174194,16.0258065 C162.348387,16.0258065 162.696774,16.0258065 163.393548,15.8516129 C164.090323,15.8516129 164.612903,15.6774194 164.96129,15.6774194 C165.483871,15.6774194 166.354839,15.6774194 166.354839,15.5032258 C166.529032,15.3290323 166.354839,14.4580645 166.180645,14.1096774 C166.006452,13.7612903 165.483871,13.5870968 164.787097,13.4129032 C164.090323,13.4129032 163.741935,13.4129032 163.393548,13.5870968 C163.045161,13.7612903 162.696774,13.9354839 162.522581,14.283871 C162.348387,14.6322581 162,14.8064516 162,14.9806452 C161.825806,15.1548387 161.651613,15.1548387 161.477419,15.1548387 C161.129032,15.1548387 160.954839,14.9806452 160.780645,14.8064516 C160.606452,14.6322581 160.606452,14.4580645 160.606452,14.1096774 C160.606452,13.7612903 160.780645,13.2387097 161.129032,12.8903226 C161.477419,12.5419355 162,12.1935484 162.696774,12.0193548 C163.393548,11.8451613 164.264516,11.8451613 165.135484,11.8451613 C166.180645,12.0193548 167.051613,12.1935484 167.574194,12.5419355 C168.096774,12.8903226 168.445161,13.2387097 168.619355,13.9354839 C168.793548,14.4580645 168.793548,15.1548387 168.619355,16.0258065 C168.619355,16.5483871 168.445161,17.0709677 168.445161,17.4193548 C168.445161,17.7677419 168.270968,18.2903226 168.270968,18.6387097 C168.270968,18.9870968 168.270968,19.5096774 168.270968,20.0322581 C168.270968,20.5548387 168.445161,20.9032258 168.270968,20.9032258 C168.270968,21.0774194 168.096774,21.2516129 167.748387,21.4258065 C167.574194,21.6 167.225806,21.6 166.877419,21.6 C166.703226,21.6 166.354839,21.4258065 166.180645,21.2516129 C166.006452,21.0774194 165.832258,20.3806452 165.658065,20.3806452 M166.006452,16.8967742 C165.658065,16.8967742 165.135484,17.0709677 164.43871,17.0709677 C163.741935,17.0709677 163.219355,17.2451613 163.045161,17.2451613 C162.696774,17.2451613 162.522581,17.4193548 162.348387,17.5935484 C162.174194,17.7677419 162,18.116129 161.825806,18.4645161 C161.825806,18.8129032 161.825806,19.1612903 162.174194,19.3354839 C162.348387,19.683871 162.696774,19.683871 163.219355,19.8580645 C163.741935,19.8580645 164.090323,19.8580645 164.612903,19.683871 C164.96129,19.5096774 165.309677,19.3354839 165.658065,18.9870968 C165.832258,18.6387097 166.180645,18.116129 166.180645,17.2451613 C166.006452,17.2451613 166.006452,17.0709677 166.006452,16.8967742" id="Shape" fill="#FFFFFF" fill-rule="nonzero"></path>
            </g>
        </g>
    </g>
</svg>