<svg xmlns="http://www.w3.org/2000/svg" xmlns:xlink="http://www.w3.org/1999/xlink" width="227.692" height="100" viewBox="0 0 227.692 100">
  <defs>
    <clipPath id="clip-path">
      <path id="Trazado_88" data-name="Trazado 88" d="M154.352,358.78v-100H-73.34v100H154.352" transform="translate(73.34 -258.78)" fill="none"/>
    </clipPath>
  </defs>
  <g id="Grupo_2" data-name="Grupo 2" transform="translate(73.34 -258.78)">
    <g id="Grupo_1" data-name="Grupo 1" transform="translate(-73.34 258.78)" clip-path="url(#clip-path)">
      <path id="Trazado_1" data-name="Trazado 1" d="M-73.22,258.9l227.655,94.727H-73.22Zm227.655,0H-73.22l227.655,94.727Z" transform="translate(73.257 -258.863)"/>
      <path id="Trazado_2" data-name="Trazado 2" d="M-73.22,258.9l227.655,94.727H-73.22Zm227.655,0H-73.22l227.655,94.727Z" transform="translate(73.257 -258.863)" fill="none" stroke="#000" stroke-miterlimit="10"/>
      <path id="Trazado_3" data-name="Trazado 3" d="M-73.22,353.627V258.9H154.435v94.727H-73.22" transform="translate(73.257 -258.863)" fill="none" stroke="#000" stroke-linecap="round" stroke-linejoin="round" stroke-width="0.72"/>
      <path id="Trazado_4" data-name="Trazado 4" d="M-18.38,445.86l193.953,5.273H-18.38Zm193.953,0H-18.38l193.953,5.273Z" transform="translate(35.268 -388.375)" fill="#f8d731"/>
      <path id="Trazado_5" data-name="Trazado 5" d="M-18.38,445.86l193.953,5.273H-18.38Zm193.953,0H-18.38l193.953,5.273Z" transform="translate(35.268 -388.375)" fill="none" stroke="#f8d731" stroke-linecap="round" stroke-miterlimit="10"/>
      <rect id="Rect치ngulo_4" data-name="Rect치ngulo 4" width="1.881" height="9.587" transform="translate(18.768 68.768)" fill="#939598"/>
      <path id="Trazado_6" data-name="Trazado 6" d="M7.042,497.986H5.235v-4.167l-.037-.147v-.111l-.037-.148-.037-.111-.037-.111-.037-.111-.037-.111-.074-.111-.037-.074-.074-.074-.074-.074-.074-.037-.111-.074-.074-.037-.074-.037-.111-.037H4.2l-.111-.037H3.834l-.147.037-.111.037-.111.037-.111.037-.111.037-.111.074-.074.111-.111.074-.037.037-.074.111-.074.074-.037.111-.074.111-.037.111-.037.148-.037.111v.148l-.037.111v4.093H.7v-6.858H2.507v1.106h.037l.074-.111.074-.111.074-.111.074-.074.074-.111.111-.074.074-.111.111-.074.074-.074.111-.037.111-.074.111-.037.111-.074.111-.037.111-.037.111-.037.111-.037h.147l.111-.037h.7l.111.037h.148l.074.037.111.037.111.037.111.037.074.037.111.037.074.074.074.037.111.074.074.074.074.037.037.074.074.111.074.074.037.074.074.111.037.074.074.111.037.111.037.111.037.111.037.111.037.147v.111l.037.148v.148l.037.111v4.72Z" transform="translate(22.051 -419.63)" fill="#939598"/>
      <path id="Trazado_7" data-name="Trazado 7" d="M30.868,494.077v-.258l-.037-.148v-.111l-.037-.111-.074-.111-.037-.111-.074-.111-.074-.111-.074-.111-.111-.111-.111-.074-.074-.074-.111-.074-.111-.074-.111-.037-.111-.037h-.147l-.111-.037h-.258l-.147.037h-.111l-.111.037-.111.037-.111.074-.111.037-.111.074-.111.074-.074.111-.074.074-.037.074-.074.074-.074.111-.037.074-.037.111-.074.111-.037.111-.037.111-.037.148v.111l-.037.147v.147l-.037.148v.442l.037.148v.258l.037.147.037.111.037.111.037.111.037.111.074.111.074.111.037.074.037.037.074.111.111.074.074.111.111.037.111.074.111.037.111.074h.111l.147.037H29.5l.111-.037.111-.037.111-.037.111-.037.111-.074.111-.074.111-.074.074-.111.074-.074.074-.074.074-.111.037-.111.074-.111.037-.111.037-.111.037-.111.037-.147.037-.111v-1.106Zm1.807,3.208v.443l-.037.147v.148l-.037.111v.147l-.037.111-.037.147v.111l-.037.148-.037.111-.074.111-.037.111-.037.111-.037.111-.074.111-.074.111-.037.074-.074.111-.074.074-.074.111-.074.074-.074.111-.074.074-.111.074-.074.074-.074.074-.111.074-.074.074-.111.037-.111.074-.074.074-.111.037-.111.037-.111.074-.111.037-.111.037-.147.037-.111.037-.111.037-.147.037h-.111l-.147.037H29.43l-.147.037h-.258l-.147.037h-.59l-.147-.037h-.295l-.147-.037h-.111l-.147-.037h-.111l-.147-.037-.111-.037-.111-.037-.111-.037-.111-.037-.111-.037-.111-.037-.111-.037-.037-.037V499.2l.111.074.147.074.111.074.111.037.147.074.111.037.111.037.147.037.111.037.111.037.147.037.111.037h.111l.147.037h.848l.147-.037.147-.037h.111l.111-.037.111-.074.111-.037.111-.037.111-.074.111-.037.074-.074.111-.074.037-.074.111-.074.074-.111.074-.074.037-.111.074-.111.037-.074.037-.148.074-.111.037-.111v-.111l.037-.147v-.148l.037-.147v-.811h-.037l-.074.111-.074.111-.074.111-.074.074-.074.111-.111.074-.074.074-.111.074-.111.074-.074.074-.111.037-.111.074-.111.037-.111.037-.111.037-.147.037-.111.037h-.111l-.147.037h-.553l-.111-.037H28.1l-.111-.037-.147-.037-.111-.037-.111-.037-.111-.037-.111-.037-.111-.074-.111-.074-.111-.037L27,497.654l-.111-.111-.111-.074L26.7,497.4l-.074-.111-.037-.037-.074-.111-.074-.074-.074-.111-.074-.074-.037-.111-.074-.111-.037-.111-.074-.111-.037-.111L26,496.216l-.037-.111-.037-.148-.037-.111V495.7l-.037-.111-.037-.148v-.258l-.037-.148v-.553l.037-.147v-.3l.037-.111v-.147l.037-.148.037-.111.037-.111.037-.147.037-.111.037-.111.037-.111.037-.111.037-.111.074-.111.037-.111.074-.111.074-.074.074-.111.037-.111.074-.074h.037l.074-.111.074-.074.111-.111.074-.074.111-.074.111-.074.074-.074.111-.074.111-.074.111-.037.111-.037.111-.074.111-.037.147-.037h.111l.111-.037h.147l.111-.037h.737l.111.037.147.037.111.037.111.037.111.037.111.037.111.074.111.074.074.074.111.074.074.074.074.074.111.111.074.111.074.074v.037h.037v-.848h1.807Z" transform="translate(4.677 -419.63)" fill="#939598"/>
      <path id="Trazado_8" data-name="Trazado 8" d="M57.7,493.893V493.6l-.037-.147V493.3l-.037-.111-.037-.111-.037-.111-.037-.111-.074-.074-.037-.111-.074-.074-.074-.074-.074-.037-.111-.074L57,492.381l-.111-.037-.111-.037-.111-.037h-.221l-.074-.037-.147.037h-.111l-.111.037-.111.037-.147.037-.074.074-.111.074-.111.074-.074.111-.074.074-.074.074-.074.111-.074.111-.037.111-.074.111-.037.148-.037.111-.037.147v.111l-.037.074Zm1.733,1.18H54.827l.037.148v.111l.037.148.037.111v.111l.074.111.037.111.037.074.074.111.037.074.074.074.074.074.074.074.074.074.111.074.074.037.111.037.111.074.111.037.111.037h.111l.147.037h.258l.147.037h.184l.147-.037h.258l.111-.037h.147l.111-.037.111-.037.147-.037.111-.037.111-.037.111-.074.111-.037.111-.074.111-.037.111-.074.074-.074v1.4l-.074.037-.111.074-.111.037-.111.037-.111.074-.111.037-.111.037-.111.037h-.111l-.147.037-.111.037-.111.037h-.147l-.147.037h-.258l-.147.037h-.7l-.147-.037h-.258l-.147-.037-.111-.037-.147-.037H55.2l-.111-.074-.111-.037-.111-.037-.111-.037-.111-.074-.111-.037-.111-.074-.074-.074-.111-.074-.111-.074-.074-.074-.074-.074-.037-.037-.111-.111-.074-.074-.074-.074-.037-.111-.074-.111L53.5,496.7l-.037-.111-.074-.111-.037-.111-.037-.111-.074-.111-.037-.111-.037-.148v-.111l-.037-.148-.037-.111v-.147l-.037-.111v-.295l-.037-.148v-.295l.037-.148v-.295l.037-.111v-.148l.037-.111.037-.147v-.111l.037-.111.037-.147.074-.111.037-.111.037-.111.074-.111.037-.111.074-.111.074-.074.074-.111.037-.111.111-.074.074-.111.037-.074.111-.074.074-.111.111-.074.111-.074.074-.074.111-.074.111-.074.111-.074.111-.037.111-.074.111-.037.111-.037.111-.037.111-.037.147-.037.111-.037h.147l.111-.037h.848l.111.037h.147l.111.037.147.037.111.037.111.037.111.037.147.037.074.074.111.037.111.074.111.074.074.074.111.074.074.074.111.074.037.074.074.074.074.074.074.111.074.111.037.074.074.111.037.111.074.111.037.111.037.111.037.111.037.148.037.111.037.147v.111l.037.147v.258l.037.147v1.032Z" transform="translate(-14.193 -419.63)" fill="#939598"/>
      <path id="Trazado_9" data-name="Trazado 9" d="M84.682,497.986H82.875v-4.167l-.037-.147v-.111l-.037-.148-.037-.111-.037-.111-.037-.111-.037-.111-.074-.111-.037-.074-.074-.074-.074-.074-.074-.037-.074-.074-.111-.037-.074-.037-.111-.037h-.111l-.111-.037h-.258l-.111.037-.147.037-.111.037-.111.037-.111.037-.111.074-.074.111-.111.074-.037.037-.074.111-.037.074-.074.111-.037.111-.074.111-.037.148v.111l-.037.148v4.2H78.34v-6.858h1.844v1.106l.074-.111.074-.111.074-.111.074-.074.111-.111.074-.074.074-.111.111-.074.111-.074.074-.037.111-.074.111-.037.111-.074.111-.037.111-.037.111-.037.111-.037h.147l.111-.037H82.8l.111.037h.111l.111.037.111.037.074.037.111.037.111.037.074.037.074.074.111.037.074.074.074.074.074.037.074.074.037.111.074.074.074.074.037.111.074.074.037.111.037.111.037.111.037.111.037.111.037.147v.111l.037.148v.148l.037.111v4.72Z" transform="translate(-31.732 -419.63)" fill="#939598"/>
      <path id="Trazado_10" data-name="Trazado 10" d="M104.407,491v-6.858h1.807V491Zm-.147-9.108v-.148l.037-.111.037-.111.074-.111.074-.111.074-.111.111-.074.111-.074.111-.037.111-.037.111-.037.147-.037h.074l.147.037h.111l.147.037.111.037.111.074.074.074.074.037.074.074.074.111.074.111.037.111.037.111v.332l-.037.111-.037.111-.037.111-.074.111-.074.074-.037.037-.111.074-.074.074-.147.037-.111.037-.111.037-.147.037h-.074l-.147-.037h-.111l-.111-.037-.147-.037-.111-.074-.074-.074-.074-.037-.074-.111-.074-.111-.074-.111-.037-.111-.037-.111V481.9Z" transform="translate(-49.688 -412.648)" fill="#939598"/>
      <path id="Trazado_11" data-name="Trazado 11" d="M120.1,493.893v-.147l-.037-.148v-.147l-.037-.148v-.111l-.037-.111-.037-.111-.074-.111-.037-.074-.074-.111-.074-.074-.074-.074-.074-.037-.074-.074-.074-.037-.111-.037-.111-.037-.111-.037h-.258l-.074-.037-.111.037h-.111l-.147.037-.111.037-.111.037-.111.074-.111.074-.074.074-.074.111-.111.074-.074.074-.037.111-.074.111-.074.111-.037.111-.037.148-.037.111-.037.147-.037.111v.074Zm1.7,1.18h-4.572v.148l.037.111v.148l.037.111.037.111.037.111.037.111.074.074.037.111.074.074.074.074.074.074.074.074.074.074.074.074.111.037.111.037.111.074.111.037.111.037h.111l.111.037h.295l.147.037h.184l.111-.037h.258l.147-.037h.111l.147-.037.111-.037.111-.037.111-.037.147-.037.111-.074.111-.037.111-.074.111-.037.111-.074.074-.074v1.4l-.111.037-.074.074-.111.037-.111.037-.111.074-.111.037-.111.037-.111.037h-.147l-.111.037-.111.037-.147.037h-.111l-.148.037h-.295l-.111.037h-.7l-.147-.037h-.258l-.147-.037-.111-.037-.148-.037H117.6l-.111-.074-.147-.037-.111-.037-.111-.037-.111-.074-.074-.037-.111-.074-.111-.074-.074-.074-.111-.074-.074-.074-.111-.074-.037-.037-.074-.111-.074-.074-.074-.074-.074-.111-.037-.111-.074-.074-.074-.111-.037-.111-.037-.111-.074-.111-.037-.111-.037-.111-.037-.148-.037-.111-.037-.148v-.111l-.037-.147v-.111l-.037-.148v-.885l.037-.147v-.111l.037-.148v-.111l.037-.147.037-.111.037-.111.037-.147.037-.111.074-.111.037-.111.037-.111.074-.111.074-.111.037-.074.074-.111.074-.111.074-.074.074-.111.074-.074.111-.074.074-.111.111-.074.074-.074.111-.074.111-.074.111-.074.111-.074.074-.037.111-.074.148-.037.111-.037.111-.037.111-.037.111-.037.147-.037h.111l.147-.037h.811l.147.037h.147l.111.037.147.037.111.037.111.037.111.037.111.037.111.074.111.037.111.074.074.074.111.074.111.074.074.074.074.074.074.074.074.074.074.074.074.111.037.111.074.074.074.111.037.111.037.111.074.111.037.111.037.111.037.148v.111l.037.147.037.111v.147l.037.148v1.291Z" transform="translate(-57.419 -419.63)" fill="#939598"/>
      <path id="Trazado_12" data-name="Trazado 12" d="M144.944,492.907l-.111-.074-.111-.037-.111-.037-.111-.037-.147-.037H143.8l-.111.037-.111.037-.111.037-.111.074-.111.074-.111.074-.074.111-.074.074-.037.037-.037.074-.074.111-.037.111-.074.111-.037.111-.037.111-.037.111v.147l-.037.148v.111l-.037.148v3.54H140.74v-6.858h1.807v1.327h.037l.037-.148.074-.111.037-.147.074-.111.074-.111.074-.111.074-.074.074-.111.074-.074.074-.074.111-.074.074-.037.111-.074.111-.037.111-.037.111-.037.111-.037h.111l.111-.037h.479l.111.037.111.037h.037Z" transform="translate(-74.958 -419.714)" fill="#939598"/>
      <path id="Trazado_13" data-name="Trazado 13" d="M157.448,491v-6.858h1.807V491ZM157.3,481.9v-.148l.037-.111.037-.111.037-.111.074-.111.111-.111.111-.074.074-.074.111-.037.148-.037.111-.037.148-.037h.074l.147.037h.111l.111.037.111.037.111.074.111.074.074.037.074.074.074.111.074.111.037.111.037.111v.332l-.037.111-.037.111-.074.111-.037.111-.111.074v.037l-.111.074-.111.074-.111.037-.111.037-.111.037-.148.037h-.074l-.148-.037h-.111l-.147-.037-.111-.037-.111-.074-.074-.074-.074-.037-.074-.111-.074-.111-.074-.111-.037-.111-.037-.111V481.9Z" transform="translate(-86.43 -412.648)" fill="#939598"/>
      <path id="Trazado_14" data-name="Trazado 14" d="M171.013,494.852l-.184.037-.147.037-.111.037-.111.037-.111.037-.111.074-.111.074-.074.074-.074.074-.037.074-.037.111-.037.111-.037.074v.332l.037.147.037.111.037.111.074.111.074.074.111.074.111.037.111.074.111.037h.111l.148.037h.074l.111-.037h.147l.111-.037.148-.037.111-.037.111-.037.074-.074.111-.074.111-.111.037-.037.074-.111.074-.074.074-.111.037-.111.074-.111.037-.111.037-.147v-.258l.037-.111V494.7Zm-2.249-3.282.111-.037.111-.074.111-.037.111-.037.111-.074.147-.037.111-.037.148-.037.147-.037.111-.037.147-.037h.148l.111-.037.147-.037h.258l.111-.037h.811l.147.037h.111l.147.037h.111l.111.037.111.037.111.037.111.037.111.037.074.037.111.074.074.037.074.074.111.037.074.074.074.074.074.074.074.074.037.074.074.111.074.074.037.111.037.074.074.111.037.111.037.111.037.111v.111l.037.111.037.111v.148l.037.111v4.72H172.34v-1H172.3l-.037.111-.074.111-.111.111-.074.074-.074.111-.074.074-.111.074-.074.074-.111.074-.111.074-.111.037-.111.074-.111.037-.111.037-.111.037-.111.037h-.148l-.111.037h-.553l-.147-.037h-.111l-.148-.037-.111-.037-.111-.037-.111-.037-.111-.074-.111-.037-.111-.074-.074-.074-.111-.074-.037-.037-.074-.111-.074-.074-.074-.111-.074-.111-.074-.074-.037-.111-.037-.147-.037-.111-.037-.111-.037-.148V496.4l-.037-.147v-.258l.037-.148v-.221l.037-.111.037-.111.037-.111.037-.111.037-.074.037-.111.074-.111.037-.074.074-.074.074-.074.074-.111.074-.074.074-.037.074-.074.111-.074.111-.074.074-.037.111-.074.111-.037.148-.037.111-.037.147-.037.111-.037.147-.037.147-.037h.148l.074-.037,1.917-.258-.037-.148v-.258l-.037-.111-.037-.111-.037-.111-.074-.074-.037-.074-.074-.111-.074-.037-.111-.074-.074-.037-.111-.074-.111-.037h-.111l-.111-.037h-.627l-.147.037h-.111l-.111.037H170.2l-.111.037-.111.037-.147.037-.111.037-.111.074-.111.037-.111.074-.147.037-.111.074-.111.074-.111.074-.111.074h-.037Z" transform="translate(-93.911 -419.63)" fill="#939598"/>
      <path id="Trazado_15" data-name="Trazado 15" d="M212.023,493.893V493.6l-.037-.147V493.3l-.037-.111-.037-.111-.037-.111-.037-.111-.074-.074-.074-.111-.037-.074-.074-.074-.074-.037-.111-.074-.074-.037-.111-.037-.111-.037-.111-.037h-.221l-.074-.037-.148.037h-.111l-.111.037-.147.037-.111.037-.111.074-.074.074-.111.074-.074.111-.074.074-.074.074-.074.111-.074.111-.037.111-.074.111-.037.148-.037.111-.037.147-.037.111v.074Zm1.733,1.18h-4.609l.037.148v.111l.037.148v.111l.037.111.037.111.074.111.037.074.037.111.074.074.074.074.074.074.074.074.074.074.111.074.074.037.111.037.111.074.111.037.111.037h.111l.148.037h.258l.148.037h.184l.111-.037h.295l.111-.037h.111l.147-.037.111-.037.111-.037.147-.037.111-.037.111-.074.111-.037.111-.074.111-.037.111-.074.074-.074v1.4l-.074.037-.111.074-.111.037-.111.037-.111.074-.111.037-.111.037-.111.037h-.111l-.147.037-.111.037-.147.037h-.111l-.148.037h-.258l-.147.037h-.7l-.147-.037h-.258l-.148-.037-.111-.037-.147-.037h-.111l-.111-.074-.111-.037-.111-.037-.111-.037-.111-.074-.111-.037-.111-.074-.111-.074-.074-.074-.111-.074-.074-.074-.074-.074-.074-.037-.074-.111-.074-.074L208,496.99l-.074-.111-.037-.111-.074-.074-.037-.111-.074-.111-.037-.111-.074-.111-.037-.111-.037-.111-.037-.148-.037-.111v-.148l-.037-.111v-.147l-.037-.111v-.148l-.037-.147v-.59l.037-.148v-.258l.037-.148.037-.111v-.147l.037-.111.037-.111.037-.147.037-.111.074-.111.037-.111.074-.111.037-.111.074-.111.074-.074.037-.111.074-.111.074-.074.111-.111.037-.074.111-.074.074-.111.111-.074.111-.074.074-.074.111-.074.111-.074.111-.074.111-.037.111-.074.111-.037.111-.037.111-.037.111-.037.148-.037.111-.037h.111l.147-.037h.848l.111.037h.147l.111.037.148.037.111.037.111.037.111.037.111.037.111.074.111.037.111.074.111.074.074.074.111.074.074.074.111.074.037.074.074.074.074.074.074.111.074.111.037.074.074.111.037.111.074.111.037.111.037.111.037.111.037.148.037.111v.147l.037.111.037.147v.258l.037.147v1.032Z" transform="translate(-121.094 -419.63)" fill="#939598"/>
      <path id="Trazado_16" data-name="Trazado 16" d="M239,497.986H237.2v-4.167l-.037-.147v-.111l-.037-.148-.037-.111-.037-.111-.037-.111-.037-.111-.074-.111-.037-.074-.074-.074-.074-.074-.074-.037-.074-.074-.111-.037-.074-.037-.111-.037h-.111l-.111-.037h-.258l-.148.037-.111.037-.111.037-.111.037-.111.037-.111.074-.074.111-.111.074-.037.037-.074.111-.037.074-.074.111-.037.111-.074.111-.037.148v.111l-.037.148v.111l-.037.147v3.945H232.66v-6.858h1.807v1.106h.037l.074-.111.074-.111.074-.111.074-.074.074-.111.111-.074.074-.111.111-.074.074-.074.111-.037.111-.074.111-.037.111-.074.111-.037.111-.037.111-.037.111-.037h.147l.111-.037h.7l.147.037h.111l.111.037.074.037.111.037.111.037.074.037.111.037.074.074.074.037.111.074.074.074.074.037.074.074.037.111.074.074.074.074.037.111.037.074.074.111.037.111.037.111.037.111.037.111.037.147v.111l.037.148v.148l.037.111v4.72Z" transform="translate(-138.633 -419.63)" fill="#939598"/>
      <rect id="Rect치ngulo_5" data-name="Rect치ngulo 5" width="1.881" height="9.587" transform="translate(107.043 68.768)" fill="#939598"/>
      <path id="Trazado_17" data-name="Trazado 17" d="M294.322,497.986h-1.807V494l-.037-.184v-.258l-.037-.148-.037-.111-.037-.111-.037-.111-.074-.111-.037-.111-.074-.074-.037-.074-.074-.074-.074-.037-.111-.074-.074-.037-.111-.037-.074-.037h-.111l-.111-.037h-.258l-.147.037-.111.037-.111.037-.111.037-.111.037-.111.074-.111.111-.074.074-.037.037-.074.111-.074.074-.037.111-.074.111-.037.111-.037.148-.037.111v.148l-.037.111v4.093H287.98v-6.858h1.807v1.106h.037l.074-.111.074-.111.074-.111.074-.074.074-.111.111-.074.074-.111.111-.074.074-.074.111-.037.111-.074.074-.037.111-.074.111-.037.111-.037.148-.037.111-.037h.111l.148-.037h.7l.111.037h.111l.111.037.111.037.111.037.111.037.074.037.111.037.074.074.074.037.074.074.074.074.074.037.074.074.074.111.074.074.037.074.074.111.037.074.037.111.074.111.037.111.037.111.037.111v.147l.037.111.037.148v.258l.037.147v4.572Z" transform="translate(-176.955 -419.63)" fill="#939598"/>
      <path id="Trazado_18" data-name="Trazado 18" d="M313.66,496.216l.148.111.111.037.111.074.111.074.148.037.111.074.111.037.147.037.111.037.111.037.111.037.147.037h.221l.147.037h.369l.147-.037h.147l.148-.037.111-.037.111-.037.111-.037.074-.074.074-.037.074-.074.037-.074.037-.111v-.332l-.037-.111-.074-.074-.074-.074-.074-.074-.111-.074-.111-.074-.147-.074-.148-.037-.147-.074-.074-.037-.184-.037-.147-.074-.184-.074-.147-.037-.147-.074-.111-.074-.147-.037-.111-.074-.111-.037-.111-.074-.074-.074-.111-.037-.074-.074-.074-.037-.074-.074-.037-.074h-.037l-.074-.111-.074-.111-.037-.111-.074-.111-.037-.111-.037-.111-.037-.111v-.295l-.037-.111v-.184l.037-.148v-.111l.037-.148.037-.111.037-.111.037-.111.074-.111.074-.074.074-.111.074-.111.074-.074.111-.074.111-.111.037-.037.111-.074.111-.037.074-.074.111-.037.111-.074.111-.037.111-.037.148-.037.111-.037.111-.037h.147l.111-.037h.147l.147-.037h.959l.111.037h.147l.111.037h.148l.111.037.147.037.111.037h.111l.147.037.111.037v1.512l-.111-.074-.111-.074-.111-.037-.147-.074-.111-.037-.111-.037-.111-.037-.147-.037-.111-.037h-.111l-.147-.037h-.7l-.148.037-.111.037-.111.037-.111.037-.074.037-.111.074-.074.074-.074.111-.037.111v.221l.037.111.037.074.074.074.074.111.074.074.111.074.111.074.147.037.148.074.037.037.184.037.147.074.147.037.111.074.147.037.111.037.147.074.074.037.111.037.111.037.074.074h.074l.111.074.111.074.111.074.111.111.074.074.074.111.074.111.037.037.074.111.037.111.074.111.037.148v.111l.037.111v.553l-.037.111v.111l-.037.148-.037.111-.074.111-.037.111-.074.111-.074.074-.074.111-.074.074-.074.111-.111.074-.111.074-.111.074-.074.074-.111.037-.111.037-.111.074-.111.037-.111.037-.111.037-.147.037-.111.037-.111.037h-.147l-.148.037h-.258l-.147.037h-.7l-.147-.037h-.258l-.147-.037-.111-.037h-.148l-.111-.037-.111-.037-.147-.037-.111-.037-.111-.037-.111-.037-.111-.037Z" transform="translate(-194.744 -419.63)" fill="#939598"/>
      <path id="Trazado_19" data-name="Trazado 19" d="M336.915,493.59l-.111.074-.111.037-.111.037h-.111l-.111.037-.148.037h-.258l-.147.037h-.332l-.147-.037h-.258l-.111-.037-.111-.037-.111-.037-.111-.037-.111-.037-.074-.037-.111-.037-.074-.074-.074-.074-.074-.037-.074-.074-.074-.074-.074-.111-.037-.074-.074-.111-.037-.074-.037-.111-.074-.111-.037-.111v-.111l-.037-.111-.037-.148v-.258l-.037-.148v-3.54H332.38v-1.4h1.106v-1.512l1.844-.553V486.8h1.586v1.4H335.33V491.6l.037.111.037.147.037.074.037.111.074.111.037.074.074.037.111.074.074.037.111.037h.516l.111-.037.111-.037.111-.074.111-.037Z" transform="translate(-207.712 -415.308)" fill="#939598"/>
      <path id="Trazado_20" data-name="Trazado 20" d="M355.46,492.907l-.111-.074-.111-.037-.111-.037-.147-.037-.111-.037h-.553l-.148.037-.111.037-.111.037-.111.074-.074.074-.111.074-.074.111-.111.074v.037l-.074.074-.037.111-.074.111-.037.111-.037.111-.037.111-.037.111-.037.147v.148l-.037.111v3.687H351.22v-6.858h1.844v1.327l.074-.148.037-.111.074-.147.037-.111.074-.111.074-.111.074-.074.074-.111.111-.074.074-.074.074-.074.111-.037.111-.074.074-.037.111-.037.111-.037.111-.037h.111l.147-.037h.442l.147.037.111.037h.037Z" transform="translate(-220.763 -419.714)" fill="#939598"/>
      <path id="Trazado_21" data-name="Trazado 21" d="M374.362,498.318h-1.807v-1.032h-.037l-.074.111-.074.111-.074.111-.074.074-.111.111-.074.074-.111.074-.074.111-.111.037-.111.074-.074.074-.111.037-.111.037-.111.074-.111.037h-.147l-.111.037h-.111l-.148.037h-.443l-.111-.037h-.111l-.111-.037h-.111l-.111-.037-.111-.037-.111-.037-.074-.037-.111-.037-.074-.037-.111-.074-.074-.037-.074-.074-.074-.074-.074-.074-.074-.074-.074-.074-.074-.074-.037-.111-.074-.074-.037-.111-.037-.111-.037-.074-.037-.111-.037-.148-.037-.111-.037-.111-.037-.111v-.148l-.037-.147v-.111l-.037-.148V491.46h1.807v4.093l.037.184v.111l.037.148v.111l.037.148.037.111.074.111.037.074.074.074.037.111.074.074.074.037.111.074.074.037.111.037.074.037.111.037h.59l.111-.037.111-.037.111-.037.111-.074.111-.074.074-.074.111-.111.074-.111.074-.074.074-.111.037-.111.037-.111.037-.111.037-.148.037-.111V491.46h1.807Z" transform="translate(-232.4 -419.963)" fill="#939598"/>
      <path id="Trazado_22" data-name="Trazado 22" d="M405.446,497.986h-1.807v-4.24l-.037-.148v-.111l-.037-.148-.037-.111-.037-.111-.037-.111-.074-.111-.037-.074-.074-.074-.074-.074-.074-.074-.074-.037-.074-.074-.111-.037-.111-.037h-.074l-.111-.037h-.295l-.111.037-.111.037-.111.037-.111.074-.111.037-.074.111-.111.074-.074.111-.074.111-.074.111-.037.111-.074.111-.037.111-.037.111v.148l-.037.111v4.167h-1.844v-4.425l-.037-.148-.037-.111-.037-.147-.037-.111-.037-.074-.074-.111-.037-.074-.074-.074-.074-.074-.074-.074-.074-.037-.111-.037-.111-.037-.074-.037h-.111l-.148-.037h-.184l-.148.037-.111.037-.111.037-.111.037-.111.074-.074.074-.111.111-.074.074-.074.111-.037.074-.074.111-.037.111-.037.111-.037.148-.037.111v.148l-.037.111v4.093H394.9v-6.858h1.807v1.106h.037l.074-.147.074-.074.074-.111.074-.111.111-.074.074-.111.074-.074.111-.074.111-.074.074-.074.111-.037.111-.074.111-.037.111-.037.111-.037.111-.037.147-.037h.111l.111-.037h.59l.111.037h.147l.111.037.111.037.111.037.111.037.111.074.111.037.074.074.111.074.074.074.074.074.074.111.074.074.074.111.074.111.037.111.074.111.037.111.074-.148.074-.111.074-.074.074-.111.074-.111.111-.074.074-.074.111-.111.074-.074.111-.037.111-.074.074-.074.111-.037.111-.037.111-.037.148-.037.111-.037.111-.037h.111l.148-.037h.664l.111.037h.111l.111.037.111.037.111.037.111.037.074.037.111.037.074.074.074.037.074.074.074.074.074.074.074.074.074.074.074.074.037.111.074.074.037.111.037.111.037.111.037.111.037.111.037.111.037.111.037.148v.258l.037.147v4.683Z" transform="translate(-251.021 -419.63)" fill="#939598"/>
      <path id="Trazado_23" data-name="Trazado 23" d="M438.343,493.893V493.6l-.037-.147V493.3l-.037-.111-.037-.111-.037-.111-.037-.111-.074-.074-.037-.111-.074-.074-.074-.074-.074-.037-.111-.074-.074-.037-.111-.037-.111-.037-.111-.037h-.221l-.074-.037-.147.037h-.111l-.111.037-.111.037-.111.037-.111.074-.111.074-.111.074-.074.111-.074.074-.074.074-.074.111-.074.111-.037.111-.074.111-.037.148-.037.111-.037.147v.111l-.037.074Zm1.733,1.18h-4.609l.037.148v.111l.037.148.037.111.037.111.037.111.037.111.037.074.074.111.037.074.074.074.074.074.074.074.074.074.111.074.074.037.111.037.111.074.111.037.111.037h.111l.147.037h.258l.147.037h.184l.147-.037h.258l.111-.037h.147l.111-.037.111-.037.147-.037.111-.037.111-.037.111-.074.111-.037.111-.074.111-.037.111-.074.111-.074v1.4l-.111.037-.111.074-.111.037-.111.037-.111.074-.111.037-.111.037-.111.037h-.111l-.147.037-.111.037-.111.037h-.147l-.147.037h-.258l-.148.037h-.7l-.147-.037h-.258l-.147-.037-.111-.037-.111-.037h-.148l-.111-.074-.111-.037-.111-.037-.111-.037-.111-.074-.111-.037-.111-.074-.074-.074-.111-.074-.074-.074-.111-.074-.074-.074-.037-.037-.074-.111-.111-.074-.037-.074-.074-.111-.074-.111-.074-.074-.037-.111-.074-.111-.037-.111-.037-.111-.037-.111-.074-.111-.037-.148v-.111l-.037-.148-.037-.111v-.147l-.037-.111v-.295l-.037-.148v-.295l.037-.148v-.295l.037-.111v-.148l.037-.111.037-.147v-.111l.037-.111.037-.147.074-.111.037-.111.037-.111.074-.111.037-.111.074-.111.074-.074.074-.111.074-.111.074-.074.074-.111.037-.074.111-.074.074-.111.111-.074.111-.074.074-.074.111-.074.111-.074.111-.074.111-.037.111-.074.111-.037.111-.037.111-.037.111-.037.147-.037.111-.037h.147l.111-.037h.848l.111.037h.148l.147.037.111.037.111.037.111.037.147.037.111.037.111.074.074.037.111.074.111.074.074.074.111.074.074.074.111.074.037.074.074.074.074.074.074.111.074.111.037.074.074.111.037.111.074.111.037.111.037.111.037.111.037.148.037.111.037.147v.111l.037.147v.258l.037.147v1.032Z" transform="translate(-277.871 -419.63)" fill="#939598"/>
      <path id="Trazado_24" data-name="Trazado 24" d="M465.322,497.986h-1.807v-4.314l-.037-.111-.037-.148-.037-.111-.037-.111-.037-.111-.037-.111-.074-.111-.037-.074-.074-.074-.074-.074-.074-.037-.074-.074-.111-.037-.074-.037-.111-.037h-.111l-.111-.037h-.258l-.111.037-.147.037-.111.037-.111.037-.111.037-.111.074-.074.111-.111.074v.037l-.074.111-.074.074-.074.111-.037.111-.074.111-.037.148v.111l-.037.148v4.2H458.98v-6.858h1.844v1.106l.074-.111.074-.111.074-.111.074-.074.111-.111.074-.074.074-.111.111-.074.111-.074.074-.037.111-.074.111-.037.111-.074.111-.037.111-.037.111-.037.111-.037h.147l.111-.037h.737l.111.037h.111l.111.037.111.037.074.037.111.037.111.037.074.037.074.074.111.037.074.074.074.074.074.037.074.074.074.111.037.074.074.074.037.111.074.074.037.111.037.111.037.111.037.111.037.111.037.147v.111l.037.148.037.148v4.83Z" transform="translate(-295.411 -419.63)" fill="#939598"/>
      <path id="Trazado_25" data-name="Trazado 25" d="M487.792,493.59l-.111.074-.111.037-.111.037h-.111l-.111.037-.147.037h-.258l-.148.037h-.332l-.147-.037h-.258l-.111-.037-.111-.037-.111-.037-.111-.037-.111-.037-.074-.037-.111-.037-.074-.074-.074-.074-.074-.037-.074-.074-.074-.074-.074-.111-.074-.074-.037-.111-.037-.074-.074-.111-.037-.111-.037-.111v-.111l-.037-.111-.037-.148v-.258l-.037-.148v-3.54H483.22v-1.4h1.143v-1.512l1.807-.553V486.8h1.622v1.4H486.17v3.06l.037.184v.148l.037.111v.147l.074.074.037.111.037.111.074.074.074.037.111.074.074.037.111.037h.516l.111-.037.111-.037.111-.074.111-.037Z" transform="translate(-312.202 -415.308)" fill="#939598"/>
      <path id="Trazado_26" data-name="Trazado 26" d="M503.413,494.852l-.148.037-.148.037-.147.037-.111.037-.111.037-.111.074-.074.074-.111.074-.037.074-.074.074-.037.111-.037.111-.037.074v.332l.037.147.037.111.037.111.074.111.074.074.111.074.111.037.111.074.111.037h.148l.111.037h.074l.148-.037h.111l.147-.037.111-.037.111-.037.111-.037.111-.074.074-.074.111-.111.037-.037.074-.111.074-.074.074-.111.074-.111.037-.111.037-.111.037-.147v-.111l.037-.148V494.7ZM501.2,491.57l.074-.037.111-.074.111-.037.111-.037.111-.074.148-.037.111-.037.148-.037.147-.037.111-.037.147-.037h.148l.147-.037.111-.037h.258l.147-.037h.774l.148.037h.111l.147.037h.111l.111.037.111.037.111.037.111.037.111.037.074.037.111.074.074.037.111.074.074.037.074.074.074.074.074.074.074.074.074.074.037.111.074.074.037.111.074.074.037.111.037.111.037.111.037.111.037.111v.111l.037.111.037.148v.258l.037.111v4.462h-1.733v-1h-.037l-.074.111-.074.111-.074.111-.111.074-.074.111-.074.074-.111.074-.074.074-.111.074-.111.074-.074.037-.111.074-.111.037-.111.037-.148.037-.111.037h-.111l-.148.037h-.553l-.148-.037h-.111l-.148-.037-.111-.037-.111-.037-.111-.037-.111-.074-.111-.037-.111-.074-.074-.074-.111-.074-.037-.037-.074-.111-.074-.074-.074-.111-.074-.111-.074-.074-.037-.111-.037-.147-.037-.111-.037-.111-.037-.148v-.258l-.037-.148v-.111l.037-.148v-.111l.037-.111v-.111l.037-.111.037-.111.037-.111.037-.074.037-.111.074-.111.037-.074.074-.074.074-.074.074-.111.074-.074.074-.037.111-.074.074-.074.111-.074.111-.037.111-.074.111-.037.111-.037.111-.037.147-.037.111-.037.147-.037.148-.037h.148l.074-.037,1.917-.258v-.148l-.037-.111v-.147l-.037-.111-.037-.111-.037-.111-.074-.074-.037-.074-.074-.111-.074-.037-.074-.074-.111-.037-.111-.074-.074-.037h-.147l-.111-.037h-.627l-.147.037h-.111l-.111.037H502.6l-.111.037-.111.037-.111.037-.147.037-.111.074-.111.037-.111.074-.111.037-.148.074-.111.074-.111.074-.111.074Z" transform="translate(-324.173 -419.63)" fill="#939598"/>
      <path id="Trazado_27" data-name="Trazado 27" d="M529.957,497.728l-.074.037-.111.074-.111.037-.074.037-.111.037-.148.037-.111.037-.111.037L529,498.1h-.148l-.147.037h-.258l-.148.037h-.627l-.147-.037h-.258l-.111-.037-.147-.037-.111-.037-.148-.037-.111-.037-.111-.037-.111-.037-.111-.037-.111-.074-.111-.074-.111-.037-.074-.074-.111-.074-.111-.074-.074-.074-.111-.111-.037-.037-.074-.074-.111-.111-.074-.074-.074-.111-.074-.111-.074-.074-.037-.111-.074-.111-.037-.111-.074-.111-.037-.111-.037-.147-.037-.111-.037-.111-.037-.111v-.147l-.037-.111v-.148l-.037-.147V494.3l.037-.148v-.111l.037-.147v-.111l.037-.148.037-.111.037-.148.037-.111.037-.111.037-.111.037-.111.074-.111.037-.111.074-.111.074-.074.074-.111.074-.111.074-.074.074-.111.074-.074.074-.074.074-.074.111-.074.074-.074.111-.074.074-.074.111-.074.111-.074.111-.037.111-.074.111-.037.111-.074.111-.037.111-.037.111-.037.148-.037h.111l.147-.037.111-.037h.147l.111-.037h1l.111.037h.3l.111.037.147.037.111.037.111.037.111.037.074.037.111.037.037.037V492.9l-.111-.074-.111-.074-.111-.074-.111-.037-.111-.074-.111-.037-.111-.037-.147-.037-.111-.037h-.111l-.148-.037H528.3l-.147.037h-.111l-.147.037h-.111l-.111.037-.147.074-.111.037-.074.074-.111.037-.111.074-.074.074-.111.111H526.9l-.074.111-.074.074-.074.111-.037.111-.074.111-.037.111-.037.111-.037.111-.037.111-.037.148-.037.111v.7l.037.148v.111l.037.147.037.111.037.111.037.147.037.074.074.111.074.111.074.111.074.074.037.037.074.074.074.074.111.074.111.074.111.074.111.037.111.037.111.037.111.037.148.037h.774l.111-.037.148-.037.111-.037.111-.037.111-.037.148-.037.111-.074.111-.037.111-.074.111-.074.037-.037Z" transform="translate(-340.798 -419.63)" fill="#939598"/>
      <path id="Trazado_28" data-name="Trazado 28" d="M546.608,491v-6.858h1.844V491Zm-.148-9.108.037-.148v-.111l.037-.111.074-.111.074-.111.074-.111h.037l.074-.074.111-.074.111-.037.111-.037.111-.037.148-.037h.074l.148.037h.111l.148.037.111.037.111.074.111.074.037.037.074.074.074.111.074.111.037.111.037.111v.332l-.037.111-.037.111-.037.111-.074.111-.074.074-.037.037-.074.074-.111.074-.111.037-.148.037-.111.037-.147.037h-.074l-.111-.037h-.147l-.111-.037-.111-.037-.111-.074-.111-.074-.037-.037-.111-.111-.074-.111-.037-.111-.074-.111v-.111l-.037-.111Z" transform="translate(-356.01 -412.648)" fill="#939598"/>
      <path id="Trazado_29" data-name="Trazado 29" d="M559.464,494.594v.295l.037.148v.148l.037.111v.147l.037.111.037.111.037.111.074.111.037.074.037.111.074.074.074.074.074.074.074.074.074.074.074.037.111.074.074.037.111.037.111.037.074.037h.111l.148.037h.664l.111-.037.074-.037.111-.037.111-.037.074-.037.111-.037.074-.074.074-.037.074-.074.074-.074.074-.074.037-.111.074-.074.037-.111.037-.111.037-.111.037-.111.037-.111.037-.147.037-.111v-.3l.037-.147v-.516l-.037-.147v-.148l-.037-.111-.037-.148v-.111l-.037-.111-.074-.111-.037-.111-.037-.111-.074-.074-.037-.074-.074-.074-.074-.074-.074-.074-.074-.074-.074-.037-.111-.074-.074-.037-.111-.037-.111-.037-.111-.037H561.6l-.111-.037h-.369l-.147.037h-.111l-.148.037-.111.037-.111.037-.111.074-.111.037-.074.074-.111.074-.074.111-.074.074-.074.074-.074.111-.037.111-.074.111-.037.111-.037.111-.037.111-.037.111-.037.148v.258l-.037.148v.221Zm-1.844,0v-.258l.037-.148v-.295l.037-.111.037-.148v-.111l.037-.111.037-.147.037-.111.074-.111.037-.111.037-.111.074-.111.037-.111.074-.111.074-.074.074-.111.074-.111.074-.074.074-.111.074-.074.074-.074.111-.074.074-.074.111-.074.111-.074.074-.074.111-.037.111-.074.111-.037.111-.074.111-.037.111-.037.111-.037.147-.037.111-.037.148-.037h.111l.148-.037h.111l.148-.037h.885l.111.037h.147l.147.037h.111l.147.037.111.037.111.037.111.037.111.037.148.074.111.037.074.037.111.074.111.074.111.074.074.037.111.111.074.074.111.074v.037l.111.074.074.074.074.111.074.111.074.074.037.111.074.111.074.111.037.111.037.111.074.111.037.111.037.111.037.147v.111l.037.147.037.111v.147l.037.111v.885l-.037.111v.148l-.037.147v.111l-.037.148-.037.111-.037.111-.037.111-.037.147-.037.111-.074.111-.037.111-.074.111-.037.074-.074.111-.074.111-.074.074-.074.111-.074.074-.074.111-.111.074-.074.074-.111.074-.074.074-.111.074-.111.074-.074.074-.111.037L563,497.8l-.111.037-.111.037-.111.074-.147.037-.111.037-.111.037h-.148l-.111.037-.148.037h-.258l-.148.037h-.59l-.111-.037H560.5l-.111-.037-.147-.037h-.111l-.148-.037-.111-.037-.111-.037-.111-.074-.111-.037-.111-.037-.111-.074-.111-.037-.111-.074-.074-.074-.111-.074-.111-.074-.074-.074-.074-.074-.074-.037-.074-.111-.074-.074-.074-.111-.074-.074-.074-.111-.074-.111-.037-.074-.074-.111-.037-.111-.074-.111-.037-.111-.037-.111-.037-.148-.037-.111-.037-.111-.037-.147v-.111l-.037-.148v-.148l-.037-.111v-.369Z" transform="translate(-363.741 -419.63)" fill="#939598"/>
      <path id="Trazado_30" data-name="Trazado 30" d="M592.319,497.986h-1.844v-4.314l-.037-.111-.037-.148V493.3l-.037-.111-.074-.111-.037-.111-.037-.111-.074-.074-.074-.074-.074-.074-.074-.037-.074-.074-.111-.037-.074-.037-.111-.037h-.111l-.111-.037h-.258l-.111.037-.148.037-.111.037-.111.037-.111.037-.074.074-.111.111-.074.074-.037.037-.074.111-.074.074-.074.111-.037.111-.037.111-.037.148-.037.111-.037.148v4.2H585.94v-6.858h1.844v1.106l.074-.111.074-.111L588,491.9l.111-.074.074-.111.074-.074.111-.111.074-.074.111-.074.074-.037.111-.074.111-.037.111-.074.111-.037.111-.037.111-.037.148-.037h.111l.111-.037h.737l.111.037h.111l.111.037.111.037.074.037.111.037.111.037.074.037.111.074.074.037.074.074.074.074.074.037.074.074.074.111.037.074.074.074.037.111.074.074.037.111.037.111.037.111.037.111.037.111.037.147.037.111v.148l.037.148v.258l.037.148v4.425Z" transform="translate(-383.359 -419.63)" fill="#939598"/>
      <path id="Trazado_31" data-name="Trazado 31" d="M80.02,310.14,105.2,320.206H80.02Zm25.184,0H80.02L105.2,320.206Z" transform="translate(-32.896 -294.358)" fill="#f8d731"/>
      <path id="Trazado_32" data-name="Trazado 32" d="M80.02,310.14,105.2,320.206H80.02Zm25.184,0H80.02L105.2,320.206Z" transform="translate(-32.896 -294.358)" fill="none" stroke="#f8d731" stroke-linecap="round" stroke-miterlimit="10"/>
      <path id="Trazado_33" data-name="Trazado 33" d="M80.02,342.9l17.625,7.559H80.02Zm25.184,0H80.02l17.625,7.559Z" transform="translate(-32.896 -317.052)" fill="#f8d731"/>
      <path id="Trazado_34" data-name="Trazado 34" d="M80.02,342.9l17.625,7.559H80.02Zm25.184,0H80.02l17.625,7.559Z" transform="translate(-32.896 -317.052)" fill="none" stroke="#f8d731" stroke-linecap="round" stroke-miterlimit="10"/>
      <path id="Trazado_35" data-name="Trazado 35" d="M-16.241,392.1h7.928L-18.38,402.166Z" transform="translate(35.268 -351.134)" fill="#f8d731"/>
      <path id="Trazado_36" data-name="Trazado 36" d="M-16.241,392.1h7.928L-18.38,402.166Z" transform="translate(35.268 -351.134)" fill="none" stroke="#f8d731" stroke-linecap="round" stroke-miterlimit="10"/>
      <path id="Trazado_37" data-name="Trazado 37" d="M30.82,392.1h7.891l2.176,10.066Z" transform="translate(1.186 -351.134)" fill="#f8d731"/>
      <path id="Trazado_38" data-name="Trazado 38" d="M30.82,392.1h7.891l2.176,10.066Z" transform="translate(1.186 -351.134)" fill="none" stroke="#f8d731" stroke-linecap="round" stroke-miterlimit="10"/>
      <path id="Trazado_39" data-name="Trazado 39" d="M112.78,392.1h10.8l4.314,10.066Z" transform="translate(-55.59 -351.134)" fill="#f8d731"/>
      <path id="Trazado_40" data-name="Trazado 40" d="M112.78,392.1h10.8l4.314,10.066Z" transform="translate(-55.59 -351.134)" fill="none" stroke="#f8d731" stroke-linecap="round" stroke-miterlimit="10"/>
      <path id="Trazado_41" data-name="Trazado 41" d="M80.02,367.5l20.87,7.559H80.02Zm17.625,0H80.02l20.87,7.559Z" transform="translate(-32.896 -334.093)" fill="#f8d731"/>
      <path id="Trazado_42" data-name="Trazado 42" d="M80.02,367.5l20.87,7.559H80.02Zm17.625,0H80.02l20.87,7.559Z" transform="translate(-32.896 -334.093)" fill="none" stroke="#f8d731" stroke-linecap="round" stroke-miterlimit="10"/>
      <path id="Trazado_43" data-name="Trazado 43" d="M-6,310.14,9.45,335.324H-11.42Zm10.066,0H-6L9.45,335.324Z" transform="translate(30.447 -294.358)" fill="#f8d731"/>
      <path id="Trazado_44" data-name="Trazado 44" d="M-6,310.14,9.45,335.324H-11.42Zm10.066,0H-6L9.45,335.324Z" transform="translate(30.447 -294.358)" fill="none" stroke="#f8d731" stroke-linecap="round" stroke-miterlimit="10"/>
      <path id="Trazado_45" data-name="Trazado 45" d="M80.02,392.1l10.066,10.066H80.02Zm10.066,0H80.02l10.066,10.066Z" transform="translate(-32.896 -351.134)" fill="#f8d731"/>
      <path id="Trazado_46" data-name="Trazado 46" d="M80.02,392.1l10.066,10.066H80.02Zm10.066,0H80.02l10.066,10.066Z" transform="translate(-32.896 -351.134)" fill="none" stroke="#f8d731" stroke-linecap="round" stroke-miterlimit="10"/>
      <path id="Trazado_47" data-name="Trazado 47" d="M530.86,310.14l25.184,10.066H530.86Zm25.184,0H530.86l25.184,10.066Z" transform="translate(-345.204 -294.358)" fill="#636466"/>
      <path id="Trazado_48" data-name="Trazado 48" d="M530.86,310.14l25.184,10.066H530.86Zm25.184,0H530.86l25.184,10.066Z" transform="translate(-345.204 -294.358)" fill="none" stroke="#636466" stroke-linecap="round" stroke-miterlimit="10"/>
      <path id="Trazado_49" data-name="Trazado 49" d="M432.46,310.14l17.625,10.066H440.019Zm25.184,0H432.46l17.625,10.066Z" transform="translate(-277.04 -294.358)" fill="#636466"/>
      <path id="Trazado_50" data-name="Trazado 50" d="M432.46,310.14l17.625,10.066H440.019Zm25.184,0H432.46l17.625,10.066Z" transform="translate(-277.04 -294.358)" fill="none" stroke="#636466" stroke-linecap="round" stroke-miterlimit="10"/>
      <path id="Trazado_51" data-name="Trazado 51" d="M178.3,310.14l25.221,10.066H178.3Zm25.221,0H178.3l25.221,10.066Z" transform="translate(-100.977 -294.358)" fill="#636466"/>
      <path id="Trazado_52" data-name="Trazado 52" d="M178.3,310.14l25.221,10.066H178.3Zm25.221,0H178.3l25.221,10.066Z" transform="translate(-100.977 -294.358)" fill="none" stroke="#636466" stroke-linecap="round" stroke-miterlimit="10"/>
      <path id="Trazado_53" data-name="Trazado 53" d="M530.86,342.9l12.611,5.052H530.86Zm25.184,0H530.86l12.611,5.052Z" transform="translate(-345.204 -317.052)" fill="#636466"/>
      <path id="Trazado_54" data-name="Trazado 54" d="M530.86,342.9l12.611,5.052H530.86Zm25.184,0H530.86l12.611,5.052Z" transform="translate(-345.204 -317.052)" fill="none" stroke="#636466" stroke-linecap="round" stroke-miterlimit="10"/>
      <path id="Trazado_55" data-name="Trazado 55" d="M178.3,342.9l17.662,7.559H178.3Zm25.221,0H178.3l17.662,7.559Z" transform="translate(-100.977 -317.052)" fill="#636466"/>
      <path id="Trazado_56" data-name="Trazado 56" d="M178.3,342.9l17.662,7.559H178.3Zm25.221,0H178.3l17.662,7.559Z" transform="translate(-100.977 -317.052)" fill="none" stroke="#636466" stroke-linecap="round" stroke-miterlimit="10"/>
      <path id="Trazado_57" data-name="Trazado 57" d="M530.86,359.34l17.625,5.015H530.86Zm17.625,0H530.86l17.625,5.015Z" transform="translate(-345.204 -328.44)" fill="#636466"/>
      <path id="Trazado_58" data-name="Trazado 58" d="M530.86,359.34l17.625,5.015H530.86Zm17.625,0H530.86l17.625,5.015Z" transform="translate(-345.204 -328.44)" fill="none" stroke="#636466" stroke-linecap="round" stroke-miterlimit="10"/>
      <path id="Trazado_59" data-name="Trazado 59" d="M278.875,392.1h7.891L276.7,402.166Z" transform="translate(-169.141 -351.134)" fill="#636466"/>
      <path id="Trazado_60" data-name="Trazado 60" d="M278.875,392.1h7.891L276.7,402.166Z" transform="translate(-169.141 -351.134)" fill="none" stroke="#636466" stroke-linecap="round" stroke-miterlimit="10"/>
      <path id="Trazado_61" data-name="Trazado 61" d="M325.9,392.1h7.928l2.139,10.066Z" transform="translate(-203.223 -351.134)" fill="#636466"/>
      <path id="Trazado_62" data-name="Trazado 62" d="M325.9,392.1h7.928l2.139,10.066Z" transform="translate(-203.223 -351.134)" fill="none" stroke="#636466" stroke-linecap="round" stroke-miterlimit="10"/>
      <path id="Trazado_63" data-name="Trazado 63" d="M530.86,375.66l25.184,5.052H530.86Zm12.611,0H530.86l25.184,5.052Z" transform="translate(-345.204 -339.746)" fill="#636466"/>
      <path id="Trazado_64" data-name="Trazado 64" d="M530.86,375.66l25.184,5.052H530.86Zm12.611,0H530.86l25.184,5.052Z" transform="translate(-345.204 -339.746)" fill="none" stroke="#636466" stroke-linecap="round" stroke-miterlimit="10"/>
      <path id="Trazado_65" data-name="Trazado 65" d="M289.163,310.14l15.487,25.184H283.78Zm10.066,0H289.163l15.487,25.184Z" transform="translate(-174.046 -294.358)" fill="#636466"/>
      <path id="Trazado_66" data-name="Trazado 66" d="M289.163,310.14l15.487,25.184H283.78Zm10.066,0H289.163l15.487,25.184Z" transform="translate(-174.046 -294.358)" fill="none" stroke="#636466" stroke-linecap="round" stroke-miterlimit="10"/>
      <path id="Trazado_67" data-name="Trazado 67" d="M178.3,367.5l25.221,7.559H178.3Zm17.662,0H178.3l25.221,7.559Z" transform="translate(-100.977 -334.093)" fill="#636466"/>
      <path id="Trazado_68" data-name="Trazado 68" d="M178.3,367.5l25.221,7.559H178.3Zm17.662,0H178.3l25.221,7.559Z" transform="translate(-100.977 -334.093)" fill="none" stroke="#636466" stroke-linecap="round" stroke-miterlimit="10"/>
      <path id="Trazado_69" data-name="Trazado 69" d="M530.86,392.1l25.184,10.066H530.86Zm25.184,0H530.86l25.184,10.066Z" transform="translate(-345.204 -351.134)" fill="#636466"/>
      <path id="Trazado_70" data-name="Trazado 70" d="M530.86,392.1l25.184,10.066H530.86Zm25.184,0H530.86l25.184,10.066Z" transform="translate(-345.204 -351.134)" fill="none" stroke="#636466" stroke-linecap="round" stroke-miterlimit="10"/>
      <path id="Trazado_71" data-name="Trazado 71" d="M457.06,342.9l7.559,25.184h-5.052Zm10.066,0H457.06l7.559,25.184Z" transform="translate(-294.081 -317.052)" fill="#636466"/>
      <path id="Trazado_72" data-name="Trazado 72" d="M457.06,342.9l7.559,25.184h-5.052Zm10.066,0H457.06l7.559,25.184Z" transform="translate(-294.081 -317.052)" fill="none" stroke="#636466" stroke-linecap="round" stroke-miterlimit="10"/>
      <path id="Trazado_73" data-name="Trazado 73" d="M375.1,310.14l8.813,35.251h-5.052Zm12.611,0H375.1l8.813,35.251Z" transform="translate(-237.305 -294.358)" fill="#636466"/>
      <path id="Trazado_74" data-name="Trazado 74" d="M375.1,310.14l8.813,35.251h-5.052Zm12.611,0H375.1l8.813,35.251Z" transform="translate(-237.305 -294.358)" fill="none" stroke="#636466" stroke-linecap="round" stroke-miterlimit="10"/>
      <path id="Trazado_75" data-name="Trazado 75" d="M178.3,392.1l25.221,10.066H178.3Zm25.221,0H178.3l25.221,10.066Z" transform="translate(-100.977 -351.134)" fill="#636466"/>
      <path id="Trazado_76" data-name="Trazado 76" d="M178.3,392.1l25.221,10.066H178.3Zm25.221,0H178.3l25.221,10.066Z" transform="translate(-100.977 -351.134)" fill="none" stroke="#636466" stroke-linecap="round" stroke-miterlimit="10"/>
      <path id="Trazado_77" data-name="Trazado 77" d="M-18.38,345.391l7.559-35.251H-.755L6.8,345.391-3.262,335.324H-8.314L-18.38,345.391" transform="translate(35.268 -294.358)" fill="none" stroke="#080808" stroke-linecap="round" stroke-linejoin="round" stroke-width="0.72"/>
      <path id="Trazado_78" data-name="Trazado 78" d="M178.3,345.391V310.14h25.221v10.066l-7.559,7.559,7.559,7.559v10.066H178.3" transform="translate(-100.977 -294.358)" fill="none" stroke="#080808" stroke-linecap="round" stroke-linejoin="round" stroke-width="0.72"/>
      <path id="Trazado_79" data-name="Trazado 79" d="M276.7,345.391l7.559-35.251h10.066l7.559,35.251-10.066-10.066h-5.052L276.7,345.391" transform="translate(-169.141 -294.358)" fill="none" stroke="#080808" stroke-linecap="round" stroke-linejoin="round" stroke-width="0.72"/>
      <path id="Trazado_80" data-name="Trazado 80" d="M375.1,310.14h12.611l-3.8,35.251h-5.052L375.1,310.14" transform="translate(-237.305 -294.358)" fill="none" stroke="#080808" stroke-linecap="round" stroke-linejoin="round" stroke-width="0.72"/>
      <path id="Trazado_81" data-name="Trazado 81" d="M442.526,345.391h5.052l2.507-25.184,7.559-10.066H432.46l7.559,10.066,2.507,25.184" transform="translate(-277.04 -294.358)" fill="none" stroke="#080808" stroke-linecap="round" stroke-linejoin="round" stroke-width="0.72"/>
      <path id="Trazado_82" data-name="Trazado 82" d="M90.086,335.324v10.066H80.02V310.14H105.2v10.066l-7.559,7.559,7.559,17.625L90.086,335.324" transform="translate(-32.896 -294.358)" fill="none" stroke="#080808" stroke-linecap="round" stroke-linejoin="round" stroke-width="0.72"/>
      <path id="Trazado_83" data-name="Trazado 83" d="M556.044,320.206V310.14H530.86v35.251h25.184V335.324l-12.574-5.052h5.015v-5.015h-5.015l12.574-5.052" transform="translate(-345.204 -294.358)" fill="none" stroke="#080808" stroke-linecap="round" stroke-linejoin="round" stroke-width="0.72"/>
      <path id="Trazado_84" data-name="Trazado 84" d="M175.573,451.133H-18.38V445.86H175.573v5.273" transform="translate(35.268 -388.375)" fill="none" stroke="#080808" stroke-linecap="round" stroke-linejoin="round" stroke-width="0.72"/>
      <path id="Trazado_85" data-name="Trazado 85" d="M-73.22,567.18l227.655,5.236H-73.22Zm227.655,0H-73.22l227.655,5.236Z" transform="translate(73.257 -472.416)" fill="#f8d731"/>
      <path id="Trazado_86" data-name="Trazado 86" d="M-73.22,567.18l227.655,5.236H-73.22Zm227.655,0H-73.22l227.655,5.236Z" transform="translate(73.257 -472.416)" fill="none" stroke="#f8d731" stroke-linecap="round" stroke-miterlimit="10"/>
      <path id="Trazado_87" data-name="Trazado 87" d="M154.435,572.416H-73.22V567.18H154.435v5.236" transform="translate(73.257 -472.416)" fill="none" stroke="#f8d731" stroke-linecap="round" stroke-linejoin="round" stroke-width="0.72"/>
    </g>
  </g>
</svg>
