<svg xmlns="http://www.w3.org/2000/svg" width="302" height="201" viewBox="0 0 302 201">
    <g fill="none" fill-rule="nonzero">
        <path fill="#00A0FF" d="M176.929 41.337c-17.758-.626-34.671-6.315-50.81-12.527-16.14-6.211-32.147-13.123-49.48-16.42-11.148-2.122-23.898-2.422-32.879 3.51-8.645 5.718-11.439 15.563-12.94 24.707-1.13 6.88-1.794 14.118 1.301 20.558 2.151 4.472 5.965 8.23 8.605 12.513 9.183 14.902 2.691 33.278-7.258 47.828-4.664 6.827-10.083 13.344-13.686 20.604-3.603 7.26-5.268 15.59-2.115 23.003 3.122 7.353 10.566 12.865 18.63 16.745 16.378 7.881 35.67 10.139 54.495 11.416 41.66 2.83 83.538 1.604 125.307.379 15.459-.455 30.983-.915 46.19-3.287 8.445-1.318 17.162-3.41 23.295-8.456 7.781-6.408 9.71-17.26 4.494-25.293-8.747-13.477-32.926-16.824-39.047-31.29-3.364-7.96.09-16.83 4.982-24.212 10.493-15.839 28.078-29.735 29.003-47.842.636-12.434-7.818-24.887-20.89-30.772-13.699-6.168-32.7-5.392-42.803 4.817-10.42 10.5-28.714 14.545-44.394 14.02z" opacity=".1"/>
        <ellipse cx="47" cy="197.5" fill="#00A0FF" rx="20" ry="3.5"/>
        <ellipse cx="46.5" cy="195" fill="#3F3D56" rx="2.5" ry="3"/>
        <ellipse cx="46.5" cy="192" fill="#3F3D56" rx="2.5" ry="3"/>
        <ellipse cx="46.5" cy="187" fill="#3F3D56" rx="2.5" ry="3"/>
        <ellipse cx="46.5" cy="184" fill="#3F3D56" rx="2.5" ry="3"/>
        <ellipse cx="46.5" cy="179" fill="#3F3D56" rx="2.5" ry="3"/>
        <ellipse cx="46.5" cy="177" fill="#3F3D56" rx="2.5" ry="3"/>
        <ellipse cx="46.5" cy="173" fill="#3F3D56" rx="2.5" ry="3"/>
        <path fill="#00A0FF" d="M55.53 147.074c.329-.405.628-.832.895-1.278l-6.309-1.008 6.822.05a10.906 10.906 0 0 0 .22-8.859l-9.151 4.617 8.45-6.024c-2.158-3.617-6.211-5.762-10.507-5.559-4.296.203-8.116 2.72-9.903 6.523-1.786 3.803-1.24 8.258 1.415 11.547a11.238 11.238 0 0 0-1.313 2.04l8.19 4.134-8.73-2.847c-1.248 3.578-.551 7.528 1.853 10.498-3.709 4.583-3.171 11.167 1.235 15.124 4.406 3.957 11.2 3.957 15.606 0 4.406-3.957 4.944-10.541 1.235-15.124a10.936 10.936 0 0 0 0-13.825l-.008-.009z"/>
        <path fill="#000" d="M35 156.163a10.82 10.82 0 0 0 2.462 6.865c-3.709 4.553-3.171 11.093 1.235 15.024 4.406 3.93 11.2 3.93 15.606 0 4.406-3.93 4.944-10.471 1.235-15.024C57.07 161.143 35 154.92 35 156.163z" opacity=".1"/>
        <path fill="#3F3D56" d="M145.032 150.99c.168 2.306 1.005 4.693 2.764 6.053 1.76 1.36 4.56 1.335 5.903-.493a7.219 7.219 0 0 0 .98-2.263c1.133-3.799 1.937-7.955.696-11.717-2.8-.193-6.045-1.59-8.146.865-1.697 2-2.392 4.889-2.197 7.555z"/>
        <path fill="#FABDBD" d="M158.722 127.925c-.407 3.098-1.1 6.183-1.028 9.302.027 1.204.17 2.397.172 3.606.006 3.14-.917 6.226-2.673 8.943-.184.319-.432.606-.73.847-.704.511-1.764.468-2.554.077a4.737 4.737 0 0 1-1.815-1.766c-2.212-3.4-2.275-7.53-3.151-11.385-.671-2.949-1.847-5.807-2.272-8.79-.276-1.92-.235-3.878-.674-5.775-.134-.573-.508-1.433-.754-2.278-.226-.753-.35-1.494-.12-2.003.473-1.041 2.02-.636 3.027-.572 3.546.235 7.106.227 10.65-.024.35-.024.749-.038.995.186.108.113.188.245.238.386.282.693.497 1.406.644 2.131.49 2.32.354 4.752.045 7.115z"/>
        <g fill="#000" opacity=".1">
            <path d="M156.779 118.155a.977.977 0 0 0-.518 0c-1.602.33-3.206.495-4.808.517 1.775.01 3.55-.163 5.326-.517zM152.21 150.697a4.6 4.6 0 0 1-1.712-1.765c-2.086-3.396-2.144-7.523-2.97-11.374-.633-2.946-1.742-5.802-2.142-8.782-.26-1.92-.222-3.875-.636-5.77-.126-.572-.479-1.432-.711-2.276-.213-.753-.33-1.493-.112-2 .19-.427.633-.701 1.12-.693-.709-.045-1.4.035-1.68.692-.219.508-.101 1.248.112 2.001.232.844.585 1.704.711 2.276.414 1.895.375 3.85.636 5.77.4 2.983 1.509 5.838 2.142 8.782.826 3.85.884 7.984 2.97 11.374a4.6 4.6 0 0 0 1.711 1.765c.447.235.96.333 1.467.282a2.676 2.676 0 0 1-.907-.282z"/>
        </g>
        <path fill="#FABDBD" d="M167.596 145.7c-1.652 3.318-1.377 8.018-1.377 8.018.275 11.059-4.13 34.282-4.13 34.282h-3.855s-.55-25.711 0-27.923c.55-2.212-.276-9.953-1.102-20.735-.614-8.018 1.058-15.283 1.955-18.47.309-1.107.524-1.712.524-1.712s6.333-9.4 9.912-4.976c.826 1.028 1.264 3.104 1.416 5.725.49 8.648-2.077 23.245-3.343 25.792z"/>
        <path fill="#000" d="M172.93 119.907c-.17-2.62-.659-4.7-1.598-5.725-.902-.985-1.96-1.283-3.055-1.153.849.125 1.61.538 2.122 1.153.933 1.028 1.427 3.104 1.598 5.725.554 8.648-2.345 23.246-3.776 25.793-1.866 3.317-1.555 8.017-1.555 8.017C166.976 164.777 162 188 162 188h.933s4.977-23.224 4.666-34.283c0 0-.311-4.7 1.555-8.017 1.431-2.547 4.33-17.145 3.777-25.793z" opacity=".1"/>
        <path fill="#3F3D56" d="M157.05 185.373c-.34.267-.633.588-.868.95-.544 1.029.227 2.259 1.053 3.077.825.82 1.82 1.696 1.82 2.862 0 .937-.707 1.74-1.499 2.24-.425.268-.959.608-.87 1.114.03.128.085.248.16.356.68 1.044 1.885 1.656 3.104 1.887 1.22.231 2.48.13 3.72.03a.748.748 0 0 0 .51-.176.695.695 0 0 0 .137-.42c.06-.645.021-1.327.304-1.909.394-.794 1.301-1.199 1.82-1.911.729-.974.628-2.329.352-3.513-.607-2.578-1.957-5.518-3.984-7.305-2.349-2.051-4.19 1.236-5.76 2.718zM165.036 46.458c1.528-2.258 1.131-5.414-.43-7.66-1.561-2.247-4.07-3.66-6.658-4.572-3.489-1.23-7.337-1.649-10.922-.726-2.854.734-5.417 2.269-8.106 3.454a35.216 35.216 0 0 1-15.14 2.978c-5.782-.16-12.116-1.624-16.966 1.5-8.88 5.708-4.93 21.245-13.33 27.61-2.265 1.715-5.116 2.465-7.635 3.789-2.52 1.323-4.908 3.627-4.848 6.448.028 1.353.63 2.644 1.37 3.79 3.149 4.934 9.037 7.987 14.934 7.93 5.896-.057 11.65-3.156 15.049-7.925.852-1.194 1.602-2.523 2.837-3.32 2.465-1.596 5.713-.478 8.655-.24 6.548.528 13.099-4.33 14.403-10.706.547-2.72.451-5.97 2.667-7.679 1.788-1.378 4.305-1.083 6.573-1.318 4.146-.425 7.42-2.978 9.67-6.313 1.033-1.529 1.153-3.356 2.561-4.56 1.517-1.324 3.864-.347 5.316-2.48z"/>
        <g fill="#000" opacity=".1">
            <path d="M116.422 40.632a34.543 34.543 0 0 0 7.156-.55c-.651.02-1.307.02-1.96 0-4.532-.125-9.402-1.064-13.629.067 2.79.027 5.674.406 8.433.483zM107.841 81.02c-1.233.807-1.982 2.155-2.832 3.365a19.208 19.208 0 0 1-10.793 7.467c.32.014.64.022.963.019 5.892-.058 11.632-3.2 15.025-8.035.85-1.21 1.6-2.558 2.833-3.364l.213-.132c-1.93-.266-3.825-.36-5.409.68zM162.376 38.944c-1.556-2.267-4.064-3.71-6.647-4.635-3.484-1.246-7.326-1.671-10.905-.735-.082.019-.161.043-.24.065 2.031.114 4.035.525 5.95 1.219 2.583.925 5.09 2.368 6.646 4.635 1.556 2.266 1.956 5.488.43 7.766-1.45 2.17-3.793 1.18-5.327 2.516-1.405 1.221-1.526 3.074-2.556 4.624-1.934 2.9-4.624 5.214-7.974 6.092 1.151-.137 2.365-.12 3.514-.241 4.14-.431 7.407-3.019 9.655-6.4 1.03-1.55 1.151-3.402 2.557-4.624 1.534-1.336 3.877-.345 5.326-2.516 1.529-2.289 1.132-5.5-.43-7.766zM140.074 60.799c-2.25.236-4.763-.06-6.562 1.336-2.212 1.732-2.106 5.027-2.664 7.785-.96 4.822-4.859 8.798-9.488 10.277l.326.03c6.537.536 13.078-4.39 14.38-10.853.547-2.758.45-6.053 2.663-7.785a4.93 4.93 0 0 1 1.698-.823c-.123.002-.235.022-.353.033z"/>
        </g>
        <path fill="#FABDBD" d="M206.855 39.228s-6.547 13.11-8.729 18.026c-2.182 4.916-22.096 12.29-24.824 12.563-.731.1-1.413.43-1.947.94-1.542 1.365-2.417 3.703-2.417 3.703s1.09 7.374-.273 19.664c-.027.238-.052.476-.074.705-1.19 11.695 1.301 14.453 1.301 14.453s-26.46 10.105-25.642-3.004c.257-4.127.219-7.142-.035-9.663a40.619 40.619 0 0 0-1.566-7.609c-.646-2.264-1.418-4.747-2.218-8.128a35.681 35.681 0 0 0-1.57-5.101c-1.365-3.39-2.729-4.485-3.509-4.84a11.789 11.789 0 0 1-2.095-1.18c-2.52-1.822-7.93-5.905-12.747-10.728-6.547-6.554-13.094-22.122-13.094-22.122s-1.91-9.013 2.455-16.387c4.365-7.374 2.455 14.475 2.455 14.475s7.91 10.652 9.82 15.568c.982 2.529 2.543 3.823 3.82 4.495a45.274 45.274 0 0 1 6.039 3.78 35.264 35.264 0 0 0 4.062 2.655c3.05 1.638 6.702 3.487 9.746 3.974.476.078.956.12 1.438.122.463.015.907-.187 1.2-.546.819-.964.8-3.04.611-4.747-.1-.884-.25-1.762-.447-2.63 0 0 8.866-5.598 8.593 1.23a7.64 7.64 0 0 0 .207 2.244 3.89 3.89 0 0 0 2.643 2.895 6.54 6.54 0 0 0 3.274.107c.337-.058.663-.17.966-.33.818-.547 9.002-3.005 11.457-3.278 2.455-.273 14.73-6.282 14.73-6.282l13.367-18.571s-.273-10.925 5.183-15.295c5.456-4.37-2.18 18.842-2.18 18.842z"/>
        <g fill="#000" opacity=".1">
            <path d="M168.488 92.85a55.44 55.44 0 0 0-.313 6.66c.027-1.453.122-3.112.313-5.008.022-.231.046-.47.073-.71.477-4.237.704-8.5.681-12.764-.042 3.713-.27 7.423-.68 11.113-.017.24-.052.479-.074.71zM148.937 56.886c-.251.108-.375.174-.375.174.365 1.177.605 2.373.72 3.577a12.482 12.482 0 0 0-.345-3.75zM112.553 32.728c.24-1.926.597-5.379.528-8.45-.083 4.106-.734 8.294-.734 8.294l.206.156zM144.214 105.714c0 .107 0 .215-.019.322-.817 13.207 25.592 3.027 25.592 3.027a4.498 4.498 0 0 1-.69-1.398c-3.977 1.43-23.965 8.084-24.883-1.95zM206.677 36.836s-6.534 13.207-8.712 18.16c-2.178 4.953-22.053 12.382-24.775 12.657-.73.101-1.41.432-1.944.946-1.538 1.376-2.412 3.731-2.412 3.731s.065.449.144 1.302c.305-.707 1.089-2.33 2.268-3.382a3.492 3.492 0 0 1 1.944-.946c2.722-.275 22.597-7.704 24.775-12.657 2.178-4.953 8.712-18.16 8.712-18.16s4.603-14.129 4.097-18.355c-.42 5.415-4.097 16.704-4.097 16.704zM144.16 94.65c-.278-2.6-.8-5.166-1.563-7.665-.645-2.281-1.416-4.782-2.214-8.189-.384-1.7-.89-3.368-1.513-4.994l-.055-.145c-1.361-3.415-2.722-4.518-3.5-4.876a11.736 11.736 0 0 1-2.092-1.189c-2.515-1.835-7.914-5.948-12.722-10.807-6.534-6.604-13.068-22.287-13.068-22.287a25.135 25.135 0 0 1-.403-4.012 26.8 26.8 0 0 0 .403 5.662s6.534 15.684 13.068 22.287c4.808 4.86 10.207 8.973 12.722 10.808.66.468 1.367.867 2.107 1.189.776.358 2.135 1.46 3.502 4.875a36.2 36.2 0 0 1 1.56 5.14c.797 3.407 1.568 5.908 2.213 8.189a41.259 41.259 0 0 1 1.563 7.665c.114 1.15.182 2.402.201 3.811a48.43 48.43 0 0 0-.21-5.462z"/>
        </g>
        <path fill="#00A0FF" d="M171.245 81.973a16.419 16.419 0 0 0-1.052 2.143c-.396 1.142-.4 2.385-.473 3.595a29.791 29.791 0 0 1-.746 5.037 5.713 5.713 0 0 1-.263.892 2.378 2.378 0 0 1-.308.544c-.14.177-.304.332-.488.46-.283.194-.58.362-.891.502-3.66 1.768-7.65 3.329-11.642 2.72a16.555 16.555 0 0 1-4.844-1.686c-1.446-.726-3.08-1.588-4.58-.985-.229.121-.477.201-.732.237a.674.674 0 0 1-.148-.014c-.494-.098-.494-1.822-.607-2.33-.43-1.953-.497-3.536-.754-5.232a17.667 17.667 0 0 0-.634-2.766c-1.051-3.29-1.369-6.799-1.369-10.247 0-.171-1.183 0-1.577-.016-.1 0-.155-.017-.132-.052a.539.539 0 0 1 .08-.092c.137-.116.298-.199.47-.242l.31-.096c1.624-.475 3.417-.674 4.631-1.857 1.262-1.221 1.577-3.17 1.522-4.955-.016-.574-.286-1.966-.242-3.122.458.079.921.12 1.386.123.446.014.873-.187 1.156-.544.439.878.818 1.787 1.136 2.72.446 1.136.788 2.333 1.443 3.36 1.051 1.676 2.99 2.777 4.92 2.608 1.93-.168 3.725-1.702 4.069-3.67.302-1.728-.4-4.213-.384-6.008a6.105 6.105 0 0 0 3.154.106c.045.11.082.224.113.34.592 2.1 1.38 4.509 3.365 5.254 1.283.479 2.8.12 3.985.816a2.97 2.97 0 0 1 .96.944c.486.831.775 1.77.843 2.74a15.654 15.654 0 0 1-1.677 8.773z"/>
        <path fill="#000" d="M158 60.403c-2.822 1.021-5.994.72-8.542-.81a21.837 21.837 0 0 0-.458-2.521s9.067-5.369 8.788 1.178a6.885 6.885 0 0 0 .212 2.153z" opacity=".1"/>
        <circle cx="156" cy="51" r="10" fill="#FABDBD"/>
        <path fill="#F86D70" d="M138 74.064s18.192-11.943 74.696.853S302 77.477 302 77.477V90.84s-63.395 7.108-87.65 0c-24.256-7.11-58.784-11.21-70.876-.202L138 74.064z"/>
        <path fill="#000" d="M138 74.064s18.192-11.943 74.696.853S302 77.477 302 77.477V90.84s-63.395 7.108-87.65 0c-24.256-7.11-58.784-11.21-70.876-.202L138 74.064z" opacity=".1"/>
        <path fill="#ED5C57" d="M140 74.88s17.514-11.51 73.611.823c56.098 12.333 88.115 2.467 88.115 2.467L302 89.955s-62.392 6.852-86.473 0c-24.081-6.852-58.087-11.626-70.092-1.017L140 74.881z"/>
        <path fill="#F86D70" d="M133 92.936s-18.126 11.943-74.425-.853c-56.3-12.796-53.553-2.56-53.553-2.56V76.16s27.737-7.108 51.905 0c24.168 7.11 58.57 11.21 70.619.202L133 92.936z"/>
        <path fill="#000" d="M133 92.936s-18.126 11.943-74.425-.853c-56.3-12.796-53.553-2.56-53.553-2.56V76.16s27.737-7.108 51.905 0c24.168 7.11 58.57 11.21 70.619.202L133 92.936z" opacity=".1"/>
        <path fill="#ED5C57" d="M131 91.12s-17.417 11.51-73.205-.823C2.006 77.964 5.272 87.83 5.272 87.83L5 76.045s26.942-6.852 50.89 0 57.767 11.626 69.705 1.017L131 91.119z"/>
        <path fill="#3F3D56" d="M147.2 51.034c-.289-1.71-.732-3.865.772-4.844a3.327 3.327 0 0 1 1.784-.439c3.115-.03 6.091 2.034 9.146 1.431 1.986-.396 3.543-1.862 3.978-3.747.435-1.885-.332-3.838-1.961-4.989-1.202-.85-2.72-1.156-4.19-1.444-3.864-.757-7.898-1.51-11.714-.548-3.815.962-7.302 4.215-6.996 7.949.144 1.787 1.1 3.41 2.1 4.934.761 1.157 3.723 6.578 5.161 6.66 2.03.113 2.118-3.845 1.92-4.963z"/>
        <path fill="#00A0FF" d="M170.216 104s-18.862 4.97-25.149 0c0 0-2.734 11.4-1.914 17.246 0 0 13.395.877 14.762 1.754 0 0 .273-2.338 1.64-1.17 0 0 4.647-5.845 13.121-.584 0 0 1.64-13.738-2.46-17.246z"/>
        <path fill="#000" d="M161.945 40.406a5.647 5.647 0 0 0-.636-.406 5.25 5.25 0 0 1 1.006 5.066 5.124 5.124 0 0 1-3.8 3.43c-3.024.639-5.971-1.547-9.055-1.515a3.125 3.125 0 0 0-1.767.464c-1.489 1.036-1.052 3.318-.767 5.13.188 1.183.111 5.375-1.892 5.262H145c.55.682 1.064 1.143 1.46 1.16 1.998.114 2.08-4.063 1.893-5.262-.286-1.811-.722-4.092.767-5.129a3.125 3.125 0 0 1 1.766-.464c3.085-.032 6.032 2.154 9.056 1.515 1.966-.42 3.508-1.972 3.939-3.968a5.24 5.24 0 0 0-1.941-5.283h.005z" opacity=".1"/>
        <path fill="#00A0FF" d="M24.816 27.59S3.33 18.442.514 34.936c0 0-1.468 2.57.575 4.693 0 0 .44-1.138 2.517.04a10.73 10.73 0 0 0 2.345.963 5.215 5.215 0 0 0 3.34-.18s7.065-.387 13.008-9.745c0 0 2.546-1.595 2.675-2.19l-4.258.29s.324 3.156-1.437 5.05c0 0 1.566-4.896.813-5.035-.152-.03-2.25.253-2.25.253s.543 5.486-2.299 8.325c0 0 2.638-5.582 1.489-8.226l-3.141.613s.862 5.772-2.247 9.132c0 0 2.554-5.935 1.569-8.951L10.2 30.993s.727 5.65-1.873 8.436c0 0 2.27-7.16 1.2-8.145 0 0-2.706 1.11-3.287 1.745 0 0 .431 4.073-1.224 5.527 0 0 1.017-4.945.515-5.149 0 0-3.147 2.397-4.104 4.466 0 0 1.196-3.16 3.707-4.946 0 0-2.11-.36-3.736.533 0 0 1.09-2.098 4.498-1.103 0 0 2.525-1.769 3.031-1.745 0 0-3.224-1.455-5.554-1.277 0 0 2.497-1.455 6.344.977l3-1.1s-4.163-2.161-6.252-2.152c0 0 2.775-1.085 7.034 1.94l3.072-.637s-3.448-2.138-5.773-2.636c0 0 2.79-.445 6.66 2.49l2.104-.18s-2.546-1.516-3.316-1.885c-.77-.37-.736-.61-.736-.61a9.979 9.979 0 0 1 4.934 2.402s4.351-.084 4.371-.355zM23.886 10.837S16.355-5.147 5.546 2.183c0 0-2.29.61-2.27 2.792 0 0 .89-.378 1.452 1.322.21.604.496 1.184.852 1.727A4.173 4.173 0 0 0 7.62 9.65s4.359 3.448 13.054 1.536c0 0 2.381.47 2.79.217l-2.66-2.05s-1.56 1.849-3.655 1.94c0 0 3.641-1.8 3.275-2.264C20.351 8.935 18.966 8 18.966 8s-2.733 3.203-5.96 3.253c0 0 4.651-1.612 5.446-3.613L16.27 6.337s-2.708 3.519-6.394 3.701c0 0 4.796-1.826 5.894-3.955l-2.335-1.012s-2.713 3.392-5.78 3.52c0 0 5.309-2.64 5.226-3.718 0 0-2.205-.809-2.903-.762 0 0-2.006 2.387-3.797 2.32 0 0 3.346-2.111 3.162-2.479 0 0-3.179-.35-4.89.261 0 0 2.458-1.064 4.924-.715 0 0-1.036-1.286-2.48-1.643 0 0 1.804-.556 3.252 1.737 0 0 2.463.363 2.75.634 0 0-1.079-2.45-2.555-3.553 0 0 2.27.522 3.179 3.8l2.37.969s-1.24-3.305-2.487-4.378c0 0 2.234.856 3.051 4.67l2.154 1.25s-.837-2.922-1.921-4.378c0 0 1.884 1.203 2.525 4.769l1.334.991s-.653-2.123-.9-2.718c-.246-.595-.09-.705-.09-.705a7.16 7.16 0 0 1 1.558 3.833s2.616 2.196 2.77 2.06z" opacity=".1"/>
    </g>
</svg>
