<svg xmlns="http://www.w3.org/2000/svg" width="322" height="196" viewBox="0 0 322 196">
    <defs>
        <linearGradient id="a" x1="49.969%" x2="49.969%" y1="100.009%" y2=".033%">
            <stop offset="0%" stop-color="gray" stop-opacity=".25"/>
            <stop offset="54%" stop-color="gray" stop-opacity=".12"/>
            <stop offset="100%" stop-color="gray" stop-opacity=".1"/>
        </linearGradient>
    </defs>
    <g fill="none" fill-rule="evenodd">
        <path fill="#00A0FF" fill-rule="nonzero" d="M322 116.112a50.492 50.492 0 0 1-7.352 26.327c0 9.708-4.543 18.508-11.912 24.92a40.735 40.735 0 0 1-5.933 4.286c-.085.053-.172.103-.26.154l-.475.28-.149.087A46.468 46.468 0 0 1 273.092 178H61.127c-1.69 0-3.363-.067-5.022-.202a59.617 59.617 0 0 1-17.186-3.965 52.794 52.794 0 0 1-3.158-1.363 55.398 55.398 0 0 1-2.362-1.175 52.763 52.763 0 0 1-9.7-6.559c-9.57-8.197-15.503-19.52-15.503-32.027A50.48 50.48 0 0 1 0 105.038C0 77.238 22.304 54.7 49.82 54.7c.844 0 1.689.025 2.533.07.121 0 .24 0 .36.016 4.64-7.877 10.84-15.114 18.296-21.486C91.342 15.942 121.059 5 154.163 5c27.815 0 53.24 7.726 72.715 20.49a49.168 49.168 0 0 1 24.192-6.323c27.51 0 49.82 22.538 49.82 50.339a51.66 51.66 0 0 1-.282 5.266c13.458 9.491 21.438 24.913 21.392 41.34z" opacity=".1"/>
        <g fill-rule="nonzero" opacity=".2" transform="translate(22 98)">
            <path fill="#3F3D56" d="M16.492 75.382c0 .129-.014.255-.028.378a51.84 51.84 0 0 1-3.117-1.358 2.522 2.522 0 0 1-1.441-.707c-.298-.151-.595-.307-.89-.464.067-.14.142-.277.226-.408.572-.91 1.441-1.48 2.4-1.45.958.03 1.789.654 2.302 1.595.393.742.582 1.575.548 2.414z"/>
            <path fill="#3F3D56" d="M16.642 70.599a4.737 4.737 0 0 1-.698 2.37c-.572.907-1.441 1.477-2.4 1.447l-.197-.014a2.522 2.522 0 0 1-1.441-.707 3.499 3.499 0 0 1-.664-.872 4.929 4.929 0 0 1 .15-4.783c.572-.911 1.441-1.481 2.4-1.45.958.03 1.789.653 2.302 1.595.393.741.582 1.575.548 2.414z"/>
            <ellipse cx="13.822" cy="65.729" fill="#3F3D56" rx="3.892" ry="2.99" transform="rotate(-88.19 13.822 65.73)"/>
            <ellipse cx="13.971" cy="60.946" fill="#3F3D56" rx="3.892" ry="2.99" transform="rotate(-88.19 13.97 60.946)"/>
            <ellipse cx="14.143" cy="55.851" fill="#3F3D56" rx="3.893" ry="2.991" transform="rotate(-88.282 14.143 55.851)"/>
            <path fill="#00A0FF" d="M4.02 23.065a13.887 13.887 0 0 1-1.056-1.676l7.85-1.042-8.45-.204A14.434 14.434 0 0 1 2.45 8.787l11.144 6.273L3.386 7A14.22 14.22 0 0 1 16.624.25c5.321.424 9.961 3.804 12.02 8.757a14.395 14.395 0 0 1-2.247 14.757c.608.83 1.125 1.722 1.542 2.663l-10.303 4.976 10.925-3.305a14.41 14.41 0 0 1-2.728 13.386c4.409 6.017 3.48 14.43-2.135 19.327a14.184 14.184 0 0 1-19.322-.613C-.92 54.956-1.321 46.5 3.456 40.775a14.394 14.394 0 0 1 .555-17.71h.008z"/>
            <path fill="#000" d="M29.167 32.727a14.315 14.315 0 0 1-3.334 8.757c4.409 6.017 3.48 14.43-2.135 19.327a14.184 14.184 0 0 1-19.322-.613C-.92 54.956-1.321 46.5 3.456 40.775c-1.825-2.496 25.76-9.657 25.71-8.047z" opacity=".1"/>
        </g>
        <path fill="#FFF" fill-rule="nonzero" d="M269 39.173v134.654a5.174 5.174 0 0 1-5.175 5.173H57.175c-.483 0-.964-.068-1.428-.202A5.165 5.165 0 0 1 52 173.827v-60.091V55.514c.12 0 .239 0 .36.017C56.992 47.637 63.184 40.384 70.63 34h193.195A5.174 5.174 0 0 1 269 39.173z"/>
        <rect width="39" height="10" x="200" y="51" fill="#3F3D56" fill-rule="nonzero" rx="5"/>
        <rect width="34" height="7" x="202" y="52" fill="#000" fill-rule="nonzero" opacity=".1" rx="3.5"/>
        <rect width="13" height="6" x="223" y="53" fill="#00A0FF" fill-rule="nonzero" rx="3"/>
        <circle cx="228.5" cy="55.5" r="1.5" fill="#FFF" fill-rule="nonzero"/>
        <rect width="39" height="10" x="200" y="118" fill="#3F3D56" fill-rule="nonzero" rx="5"/>
        <rect width="34" height="7" x="202" y="119" fill="#000" fill-rule="nonzero" opacity=".1" rx="3.5"/>
        <rect width="13" height="6" x="223" y="120" fill="#00A0FF" fill-rule="nonzero" rx="3"/>
        <circle cx="228.5" cy="122.5" r="1.5" fill="#FFF" fill-rule="nonzero"/>
        <rect width="39" height="10" x="200" y="151" fill="#3F3D56" fill-rule="nonzero" rx="5"/>
        <rect width="34" height="7" x="202" y="152" fill="#000" fill-rule="nonzero" opacity=".1" rx="3.5"/>
        <rect width="13" height="6" x="223" y="153" fill="#00A0FF" fill-rule="nonzero" rx="3"/>
        <circle cx="228.5" cy="155.5" r="1.5" fill="#FFF" fill-rule="nonzero"/>
        <rect width="23" height="6" x="82" y="45" fill="#00A0FF" fill-rule="nonzero" rx="3"/>
        <rect width="64" height="6" x="82" y="53" fill="#00A0FF" fill-rule="nonzero" rx="3"/>
        <rect width="64" height="6" x="82" y="62" fill="#00A0FF" fill-rule="nonzero" rx="3"/>
        <g fill="#00A0FF" fill-rule="nonzero" opacity=".5" transform="translate(82 78)">
            <rect width="23.02" height="5.977" y=".031" rx="2.989"/>
            <rect width="47.714" height="5.977" y="8.437" rx="2.989"/>
            <rect width="63.923" height="5.977" y="16.84" rx="2.989"/>
        </g>
        <rect width="23" height="6" x="82" y="112" fill="#00A0FF" fill-rule="nonzero" rx="3"/>
        <rect width="64" height="6" x="82" y="120" fill="#00A0FF" fill-rule="nonzero" rx="3"/>
        <rect width="39" height="6" x="82" y="128" fill="#00A0FF" fill-rule="nonzero" rx="3"/>
        <rect width="23" height="6" x="82" y="145" fill="#00A0FF" fill-rule="nonzero" rx="3"/>
        <rect width="64" height="6" x="82" y="153" fill="#00A0FF" fill-rule="nonzero" rx="3"/>
        <rect width="51" height="6" x="82" y="162" fill="#00A0FF" fill-rule="nonzero" rx="3"/>
        <path stroke="#3F3D56" stroke-linecap="round" d="M73 73h183M73 106h183M73 141h183M73 175h183" opacity=".7"/>
        <ellipse cx="222.5" cy="193" fill="#00A0FF" fill-rule="nonzero" opacity=".1" rx="41.5" ry="3"/>
        <circle cx="20.5" cy="39.5" r="6.5" fill="#00A0FF" fill-rule="nonzero" opacity=".1"/>
        <circle cx="45.5" cy="6.5" r="6.5" fill="#00A0FF" fill-rule="nonzero" opacity=".1"/>
        <circle cx="42" cy="29" r="10" fill="#00A0FF" fill-rule="nonzero" opacity=".1"/>
        <rect width="39" height="10" x="200" y="84" fill="#3F3D56" fill-rule="nonzero" rx="5"/>
        <rect width="34" height="7" x="202" y="85" fill="#000" fill-rule="nonzero" opacity=".1" rx="3.5"/>
        <path fill="url(#a)" fill-rule="nonzero" d="M203.515 184.704a16.11 16.11 0 0 0 1.32-.255 4.084 4.084 0 0 1-.372 1.245c-.432.813-1.275 1.304-2.05 1.803a.637.637 0 0 0-.801-.053c-.934.561-1.678 1.352-2.668 1.835-.347.168-.708.302-1.046.49a5.624 5.624 0 0 0-1.974 2.028c-.282.435-.51 1.007-.234 1.439.106.146.242.268.4.356.402.28.884.422 1.373.407.282-.025.564-.132.872-.18.386-.067.781-.033 1.17-.067a6.872 6.872 0 0 0 1.647-.423l1.938-.674c.547-.175 1.08-.393 1.593-.65.307-.166.598-.36.91-.51a7.359 7.359 0 0 1 1.09-.382l1.1-.32c.157-.06.327-.082.496-.064.152.028.282.123.437.162.236.042.48.019.705-.067l1.274-.36c.27-.06.526-.166.759-.313.584-.413.688-1.232.685-1.947a14.668 14.668 0 0 0-.366-3.22 1.006 1.006 0 0 0-.415.312 6.02 6.02 0 0 0-.42-.525 6.247 6.247 0 0 1-1.272-2.336 4.12 4.12 0 0 0 1.128-1.268c-.674-2.555-1.365-5.15-2.735-7.405-.449-.734-.962-1.424-1.41-2.148-1.334-2.104-1.608-4.768-3.134-6.731a1.162 1.162 0 0 1 0-1.37c.175-.23.457-.445.404-.731-.04-.205-.254-.393-.172-.584.04-.092.135-.143.208-.21.26-.241.226-.648.251-1.001.057-.892.59-1.683 1.103-2.401.104-.172.242-.32.406-.438.138-.084.302-.123.44-.207.485-.306.451-1.016.682-1.543.305-.696 1.072-1.046 1.574-1.61.64-.718.804-1.716 1.478-2.342.069-.066.144-.126.223-.18a11.228 11.228 0 0 0-.398 3.268c-.065 3.795.883 7.722.44 11.5-.35 2.99 1.486 5.971 4.09 7.466 1.018.54 2.084.99 3.183 1.344 1.63.58 3.254 1.178 4.853 1.845 1.128.471 2.242.977 3.34 1.518a41.62 41.62 0 0 1 3.948 2.19c1.568 1.001 3.138 2.017 4.252 3.512a3.378 3.378 0 0 0 1.879-.688c.428.337.947.592 1.35.965.557.577.93 1.305 1.072 2.093h-.17c.02.373.038.746.057 1.122a.475.475 0 0 1-.042.28.51.51 0 0 1-.152.138l-.869.586c-.632.423-1.328.959-1.362 1.719-.018.221.05.44.189.614.212.197.484.32.773.348 1.511.317 3.06.626 4.59.42.728-.097 1.481-.336 1.955-.897.434-.51.564-1.203.683-1.862.189-1.122.346-2.27.47-3.408a7.498 7.498 0 0 1 .469-2.263.28.28 0 0 1 .12-.152c.066-.028.142 0 .21-.028.067-.028.112-.132.135-.216.28-1.107.415-2.246.403-3.388a2.272 2.272 0 0 0-.132-.872 1.77 1.77 0 0 0-1.207-.926 9.664 9.664 0 0 0-1.56-.185 7.782 7.782 0 0 1-1.294-.236 1.19 1.19 0 0 0-.539-.07.377.377 0 0 0-.327.373c.01.065.033.127.068.183l-.44-.087c-.356-.065-.846-.22-1.38-.348 0-.09.006-.183.018-.28a.53.53 0 0 0-.3-.483l-7.45-3.96-1.393-.74c-3.052-1.625-6.204-3.125-9.264-4.75-.203.062-.373-.17-.432-.378s-.101-.454-.296-.547c-.096-.045-.223-.042-.282-.123a.332.332 0 0 1-.053-.25c.098-1.478 1.161-2.841.95-4.305-.09-.626-.415-1.243-.282-1.857.099-.424.403-.769.564-1.172.367-.904 0-1.989.4-2.873.267-.58.449-1.196.539-1.828.189-1.26.57-2.484 1.128-3.63a6.546 6.546 0 0 1 1.05-1.59c.222-.241.473-.457.687-.707.649-.771.889-1.798 1.072-2.805.333-1.797.564-3.663.147-5.446-.141-.606-.356-1.21-.347-1.832 0-.746.301-1.601-.062-2.199.374-.3.624-.726.702-1.198a1.54 1.54 0 0 1 .099-.496c.123-.173.284-.317.47-.42.594-.451.877-1.2.728-1.928.386.174.793-.216.976-.6.183-.384.321-.841.713-1.015.265-.112.564-.045.846-.118.449-.115.722-.56 1.038-.889.643-.69 1.554-1.046 2.397-1.47 2.499-1.265 4.535-3.264 6.529-5.233a22.023 22.023 0 0 0 2.82-3.159c.223-.328.426-.667.618-1.015l.05-.025.017.062c.031.123.068.246.105.367.09.28.191.58.282.867.304.841.634 1.739 1.255 2.375.19.194.406.362.643.497a4.332 4.332 0 0 0 1.655.493c.22.028.443.045.666.056.222.012.445.02.665.026l4.563.12c-1.568-2.26-1.692-5.2-1.588-7.951.263-7.068 1.647-14.2.361-21.157-.155-.841-.36-1.683-.877-2.359-.677-.883-1.788-1.31-2.87-1.559-1.084-.25-2.209-.37-3.221-.822-.846-.384-1.625-1.001-2.538-1.203a5.62 5.62 0 0 0-2.03.034c-.824.121-1.643.265-2.457.432l-.198.042h.009l-.135.03h-.037l-.121.029h-.046l-.112.03-.051.014-.104.034-.06.02-.096.03-.062.026-.09.033-.068.028-.081.037-.068.034-.076.036-.068.04-.07.039-.068.044-.065.043-.068.047-.056.045-.065.056-.053.048a.672.672 0 0 0-.062.064l-.048.048a.842.842 0 0 0-.062.079c0 .014-.026.028-.037.044-.011.017-.05.073-.076.115v.017a1.704 1.704 0 0 0-.155.334 2.107 2.107 0 0 0-.116.541c0 .062 0 .127-.014.188v.373c.011.211.035.42.07.629a6.83 6.83 0 0 0-3.373 5.692 6.824 6.824 0 0 0 3.046 5.872c.014.11.021.222.023.334v.072a9.207 9.207 0 0 1-.124 1.184 16.63 16.63 0 0 0-3.384-.3c-.677 0-1.36.062-2.042.115a30.62 30.62 0 0 1-2.042-2.749l-1.506-2.196a20.9 20.9 0 0 1-1.41-2.244c-.37-.712-.657-1.47-1.069-2.16-.846-1.421-2.228-2.63-2.4-4.277l-.397.082c-.217-.354-.491-.727-.593-.932a18.317 18.317 0 0 1-1.252-3.646c-.138-.65-.242-1.33-.6-1.89a4.27 4.27 0 0 0-.877-.926 5.805 5.805 0 0 0-1.879-1.178 2.44 2.44 0 0 0-1.92.112 2.83 2.83 0 0 0-.282-.112 2.337 2.337 0 0 0-2.132.247c-.592.452-.846 1.226-.936 1.963a4.824 4.824 0 0 0 .502 2.98c.564 1.003 1.573 1.682 2.408 2.479.58.56 1.09 1.189 1.514 1.873a20.41 20.41 0 0 1-.115 4.547c-.107.645-.282 1.279-.333 1.93-.206 2.35 1.024 4.7.584 7.011-.15.712.171 1.44.798 1.815.632.34 1.37.384 2.064.56 1.362.349 2.538 1.215 3.914 1.538.635.151 1.295.18 1.927.348l.098.03a4.555 4.555 0 0 0-1.012 1.913c-.282 1.178-.017 2.438-.299 3.616-.231.97-.812 1.817-1.385 2.64a9536.84 9536.84 0 0 0-3.31 4.767 29.223 29.223 0 0 1-2.44 3.19c-1.52 1.651-4.143 2.961-4.915 4.947-.017-.048-.04-.095-.057-.143-1.094.8-1.503 2.289-2.374 3.324-.426.502-.95.908-1.41 1.374-.57.6-1.091 1.245-1.56 1.927-1.297 1.79-2.603 3.587-3.53 5.592-.486 1.044-.86 2.13-1.247 3.21-1.517 4.254-3.993 8.29-5.023 12.69-.25 1.075-.908 2.045-1.007 3.145-.11 1.172.43 2.3.987 3.335.846 1.582 1.788 3.119 2.539 4.746.442.948.826 1.926 1.32 2.852.538 1.01 1.198 1.946 1.762 2.942 1.373 2.555 2.163 5.38 2.893 8.165zm18.658-80.371l-.135-.067a4.675 4.675 0 0 1-1.368-.9c-1.215-1.29-1.737-3.235-2.118-4.97a16.02 16.02 0 0 1-.121-.62c1.475 2.083 2.868 4.237 3.742 6.563v-.006z"/>
        <path fill="#FBBEBE" fill-rule="nonzero" d="M216.029 88.027c-.129-.634-.223-1.293-.556-1.836a4.086 4.086 0 0 0-.817-.9 5.404 5.404 0 0 0-1.75-1.145 2.102 2.102 0 0 0-1.982.239c-.553.439-.786 1.191-.873 1.921a4.879 4.879 0 0 0 .467 2.896c.537.977 1.465 1.63 2.243 2.41a9.38 9.38 0 0 1 1.462 1.92c.185.366.408.709.666 1.022a1.24 1.24 0 0 0 1.048.442 1.82 1.82 0 0 0 .857-.53c.32-.294 1.18-.823 1.206-1.282.02-.376-.65-1.227-.815-1.58a18.544 18.544 0 0 1-1.156-3.577z"/>
        <path fill="#000" fill-rule="nonzero" d="M216.029 88.027c-.129-.634-.223-1.293-.556-1.836a4.086 4.086 0 0 0-.817-.9 5.404 5.404 0 0 0-1.75-1.145 2.102 2.102 0 0 0-1.982.239c-.553.439-.786 1.191-.873 1.921a4.879 4.879 0 0 0 .467 2.896c.537.977 1.465 1.63 2.243 2.41a9.38 9.38 0 0 1 1.462 1.92c.185.366.408.709.666 1.022a1.24 1.24 0 0 0 1.048.442 1.82 1.82 0 0 0 .857-.53c.32-.294 1.18-.823 1.206-1.282.02-.376-.65-1.227-.815-1.58a18.544 18.544 0 0 1-1.156-3.577z" opacity=".1"/>
        <path fill="#F86D70" fill-rule="nonzero" d="M237 107.83a16.12 16.12 0 0 0-4.566-.582c-2.57.038-5.217.682-7.666-.134a13.153 13.153 0 0 1-1.835-.807 4.668 4.668 0 0 1-1.37-.93c-1.22-1.331-1.745-3.338-2.123-5.127a35.288 35.288 0 0 1-.578-5.458c-.635.306-1.307.607-2.004.545-.697-.06-1.41-.614-1.41-1.337.104 1.696.18 3.412-.094 5.084-.107.664-.282 1.32-.33 1.99-.209 2.427 1.024 4.851.584 7.243a1.77 1.77 0 0 0 .799 1.87c.632.353 1.374.397 2.068.584 1.363.358 2.54 1.252 3.922 1.587.635.155 1.298.184 1.93.359.9.247 1.722.78 2.642.947.688.128 1.41.04 2.096.102.607.052 1.2.215 1.809.233 1.49.038 2.895-.83 3.883-1.984.987-1.154 1.617-2.794 2.243-4.184z"/>
        <path fill="#000" fill-rule="nonzero" d="M237 107.83a16.12 16.12 0 0 0-4.566-.582c-2.57.038-5.217.682-7.666-.134a13.153 13.153 0 0 1-1.835-.807 4.668 4.668 0 0 1-1.37-.93c-1.22-1.331-1.745-3.338-2.123-5.127a35.288 35.288 0 0 1-.578-5.458c-.635.306-1.307.607-2.004.545-.697-.06-1.41-.614-1.41-1.337.104 1.696.18 3.412-.094 5.084-.107.664-.282 1.32-.33 1.99-.209 2.427 1.024 4.851.584 7.243a1.77 1.77 0 0 0 .799 1.87c.632.353 1.374.397 2.068.584 1.363.358 2.54 1.252 3.922 1.587.635.155 1.298.184 1.93.359.9.247 1.722.78 2.642.947.688.128 1.41.04 2.096.102.607.052 1.2.215 1.809.233 1.49.038 2.895-.83 3.883-1.984.987-1.154 1.617-2.794 2.243-4.184z" opacity=".1"/>
        <path fill="#FBBEBE" fill-rule="nonzero" d="M240.961 178.559c.432.058.851.199 1.237.417.503.386.88.935 1.075 1.567.577 1.537.696 3.23.723 4.89.02 1.34-.021 2.713-.466 3.965a2.556 2.556 0 0 1-.612 1.037c-.248.21-.535.36-.842.44-.665.198-1.433.195-1.975-.262-.604-.51-.755-1.41-.882-2.224-.172-1.098-.416-2.267-1.173-3.024-.562-.572-1.366-.858-1.774-1.55-.487-.831-.23-1.918.08-2.844.264-.803.664-2.43 1.442-2.841.779-.412 2.36.272 3.167.429zM210.044 182.505a6.006 6.006 0 0 0 1.282 2.325c.363.41.82.906.63 1.414a1.32 1.32 0 0 1-.345.451c-2.703 2.578-6.484 3.824-10.235 4.294a.37.37 0 0 1-.181 0c-.11-.047-.138-.183-.149-.3a3.602 3.602 0 0 1 0-1.15c.182-.894.985-1.525 1.772-2.02.786-.493 1.645-.969 2.082-1.774.546-1 .316-2.303.965-3.24.527-.762 1.506-1.092 2.438-1.229.322-.049 1.008-.393 1.282-.235.274.159.364 1.15.459 1.464z"/>
        <path fill="#E93D37" fill-rule="nonzero" d="M240.447 178.39c0-.195.126-.36.294-.384a.972.972 0 0 1 .484.07c.38.121.77.204 1.163.247a7.58 7.58 0 0 1 1.404.189c.469.112.868.462 1.087.95.09.289.13.595.119.901a15.592 15.592 0 0 1-.362 3.488c-.02.087-.051.189-.124.22-.074.032-.127 0-.185.032a.258.258 0 0 0-.11.157 8.663 8.663 0 0 0-.423 2.325 71.815 71.815 0 0 1-.423 3.505c-.099.68-.223 1.395-.613 1.919-.428.58-1.105.822-1.759.924-1.378.209-2.77-.108-4.13-.433a1.143 1.143 0 0 1-.697-.358.99.99 0 0 1-.17-.633c.03-.782.66-1.334 1.224-1.77l.783-.602a.432.432 0 0 0 .137-.142.55.55 0 0 0 .038-.29l-.05-1.163c1.056.021 2.017.707 2.5 1.784.107.247.21.535.434.63.301.08.603-.13.681-.473a2.3 2.3 0 0 0-.022-1.008c-.459-2.81-.35-5.7-.629-8.54a2.129 2.129 0 0 0-.253-.9c-.12-.195-.37-.384-.398-.645z"/>
        <rect width="13" height="6" x="203" y="87" fill="#00A0FF" fill-rule="nonzero" rx="3" transform="rotate(180 209.5 90)"/>
        <circle cx="209.5" cy="89.5" r="1.5" fill="#FFF" fill-rule="nonzero"/>
        <path fill="#E93D37" fill-rule="nonzero" d="M203.26 189.966c-.13.211-.335.374-.456.591a.498.498 0 0 0 .098.662c.13.055.274.069.413.039a14.066 14.066 0 0 0 7.51-3.316c.35-.287.66-.617.921-.982.246-.363.454-.808.867-.96a14.26 14.26 0 0 1 .387 3.223c0 .715-.104 1.528-.702 1.942a2.53 2.53 0 0 1-.78.31l-1.305.36a1.424 1.424 0 0 1-.725.068c-.154-.04-.29-.135-.448-.164a1.124 1.124 0 0 0-.509.065l-1.129.321a7.308 7.308 0 0 0-1.115.38c-.323.15-.62.34-.936.507-.526.257-1.073.473-1.635.647l-1.984.673a7.348 7.348 0 0 1-1.69.422c-.398.034-.806 0-1.201.065-.29.05-.578.157-.896.18a2.387 2.387 0 0 1-1.407-.405c-.16-.09-.3-.21-.41-.355-.289-.43-.037-1 .24-1.436a5.746 5.746 0 0 1 2.022-2.02c.347-.186.72-.322 1.074-.49 1.014-.479 1.78-1.278 2.736-1.824.904-.516 1.485.816 1.06 1.497z"/>
        <path fill="#FBBEBE" fill-rule="nonzero" d="M230 110.65a8.953 8.953 0 0 0 3.571 1.25c.67.075 1.346.108 2.02.098a56.883 56.883 0 0 0 8.409-.632c-1.104-1.098-2.223-2.272-2.643-3.703a5.523 5.523 0 0 1-.13-2.32c.17-.988.433-1.962.788-2.91a25.3 25.3 0 0 1-3.554-.082c-.672-.063-2.323-.614-2.907-.196-.585.418-.135 1.765-.127 2.397a7.015 7.015 0 0 1-.678 2.867c-.84 1.71-2.66 3.117-4.749 3.23z"/>
        <path fill="#000" fill-rule="nonzero" d="M236.154 104.133c1.521.844 3.4 1.086 5.147.664.15-.827.384-1.642.699-2.435a23.816 23.816 0 0 1-3.154-.068c-.597-.053-2.061-.514-2.58-.164-.519.35-.12 1.474-.112 2.003z" opacity=".1"/>
        <circle cx="239" cy="100" r="7" fill="#FBBEBE" fill-rule="nonzero"/>
        <path fill="#E93D37" fill-rule="nonzero" d="M210 132.533a3.128 3.128 0 0 0 1.526 2.697c.52.272 1.078.467 1.654.58 3.086.742 6.26 1.339 9.438 1.157a5.21 5.21 0 0 0 2.002-.418c.64-.282 1.101-.855 1.237-1.537.003-.167.036-.332.096-.488a1.43 1.43 0 0 1 .468-.416c.59-.442.873-1.181.726-1.902.385.173.788-.214.97-.594.183-.379.323-.836.71-1.001.264-.112.561-.045.842-.117.446-.114.718-.558 1.032-.879.64-.68 1.55-1.032 2.387-1.453 2.49-1.246 4.518-3.224 6.506-5.168a21.729 21.729 0 0 0 2.805-3.118c.223-.324.429-.66.617-1.004.6-1.145 1.12-2.33 1.556-3.545.253-.653.508-1.339.404-2.03 0-.062-.022-.123-.036-.187a3.896 3.896 0 0 0-.614-1.233c-.688-1.004-1.588-1.952-2.771-2.265-1.184-.312-2.362.064-3.565.318-.398.089-.802.15-1.209.184-1.273.09-2.524-.25-3.764-.588l-1.34-.368c-.67-.184-1.007-.99-1.683-1.133a2.29 2.29 0 0 0-.911.048c-1.377.26-2.769.597-3.983 1.294-.271.154-.53.33-.774.524a4.872 4.872 0 0 0-1.8 2.641c-.281 1.163-.017 2.407-.298 3.57-.23.96-.81 1.797-1.377 2.605l-3.304 4.705a29.061 29.061 0 0 1-2.429 3.147c-1.778 1.921-5.07 3.366-5.118 5.974z"/>
        <path fill="#FBBEBE" fill-rule="nonzero" d="M219.029 88.027c-.129-.634-.223-1.293-.556-1.836a4.086 4.086 0 0 0-.817-.9 5.404 5.404 0 0 0-1.75-1.145 2.102 2.102 0 0 0-1.982.239c-.553.439-.786 1.191-.873 1.921a4.879 4.879 0 0 0 .467 2.896c.524.977 1.465 1.63 2.243 2.41a9.38 9.38 0 0 1 1.462 1.92c.185.366.408.709.666 1.022a1.24 1.24 0 0 0 1.048.442 1.82 1.82 0 0 0 .857-.53c.32-.294 1.18-.823 1.206-1.282.02-.376-.65-1.227-.815-1.58a18.544 18.544 0 0 1-1.156-3.577z"/>
        <path fill="#434175" fill-rule="nonzero" d="M195.002 166.285c.848 1.568 1.792 3.08 2.557 4.704.444.943.828 1.912 1.323 2.83.54 1 1.204 1.929 1.769 2.914 1.413 2.492 2.212 5.302 2.944 8.071a16.318 16.318 0 0 0 5.799-2.021 4.079 4.079 0 0 0 1.517-1.5c-.675-2.52-1.367-5.104-2.743-7.341-.45-.728-.964-1.4-1.413-2.13-1.337-2.086-1.614-4.715-3.143-6.666-.3-.403-.3-.952 0-1.355.175-.227.458-.442.404-.725-.04-.204-.254-.39-.172-.58.04-.092.136-.142.21-.21.26-.235.225-.64.25-.988.057-.884.591-1.66 1.108-2.382a1.5 1.5 0 0 1 .407-.434c.139-.084.303-.123.441-.207.486-.3.452-1.005.687-1.529.305-.688 1.074-1.038 1.58-1.595.64-.711.802-1.7 1.48-2.321.07-.065.145-.125.223-.18a11.016 11.016 0 0 0-.398 3.25c-.065 3.763.884 7.655.44 11.392-.35 2.962 1.493 5.918 4.104 7.402 1.024.536 2.093.981 3.196 1.332 1.633.574 3.266 1.165 4.869 1.828 1.13.465 2.26.97 3.351 1.504a41.373 41.373 0 0 1 3.956 2.172c1.574.991 3.151 2 4.267 3.48 1.083-.028 2.074-.672 2.758-1.503.684-.832 1.11-1.837 1.51-2.83.347-.86.692-1.742.717-2.669a.531.531 0 0 0-.3-.478l-7.477-3.92-1.413-.733c-3.06-1.61-6.216-3.099-9.294-4.706-.206.059-.376-.174-.435-.375-.06-.202-.102-.454-.297-.543-.098-.045-.223-.045-.282-.123a.333.333 0 0 1-.051-.247c.099-1.467 1.167-2.816.952-4.269-.09-.621-.415-1.232-.282-1.84.099-.422.404-.763.565-1.164.364-.896 0-1.96.401-2.847.268-.575.45-1.187.54-1.814.192-1.25.578-2.462 1.144-3.595a6.484 6.484 0 0 1 1.052-1.578c.226-.238.477-.454.689-.7.653-.765.89-1.784 1.077-2.766.333-1.783.565-3.64.147-5.4-.142-.602-.356-1.199-.348-1.817 0-.815.37-1.77-.2-2.36a1.872 1.872 0 0 0-.848-.426 25.77 25.77 0 0 0-4.055-.742l-6.234-.803a5.774 5.774 0 0 1-2.077-.535c-.848-.462-1.413-1.321-1.752-2.217-1.097.792-1.51 2.268-2.382 3.292-.427.501-.953.904-1.413 1.364a15.457 15.457 0 0 0-1.566 1.912c-1.302 1.772-2.614 3.558-3.546 5.543-.483 1.033-.848 2.11-1.25 3.18-1.522 4.219-4.006 8.222-5.038 12.58-.254 1.067-.912 2.028-1.011 3.12-.116 1.156.424 2.275.986 3.294z"/>
        <path fill="#000" fill-rule="nonzero" d="M227.802 131.08c.131.283.2.599.198.92-.12-.689-.943-1.07-.994-1.75-.025-.314.024-.3.193-.134.257.246.368.692.603.963zM224.517 133.224c.167.173.291.397.362.649.132.354.157.753.07 1.127-.115-.066-.155-.238-.19-.39a3.022 3.022 0 0 0-.237-.669c-.094-.18-.527-.61-.522-.809-.007-.298.402-.014.517.092zM225 109.804c.45.349.943.647 1.472.888 1.384.635 2.917.969 4.31 1.575.687.317 1.354.667 1.999 1.05 1.381.788 2.76 1.576 4.139 2.377.332.173.639.384.912.627.499.484.496 1.313.95 1.839.508.524 1.238.83 2.008.84.763.006 1.52-.11 2.24-.342.435-.117.863-.258 1.28-.422.435-.167.848-.38 1.228-.636.767-.489 1.288-1.234 1.448-2.072a3.738 3.738 0 0 0-.246-1.69 6.236 6.236 0 0 0-.44-1.027 3.923 3.923 0 0 0-.354-.539c-.95-1.22-2.624-1.796-4.244-2.082-.854-.15-1.723-.241-2.58-.373-.412.084-.829.142-1.249.174-1.315.084-2.607-.237-3.887-.555l-1.385-.346c-.692-.173-1.04-.932-1.738-1.066a2.588 2.588 0 0 0-.941.044c-1.423.245-2.86.562-4.114 1.219a6.215 6.215 0 0 0-.808.517z" opacity=".1"/>
        <path fill="#ED5C57" fill-rule="nonzero" d="M221.749 93c.169 1.675 1.531 2.905 2.362 4.35.404.704.687 1.474 1.05 2.201.414.796.876 1.563 1.384 2.299l1.481 2.232c.873 1.313 1.753 2.638 2.866 3.735 1.939.342 3.573 1.84 5.414 2.566 1.476.575 3.082.661 4.63.974 1.548.313 3.148.94 4.057 2.279.34.529.595 1.11.758 1.724.203.591.283 1.221.236 1.847a3.52 3.52 0 0 1-1.385 2.27 7.548 7.548 0 0 1-2.395 1.15 6.091 6.091 0 0 1-2.14.373 2.575 2.575 0 0 1-1.922-.92c-.432-.574-.43-1.49-.906-2.01a4.381 4.381 0 0 0-.872-.688l-3.957-2.585a19.82 19.82 0 0 0-1.91-1.15c-1.333-.675-2.798-1.04-4.121-1.724-1.324-.684-2.556-1.842-2.816-3.356-.806-4.652-3.91-8.574-6.563-12.415.086-.017.06-.224.091-.31a3.955 3.955 0 0 1 1.939-2.035c.853-.48 1.8-.603 2.719-.807z"/>
        <path fill="#434175" fill-rule="nonzero" d="M236.013 93.057c-.051-.48.048-.963.286-1.389.454-.721 1.402-.975 2.265-1.145.863-.17 1.657-.3 2.49-.415a5.996 5.996 0 0 1 2.06-.036c.931.197 1.714.796 2.571 1.165 1.028.44 2.17.546 3.268.798 1.097.251 2.225.653 2.913 1.508.523.648.731 1.476.889 2.283 1.305 6.732-.1 13.636-.366 20.477-.106 2.662.02 5.508 1.611 7.697l-4.63-.118c-1.186-.03-2.46-.09-3.39-.79-.823-.614-1.212-1.607-1.56-2.544a7.65 7.65 0 0 1-.595-2.282c-.071-1.607.883-3.185.572-4.767-.232-1.18-1.143-2.138-2.091-2.911-.949-.774-2.028-1.449-2.808-2.392-1.385-1.68-1.651-3.974-1.48-6.108.103-1.269.343-2.54.226-3.808a4.67 4.67 0 0 0-1.048-2.667c-.729-.842-1.114-1.367-1.183-2.556z"/>
        <path fill="#000" fill-rule="nonzero" d="M236.3 91.153c.446-.723 1.371-.984 2.22-1.153-.45.154-.837.446-1.1.833a2.442 2.442 0 0 0-.286 1.414c.063 1.208.449 1.741 1.186 2.597a4.766 4.766 0 0 1 1.05 2.71c.115 1.289-.122 2.578-.225 3.87-.174 2.165.091 4.498 1.48 6.206.776.959 1.847 1.642 2.806 2.43.96.79 1.86 1.759 2.09 2.958.309 1.606-.645 3.211-.57 4.844.075.797.274 1.578.59 2.316.352.956.74 1.964 1.56 2.589.93.71 2.207.772 3.392.803l3.279.083c.07.116.148.233.228.347l-4.629-.12c-1.185-.03-2.459-.091-3.39-.802-.822-.625-1.21-1.633-1.559-2.586a7.875 7.875 0 0 1-.594-2.319c-.071-1.633.883-3.235.571-4.843-.231-1.2-1.142-2.172-2.09-2.958s-2.028-1.472-2.807-2.43c-1.385-1.709-1.65-4.039-1.48-6.208.103-1.288.343-2.58.226-3.869a4.79 4.79 0 0 0-1.048-2.71c-.737-.856-1.122-1.389-1.188-2.597-.049-.486.051-.975.289-1.405zM202 162.574L209.902 183c.448-.34.823-.78 1.098-1.287-.634-2.534-1.284-5.132-2.576-7.382-.422-.732-.905-1.408-1.327-2.143-1.255-2.097-1.515-4.74-2.95-6.703a1.206 1.206 0 0 1 0-1.363c.164-.228.43-.445.379-.73-.037-.205-.239-.39-.162-.582.037-.093.127-.144.196-.211.245-.237.213-.645.237-.994.053-.89.554-1.67 1.04-2.396.098-.171.228-.32.382-.436.13-.085.284-.124.414-.209.456-.301.424-1.01.644-1.537.287-.693 1.009-1.045 1.484-1.605.602-.715.753-1.709 1.39-2.334l.056-.146-.597-3.942-7.61 13.574z" opacity=".1"/>
        <ellipse cx="275" cy="184.5" fill="#00A0FF" fill-rule="nonzero" rx="10" ry="1.5"/>
        <ellipse cx="275" cy="183.5" fill="#3F3D56" fill-rule="nonzero" rx="1" ry="1.5"/>
        <ellipse cx="275" cy="182.5" fill="#3F3D56" fill-rule="nonzero" rx="1" ry="1.5"/>
        <ellipse cx="275" cy="180.5" fill="#3F3D56" fill-rule="nonzero" rx="1" ry="1.5"/>
        <ellipse cx="275" cy="178.5" fill="#3F3D56" fill-rule="nonzero" rx="1" ry="1.5"/>
        <ellipse cx="275" cy="177.5" fill="#3F3D56" fill-rule="nonzero" rx="1" ry="1.5"/>
        <ellipse cx="275" cy="175.5" fill="#3F3D56" fill-rule="nonzero" rx="1" ry="1.5"/>
        <ellipse cx="275" cy="173.5" fill="#3F3D56" fill-rule="nonzero" rx="1" ry="1.5"/>
        <path fill="#00A0FF" fill-rule="nonzero" d="M271.068 161.697a5.356 5.356 0 0 1-.387-.615l2.738-.484-2.963.025a5.745 5.745 0 0 1-.095-4.247l3.975 2.211-3.666-2.891c.932-1.746 2.696-2.785 4.569-2.69 1.872.094 3.538 1.306 4.313 3.138.776 1.832.531 3.976-.634 5.553.223.302.414.63.57.977l-3.556 1.982 3.793-1.365c.174.554.263 1.134.264 1.719a5.592 5.592 0 0 1-1.07 3.316c1.609 2.197 1.375 5.354-.538 7.251-1.913 1.897-4.863 1.897-6.776 0-1.913-1.897-2.146-5.054-.537-7.251-1.424-1.945-1.424-4.684 0-6.63z"/>
        <path fill="#000" fill-rule="nonzero" d="M280 165.072a4.796 4.796 0 0 1-1.072 3.022 4.807 4.807 0 0 1-.538 6.61 5.084 5.084 0 0 1-6.783 0 4.807 4.807 0 0 1-.537-6.61c-.671-.831 8.93-3.57 8.93-3.022z" opacity=".1"/>
        <ellipse cx="294" cy="165.5" fill="#00A0FF" fill-rule="nonzero" rx="7" ry="1.5"/>
        <ellipse cx="293.5" cy="165" fill="#3F3D56" fill-rule="nonzero" rx="1" ry="1"/>
        <ellipse cx="293.5" cy="163" fill="#3F3D56" fill-rule="nonzero" rx="1" ry="1"/>
        <ellipse cx="293.5" cy="162" fill="#3F3D56" fill-rule="nonzero" rx="1" ry="1"/>
        <ellipse cx="293.5" cy="161" fill="#3F3D56" fill-rule="nonzero" rx="1" ry="1"/>
        <ellipse cx="293.5" cy="159" fill="#3F3D56" fill-rule="nonzero" rx="1" ry="1"/>
        <ellipse cx="293.5" cy="158" fill="#3F3D56" fill-rule="nonzero" rx="1" ry="1"/>
        <ellipse cx="293.5" cy="156" fill="#3F3D56" fill-rule="nonzero" rx="1" ry="1"/>
        <path fill="#00A0FF" fill-rule="nonzero" d="M290.754 149.799a3.085 3.085 0 0 1-.274-.41l1.918-.322-2.07.017a3.65 3.65 0 0 1-.069-2.827l2.78 1.474-2.562-1.925a3.473 3.473 0 0 1 3.194-1.802 3.49 3.49 0 0 1 3.02 2.094 3.63 3.63 0 0 1-.459 3.7c.155.202.289.42.397.65l-2.482 1.32 2.647-.91c.38 1.145.17 2.41-.562 3.361a3.627 3.627 0 0 1-.37 4.832 3.436 3.436 0 0 1-4.741 0 3.627 3.627 0 0 1-.37-4.832 3.623 3.623 0 0 1 0-4.41l.003-.01z"/>
        <path fill="#000" fill-rule="nonzero" d="M296.994 151.052a3.58 3.58 0 0 1-.747 2.195 3.59 3.59 0 0 1-.37 4.809 3.462 3.462 0 0 1-4.753 0 3.59 3.59 0 0 1-.371-4.81c-.473-.604 6.241-2.592 6.241-2.194z" opacity=".1"/>
    </g>
</svg>
