<svg xmlns="http://www.w3.org/2000/svg" width="334" height="249" viewBox="0 0 334 249">
    <defs>
        <linearGradient id="a" x1="49.985%" x2="49.985%" y1="99.995%" y2=".005%">
            <stop offset="0%" stop-color="gray" stop-opacity=".25"/>
            <stop offset="54%" stop-color="gray" stop-opacity=".12"/>
            <stop offset="100%" stop-color="gray" stop-opacity=".1"/>
        </linearGradient>
    </defs>
    <g fill="none" fill-rule="evenodd">
        <path fill="#00A0FF" fill-rule="nonzero" d="M289 32.699a9.813 9.813 0 0 0-5.612.603 8.389 8.389 0 0 1-6.74-.017 9.593 9.593 0 0 0-7.924.152 4.961 4.961 0 0 1-2.282.563c-3.213 0-5.886-3.185-6.442-7.389a6.159 6.159 0 0 0 1.606-1.706c1.884-2.988 4.802-4.905 8.079-4.905 3.276 0 6.157 1.894 8.03 4.852a6.225 6.225 0 0 0 5.355 2.886h.084c2.536 0 4.752 2.016 5.846 4.96z" opacity=".1"/>
        <path fill="#00A0FF" fill-rule="nonzero" d="M297.673 19.904l-5.045 3.147 3.062-5.477a5.06 5.06 0 0 0-3.052-1.07h-.082c-.35.006-.7-.019-1.046-.074l-1.704 1.064.735-1.31a6.062 6.062 0 0 1-2.99-2.237l-3.063 1.917 1.95-3.454c-1.79-2.113-4.203-3.41-6.855-3.41-3.183 0-6.018 1.863-7.848 4.762a5.877 5.877 0 0 1-5.201 2.748h-.172c-3.514 0-6.362 3.918-6.362 8.747 0 4.828 2.825 8.743 6.352 8.743a4.851 4.851 0 0 0 2.217-.543 9.317 9.317 0 0 1 7.698-.15 8.16 8.16 0 0 0 6.547.015 9.34 9.34 0 0 1 7.633.144 4.828 4.828 0 0 0 2.19.534c3.515 0 6.362-3.915 6.362-8.747a10.957 10.957 0 0 0-1.326-5.35z" opacity=".1"/>
        <g fill-rule="nonzero" opacity=".1">
            <path fill="#3F3D56" d="M42.406 214.775v2.063a7.68 7.68 0 0 0 7.68 7.678 7.68 7.68 0 0 0 7.681-7.678v-2.046a7.68 7.68 0 0 0-7.68-7.678 7.68 7.68 0 0 0-7.681 7.678v-.017zM57.767 182.013v-2.049a7.68 7.68 0 0 0-7.68-7.678 7.68 7.68 0 0 0-7.681 7.678v2.046c-.003.752.107 1.5.326 2.22a7.678 7.678 0 0 0 15.016-2.22l.02.003z"/>
            <path fill="#3F3D56" d="M42.406 197.37v2.05a7.68 7.68 0 0 0 7.68 7.677 7.68 7.68 0 0 0 7.681-7.678v-2.05a7.68 7.68 0 0 0-7.68-7.677 7.68 7.68 0 0 0-7.681 7.678zM50.087 224.5a7.702 7.702 0 0 0-7.681 7.675v2.046a7.68 7.68 0 0 0 7.68 7.678 7.68 7.68 0 0 0 7.681-7.678v-2.046a7.7 7.7 0 0 0-7.68-7.675z"/>
            <path fill="#000" d="M57.767 180.163v1.85a7.678 7.678 0 1 1-15.016 2.219l15.016-4.069zM57.767 197.585v1.85a7.678 7.678 0 1 1-15.016 2.219l15.016-4.069zM57.767 214.971v1.867a7.678 7.678 0 1 1-15.016 2.219l15.016-4.086zM57.767 232.374v1.85a7.678 7.678 0 1 1-15.016 2.219l15.016-4.07z"/>
            <path fill="#3F3D56" d="M73.805 199.543l-.614.473a2.903 2.903 0 0 1-3.545-4.594l.614-.473a2.9 2.9 0 1 1 3.545 4.595z"/>
            <path fill="#3F3D56" d="M65.05 198.972l-.61.473a2.9 2.9 0 1 0 3.544 4.591l.61-.47a2.9 2.9 0 1 0-3.544-4.594z"/>
            <path fill="#3F3D56" d="M59.843 202.989l-.613.47a2.9 2.9 0 1 0 3.545 4.591l.613-.47a2.9 2.9 0 1 0-3.545-4.594v.003z"/>
            <path fill="#3F3D56" d="M54.634 207.006l-.61.47a2.9 2.9 0 1 0 3.544 4.594l.61-.473a2.9 2.9 0 1 0-3.544-4.591z"/>
            <path fill="#000" d="M73.746 199.595l-.555.428a2.903 2.903 0 0 1-4.133-3.985l4.688 3.557zM68.536 203.612l-.552.424a2.903 2.903 0 0 1-4.119-3.98l4.671 3.556zM63.33 207.626l-.555.427a2.903 2.903 0 0 1-4.133-3.98l4.688 3.553z"/>
            <path fill="#00A0FF" d="M71.082 104.21a8.704 8.704 0 0 1 8.706 8.703 8.704 8.704 0 0 1-8.706 8.703 8.704 8.704 0 0 1 8.537 8.7c0 4.742-3.795 8.61-8.537 8.702a8.704 8.704 0 0 1 8.537 8.701c0 4.741-3.795 8.61-8.537 8.701a8.704 8.704 0 0 1 8.706 8.703 8.704 8.704 0 0 1-8.706 8.703H29.094a8.704 8.704 0 0 1-8.706-8.703 8.704 8.704 0 0 1 8.706-8.703 8.706 8.706 0 0 1-7.68-4.3 8.7 8.7 0 0 1 0-8.8 8.706 8.706 0 0 1 7.68-4.302 8.706 8.706 0 0 1-7.68-4.301 8.7 8.7 0 0 1 0-8.8 8.706 8.706 0 0 1 7.68-4.301 8.704 8.704 0 0 1-8.706-8.703 8.704 8.704 0 0 1 8.706-8.703 8.706 8.706 0 0 1-7.68-4.301 8.7 8.7 0 0 1 0-8.8 8.706 8.706 0 0 1 7.68-4.302 8.706 8.706 0 0 1-7.68-4.3 8.7 8.7 0 0 1 0-8.8 8.706 8.706 0 0 1 7.68-4.302h1.92c1.103-7.486 9.564-13.31 19.843-13.31 10.28 0 18.74 5.824 19.843 13.31h.382a8.704 8.704 0 0 1 8.537 8.701c0 4.741-3.795 8.61-8.537 8.701a8.704 8.704 0 0 1 8.537 8.702c0 4.74-3.795 8.61-8.537 8.7z"/>
            <path fill="#000" d="M79.785 78.108a8.727 8.727 0 0 1-8.703 8.7H29.094l41.73-17.403h.258a8.727 8.727 0 0 1 8.703 8.703z"/>
            <path fill="#000" d="M20.646 95.51a8.727 8.727 0 0 0 8.706 8.7h41.985l-41.73-17.403h-.255a8.73 8.73 0 0 0-8.706 8.703zM20.646 130.315a8.73 8.73 0 0 0 8.706 8.703h41.985l-41.73-17.402h-.255a8.727 8.727 0 0 0-8.706 8.7zM20.646 165.123a8.73 8.73 0 0 0 8.706 8.703h41.985l-41.73-17.406h-.255a8.73 8.73 0 0 0-8.706 8.703zM79.785 112.913a8.727 8.727 0 0 1-8.703 8.703H29.094l41.73-17.406h.258a8.727 8.727 0 0 1 8.703 8.703z"/>
            <path fill="#000" d="M79.785 147.72a8.727 8.727 0 0 1-8.703 8.7H29.094l41.73-17.402h.258a8.727 8.727 0 0 1 8.703 8.703z"/>
            <path fill="#00A0FF" d="M74.963 208.53l-13.827-7.44a3.263 3.263 0 1 1 3.088-5.73 3.263 3.263 0 1 1 3.085-5.73l.633.326c1.69-2.284 5.507-2.689 8.892-.868 3.385 1.82 5.141 5.24 4.175 7.9l.127.069a3.263 3.263 0 0 1-3.075 5.75 3.263 3.263 0 1 1-3.098 5.723z"/>
            <path fill="#000" d="M82.471 201.478a3.265 3.265 0 0 1-4.41 1.328l-13.824-7.44 16.827 1.664.085.046a3.263 3.263 0 0 1 1.322 4.402z"/>
            <path fill="#000" d="M59.912 196.727a3.263 3.263 0 0 0 1.322 4.408l13.827 7.44-10.657-13.124-.082-.046a3.265 3.265 0 0 0-4.41 1.322z"/>
        </g>
        <g fill-rule="nonzero" opacity=".1">
            <path fill="#3F3D56" d="M156.937 219.413v1.695c0 3.507-2.79 6.35-6.23 6.35-3.44 0-6.23-2.843-6.23-6.35v-1.695c0-3.507 2.79-6.35 6.23-6.35 3.44 0 6.23 2.843 6.23 6.35zM144.477 192.312v-1.682c0-3.507 2.79-6.35 6.23-6.35 3.44 0 6.23 2.843 6.23 6.35v1.692c0 .622-.09 1.24-.268 1.836-.887 3.021-3.815 4.92-6.875 4.46-3.06-.461-5.324-3.143-5.317-6.296v-.01z"/>
            <path fill="#3F3D56" d="M156.937 205.017v1.695c0 3.507-2.79 6.35-6.23 6.35-3.44 0-6.23-2.843-6.23-6.35v-1.695c0-3.508 2.79-6.35 6.23-6.35 3.44 0 6.23 2.842 6.23 6.35zM150.707 227.459c3.438.01 6.221 2.85 6.23 6.354v1.691c0 3.508-2.79 6.351-6.23 6.351-3.44 0-6.23-2.843-6.23-6.35v-1.692c.01-3.504 2.793-6.343 6.23-6.354z"/>
            <path fill="#000" d="M144.477 190.782v1.53c-.007 3.153 2.257 5.835 5.317 6.296 3.06.46 5.988-1.439 6.875-4.46l-12.192-3.366zM144.477 205.178v1.534c.004 3.146 2.266 5.816 5.32 6.276 3.053.46 5.977-1.429 6.872-4.44l-12.192-3.37zM144.477 219.588v1.53c.004 3.146 2.266 5.816 5.32 6.276 3.053.46 5.977-1.429 6.872-4.44l-12.192-3.366zM144.477 233.974v1.53c-.016 3.157 2.246 5.846 5.309 6.311 3.063.466 5.995-1.434 6.883-4.458l-12.192-3.383z"/>
            <path fill="#3F3D56" d="M131.47 206.82l.496.389a2.32 2.32 0 0 0 3.062-.179c.837-.822.96-2.144.289-3.112a2.327 2.327 0 0 0-.475-.507l-.497-.388a2.318 2.318 0 0 0-2.333-.32 2.394 2.394 0 0 0-1.438 1.9c-.112.85.23 1.697.895 2.22v-.003z"/>
            <path fill="#3F3D56" d="M138.57 206.34l.498.391a2.422 2.422 0 0 1 .895 2.22 2.394 2.394 0 0 1-1.438 1.9 2.318 2.318 0 0 1-2.333-.319l-.498-.392a2.422 2.422 0 0 1-.895-2.22c.112-.85.66-1.574 1.438-1.9a2.318 2.318 0 0 1 2.334.32z"/>
            <path fill="#3F3D56" d="M142.793 209.663l.497.392a2.422 2.422 0 0 1 .895 2.22 2.394 2.394 0 0 1-1.438 1.9 2.318 2.318 0 0 1-2.333-.32l-.497-.391a2.431 2.431 0 0 1-.427-3.366 2.324 2.324 0 0 1 3.303-.435z"/>
            <path fill="#3F3D56" d="M147.018 212.987l.497.391a2.422 2.422 0 0 1 .895 2.22 2.394 2.394 0 0 1-1.438 1.9 2.318 2.318 0 0 1-2.333-.319l-.504-.392a2.422 2.422 0 0 1-.895-2.22c.112-.85.66-1.574 1.438-1.9a2.318 2.318 0 0 1 2.333.32h.007z"/>
            <path fill="#000" d="M131.514 206.856l.452.353a2.32 2.32 0 0 0 3.062-.179c.837-.822.96-2.144.289-3.112l-3.803 2.938zM135.743 210.18l.452.352a2.32 2.32 0 0 0 3.062-.178c.837-.822.96-2.145.288-3.113l-3.802 2.939zM139.965 213.503l.449.353a2.32 2.32 0 0 0 3.068-.172c.84-.824.96-2.15.285-3.12l-3.802 2.94z"/>
            <path fill="#00A0FF" d="M133.677 127.948c-2.559-.056-4.947 1.304-6.242 3.554a7.32 7.32 0 0 0 0 7.288c1.295 2.25 3.683 3.61 6.242 3.554-2.559-.056-4.947 1.304-6.242 3.554a7.32 7.32 0 0 0 0 7.289c1.295 2.25 3.683 3.61 6.242 3.554-3.9 0-7.062 3.223-7.062 7.2 0 3.976 3.162 7.2 7.062 7.2-2.559-.057-4.947 1.303-6.242 3.553a7.32 7.32 0 0 0 0 7.289c1.295 2.25 3.683 3.61 6.242 3.554h34.06c2.559.055 4.947-1.304 6.242-3.554a7.32 7.32 0 0 0 0-7.289c-1.295-2.25-3.683-3.61-6.242-3.554 3.9 0 7.063-3.223 7.063-7.2 0-3.976-3.162-7.2-7.063-7.2 2.559.056 4.947-1.303 6.242-3.553a7.32 7.32 0 0 0 0-7.289c-1.295-2.25-3.683-3.61-6.242-3.554 2.559.056 4.947-1.304 6.242-3.554a7.32 7.32 0 0 0 0-7.288c-1.295-2.25-3.683-3.61-6.242-3.554 3.9 0 7.063-3.224 7.063-7.2s-3.162-7.2-7.063-7.2c2.559.056 4.947-1.304 6.242-3.554a7.32 7.32 0 0 0 0-7.288c-1.295-2.25-3.683-3.61-6.242-3.554h-1.555c-.895-6.193-7.747-11.01-16.098-11.01-8.35 0-15.203 4.817-16.097 11.01h-.323c-2.558-.056-4.946 1.304-6.242 3.554a7.32 7.32 0 0 0 0 7.288c1.296 2.25 3.684 3.61 6.242 3.554-3.9 0-7.062 3.224-7.062 7.2s3.162 7.2 7.062 7.2h.013z"/>
            <path fill="#000" d="M126.615 106.348c.01 3.972 3.166 7.19 7.062 7.2h34.06l-33.853-14.396h-.207c-3.895.01-7.05 3.226-7.062 7.196zM174.593 120.748c-.02 3.967-3.17 7.178-7.062 7.2h-34.048l33.857-14.4h.207c3.885.03 7.025 3.239 7.046 7.2zM174.593 149.544c-.014 3.97-3.169 7.182-7.062 7.193h-34.048l33.857-14.396h.207c3.891.02 7.037 3.236 7.046 7.203zM174.593 178.34c-.012 3.97-3.167 7.186-7.062 7.197h-34.048l33.857-14.397h.207c3.89.02 7.036 3.235 7.046 7.2z"/>
            <path fill="#000" d="M126.615 135.144c.01 3.972 3.166 7.19 7.062 7.2h34.06l-33.853-14.396h-.207c-3.895.01-7.05 3.226-7.062 7.196zM126.615 163.94c.02 3.968 3.17 7.179 7.062 7.2h34.06l-33.853-14.403h-.207c-3.893.022-7.043 3.235-7.062 7.203z"/>
            <path fill="#00A0FF" d="M130.517 214.25l11.217-6.156c1.284-.705 1.765-2.339 1.073-3.648a2.616 2.616 0 0 0-3.578-1.094c1.284-.704 1.766-2.337 1.075-3.646a2.615 2.615 0 0 0-3.577-1.096l-.513.283c-1.372-1.879-4.47-2.224-7.217-.717-2.747 1.507-4.167 4.334-3.386 6.535l-.1.056c-1.285.704-1.766 2.336-1.075 3.646a2.615 2.615 0 0 0 3.576 1.096c-1.284.705-1.765 2.338-1.073 3.647a2.616 2.616 0 0 0 3.578 1.094z"/>
            <path fill="#000" d="M124.445 208.4a2.625 2.625 0 0 0 3.577 1.095l11.217-6.156-13.65 1.379-.069.036c-1.28.708-1.76 2.336-1.075 3.646zM142.738 204.484c.687 1.309.208 2.938-1.072 3.646l-11.217 6.157 8.644-10.86.068-.039a2.625 2.625 0 0 1 3.577 1.096z"/>
        </g>
        <g fill-rule="nonzero" opacity=".1">
            <path fill="#3F3D56" d="M100.626 228.286v.486a1.806 1.806 0 0 1-3.61 0v-.48a1.805 1.805 0 1 1 3.61 0v-.006zM97.016 220.59v-.482a1.806 1.806 0 0 1 3.61 0v.483c0 .177-.026.352-.078.521a1.803 1.803 0 0 1-3.532-.521z"/>
            <path fill="#3F3D56" d="M100.626 224.209v.479a1.806 1.806 0 0 1-3.61 0v-.48a1.805 1.805 0 1 1 3.61 0zM98.823 230.567a1.81 1.81 0 0 1 1.803 1.806v.48a1.805 1.805 0 1 1-3.61 0v-.48a1.81 1.81 0 0 1 1.807-1.806z"/>
            <path fill="#000" d="M97.016 220.157v.434a1.803 1.803 0 0 0 3.532.521l-3.532-.955zM97.016 224.244v.434a1.803 1.803 0 0 0 3.532.508l-3.532-.942zM97.016 228.332v.44a1.803 1.803 0 0 0 3.532.521l-3.532-.961zM97.016 232.419v.433a1.803 1.803 0 0 0 3.532.522l-3.532-.955z"/>
            <path fill="#3F3D56" d="M93.25 224.707l.143.114a.682.682 0 0 0 .979-.935.652.652 0 0 0-.137-.147l-.144-.11a.683.683 0 0 0-.834 1.078h-.007z"/>
            <path fill="#3F3D56" d="M95.308 224.574l.143.11a.681.681 0 1 1-.831 1.08l-.147-.112a.682.682 0 1 1 .835-1.078z"/>
            <path fill="#3F3D56" d="M96.53 225.512l.144.111a.687.687 0 0 1 .124.958.682.682 0 0 1-.956.12l-.143-.11a.681.681 0 0 1 .831-1.079z"/>
            <path fill="#3F3D56" d="M97.753 226.46l.144.112a.681.681 0 1 1-.832 1.078l-.143-.11a.681.681 0 0 1 .831-1.08z"/>
            <path fill="#000" d="M93.263 224.72l.13.101a.682.682 0 0 0 .979-.935l-1.109.834zM94.49 225.662l.13.101a.682.682 0 0 0 .978-.935l-1.109.834zM95.712 226.607l.13.098c.298.23.725.176.956-.12a.69.69 0 0 0 0-.815l-1.086.837z"/>
            <path fill="#00A0FF" d="M93.89 202.316a2.044 2.044 0 1 0 0 4.087 2.047 2.047 0 0 0 0 4.09 2.044 2.044 0 1 0 0 4.088 2.044 2.044 0 1 0 0 4.087h9.863a2.044 2.044 0 1 0 0-4.087 2.044 2.044 0 1 0 0-4.087 2.047 2.047 0 0 0 0-4.09 2.044 2.044 0 1 0 0-4.088 2.044 2.044 0 1 0 0-4.087 2.044 2.044 0 1 0 0-4.087h-.45c-.26-1.757-2.246-3.126-4.663-3.126-2.416 0-4.402 1.37-4.66 3.126h-.09a2.044 2.044 0 1 0 0 4.087 2.044 2.044 0 1 0 0 4.087z"/>
            <path fill="#000" d="M91.845 196.179a2.05 2.05 0 0 0 2.044 2.044h9.864l-9.802-4.088h-.062a2.05 2.05 0 0 0-2.044 2.044zM105.74 200.273a2.05 2.05 0 0 1-2.045 2.043H93.83l9.803-4.087h.062a2.05 2.05 0 0 1 2.044 2.044zM105.74 208.45a2.054 2.054 0 0 1-2.045 2.044H93.83l9.803-4.09h.062a2.054 2.054 0 0 1 2.044 2.046zM105.74 216.624a2.05 2.05 0 0 1-2.045 2.044H93.83l9.803-4.087h.062a2.05 2.05 0 0 1 2.044 2.043zM91.845 204.36a2.05 2.05 0 0 0 2.044 2.043h9.864l-9.802-4.087h-.062a2.05 2.05 0 0 0-2.044 2.044zM91.845 212.537a2.05 2.05 0 0 0 2.044 2.044h9.864l-9.802-4.087h-.062a2.05 2.05 0 0 0-2.044 2.043z"/>
            <path fill="#00A0FF" d="M92.976 226.816l3.261-1.75a1.701 1.701 0 0 1-.414-2.38.763.763 0 0 0-1.037-.325l-.147.078c-.398-.531-1.304-.632-2.09-.202-.786.43-1.207 1.228-.978 1.854h-.03a1.701 1.701 0 0 1 .414 2.38.766.766 0 0 0 1.021.345z"/>
            <path fill="#000" d="M91.215 225.16a.766.766 0 0 0 1.037.326l3.261-1.747-3.952.388h-.02a.766.766 0 0 0-.326 1.033z"/>
            <path fill="#000" d="M96.514 224.046a.769.769 0 0 1-.31 1.036l-3.26 1.747 2.5-3.083h.02a.77.77 0 0 1 1.05.3z"/>
        </g>
        <g fill-rule="nonzero" opacity=".1">
            <path fill="#3F3D56" d="M190.776 225.294v.728c-.051 1.465-1.273 2.627-2.762 2.627s-2.71-1.162-2.761-2.627v-.728c.05-1.465 1.272-2.627 2.761-2.627 1.49 0 2.71 1.162 2.762 2.627zM185.253 213.692v-.728a2.711 2.711 0 0 1 1.352-2.434 2.8 2.8 0 0 1 2.818 0 2.711 2.711 0 0 1 1.353 2.434v.725c0 .267-.041.532-.122.786-.396 1.29-1.692 2.099-3.045 1.902-1.353-.197-2.356-1.34-2.356-2.688v.003z"/>
            <path fill="#3F3D56" d="M190.776 219.13v.726a2.711 2.711 0 0 1-1.353 2.434 2.8 2.8 0 0 1-2.818 0 2.711 2.711 0 0 1-1.352-2.434v-.725c.05-1.465 1.272-2.627 2.761-2.627 1.49 0 2.71 1.162 2.762 2.627zM188.013 228.74c1.523.005 2.757 1.22 2.763 2.72v.725c-.051 1.466-1.273 2.627-2.762 2.627s-2.71-1.161-2.761-2.627v-.724c.003-1.5 1.236-2.716 2.76-2.721z"/>
            <path fill="#000" d="M185.253 213.039v.647c0 1.347 1.003 2.49 2.356 2.687 1.353.197 2.65-.612 3.045-1.9l-5.401-1.434zM185.253 219.202v.647c0 1.347 1.003 2.49 2.356 2.688 1.353.197 2.65-.612 3.045-1.902l-5.401-1.433zM185.253 225.365v.647c.002 1.347 1.005 2.489 2.358 2.685 1.353.196 2.647-.613 3.043-1.902l-5.401-1.43zM185.253 231.529v.647c0 1.347 1.003 2.49 2.356 2.687 1.353.197 2.65-.612 3.045-1.901l-5.401-1.433z"/>
            <path fill="#3F3D56" d="M179.486 219.904l.22.165c.41.316.993.287 1.367-.068.374-.356.425-.929.118-1.342a1.196 1.196 0 0 0-.21-.217l-.22-.165a1.057 1.057 0 0 0-1.081-.219 1.032 1.032 0 0 0-.677.86c-.041.389.146.768.483.976v.01z"/>
            <path fill="#3F3D56" d="M182.634 219.697l.22.168c.39.364.436.96.106 1.378-.329.417-.926.521-1.38.24l-.221-.168a1.024 1.024 0 0 1-.483-.978c.04-.39.303-.722.676-.858a1.057 1.057 0 0 1 1.082.218z"/>
            <path fill="#3F3D56" d="M184.507 221.12l.22.169c.39.364.436.96.106 1.377-.329.418-.926.522-1.381.24l-.22-.168a1.024 1.024 0 0 1-.484-.977c.041-.39.304-.723.677-.859a1.057 1.057 0 0 1 1.082.219z"/>
            <path fill="#3F3D56" d="M186.38 222.544l.22.168c.414.358.474.972.136 1.4a1.052 1.052 0 0 1-1.411.218l-.22-.165a1.024 1.024 0 0 1-.484-.977c.041-.39.304-.723.677-.86a1.057 1.057 0 0 1 1.082.22v-.004z"/>
            <path fill="#000" d="M179.506 219.92l.2.15c.41.315.993.286 1.367-.07.374-.355.425-.928.118-1.341l-1.685 1.261zM181.382 221.34l.2.153c.41.316.993.287 1.367-.069.374-.355.425-.928.119-1.342l-1.686 1.259zM183.252 222.764l.2.152c.409.317.992.287 1.367-.068.374-.356.424-.929.118-1.342l-1.685 1.258z"/>
            <path fill="#00A0FF" d="M180.465 186.137a3.146 3.146 0 0 0-2.917 1.462 3.043 3.043 0 0 0 0 3.224 3.146 3.146 0 0 0 2.917 1.461 3.146 3.146 0 0 0-2.917 1.462 3.043 3.043 0 0 0 0 3.224 3.146 3.146 0 0 0 2.917 1.461 3.143 3.143 0 0 0-2.796 1.512 3.043 3.043 0 0 0 0 3.14 3.143 3.143 0 0 0 2.796 1.512c-1.73 0-3.131 1.38-3.131 3.083 0 1.703 1.402 3.083 3.131 3.083h15.098c1.73 0 3.131-1.38 3.131-3.083 0-1.703-1.401-3.083-3.13-3.083 1.688-.054 3.029-1.418 3.029-3.082s-1.34-3.028-3.03-3.082c1.628-.127 2.883-1.465 2.883-3.073 0-1.608-1.255-2.946-2.883-3.074 1.628-.127 2.883-1.465 2.883-3.073 0-1.608-1.255-2.946-2.883-3.074 1.69-.054 3.03-1.417 3.03-3.081s-1.34-3.028-3.03-3.082c1.73 0 3.131-1.38 3.131-3.083 0-1.703-1.401-3.083-3.13-3.083h-.69c-.398-2.65-3.441-4.714-7.137-4.714-3.697 0-6.74 2.064-7.137 4.714h-.135c-1.73 0-3.131 1.38-3.131 3.083 0 1.703 1.402 3.083 3.131 3.083a3.143 3.143 0 0 0-2.796 1.511 3.043 3.043 0 0 0 0 3.141 3.143 3.143 0 0 0 2.796 1.511z"/>
            <path fill="#000" d="M177.334 176.89c.005 1.701 1.404 3.079 3.131 3.084h15.098l-15.006-6.157h-.092c-1.723.006-3.12 1.377-3.131 3.074z"/>
            <path fill="#000" d="M198.6 183.054c-.006 1.7-1.403 3.076-3.129 3.083h-15.114l15.022-6.173h.092c1.73.006 3.128 1.388 3.128 3.09zM198.6 195.384c-.008 1.698-1.404 3.073-3.129 3.08h-15.114l15.006-6.147h.092c1.726-.002 3.13 1.367 3.144 3.067zM198.6 207.71c-.006 1.7-1.403 3.076-3.129 3.084h-15.114l15.006-6.167h.092c1.732-.002 3.139 1.378 3.144 3.083zM177.334 189.217c.005 1.701 1.404 3.078 3.131 3.084h15.098l-15.006-6.147h-.092c-1.72.003-3.117 1.37-3.131 3.063z"/>
            <path fill="#000" d="M177.334 201.547c.005 1.7 1.405 3.077 3.131 3.08h15.098l-15.006-6.163h-.092c-1.727.005-3.126 1.382-3.131 3.083z"/>
            <path fill="#00A0FF" d="M179.062 223.084l4.975-2.636a2.563 2.563 0 0 1-.634-3.592 1.186 1.186 0 0 0-1.587-.465l-.227.12c-.608-.806-1.971-.952-3.197-.324-1.226.627-1.85 1.854-1.502 2.798l-.046.023a2.563 2.563 0 0 1 .635 3.591c.144.272.392.476.689.567.297.091.62.062.894-.082z"/>
            <path fill="#000" d="M176.368 220.587c.31.558 1.018.765 1.587.466l4.971-2.634-6.052.589-.03.016a1.146 1.146 0 0 0-.476 1.563zM184.48 218.904c.306.56.093 1.259-.476 1.56l-4.971 2.637 3.83-4.637.034-.016a1.18 1.18 0 0 1 1.583.456z"/>
        </g>
        <g fill-rule="nonzero" opacity=".1">
            <path fill="#3F3D56" d="M214.296 228.286v.486a1.806 1.806 0 0 0 3.61 0v-.48a1.805 1.805 0 1 0-3.61 0v-.006zM217.905 220.59v-.482a1.806 1.806 0 0 0-3.61 0v.483c0 .177.027.352.079.521a1.803 1.803 0 0 0 3.531-.521z"/>
            <path fill="#3F3D56" d="M214.296 224.209v.479a1.806 1.806 0 0 0 3.61 0v-.48a1.805 1.805 0 1 0-3.61 0zM216.099 230.567a1.81 1.81 0 0 0-1.803 1.806v.48a1.805 1.805 0 1 0 3.61 0v-.48a1.81 1.81 0 0 0-1.807-1.806z"/>
            <path fill="#000" d="M217.905 220.157v.434a1.803 1.803 0 0 1-3.531.521l3.531-.955zM217.905 224.244v.434a1.803 1.803 0 0 1-3.531.508l3.531-.942zM217.905 228.332v.44a1.803 1.803 0 0 1-3.531.521l3.531-.961zM217.905 232.419v.433a1.803 1.803 0 0 1-3.531.522l3.531-.955z"/>
            <path fill="#3F3D56" d="M221.672 224.707l-.144.114a.682.682 0 0 1-.978-.935.652.652 0 0 1 .137-.147l.143-.11a.683.683 0 0 1 .835 1.078h.007z"/>
            <path fill="#3F3D56" d="M219.614 224.574l-.143.11a.681.681 0 0 0 .831 1.08l.147-.112a.682.682 0 1 0-.835-1.078z"/>
            <path fill="#3F3D56" d="M218.391 225.512l-.143.111a.687.687 0 0 0-.124.958c.23.297.658.351.955.12l.144-.11a.681.681 0 0 0-.832-1.079z"/>
            <path fill="#3F3D56" d="M217.168 226.46l-.143.112a.681.681 0 0 0 .832 1.078l.143-.11a.681.681 0 0 0-.832-1.08z"/>
            <path fill="#000" d="M221.659 224.72l-.13.101a.682.682 0 0 1-.979-.935l1.109.834zM220.433 225.662l-.13.101a.682.682 0 0 1-.98-.935l1.11.834zM219.21 226.607l-.13.098a.682.682 0 0 1-.956-.12.69.69 0 0 1 0-.815l1.086.837z"/>
            <path fill="#00A0FF" d="M221.033 202.316a2.044 2.044 0 1 1 0 4.087 2.047 2.047 0 0 1 0 4.09 2.044 2.044 0 1 1 0 4.088 2.044 2.044 0 1 1 0 4.087h-9.865a2.044 2.044 0 1 1 0-4.087 2.044 2.044 0 1 1 0-4.087 2.047 2.047 0 0 1 0-4.09 2.044 2.044 0 1 1 0-4.088 2.044 2.044 0 1 1 0-4.087 2.044 2.044 0 1 1 0-4.087h.45c.261-1.757 2.247-3.126 4.664-3.126 2.416 0 4.402 1.37 4.66 3.126h.09a2.044 2.044 0 1 1 0 4.087 2.044 2.044 0 1 1 0 4.087z"/>
            <path fill="#000" d="M223.077 196.179a2.05 2.05 0 0 1-2.044 2.044h-9.865l9.803-4.088h.062a2.05 2.05 0 0 1 2.044 2.044zM209.183 200.273a2.05 2.05 0 0 0 2.044 2.043h9.864l-9.802-4.087h-.062a2.05 2.05 0 0 0-2.044 2.044zM209.183 208.45a2.054 2.054 0 0 0 2.044 2.044h9.864l-9.802-4.09h-.062a2.054 2.054 0 0 0-2.044 2.046zM209.183 216.624a2.05 2.05 0 0 0 2.044 2.044h9.864l-9.802-4.087h-.062a2.05 2.05 0 0 0-2.044 2.043zM223.077 204.36a2.05 2.05 0 0 1-2.044 2.043h-9.865l9.803-4.087h.062a2.05 2.05 0 0 1 2.044 2.044zM223.077 212.537a2.05 2.05 0 0 1-2.044 2.044h-9.865l9.803-4.087h.062a2.05 2.05 0 0 1 2.044 2.043z"/>
            <path fill="#00A0FF" d="M221.946 226.816l-3.261-1.75a1.701 1.701 0 0 0 .414-2.38.763.763 0 0 1 1.037-.325l.147.078c.397-.531 1.304-.632 2.09-.202.786.43 1.206 1.228.978 1.854h.03a1.701 1.701 0 0 0-.415 2.38.766.766 0 0 1-1.02.345z"/>
            <path fill="#000" d="M223.707 225.16a.766.766 0 0 1-1.037.326l-3.245-1.747 3.952.388h.02c.37.201.508.662.31 1.033z"/>
            <path fill="#000" d="M218.408 224.046a.769.769 0 0 0 .31 1.036l3.26 1.747-2.5-3.083h-.02a.77.77 0 0 0-1.05.3z"/>
        </g>
        <g fill-rule="nonzero" opacity=".1">
            <path fill="#3F3D56" d="M279.907 216.413v1.695c0 3.507 2.88 6.35 6.433 6.35s6.433-2.843 6.433-6.35v-1.695c0-3.507-2.88-6.35-6.433-6.35s-6.433 2.843-6.433 6.35zM292.773 189.312v-1.682c0-3.507-2.88-6.35-6.433-6.35s-6.433 2.843-6.433 6.35v1.692c0 .622.092 1.24.276 1.836.916 3.021 3.94 4.92 7.1 4.46 3.16-.461 5.498-3.143 5.49-6.296v-.01z"/>
            <path fill="#3F3D56" d="M279.907 202.017v1.695c0 3.507 2.88 6.35 6.433 6.35s6.433-2.843 6.433-6.35v-1.695c0-3.508-2.88-6.35-6.433-6.35s-6.433 2.842-6.433 6.35zM286.34 224.459c-3.55.01-6.424 2.85-6.433 6.354v1.691c0 3.508 2.88 6.351 6.433 6.351s6.433-2.843 6.433-6.35v-1.692c-.009-3.504-2.883-6.343-6.433-6.354z"/>
            <path fill="#000" d="M292.773 187.782v1.53c.008 3.153-2.33 5.835-5.49 6.296-3.16.46-6.184-1.439-7.1-4.46l12.59-3.366zM292.773 202.178v1.534c-.003 3.146-2.34 5.816-5.493 6.276-3.153.46-6.172-1.429-7.097-4.44l12.59-3.37zM292.773 216.588v1.53c-.003 3.146-2.34 5.816-5.493 6.276-3.153.46-6.172-1.429-7.097-4.44l12.59-3.366zM292.773 230.974v1.53c.017 3.157-2.319 5.846-5.482 6.311-3.162.466-6.19-1.434-7.108-4.458l12.59-3.383z"/>
            <path fill="#3F3D56" d="M306.207 203.82l-.514.389a2.454 2.454 0 0 1-3.161-.179 2.376 2.376 0 0 1 .191-3.619l.514-.388a2.452 2.452 0 0 1 3.41.434 2.38 2.38 0 0 1-.44 3.367v-.004z"/>
            <path fill="#3F3D56" d="M298.873 203.34l-.513.391a2.38 2.38 0 0 0-.44 3.367 2.452 2.452 0 0 0 3.41.434l.513-.392a2.38 2.38 0 0 0 .44-3.366 2.452 2.452 0 0 0-3.41-.434z"/>
            <path fill="#3F3D56" d="M294.513 206.663l-.513.382a2.38 2.38 0 0 0-.44 3.366 2.452 2.452 0 0 0 3.41.435l.513-.392a2.38 2.38 0 0 0 .44-3.366 2.452 2.452 0 0 0-3.41-.435v.01zM290.15 209.987l-.513.391a2.38 2.38 0 0 0-.44 3.367 2.452 2.452 0 0 0 3.41.434l.513-.392a2.38 2.38 0 0 0 .44-3.366 2.452 2.452 0 0 0-3.41-.434z"/>
            <path fill="#000" d="M306.16 203.856l-.467.353a2.454 2.454 0 0 1-3.161-.179 2.376 2.376 0 0 1-.299-3.112l3.927 2.938zM301.793 207.18l-.466.352a2.454 2.454 0 0 1-3.162-.178 2.376 2.376 0 0 1-.298-3.113l3.926 2.939zM297.433 210.503l-.463.353a2.454 2.454 0 0 1-3.168-.172 2.376 2.376 0 0 1-.295-3.12l3.926 2.94z"/>
            <path fill="#00A0FF" d="M303.927 124.948a7.314 7.314 0 0 1 6.446 3.554 7.12 7.12 0 0 1 0 7.288 7.314 7.314 0 0 1-6.446 3.554 7.314 7.314 0 0 1 6.446 3.554 7.12 7.12 0 0 1 0 7.289 7.314 7.314 0 0 1-6.446 3.554c4.028 0 7.293 3.223 7.293 7.2 0 3.976-3.265 7.2-7.293 7.2a7.314 7.314 0 0 1 6.446 3.553 7.12 7.12 0 0 1 0 7.289 7.314 7.314 0 0 1-6.446 3.554h-35.174a7.314 7.314 0 0 1-6.446-3.554 7.12 7.12 0 0 1 0-7.289 7.314 7.314 0 0 1 6.446-3.554c-4.028 0-7.293-3.223-7.293-7.2 0-3.976 3.265-7.2 7.293-7.2a7.314 7.314 0 0 1-6.446-3.553 7.12 7.12 0 0 1 0-7.289 7.314 7.314 0 0 1 6.446-3.554 7.314 7.314 0 0 1-6.446-3.554 7.12 7.12 0 0 1 0-7.288 7.314 7.314 0 0 1 6.446-3.554c-4.028 0-7.293-3.224-7.293-7.2s3.265-7.2 7.293-7.2a7.314 7.314 0 0 1-6.446-3.554 7.12 7.12 0 0 1 0-7.288 7.314 7.314 0 0 1 6.446-3.554h1.607c.923-6.193 8-11.01 16.623-11.01 8.624 0 15.7 4.817 16.624 11.01h.333a7.314 7.314 0 0 1 6.446 3.554 7.12 7.12 0 0 1 0 7.288 7.314 7.314 0 0 1-6.446 3.554c4.028 0 7.293 3.224 7.293 7.2s-3.265 7.2-7.293 7.2h-.013z"/>
            <path fill="#000" d="M311.22 103.348c-.011 3.972-3.27 7.19-7.293 7.2h-35.174l34.96-14.396h.214c4.022.01 7.28 3.226 7.293 7.196zM261.673 117.748c.022 3.967 3.275 7.178 7.294 7.2h35.176l-34.963-14.4h-.213c-4.02.022-7.272 3.233-7.294 7.2zM261.673 146.544c.015 3.97 3.273 7.182 7.294 7.193h35.176l-34.963-14.393h-.213c-4.024.011-7.283 3.228-7.294 7.2zM261.673 175.34c.013 3.97 3.272 7.186 7.294 7.197h35.176L269.18 168.14h-.213c-4.024.011-7.283 3.228-7.294 7.2z"/>
            <path fill="#000" d="M311.22 132.144c-.011 3.972-3.27 7.19-7.293 7.2h-35.174l34.96-14.396h.214c4.022.01 7.28 3.226 7.293 7.196zM311.22 160.94c-.022 3.968-3.274 7.179-7.293 7.2h-35.174l34.96-14.403h.214c4.02.022 7.273 3.235 7.293 7.203z"/>
            <path fill="#00A0FF" d="M307.19 211.25l-11.583-6.156a2.675 2.675 0 0 1-1.109-3.648c.715-1.31 2.369-1.8 3.695-1.094a2.675 2.675 0 0 1-1.11-3.646c.714-1.31 2.367-1.8 3.694-1.096l.53.283c1.416-1.879 4.616-2.224 7.453-.717 2.837 1.507 4.303 4.334 3.497 6.535l.103.056a2.688 2.688 0 0 1 1.434 2.29 2.683 2.683 0 0 1-1.292 2.37 2.758 2.758 0 0 1-2.725.082 2.675 2.675 0 0 1 1.108 3.647c-.714 1.31-2.369 1.8-3.695 1.094z"/>
            <path fill="#000" d="M313.46 205.4c-.717 1.305-2.366 1.794-3.693 1.095l-11.584-6.156 14.097 1.379.07.036a2.684 2.684 0 0 1 1.11 3.646zM294.57 201.484a2.68 2.68 0 0 0 1.107 3.646l11.583 6.157-8.927-10.86-.07-.039c-1.327-.698-2.976-.21-3.693 1.096z"/>
        </g>
        <path fill="#5E90FF" fill-rule="nonzero" d="M138 133a3 3 0 1 0 0 6 3 3 0 0 0 0-6zm.403 1.083a.257.257 0 0 1 .234.164.86.86 0 0 1 0 .666 1.707 1.707 0 0 1-.144.334s-.036.053.084.053h.77a.237.237 0 0 1 .22.27.25.25 0 0 1-.164.243c.09.043.151.13.16.23a.21.21 0 0 1-.183.234v.016c.08.045.127.132.12.224a.193.193 0 0 1-.153.193.203.203 0 0 1 .08.183.19.19 0 0 1-.197.194h-1.667s-.086 0-.086-.117v-1.087c-.002-.267.074-.53.216-.756.114-.17.244-.328.387-.474.023-.026.11-.1.11-.143v-.297a.18.18 0 0 1 .213-.13zm-1.896 1.587h.666c.051.002.092.043.094.093v1.517a.09.09 0 0 1-.094.093h-.666a.093.093 0 0 1-.094-.093v-1.51a.097.097 0 0 1 .094-.1z"/>
        <path fill="#E93D37" fill-rule="nonzero" d="M132.708 130.905a.294.294 0 0 1-.214.095.294.294 0 0 1-.214-.095l-.166-.156c-1.344-1.31-2.114-2.157-2.114-3.216 0-.864.513-1.533 1.325-1.533.454.003.884.217 1.175.586.291-.369.72-.583 1.175-.586.809 0 1.325.669 1.325 1.533 0 1.059-.776 1.92-2.114 3.216l-.178.156z"/>
        <ellipse cx="167" cy="242" fill="#3F3D56" fill-rule="nonzero" rx="167" ry="7"/>
        <ellipse cx="167" cy="242" fill="#000" fill-rule="nonzero" opacity=".1" rx="167" ry="7"/>
        <ellipse cx="167" cy="240" fill="#3F3D56" fill-rule="nonzero" rx="167" ry="7"/>
        <path fill="url(#a)" fill-rule="nonzero" d="M175.525 135.333c-.773-1.854-1.562-3.7-2.366-5.539-.767-1.752-1.57-3.537-2.893-4.931a5.198 5.198 0 0 0-1.73-1.26 7.46 7.46 0 0 0-2.205-.43 17.857 17.857 0 0 0-3.48-.095 17.49 17.49 0 0 1-1.462-.507c5.15-1.336 8.813-5.832 9.027-11.082v-.516c.028-6.584-5.36-11.944-12.033-11.973a12.007 12.007 0 0 0-6.331 1.785 11.34 11.34 0 0 0-2.54-.286c-4.344.02-8.297 2.483-10.18 6.345-2.626 2.334-4.332 6.072-4.332 10.287v.529c.223 6.493 4.482 11.736 9.854 12.233-.573.257-1.1.605-1.56 1.029-1.646 1.568-1.916 4.047-2.09 6.308l-.13 1.684-2.808.986a.516.516 0 1 0-.123.907l2.722 1.917c0 .16 0 .328.02.483.02.155.033.358.053.54-.463.403-.82.912-1.04 1.482-.333.858-.29 1.798-.25 2.712l.1 2.34c.077 1.753.157 3.531.724 5.192.356 1.042 1.9 3.54 3.015 3.553-1.03 4.603-1.302 14.304-1.302 14.304-.127.125.226.244.88.33.616 4.621 2.602 17.577 6.14 23.265a48.373 48.373 0 0 1 1.334 5.65s1 12.306 2.332 15.965c1.137 3.11 2.033 10.793 2.276 13.018a1.27 1.27 0 0 0-.94.947c-.666 1.996-4.998 4.987-4.998 4.987s-2.482 1.237-3.745 2.367c-1.363 1.217-1.333 2.302 4.748 1.624 11.697-1.315 13.703-4.987 13.703-4.987s-.19-.618-.467-1.423c-.45-1.315-1.126-3.153-1.54-3.564-.166-.167-.333.102-.542.523a71.173 71.173 0 0 1-.797-16.122s.333-5.651-1.333-9.642c0 0-.666-3.66 0-6.319.667-2.66-2.666-15.629-2.666-15.629l-1.972-9.566c.26.325.443.705.533 1.111.015.064.032.13.05.197.016.089.036.178.053.276a.507.507 0 0 0 .137.26c1.306 5.352 4.878 20.179 4.878 22.355 0 2.663 3.333 9.314 3.333 9.314s1.332 10.973 3.665 15.296c1.776 3.288 1.82 8.107 1.736 10.231 0 0-.396 2.738-1.066 3.403-.54.539-1.083 1.732-1.266 2.17a2.89 2.89 0 0 0-.07.157s-1 1.996-.334 2.328c0 0 4 1.663 8.021.986 0 0 1.333-1.664 1.333-2.328a11.625 11.625 0 0 0-.146-1.183c-.247-1.572-.71-4.054-.713-4.08.28-1.068-.81-4.05-.81-4.05l-.333-9.31c1-10.642-2.333-18.624-2.333-18.624s-1.666-5.983-1.333-7.647c.333-1.663-.666-19.287-.666-19.287l-.097-.254c-.063-.384-.107-1.34.097-3.737.333-3.992-1-12.306-1.333-12.638-.174-.17-.334-1.505-.474-2.751.077-.694.304-2.726.617-5.26a95.99 95.99 0 0 0 9.854-.855.93.93 0 0 0 .758-.26.903.903 0 0 0 .265-.75c.366-4.99-1.503-9.855-3.43-14.49zm-6.685 10.553c.333-2.386.72-4.698 1.086-6.41l.06.154a47.795 47.795 0 0 1 1.61 5.26c-.891.402-1.813.735-2.756.996z"/>
        <path fill="#BE6F72" fill-rule="nonzero" d="M143 171.66s2.036 17.802 6.446 24.726a47.246 47.246 0 0 1 1.358 5.604s1.017 12.199 2.375 15.825c1.357 3.627 2.375 13.518 2.375 13.518s4.75 5.275 6.446.989a67.704 67.704 0 0 1-1.018-17.144s.34-5.605-1.357-9.561c0 0-.679-3.627 0-6.264.679-2.637-2.714-15.495-2.714-15.495L154.196 171l-11.196.66z"/>
        <path fill="#E93D37" fill-rule="nonzero" d="M163 235.92s-1.987 3.573-13.578 4.872c-6.011.672-6.054-.4-4.703-1.588 1.252-1.104 3.71-2.31 3.71-2.31s4.304-2.922 4.967-4.871c.662-1.949 2.98-.325 2.98-.325 3.312 4.872 3.975-1.299 4.637-.65.41.403 1.08 2.19 1.527 3.482.271.773.46 1.39.46 1.39z"/>
        <path fill="#000" fill-rule="nonzero" d="M163 236.29s-1.987 3.312-13.578 4.517c-6.011.624-6.054-.37-4.703-1.473.947.548 2.855.792 6.69-.635 5.517-2.054 9.515-3.241 11.13-3.699.272.717.461 1.29.461 1.29zM159.997 215.177s.334-5.604-1.337-9.56c0 0-.669-3.627 0-6.265.668-2.637-2.675-15.494-2.675-15.494L153.31 171l-2.31.138 2.645 12.72s3.343 12.857 2.674 15.494c-.668 2.638 0 6.264 0 6.264 1.672 3.957 1.338 9.561 1.338 9.561a68.685 68.685 0 0 0 1.003 17.143 2.859 2.859 0 0 1-.97 1.365c1.247.557 2.571.528 3.31-1.365a68.685 68.685 0 0 1-1.003-17.143z" opacity=".1"/>
        <path fill="#3F3D56" fill-rule="nonzero" d="M158.107 100a12.026 12.026 0 0 0-6.239 1.732c-5.081-1.137-10.294 1.3-12.577 5.878-2.594 2.258-4.291 5.889-4.291 9.975 0 6.859 4.73 12.415 10.563 12.415 4.232 0 7.88-2.922 9.573-7.143 4.46 1.129 9.187-.363 12.128-3.828 2.94-3.465 3.567-8.278 1.606-12.35-1.961-4.074-6.155-6.673-10.763-6.67V100z"/>
        <path fill="#BE6F72" fill-rule="nonzero" d="M167.432 174l1.007 2.616s1.008 17.33.672 18.964c-.336 1.635 1.343 7.52 1.343 7.52s3.358 7.848 2.35 18.311l.336 9.155s1.344 3.597.672 4.25c-.672.655-5.709-.653-5.709-.653s.672-6.866-1.679-11.117c-2.35-4.25-3.693-15.04-3.693-15.04s-3.358-6.54-3.358-9.156c0-2.616-5.373-23.87-5.373-23.87l13.432-.98z"/>
        <path fill="#3F3D56" fill-rule="nonzero" d="M141.025 175.077s.32-12.063 1.6-15.75c1.279-3.685 1.439-5.327 1.439-5.327s19.367 3.666 20.966 2.326c0 0 .32 4.69.64 5.026.32.335 1.599 8.712 1.28 12.733-.32 4.021 0 4.021 0 4.021s-13.115 2.011-13.435 0c-.32-2.01-1.28-2.01-1.28-2.01s-11.85-.349-11.21-1.019z"/>
        <g fill="#000" fill-rule="nonzero" opacity=".1">
            <path d="M152.43 173.93s-8.539-.227-11.11-.667c-.016.434-.023.667-.023.667-.675.667 11.807 1 11.807 1 .17.018.332.084.466.19-.429-1.183-1.14-1.19-1.14-1.19zM167.273 160.263c-.338-.333-.675-5-.675-5a1.333 1.333 0 0 1-.577.204c.125 1.406.338 3.573.577 3.796.337.334 1.687 8.667 1.35 12.667-.338 4 0 4 0 4s-10.94 1.583-13.6.527c.041.146.075.3.105.473.338 2 14.17 0 14.17 0s-.338 0 0-4c.337-4-1.013-12.333-1.35-12.667z"/>
            <path d="M152.43 173.93s-8.539-.227-11.11-.667c-.016.434-.023.667-.023.667-.675.667 11.807 1 11.807 1 .17.018.332.084.466.19-.429-1.183-1.14-1.19-1.14-1.19zM167.273 160.263c-.338-.333-.675-5-.675-5a1.333 1.333 0 0 1-.577.204c.125 1.406.338 3.573.577 3.796.337.334 1.687 8.667 1.35 12.667-.338 4 0 4 0 4s-10.94 1.583-13.6.527c.041.146.075.3.105.473.338 2 14.17 0 14.17 0s-.338 0 0-4c.337-4-1.013-12.333-1.35-12.667z"/>
        </g>
        <path fill="#BE6F72" fill-rule="nonzero" d="M156.443 121.515a4.56 4.56 0 0 0 1.316 1.691c.369.263.793.441 1.241.52-.775.437-1.613.765-2.388 1.205-1.268.714-2.347 1.691-3.532 2.54-1.185.85-2.56 1.536-4.021 1.529a4.773 4.773 0 0 0 .561-4.803c-.248-.548-.61-1.079-.62-1.691 0-.967.875-1.691 1.692-2.236.664-.44 1.336-.866 2.016-1.278.537-.339 1.344-1.015 2.02-.991.754.027.754.612.892 1.214.177.797.454 1.57.823 2.3z"/>
        <path fill="#000" fill-rule="nonzero" d="M156.443 121.515a4.56 4.56 0 0 0 1.316 1.691c.369.263.793.441 1.241.52-.775.437-1.613.765-2.388 1.205-1.268.714-2.347 1.691-3.532 2.54-1.185.85-2.56 1.536-4.021 1.529a4.773 4.773 0 0 0 .561-4.803c-.248-.548-.61-1.079-.62-1.691 0-.967.875-1.691 1.692-2.236.664-.44 1.336-.866 2.016-1.278.537-.339 1.344-1.015 2.02-.991.754.027.754.612.892 1.214.177.797.454 1.57.823 2.3z" opacity=".1"/>
        <circle cx="163.5" cy="132.5" r="7.5" fill="#BE6F72" fill-rule="nonzero"/>
        <path fill="#E93D37" fill-rule="nonzero" d="M175 240.615c0 .639-1.394 2.234-1.394 2.234-4.183.639-8.366-.957-8.366-.957-.698-.32.348-2.234.348-2.234s.025-.058.073-.153c.192-.418.757-1.564 1.322-2.081.697-.638 1.112-3.265 1.112-3.265 2.16-3.265 6.006 1.404 6.006 1.404s.488 2.4.746 3.916c.072.376.123.755.153 1.136z"/>
        <path fill="#000" fill-rule="nonzero" d="M175 240.29c0 .726-1.394 2.539-1.394 2.539-4.183.725-8.366-1.088-8.366-1.088-.698-.363.348-2.538.348-2.538s.025-.065.073-.174c1.604.725 4.685 1.878 7.596 1.624l1.59-1.653c.072.427.123.858.153 1.29z" opacity=".1"/>
        <circle cx="148.5" cy="117.5" r="7.5" fill="#BE6F72" fill-rule="nonzero"/>
        <path fill="#BE6F72" fill-rule="nonzero" d="M142.478 131.934c-1.675 1.514-1.951 3.912-2.128 6.107l-.256 3.195a16.08 16.08 0 0 0-.071 2.59c.044.54.143 1.074.197 1.608.065.643.068 1.285.072 1.928l.03 4.728c0 .964.028 2 .552 2.838.525.84 1.734 1.38 2.62.88.578-.32.847-.963 1.079-1.564.75-1.948 1.505-3.925 1.703-5.988.071-.71.078-1.424.146-2.134.069-.71.198-1.453.314-2.176.483-3.012.701-6.053.916-9.087.065-.9.923-4.438-.324-4.82-.61-.194-1.87.398-2.445.597a6.962 6.962 0 0 0-2.405 1.298z"/>
        <path fill="#000" fill-rule="nonzero" d="M142.478 131.934c-1.675 1.514-1.951 3.912-2.128 6.107l-.256 3.195a16.08 16.08 0 0 0-.071 2.59c.044.54.143 1.074.197 1.608.065.643.068 1.285.072 1.928l.03 4.728c0 .964.028 2 .552 2.838.525.84 1.734 1.38 2.62.88.578-.32.847-.963 1.079-1.564.75-1.948 1.505-3.925 1.703-5.988.071-.71.078-1.424.146-2.134.069-.71.198-1.453.314-2.176.483-3.012.701-6.053.916-9.087.065-.9.923-4.438-.324-4.82-.61-.194-1.87.398-2.445.597a6.962 6.962 0 0 0-2.405 1.298z" opacity=".1"/>
        <path fill="#F49F0A" fill-rule="nonzero" d="M157.725 123s-5.477 4.274-8.698 5.26c0 0-1.91 2.226-2.255 2.759-.345.532-.966 6.447-1.61 7.762-.645 1.315-2.256 4.274 0 7.233 0 0 .644 2.959.321 3.945-.322.986-1.491 4.603-.422 4.77 1.07.168 4.288 2.463 7.187 1.805 2.9-.657 13.692 2.466 13.692 2.466s1.771-16.932 3.06-19.89l-2.9-.987s-8.053-4.931-3.22-12.493c0 0-4.51-.986-5.155-2.63z"/>
        <path fill="#3F3D56" fill-rule="nonzero" d="M138.221 142.433l7.042 5.457a.492.492 0 0 0 .62 0l1.903-1.564a.588.588 0 0 0 .214-.437.597.597 0 0 0-.18-.455l-5.418-5.29a.5.5 0 0 0-.529-.111l-3.525 1.38a.574.574 0 0 0-.343.469.607.607 0 0 0 .216.55z"/>
        <path fill="#BE6F72" fill-rule="nonzero" d="M139.83 156.577c-.557-1.598-.635-3.305-.707-4.99l-.098-2.237c-.04-.876-.072-1.783.242-2.605.451-1.176 1.58-2.017 2.803-2.4a9.931 9.931 0 0 1 3.825-.269.895.895 0 0 1 .484.135.91.91 0 0 1 .268.44c.278.761.55 1.637.154 2.35a2.45 2.45 0 0 1-.769.767c-.906.64-1.963 1.061-2.823 1.752a.78.78 0 0 0-.35.984c.108.448.255.887.438 1.31.075.213.203.403.373.554.16.124.37.178.53.3.36.281 1.103.658 1.07 1.106-.124 1.656-1.125 3.445-1.521 5.056-.77 3.14-3.439-.882-3.92-2.253z"/>
        <g fill="#000" fill-rule="nonzero" opacity=".1">
            <path d="M150.283 155.48a.969.969 0 0 1-.177.056 2.925 2.925 0 0 0 2.11-.056l.2-.062a4.06 4.06 0 0 0-2.133.062zM167.19 138.092c-1.153 2.562-2.856 16.429-3.165 19.184 1.14.292 1.877.499 1.877.499s1.771-16.35 3.06-19.207l-1.772-.476z"/>
        </g>
        <path fill="#BE6F72" fill-rule="nonzero" d="M164.07 133.076c.023.68.582 1.2 1.095 1.658.707.59 1.355 1.247 1.935 1.961a13.84 13.84 0 0 1 1.929 3.835 47.57 47.57 0 0 1 1.605 5.256c-4.283 1.957-9.06 1.864-13.589 3.158a10.887 10.887 0 0 0-5.122 2.986c-1.333 1.483-2.139 3.52-1.872 5.5.008.117.042.23.1.333a.74.74 0 0 0 .596.235 5.069 5.069 0 0 0 3.11-1.062c.88-.68 1.678-1.46 2.379-2.322a3.863 3.863 0 0 1 1.702-1.244c2.454-.747 5.07-.7 7.637-.747 3.8-.072 7.593-.371 11.358-.895.307-.004.602-.123.826-.332.128-.198.195-.428.193-.664.373-4.976-1.482-9.847-3.404-14.465-.77-1.849-1.556-3.691-2.355-5.527-.763-1.749-1.565-3.53-2.881-4.914a5.192 5.192 0 0 0-1.725-1.257 7.577 7.577 0 0 0-2.198-.428 16.879 16.879 0 0 0-3.728-.07c-.136.664-.38 1.254-.356 1.921.07 2.28 1.07 4.413 2.052 6.473.156.299.516.309.713.61z"/>
        <path stroke="#000" d="M150.877 138a7.53 7.53 0 0 0-.876 3.658 5.5 5.5 0 0 0 .219 1.504c.425 1.36 1.544 2.36 2.78 2.838" opacity=".1"/>
        <path fill="#3F3D56" fill-rule="nonzero" d="M155.066 110.5c-.411.001-.82.064-1.212.184-1.09-1.562-3.655-2.684-6.648-2.684-3.98 0-7.206 1.96-7.206 4.375s3.226 4.375 7.206 4.375a10.57 10.57 0 0 0 4.323-.872c.844 1.671 2.843 2.502 4.7 1.954 1.859-.547 3.017-2.31 2.726-4.144-.29-1.834-1.944-3.19-3.889-3.188z"/>
        <path fill="#000" fill-rule="nonzero" d="M155.455 116.939c-1.514-.002-2.894-.946-3.551-2.431a9.493 9.493 0 0 1-4.34.999c-3.996 0-7.235-2.242-7.235-5.013 0-.165.012-.33.036-.494a3.605 3.605 0 0 0-.365 1.568c0 2.771 3.239 5.013 7.234 5.013a9.493 9.493 0 0 0 4.34-1c.744 1.666 2.384 2.625 4.07 2.381 1.685-.243 3.038-1.636 3.356-3.454-.656 1.483-2.033 2.427-3.545 2.43z" opacity=".1"/>
        <path fill="#000" fill-rule="nonzero" d="M139.29 109.77a11.2 11.2 0 0 1 12.591-6.016 11.867 11.867 0 0 1 11.588-.495 11.898 11.898 0 0 1 6.488 9.627 11.9 11.9 0 0 0-6.05-11.378c-3.76-2.101-8.36-2-12.026.264a11.2 11.2 0 0 0-12.59 6.014C136.695 110.1 135 113.821 135 118.01c0 .33 0 .66.036.991.241-3.787 1.852-7.106 4.254-9.23z" opacity=".1"/>
        <path fill="#5E90FF" fill-rule="nonzero" d="M129 118a3 3 0 1 0 0 6 3 3 0 0 0 0-6zm.403 1.083a.257.257 0 0 1 .234.164.86.86 0 0 1 0 .666 1.707 1.707 0 0 1-.144.334s-.036.053.084.053h.77a.237.237 0 0 1 .22.27.25.25 0 0 1-.164.243c.09.043.151.13.16.23a.21.21 0 0 1-.183.234v.016c.08.045.127.132.12.224a.193.193 0 0 1-.153.193.203.203 0 0 1 .08.183.19.19 0 0 1-.197.194h-1.667s-.086 0-.086-.117v-1.087c-.002-.267.074-.53.216-.756.114-.17.244-.328.387-.474.023-.026.11-.1.11-.143v-.297a.18.18 0 0 1 .213-.13zm-1.896 1.587h.666c.051.002.092.043.094.093v1.517a.09.09 0 0 1-.094.093h-.666a.093.093 0 0 1-.094-.093v-1.51a.097.097 0 0 1 .094-.1z"/>
        <path fill="#E93D37" fill-rule="nonzero" d="M135.708 115.905a.294.294 0 0 1-.214.095.294.294 0 0 1-.214-.095l-.166-.156c-1.344-1.31-2.114-2.157-2.114-3.216 0-.864.513-1.533 1.325-1.533.454.003.884.217 1.175.586.291-.369.72-.583 1.175-.586.809 0 1.325.669 1.325 1.533 0 1.059-.776 1.92-2.114 3.216l-.178.156z"/>
        <path fill="#5E90FF" fill-rule="nonzero" d="M129.003 80a5 5 0 1 0-.006 10 5 5 0 0 0 .006-10zm.669 1.799a.433.433 0 0 1 .387.275c.15.35.156.745.015 1.1a3.062 3.062 0 0 1-.238.55s-.062.093.14.09h1.278a.4.4 0 0 1 .365.455.412.412 0 0 1-.27.4.019.019 0 0 0 0 .028c.151.072.252.218.267.383a.35.35 0 0 1-.31.387.022.022 0 0 0-.015.025.387.387 0 0 1 .204.366.337.337 0 0 1-.257.325.025.025 0 0 0-.015.027.31.31 0 0 1 .133.31.31.31 0 0 1-.328.31h-2.743s-.149 0-.149-.202v-1.801a2.4 2.4 0 0 1 .36-1.257c.195-.278.41-.54.643-.787.04-.04.186-.167.186-.235v-.492a.31.31 0 0 1 .347-.257zm-3.149 2.637h1.102c.088 0 .158.071.158.158v2.517c0 .088-.07.158-.158.158h-1.099a.155.155 0 0 1-.154-.158v-2.52c0-.084.067-.153.151-.155zM125 38a9 9 0 1 0 0 18 9 9 0 0 0 0-18zm1.205 3.24c.31.013.582.209.692.498a2.59 2.59 0 0 1 .031 1.98 5.753 5.753 0 0 1-.43.997s-.117.167.25.16h2.302a.717.717 0 0 1 .661.817.748.748 0 0 1-.488.723.035.035 0 0 0-.02.048s0 .018.017.021c.27.131.452.394.48.693a.633.633 0 0 1-.553.692.042.042 0 0 0-.028.048c.003.01.011.018.021.021a.692.692 0 0 1 .346.665.613.613 0 0 1-.46.585.038.038 0 0 0-.028.048c.004.008.01.016.017.02.169.127.26.332.24.54a.585.585 0 0 1-.132.378.592.592 0 0 1-.464.211h-4.94s-.27 0-.27-.346v-3.25c0-.802.224-1.587.648-2.267.35-.501.738-.974 1.163-1.413.069-.08.346-.304.346-.426 0-.12.017-.415.024-.89a.55.55 0 0 1 .575-.546v-.007zm-5.667 4.763h1.98c.155 0 .282.125.284.28v4.542a.284.284 0 0 1-.284.284h-1.98a.284.284 0 0 1-.284-.284v-4.542a.284.284 0 0 1 .284-.28z"/>
        <path fill="#E93D37" fill-rule="nonzero" d="M124.424 107.843a.661.661 0 0 1-.855 0l-.337-.283c-2.693-2.356-4.232-3.887-4.232-5.801 0-1.557 1.027-2.759 2.643-2.759.91 0 1.772.384 2.357 1.05a3.142 3.142 0 0 1 2.357-1.05c1.616 0 2.643 1.202 2.643 2.759 0 1.904-1.549 3.435-4.232 5.8l-.344.284zM141.142 79.732a.903.903 0 0 1-1.284 0l-.493-.473C135.33 75.332 133 72.78 133 69.599c0-2.594 1.548-4.599 3.975-4.599 1.362.008 2.65.65 3.527 1.755.874-1.105 2.162-1.747 3.523-1.755 2.43 0 3.975 1.998 3.975 4.6 0 3.174-2.33 5.725-6.365 9.659l-.493.473z"/>
        <path fill="#3F3D56" fill-rule="nonzero" d="M228 203.147v2.706c0 5.604 4.477 10.147 10 10.147s10-4.543 10-10.147v-2.706c0-5.604-4.477-10.147-10-10.147s-10 4.543-10 10.147zM248 161.859v-2.707c0-5.607-4.477-10.152-10-10.152s-10 4.545-10 10.152v2.707c0 .994.144 1.983.43 2.933 1.437 4.814 6.13 7.833 11.03 7.098 4.902-.735 8.535-5.002 8.54-10.031z"/>
        <path fill="#3F3D56" fill-rule="nonzero" d="M228 181.147v2.706c0 5.604 4.477 10.147 10 10.147s10-4.543 10-10.147v-2.706c0-5.604-4.477-10.147-10-10.147s-10 4.543-10 10.147zM238 215c-5.516.017-9.984 4.55-10 10.147v2.706c0 5.604 4.477 10.147 10 10.147s10-4.543 10-10.147v-2.706c-.016-5.597-4.484-10.13-10-10.147z"/>
        <path fill="#000" fill-rule="nonzero" d="M247 159v2.527c-.005 5.194-3.532 9.6-8.29 10.36-4.759.758-9.315-2.36-10.71-7.33L247 159zM247 181v2.527c-.005 5.194-3.532 9.6-8.29 10.36-4.759.758-9.315-2.36-10.71-7.33L247 181zM247 204v2.527c-.005 5.194-3.532 9.6-8.29 10.36-4.759.758-9.315-2.36-10.71-7.33L247 204zM247 225v2.527c-.005 5.194-3.532 9.6-8.29 10.36-4.759.758-9.315-2.36-10.71-7.33L247 225z" opacity=".1"/>
        <path fill="#3F3D56" fill-rule="nonzero" d="M268.41 182.622l-.857.603c-1.596 1.125-3.858 1.014-5.31-.26-1.454-1.276-1.657-3.327-.478-4.818.23-.294.507-.556.821-.776l.86-.604c1.154-.806 2.692-.992 4.037-.487 1.344.506 2.29 1.624 2.482 2.936.19 1.311-.402 2.616-1.555 3.422v-.016zM256.136 183.723l-.777.612c-1.55 1.285-1.812 3.593-.59 5.204a3.645 3.645 0 0 0 5.095.738l.777-.612c1.55-1.285 1.812-3.593.59-5.204a3.645 3.645 0 0 0-5.095-.738z"/>
        <path fill="#3F3D56" fill-rule="nonzero" d="M250.446 188.768l-.857.6c-1.782 1.245-2.115 3.569-.744 5.188 1.371 1.62 3.927 1.922 5.71.676l.856-.6c1.782-1.245 2.115-3.569.744-5.188-1.371-1.62-3.927-1.922-5.71-.676z"/>
        <path fill="#3F3D56" fill-rule="nonzero" d="M243.441 193.784l-.857.602c-1.779 1.245-2.109 3.562-.738 5.177 1.371 1.614 3.925 1.914 5.703.669l.861-.603c1.154-.805 1.746-2.109 1.554-3.418-.192-1.31-1.139-2.427-2.484-2.931-1.346-.504-2.885-.318-4.039.487v.017z"/>
        <path fill="#000" fill-rule="nonzero" d="M267 183.647l-.634.559c-1.307 1.153-3.159 1.04-4.349-.268-1.19-1.307-1.356-3.41-.39-4.938l5.373 4.647zM260 188.65l-.635.559c-1.307 1.15-3.157 1.035-4.346-.271-1.19-1.306-1.358-3.408-.397-4.938l5.378 4.65zM254 193.645l-.634.559c-1.306 1.155-3.157 1.042-4.348-.264-1.19-1.307-1.357-3.41-.393-4.94l5.375 4.645z" opacity=".1"/>
        <path fill="#00A0FF" fill-rule="nonzero" d="M263.86 61.304c6.15 0 11.137 4.964 11.137 11.087 0 6.123-4.987 11.087-11.138 11.087 6.151 0 11.138 4.964 11.138 11.087 0 6.123-4.987 11.087-11.138 11.087 6.151 0 11.138 4.964 11.138 11.087 0 6.123-4.987 11.087-11.138 11.087 6.151 0 11.138 4.964 11.138 11.087 0 6.123-4.987 11.087-11.138 11.087h-53.722c-6.15 0-11.137-4.964-11.137-11.087 0-6.123 4.986-11.087 11.137-11.087-6.15 0-11.137-4.964-11.137-11.087 0-6.123 4.986-11.087 11.137-11.087-6.15 0-11.137-4.964-11.137-11.087 0-6.123 4.986-11.087 11.137-11.087-6.15 0-11.137-4.964-11.137-11.087 0-6.123 4.986-11.087 11.137-11.087-6.15 0-11.137-4.963-11.137-11.087 0-6.123 4.986-11.087 11.137-11.087-6.15 0-11.137-4.963-11.137-11.087 0-6.123 4.986-11.086 11.137-11.086h2.457C214.006 7.418 224.832 0 237.984 0c13.152 0 23.979 7.418 25.39 16.957h.489c6.15 0 11.137 4.963 11.137 11.086 0 6.124-4.986 11.087-11.137 11.087 6.15 0 11.137 4.964 11.137 11.087 0 6.124-4.986 11.087-11.137 11.087h-.004z"/>
        <path fill="#000" fill-rule="nonzero" d="M275 29.5c-.018 6.344-5.005 11.481-11.162 11.5H210l53.51-23h.328c6.157.019 11.144 5.156 11.162 11.5z" opacity=".1"/>
        <path fill="#000" fill-rule="nonzero" d="M200 50.5c.018 6.344 5.005 11.481 11.162 11.5H265l-53.51-23h-.328c-6.157.019-11.144 5.156-11.162 11.5zM200 95.5c.018 6.344 5.005 11.481 11.162 11.5H265l-53.51-23h-.328c-6.157.019-11.144 5.156-11.162 11.5zM200 140.5c.018 6.344 5.005 11.481 11.162 11.5H265l-53.51-23h-.328c-6.157.019-11.144 5.156-11.162 11.5z" opacity=".1"/>
        <path fill="#000" fill-rule="nonzero" d="M275 72.5c-.018 6.344-5.005 11.481-11.162 11.5H210l53.51-23h.328c6.157.019 11.144 5.156 11.162 11.5zM275 117.5c-.018 6.344-5.005 11.481-11.162 11.5H210l53.51-23h.328c6.157.019 11.144 5.156 11.162 11.5z" opacity=".1"/>
        <path fill="#00A0FF" fill-rule="nonzero" d="M268.868 194.564l-17.792-9.248c-1.945-1.097-2.643-3.484-1.579-5.401 1.065-1.918 3.51-2.678 5.533-1.721-1.36-.664-2.239-1.987-2.297-3.457-.058-1.47.714-2.854 2.017-3.616a4.32 4.32 0 0 1 4.254-.05l.81.42c2.178-2.819 7.09-3.34 11.45-1.075 4.359 2.265 6.612 6.511 5.37 9.817l.162.086c2.037 1.058 2.8 3.51 1.703 5.478-1.096 1.967-3.637 2.703-5.674 1.644 1.972 1.09 2.685 3.5 1.607 5.43-1.077 1.932-3.552 2.683-5.58 1.693h.016z"/>
        <path fill="#000" fill-rule="nonzero" d="M278.502 185.816c-1.103 2.017-3.642 2.772-5.683 1.69L255 178l21.69 2.126.109.059a4.15 4.15 0 0 1 1.703 5.631zM249.5 180.268c-1.092 2.099-.337 4.713 1.692 5.854L269 196l-13.712-17.428-.109-.06c-2.04-1.122-4.575-.338-5.679 1.756z" opacity=".1"/>
        <path fill="#00A0FF" fill-rule="nonzero" d="M62.38 238.963L26.33 239c-4.068-.088-7.322-3.542-7.322-7.773 0-4.232 3.254-7.686 7.321-7.774-4.068-.083-7.325-3.534-7.329-7.765-.004-4.231 3.245-7.69 7.313-7.782h1.649c.939-6.688 8.202-11.896 17.027-11.906 8.824-.01 16.097 5.185 17.05 11.87h.322c4.067.087 7.32 3.541 7.32 7.773 0 4.23-3.253 7.685-7.32 7.773 2.707-.061 5.235 1.405 6.607 3.832a8.044 8.044 0 0 1 .008 7.868c-1.367 2.43-3.892 3.902-6.6 3.847h.004z"/>
        <path fill="#000" fill-rule="nonzero" d="M70 215.474c-.007 4.128-3.38 7.474-7.55 7.49L26 223l36.213-15h.221c4.17.007 7.55 3.347 7.566 7.474zM19 230.513c.016 4.135 3.395 7.48 7.563 7.487L63 237.955 26.768 223h-.222c-4.17.016-7.544 3.374-7.546 7.513z" opacity=".1"/>
        <path fill="#00A0FF" fill-rule="nonzero" d="M174 53.059a6.582 6.582 0 0 0-3.87.43 5.595 5.595 0 0 1-4.65 0 6.415 6.415 0 0 0-5.466.108c-.485.262-1.024.4-1.573.403-2.215 0-4.059-2.276-4.441-5.28.442-.33.819-.743 1.108-1.217 1.299-2.135 3.297-3.503 5.569-3.503 2.271 0 4.25 1.345 5.549 3.466a4.267 4.267 0 0 0 3.679 2.06h.06c1.747-.01 3.273 1.432 4.035 3.533z" opacity=".1"/>
        <path fill="#00A0FF" fill-rule="nonzero" d="M181.043 42.856l-3.62 2.265 2.196-3.946a3.594 3.594 0 0 0-2.19-.772h-.056a4.055 4.055 0 0 1-.75-.053l-1.23.766.526-.944c-.87-.3-1.62-.862-2.147-1.608l-2.203 1.378 1.386-2.489c-1.283-1.52-3-2.453-4.92-2.453-2.284 0-4.334 1.338-5.634 3.426a4.232 4.232 0 0 1-3.724 1.973h-.11c-2.52 0-4.567 2.822-4.567 6.3 0 3.48 2.047 6.301 4.567 6.301a3.428 3.428 0 0 0 1.59-.395 6.683 6.683 0 0 1 5.528-.105 5.902 5.902 0 0 0 2.363.5 5.832 5.832 0 0 0 2.334-.49 6.68 6.68 0 0 1 5.477.105 3.452 3.452 0 0 0 1.574.385c2.523 0 4.567-2.821 4.567-6.3a7.92 7.92 0 0 0-.957-3.844zM76 37.064a6.589 6.589 0 0 1 3.873.43 5.591 5.591 0 0 0 4.648 0 6.422 6.422 0 0 1 5.459.101c.485.262 1.025.4 1.573.403 2.217 0 4.064-2.275 4.447-5.28a4.268 4.268 0 0 1-1.108-1.216C93.592 29.368 91.576 28 89.317 28c-2.26 0-4.249 1.344-5.549 3.465a4.27 4.27 0 0 1-3.684 2.057h-.056c-1.755 0-3.286 1.442-4.028 3.542z" opacity=".1"/>
        <path fill="#00A0FF" fill-rule="nonzero" d="M69.95 26.843l3.621 2.265-2.2-3.946a3.6 3.6 0 0 1 2.19-.773h.06c.251.006.502-.011.75-.052l1.227.766-.527-.944c.87-.3 1.623-.862 2.15-1.608l2.197 1.375-1.387-2.473C79.318 19.933 81.048 19 82.955 19c2.284 0 4.334 1.338 5.634 3.426a4.229 4.229 0 0 0 3.724 1.973h.12c2.523 0 4.567 2.822 4.567 6.3C97 34.18 94.956 37 92.433 37a3.448 3.448 0 0 1-1.59-.395 6.683 6.683 0 0 0-5.527-.105 5.808 5.808 0 0 1-4.694.01 6.687 6.687 0 0 0-5.48.105 3.441 3.441 0 0 1-1.574.385C71.048 37 69 34.179 69 30.7a7.92 7.92 0 0 1 .95-3.857z" opacity=".1"/>
    </g>
</svg>
