<?xml version="1.0" encoding="utf-8"?>
<!-- Generator: Adobe Illustrator 23.0.2, SVG Export Plug-In . SVG Version: 6.00 Build 0)  -->
<svg version="1.1" id="Capa_1" xmlns="http://www.w3.org/2000/svg" xmlns:xlink="http://www.w3.org/1999/xlink" x="0px" y="0px"
	 viewBox="0 0 41 41" style="enable-background:new 0 0 41 41;" xml:space="preserve">
<style type="text/css">
	.st0{fill-rule:evenodd;clip-rule:evenodd;}
	.st1{fill-rule:evenodd;clip-rule:evenodd;fill:#00A0FF;}
	.st2{fill:#FFFFFF;}
</style>
<g>
	<g transform="translate(10 8)">
		<g>
			<path id="b" class="st0" d="M-7.7-8h36.3C30-8,31-7,31-5.7v36.3c0,1.3-1,2.3-2.3,2.3H-7.7C-9,33-10,32-10,30.7V-5.7
				C-10-7-9-8-7.7-8z"/>
		</g>
		<g>
			<path class="st1" d="M-7.7-8h36.3C30-8,31-7,31-5.7v36.3c0,1.3-1,2.3-2.3,2.3H-7.7C-9,33-10,32-10,30.7V-5.7C-10-7-9-8-7.7-8z"/>
		</g>
	</g>
	<path class="st2" d="M20.3,20.5c3.1,0,5.6-2.5,5.6-5.6s-2.5-5.6-5.6-5.6l0,0c-3.1,0-5.6,2.5-5.6,5.6S17.2,20.5,20.3,20.5z
		 M24.2,21.9h-0.7c-2,0.9-4.3,0.9-6.3,0h-0.7c-3.2,0-5.8,2.6-5.8,5.8v1.8c0,1.2,0.9,2.1,2.1,2.1h15.3c1.2,0,2.1-0.9,2.1-2.1v-1.8
		C30,24.5,27.4,21.9,24.2,21.9L24.2,21.9z"/>
</g>
</svg>
