<svg xmlns="http://www.w3.org/2000/svg" width="367" height="199" viewBox="0 0 367 199">
    <g fill="none" fill-rule="evenodd" transform="translate(1)">
        <ellipse cx="184" cy="186.5" fill="#F2F2F2" fill-rule="nonzero" rx="179" ry="12.5"/>
        <path fill="#2F2E41" fill-rule="nonzero" d="M177.373 57C148.053 57 127 75.719 127 119.396c0 49.5 21.052 62.604 50.373 62.604 29.32 0 51.627-14.351 51.627-62.604C229 67.816 206.694 57 177.373 57zm.193 108.57c-20.309 0-30.918-11.857-30.918-46.142 0-30.252 11.044-46.205 31.352-46.205s31.352 10.479 31.352 46.205c0 33.421-11.478 46.141-31.786 46.141z"/>
        <path fill="#00A0FF" fill-rule="nonzero" d="M109.702 146.49H97.61v-35.493c0-3.926-3.194-7.108-7.133-7.108h-2.833a7.144 7.144 0 0 0-5.043 2.082 7.096 7.096 0 0 0-2.09 5.026v35.493H46.4a4.074 4.074 0 0 1-3.488-1.964 4.046 4.046 0 0 1-.112-3.99l36.103-68.103a7.087 7.087 0 0 0 .46-5.568 7.116 7.116 0 0 0-3.72-4.18l-2.131-1.003c-3.438-1.618-7.544-.265-9.336 3.076l-44.033 82.096a9.613 9.613 0 0 0 1.69 11.36 9.688 9.688 0 0 0 6.839 2.822h51.84v22.444c0 2.26.9 4.427 2.504 6.024A8.564 8.564 0 0 0 89.06 192a8.564 8.564 0 0 0 6.045-2.496 8.506 8.506 0 0 0 2.504-6.024v-22.444h12.093c4.03 0 7.298-3.256 7.298-7.273 0-4.017-3.267-7.273-7.298-7.273zM332.702 146.49H320.61v-35.493c0-3.926-3.194-7.108-7.133-7.108h-2.833a7.144 7.144 0 0 0-5.043 2.082 7.096 7.096 0 0 0-2.09 5.026v35.493H269.4a4.074 4.074 0 0 1-3.488-1.964 4.046 4.046 0 0 1-.112-3.99l36.103-68.103a7.087 7.087 0 0 0 .46-5.568 7.116 7.116 0 0 0-3.72-4.18l-2.131-1.003c-3.438-1.618-7.544-.265-9.336 3.076l-44.033 82.096a9.613 9.613 0 0 0-1.142 4.544c0 5.323 4.33 9.638 9.671 9.638h51.84v22.444c0 4.705 3.827 8.52 8.549 8.52 4.721 0 8.549-3.815 8.549-8.52v-22.444h12.093c4.03 0 7.298-3.256 7.298-7.273 0-4.017-3.267-7.273-7.298-7.273z"/>
        <path stroke="#3F3D56" d="M113.702 142.49H101.61v-35.493a7.096 7.096 0 0 0-2.09-5.026 7.144 7.144 0 0 0-5.043-2.082h-2.833c-3.94 0-7.132 3.182-7.132 7.108v35.493H50.399a4.074 4.074 0 0 1-3.488-1.964 4.046 4.046 0 0 1-.112-3.99l36.103-68.103a7.087 7.087 0 0 0 .46-5.568 7.116 7.116 0 0 0-3.72-4.18l-2.131-1.003c-3.438-1.618-7.544-.265-9.336 3.076l-44.033 82.096A9.613 9.613 0 0 0 23 147.398c0 5.323 4.33 9.638 9.671 9.638h51.84v22.444c0 2.26.9 4.427 2.504 6.024A8.564 8.564 0 0 0 93.06 188c4.721 0 8.549-3.815 8.549-8.52v-22.444h12.093a7.31 7.31 0 0 0 5.16-2.13 7.261 7.261 0 0 0 2.138-5.143 7.261 7.261 0 0 0-2.137-5.143 7.31 7.31 0 0 0-5.16-2.13zM338.702 142.49H326.61v-35.493c0-3.926-3.194-7.108-7.133-7.108h-2.833a7.144 7.144 0 0 0-5.043 2.082 7.096 7.096 0 0 0-2.09 5.026v35.493H275.4a4.074 4.074 0 0 1-3.488-1.964 4.046 4.046 0 0 1-.112-3.99l36.103-68.103a7.087 7.087 0 0 0 .46-5.568 7.116 7.116 0 0 0-3.72-4.18l-2.131-1.003c-3.438-1.618-7.544-.265-9.336 3.076l-44.033 82.096a9.613 9.613 0 0 0-1.142 4.544c0 5.323 4.33 9.638 9.671 9.638h51.84v22.444c0 4.705 3.827 8.52 8.549 8.52 4.721 0 8.549-3.815 8.549-8.52v-22.444h12.093a7.31 7.31 0 0 0 5.16-2.13 7.261 7.261 0 0 0 2.138-5.143c0-4.017-3.267-7.273-7.298-7.273zM183.373 53C154.053 53 133 71.719 133 115.396c0 49.5 21.052 62.604 50.373 62.604 29.32 0 51.627-14.351 51.627-62.604C235 63.816 212.694 53 183.373 53zm.193 108.57c-20.309 0-30.918-11.857-30.918-46.142 0-30.252 11.044-46.205 31.352-46.205s31.352 10.479 31.352 46.205c0 33.421-11.478 46.141-31.786 46.141z"/>
        <circle cx="159.5" cy="6.5" r="4.5" fill="#2F2E41" fill-rule="nonzero"/>
        <ellipse cx="171.5" cy="16" fill="#2F2E41" fill-rule="nonzero" rx="12.5" ry="16"/>
        <path fill="#000" fill-rule="nonzero" d="M171.5 28.015c-6.262 0-11.448-6.081-12.358-14.015-.095.827-.142 1.66-.142 2.493C159 25.609 164.596 33 171.5 33S184 25.61 184 16.493c0-.833-.047-1.666-.142-2.493-.91 7.934-6.096 14.015-12.358 14.015z" opacity=".1"/>
        <path fill="#3F3D56" fill-rule="nonzero" d="M194.926 61.524c-.269 1.11-1.427 2-2.71 2.62-2.696 1.307-6.022 1.696-9.249 1.827-.823.05-1.648.035-2.469-.046a7.08 7.08 0 0 1-4.234-1.958.585.585 0 0 1 .015-.988c1.717-1.898 4.584-3.062 7.471-3.9 2.19-.635 6.008-2.28 8.396-2.059 2.313.216 3.119 3.102 2.78 4.504z"/>
        <path fill="#000" fill-rule="nonzero" d="M194.926 61.524c-.269 1.11-1.427 2-2.71 2.62-2.696 1.307-6.022 1.696-9.249 1.827-.823.05-1.648.035-2.469-.046a7.08 7.08 0 0 1-4.234-1.958.585.585 0 0 1 .015-.988c1.717-1.898 4.584-3.062 7.471-3.9 2.19-.635 6.008-2.28 8.396-2.059 2.313.216 3.119 3.102 2.78 4.504z" opacity=".1"/>
        <path fill="#3F3D56" fill-rule="nonzero" d="M161.739 53.614a6.6 6.6 0 0 0-.41 5.091 8.899 8.899 0 0 0 3.02 4.221c3.455 2.733 8.208 3.11 12.635 3.072a98.638 98.638 0 0 0 11.6-.785 14.021 14.021 0 0 0 3.764-.863c1.445-.617 2.714-1.749 3.229-3.218.514-1.468.149-3.266-1.072-4.247-1.074-.86-2.554-.98-3.934-1.061l-7.9-.469c.78-.78 1.82-1.22 2.77-1.787 1.261-.752 2.099-2.015 3.016-3.153a43.836 43.836 0 0 1 4.598-4.667c.257 1.456 1.19 2.651 2.288 3.656 1.098 1.005 2.363 1.813 3.505 2.77 2.764 2.316 4.754 5.46 7.661 7.6 2-.52 3.87-1.44 5.491-2.707l-1.13-2.02a1.334 1.334 0 0 0-.426-.525c-.32-.194-.732-.094-1.103-.149-.993-.147-1.426-1.278-1.816-2.19-1.069-2.508-3.116-4.452-4.864-6.555a33.085 33.085 0 0 1-3.42-4.972c-.587-1.048-1.125-2.139-1.922-3.041-.797-.903-1.914-1.612-3.127-1.615-1.072-.002-2.06.535-2.981 1.075a78.915 78.915 0 0 0-8.085 5.438c-1.35 1.034-2.69 2.126-4.274 2.76-.666.267-1.368.45-2.008.775-1.12.569-1.97 1.531-2.885 2.386-3.263 3.047-7.73 5.022-12.22 5.18z"/>
        <path fill="#FBBEBE" fill-rule="nonzero" d="M178.963 33.162a7.746 7.746 0 0 1-.64 2.77c-.393.89-1.164 1.586-2.128 1.923a4.874 4.874 0 0 1-2.074.063 4.205 4.205 0 0 1-1.69-.539c-.799-.513-1.197-1.429-1.342-2.325-.145-.895-.08-1.81-.173-2.712-.09-.728-.239-1.45-.444-2.157-.062-.236-.126-.47-.189-.705a31.232 31.232 0 0 1-.177-.703c-.051-.22-.099-.441-.14-.664a9.297 9.297 0 0 1-.086-.566 5.978 5.978 0 0 0-.298-1.66 4.976 4.976 0 0 0-.622-.984 7.264 7.264 0 0 1-.302-.428 1.931 1.931 0 0 1-.359-1.293 1.073 1.073 0 0 1 .086-.284.649.649 0 0 0 .454-.396c.04-.206.021-.417-.054-.613a3.769 3.769 0 0 0-.354-.79c-.098-.164-.429-.462-.431-.65-.005-.38.79-.686 1.11-.836a6.565 6.565 0 0 1 3.172-.601c.702.044 1.464.246 1.852.796.348.496.301 1.139.45 1.715a.492.492 0 0 0 .11.229.51.51 0 0 0 .273.117c.172.032.348.039.522.02h.002a1.896 1.896 0 0 0 .887-.321 4.975 4.975 0 0 1 .452-.092c.582 1.716.657 3.555 1.133 5.302.236.87.574 1.728.621 2.622.004.04.005.08.006.12.007.287-.017.577-.005.863.005.13.02.258.047.384.052.204.117.405.194.602l.003.01a2.818 2.818 0 0 1 .094.33l.001.003c.086.479.1.967.039 1.45z"/>
        <circle cx="170" cy="15" r="6" fill="#FBBEBE" fill-rule="nonzero"/>
        <path fill="#FBBEBE" fill-rule="nonzero" d="M209.476 49a10.206 10.206 0 0 0-1.724-4.696l.476 2.86a1.052 1.052 0 0 1-1.109-.345 3.454 3.454 0 0 1-.581-1.091 22.536 22.536 0 0 0-2.704-4.907c-3.894-.328-7.742-1.96-11.166-3.861-3.424-1.9-6.63-4.18-10.008-6.161a14.295 14.295 0 0 0-1.826-.943c-1.058-.429-2.244-.65-3.247-1.155a4.14 4.14 0 0 1-.842-.54 3.421 3.421 0 0 1-.306-.286 6.792 6.792 0 0 1-1.172-1.982c-.538-1.203-.73-2.654-1.267-3.857a3.69 3.69 0 0 1 .824-.588h.001a3.906 3.906 0 0 1 1.196-.398 3.77 3.77 0 0 1 1.809.145c.852.291 1.57.873 2.286 1.423a37.626 37.626 0 0 1 3.343 2.68c.59.572 1.13 1.2 1.765 1.72a13.87 13.87 0 0 0 1.666 1.116l10.315 6.21c1.164.701 2.33 1.402 3.467 2.144 1.73 1.128 3.396 2.35 5.061 3.57l2.944 2.158c.322.207.605.471.835.78.203.349.329.739.37 1.142a10.56 10.56 0 0 1-.406 4.862z"/>
        <path fill="#00A0FF" fill-rule="nonzero" d="M181.91 37.291c-.445 1.913-2.461 3.07-3.515 4.75-1.31 2.085-.775 4.51-.284 6.898l-2.696 2.228c-.496.408-.992.818-1.526 1.18-.779.5-1.593.948-2.436 1.341l-2.386 1.178c-.74.398-1.524.717-2.337.95-1.567.385-3.232.115-4.783-.332a2.215 2.215 0 0 1-.523-.205.838.838 0 0 1-.248-.215 1.285 1.285 0 0 1-.158-.865c.158-2.503.796-4.954 1.432-7.386.34-1.46.796-2.892 1.366-4.284a28.598 28.598 0 0 1 1.923-3.457 23.277 23.277 0 0 1 2.816-3.92 6.335 6.335 0 0 0 1.305-1.614c.397-.868.243-1.864.324-2.809.061-.71.258-1.403.58-2.046.172-.347.38-.675.619-.982a768.282 768.282 0 0 0 .81 1.809l.78 1.74c.28.732.68 1.415 1.184 2.025a2.346 2.346 0 0 0 2.06.93 2.312 2.312 0 0 0 1.89-1.22 7.06 7.06 0 0 0 .807-2.048c.22-.874.25-1.782.089-2.668-.27-1.706-1.026-3.449-1.575-5.034a4.914 4.914 0 0 1-.384-1.658c.001-.064.008-.128.02-.191a2.4 2.4 0 0 1 .722-.3c.139-.035.278-.063.42-.086.483 2.512.968 5.024 1.453 7.535l.035.178c.069.36.14.72.217 1.08.07.325.147.65.232.972a12.407 12.407 0 0 0 .385 1.217c.657 1.744 1.802 3.5 1.381 5.31z"/>
        <path fill="#3F3D56" fill-rule="nonzero" d="M206.003 63.563c-.019.4.05.8.198 1.164.377.786 1.281.965 2.064 1.039 4.572.428 9.17.269 13.711-.477.246-.02.485-.104.698-.248.646-.516.248-1.775-.457-2.178-.705-.403-1.542-.306-2.315-.48a6.862 6.862 0 0 1-2.166-1.073 108.305 108.305 0 0 1-4.637-3.217c-.907-.665-1.976-1.374-2.997-.98-2.766 1.068-4.117 3.045-4.099 6.45z"/>
        <path fill="#FBBEBE" fill-rule="nonzero" d="M170.694 28.468v.001a2.553 2.553 0 0 1-.026.133 7.581 7.581 0 0 1-.04.22c-.138.68-.307 1.357-.502 2.03-.533 1.859-1.248 3.688-1.956 5.49l-5.708 14.496c-.48 1.217-.96 2.436-1.505 3.628-.182.398-.37.798-.557 1.203-.669 1.45-1.31 2.946-1.524 4.49a9.017 9.017 0 0 0-.068 3.077c.213 1.012.85 2 1.847 2.373.487.184 1.183.429 1.05.916-.072.268-.388.399-.671.444a2.649 2.649 0 0 1-2.107-.585c-.532-.455-.941-1.164-1.649-1.24-.49-.051-.941.232-1.39.43-1.831.807-3.965.242-5.888-.331.151-.751.933-1.246 1.71-1.396.777-.151 1.58-.044 2.372-.064.254.013.506-.05.721-.18.194-.17.33-.394.39-.64.51-1.458.89-2.955 1.134-4.476.255-1.589.362-3.202.727-4.772.283-1.225.72-2.41 1.096-3.613a74.183 74.183 0 0 0 1.787-7.516 25.68 25.68 0 0 0 .503-3.19c.064-.889.034-1.783.123-2.669.149-1.152.398-2.29.745-3.403l1.02-3.64c.502-1.794 1.042-3.658 2.318-5.053A5.004 5.004 0 0 1 168.187 23a3.614 3.614 0 0 1 .876.108c.27.068.527.171.768.307.393-.241.593-.157.854.215.23.393.337.842.311 1.292a17.227 17.227 0 0 1-.302 3.546z"/>
        <path fill="#00A0FF" fill-rule="nonzero" d="M172 30.914l-.023.018-.122.098-1.216.97-.596-2L168 23.143a5.9 5.9 0 0 1 1.024.088c.014-.079.038-.156.07-.231l.098.265.692 1.883 1.311 3.574.217.589v.001l.588 1.602z"/>
        <path fill="#2F2E41" fill-rule="nonzero" d="M177 9.498a4.561 4.561 0 0 1-1.287 3.18 4.318 4.318 0 0 1-.473.42 4.28 4.28 0 0 1-2.62.902h-5.249c-2.415-.004-4.371-2.017-4.371-4.5s1.956-4.496 4.371-4.5h5.25c2.414.006 4.37 2.016 4.379 4.498z"/>
        <circle cx="180.5" cy="6.5" r="4.5" fill="#2F2E41" fill-rule="nonzero"/>
        <path fill="#000" fill-rule="nonzero" d="M182.176 2c-.059 0-.117.002-.176.004 2.593.088 4.647 2.075 4.647 4.496 0 2.421-2.054 4.408-4.647 4.496.059.002.117.004.176.004C184.84 11 187 8.985 187 6.5S184.84 2 182.176 2zM159.823 2c.06 0 .118.002.177.004-2.596.088-4.651 2.075-4.651 4.496 0 2.421 2.055 4.408 4.651 4.496-.059.002-.117.004-.177.004C157.16 10.998 155 8.984 155 6.5s2.159-4.498 4.823-4.5zM175 14c-.792.648-1.756 1-2.748 1h-5.504A4.335 4.335 0 0 1 164 14h11z" opacity=".1"/>
        <path fill="#FBBEBE" fill-rule="nonzero" d="M208 45.696s1.044 2.958 2 2.17L209.238 44 208 45.696z"/>
        <path fill="#57B894" fill-rule="nonzero" d="M341.61 142.578a6.998 6.998 0 0 0 8.367-10.221 6.998 6.998 0 0 0-7.435-3.203l.175 3.603-1.704-3.088a6.973 6.973 0 0 0-3.593 3.943 6.998 6.998 0 0 0 4.19 8.967z"/>
        <path stroke="#3F3D56" d="M351.254 185c-.572-3.145 1.908-5.933 4.358-7.745 2.45-1.812 5.313-3.593 6.149-6.668 1.201-4.42-2.377-8.468-5.163-11.958a43.616 43.616 0 0 1-5.286-8.477c-.58-1.22-1.112-2.494-1.265-3.855-.22-1.959.364-3.909.952-5.777a439.573 439.573 0 0 1 6.28-18.52M341.61 140.578a6.998 6.998 0 0 0 8.367-10.221 6.998 6.998 0 0 0-7.435-3.203l.175 3.603-1.704-3.088a6.973 6.973 0 0 0-3.593 3.943 6.998 6.998 0 0 0 4.19 8.967z"/>
        <path fill="#57B894" fill-rule="nonzero" d="M350.42 121.612a6.992 6.992 0 0 1 5.039-4.44l.576 3.426 1.069-3.598a7 7 0 1 1-6.684 4.612z"/>
        <path stroke="#3F3D56" d="M350.42 119.612a6.992 6.992 0 0 1 5.039-4.44l.576 3.426 1.069-3.598a7 7 0 1 1-6.684 4.612z"/>
        <path fill="#57B894" fill-rule="nonzero" d="M355.616 157.58a6.997 6.997 0 0 0 6.193-12.451l-.82 2.764-.583-3.465a6.997 6.997 0 0 0-9.298 7.795 6.998 6.998 0 0 0 4.508 5.356z"/>
        <path stroke="#3F3D56" d="M355.616 157.58a6.997 6.997 0 0 0 6.193-12.451l-.82 2.764-.583-3.465a6.997 6.997 0 0 0-9.298 7.795 6.998 6.998 0 0 0 4.508 5.356z"/>
        <path fill="#57B894" fill-rule="nonzero" d="M348.108 171.212a6.999 6.999 0 1 0 1.349-5.484l3.12 4.696-4.263-2.493a6.939 6.939 0 0 0-.206 3.28z"/>
        <path stroke="#3F3D56" d="M348.108 171.212a6.999 6.999 0 1 0 1.349-5.484l3.12 4.696-4.263-2.493a6.938 6.938 0 0 0-.206 3.28z"/>
        <path fill="#57B894" fill-rule="nonzero" d="M2.964 158.729a4.499 4.499 0 1 0 .599-8.63l.112 2.316-1.095-1.985a4.483 4.483 0 0 0-2.31 2.535 4.499 4.499 0 0 0 2.693 5.764z"/>
        <path stroke="#3F3D56" d="M7.94 186c-.428-1.997 1.432-3.767 3.27-4.917 1.837-1.151 3.984-2.282 4.61-4.234.902-2.806-1.782-5.376-3.871-7.593a27.454 27.454 0 0 1-3.965-5.382 7 7 0 0 1-.948-2.447c-.165-1.244.272-2.482.713-3.668A250.874 250.874 0 0 1 12.46 146"/>
        <path stroke="#3F3D56" d="M2.964 158.729a4.499 4.499 0 1 0 .599-8.63l.112 2.316-1.095-1.985a4.483 4.483 0 0 0-2.31 2.535 4.499 4.499 0 0 0 2.693 5.764z"/>
        <path fill="#57B894" fill-rule="nonzero" d="M7.27 146.965a4.495 4.495 0 0 1 3.24-2.854l.37 2.202.687-2.313a4.5 4.5 0 1 1-4.297 2.965z"/>
        <path stroke="#3F3D56" d="M9.27 144.965a4.495 4.495 0 0 1 3.24-2.854l.37 2.202.687-2.313a4.5 4.5 0 1 1-4.297 2.965z"/>
        <path fill="#57B894" fill-rule="nonzero" d="M11.968 171.73a4.498 4.498 0 0 0 3.98-8.004l-.527 1.777-.374-2.228a4.498 4.498 0 0 0-5.978 5.01 4.499 4.499 0 0 0 2.899 3.445z"/>
        <path stroke="#3F3D56" d="M11.966 169.73a4.5 4.5 0 0 0 3.982-8.004l-.527 1.777-.375-2.228a4.5 4.5 0 0 0-3.08 8.454z"/>
        <path fill="#57B894" fill-rule="nonzero" d="M7.07 178.279a4.5 4.5 0 1 0 .867-3.525l2.005 3.019-2.74-1.603a4.46 4.46 0 0 0-.133 2.109z"/>
        <path stroke="#3F3D56" d="M7.07 178.279a4.5 4.5 0 1 0 .867-3.525l2.005 3.019-2.74-1.603a4.46 4.46 0 0 0-.133 2.109z"/>
        <ellipse cx="163" cy="108.5" fill="#2F2E41" fill-rule="nonzero" rx="6" ry="7.5"/>
        <ellipse cx="195" cy="108.5" fill="#2F2E41" fill-rule="nonzero" rx="6" ry="7.5"/>
        <path fill="#2F2E41" fill-rule="nonzero" d="M191 130c0 3.313-4.701 6-10.5 6s-10.5-2.687-10.5-6c0-2.87 3.526-5.27 8.237-5.857A17.24 17.24 0 0 1 180.5 124c1.268-.004 2.532.13 3.77.4 3.936.863 6.73 3.047 6.73 5.6z"/>
        <ellipse cx="165" cy="106.5" stroke="#3F3D56" rx="6" ry="7.5"/>
        <ellipse cx="197" cy="106.5" stroke="#3F3D56" rx="6" ry="7.5"/>
        <ellipse cx="181.5" cy="128" stroke="#3F3D56" rx="10.5" ry="6"/>
        <path fill="#FFF" fill-rule="nonzero" d="M185 125.6c.003.629-.171 1.235-.486 1.696-.301.446-.726.701-1.172.704h-3.684c-.944-.045-1.685-1.117-1.657-2.4a3.113 3.113 0 0 1 .302-1.37 12.851 12.851 0 0 1 2.46-.23c1.381-.006 2.757.209 4.1.64.092.305.138.631.137.96z"/>
        <circle cx="165" cy="105" r="2" fill="#FFF" fill-rule="nonzero"/>
        <circle cx="196" cy="105" r="2" fill="#FFF" fill-rule="nonzero"/>
        <circle cx="197" cy="121" r="2" fill="#00A0FF" fill-rule="nonzero" opacity=".3"/>
        <circle cx="157" cy="121" r="2" fill="#00A0FF" fill-rule="nonzero" opacity=".3"/>
    </g>
</svg>
