<svg xmlns="http://www.w3.org/2000/svg" width="142" height="163" viewBox="0 0 142 163">
    <defs>
        <linearGradient id="a" x1=".985%" x2="99.415%" y1="50.004%" y2="50.004%">
            <stop offset="0%" stop-color="#00A0FF"/>
            <stop offset="100%" stop-color="#83D1FF"/>
        </linearGradient>
    </defs>
    <g fill="none" fill-rule="nonzero">
        <path fill="url(#a)" d="M110.171 58.408c-10.947-8.97-14.281-19.937-21.742-32.6C77.6 7.45 58.918-4.483 41.4 1.601c-11.592 4.02-21.142 15.915-26.474 30.25-8.057 21.712-10.01 50.121-.86 71.363 22.324 51.845 75.487 59.156 109.88 24.493 6.973-7.024 13.38-16.346 14.737-27.874 3.017-25.603-16.109-31.269-28.51-41.426z"/>
        <path fill="#FFD00D" d="M134.332 62.078a.709.709 0 0 1-.653-.408c-1.392-3.139-2.418-4.097-5.778-5.397a.661.661 0 0 1-.436-.61c0-.267.172-.508.436-.61 3.36-1.3 4.386-2.26 5.778-5.398a.709.709 0 0 1 .653-.407c.286 0 .544.16.653.407 1.392 3.139 2.418 4.097 5.778 5.398a.662.662 0 0 1 .436.61.661.661 0 0 1-.436.61c-3.36 1.3-4.386 2.258-5.778 5.397a.709.709 0 0 1-.653.408z"/>
        <path fill="#FFAF10" d="M134.868 60.973c-1.513-3.301-2.629-4.31-6.281-5.677a.74.74 0 0 1-.401-.346c-.351.148-.725.297-1.135.451-.288.108-.475.361-.475.642 0 .28.188.534.475.642 3.652 1.367 4.768 2.375 6.28 5.677.12.26.4.429.71.429.311 0 .591-.17.71-.43.17-.37.335-.708.5-1.025a.732.732 0 0 1-.383-.363z"/>
        <path fill="#FFF" d="M54.238 113.79a.619.619 0 0 1-.57-.354c-1.214-2.733-2.109-3.568-5.04-4.7a.576.576 0 0 1-.38-.53c0-.234.15-.443.38-.532 2.932-1.133 3.826-1.967 5.04-4.7a.619.619 0 0 1 .57-.355c.25 0 .474.14.57.355 1.214 2.733 2.109 3.567 5.04 4.7.23.089.38.298.38.531 0 .233-.15.442-.38.531-2.931 1.132-3.826 1.967-5.04 4.7a.618.618 0 0 1-.57.355z"/>
        <path fill="#D9EAFC" d="M54.984 111.636c-1.229-2.646-2.135-3.454-5.103-4.55a.598.598 0 0 1-.326-.278 24.06 24.06 0 0 1-.922.362c-.233.086-.385.289-.385.514 0 .226.152.429.385.515 2.968 1.096 3.874 1.904 5.103 4.55a.63.63 0 0 0 .577.344.63.63 0 0 0 .577-.344c.138-.297.272-.568.405-.822a.59.59 0 0 1-.31-.29z"/>
        <g>
            <path fill="#F49F0A" d="M16.444 41.118c-.648 0-1.231-.366-1.48-.926-3.152-7.123-5.476-9.298-13.087-12.248-.598-.232-.988-.779-.988-1.384 0-.607.39-1.153.988-1.385 7.612-2.952 9.936-5.127 13.087-12.25.249-.56.832-.925 1.48-.925s1.232.365 1.48.926c3.153 7.123 5.477 9.298 13.088 12.249.598.232.988.778.988 1.385 0 .605-.39 1.152-.989 1.384-7.61 2.95-9.934 5.125-13.088 12.248-.247.56-.831.926-1.479.926z"/>
            <path fill="#EF8318" d="M18.693 37.91c-3.411-7.431-5.925-9.7-14.16-12.778a1.67 1.67 0 0 1-.905-.78c-.79.335-1.633.67-2.56 1.016C.423 25.61 0 26.18 0 26.813c0 .632.422 1.202 1.069 1.444 8.235 3.078 10.75 5.347 14.16 12.778.268.584.9.965 1.6.965.702 0 1.333-.381 1.602-.965a53.05 53.05 0 0 1 1.125-2.31 1.644 1.644 0 0 1-.863-.815z"/>
        </g>
        <g>
            <g transform="translate(36 27)">
                <path fill="#E93D37" d="M76.682 1.942C67.459-2.904 54.066 1.618 43 12.19 31.934 1.618 18.541-2.904 9.318 1.942c-12.15 6.383-12.458 26.595-.69 45.145C15.647 58.15 25.375 66.12 34.663 69.4c2.53 1.198 5.349 1.732 8.337 1.648 2.989.084 5.807-.45 8.337-1.648 9.288-3.28 19.017-11.25 26.035-22.313 11.768-18.55 11.46-38.762-.69-45.145z"/>
                <path fill="#FF4B34" d="M50.863 69.4c-9.3-3.28-19.042-11.25-26.07-22.313-11.784-18.55-11.474-38.762.691-45.146.268-.14.539-.272.812-.396C20.12-.565 14.156-.59 9.331 1.94-2.835 8.325-3.145 28.537 8.64 47.087 15.668 58.15 25.41 66.12 34.71 69.4c2.533 1.198 5.356 1.732 8.348 1.648 2.887.081 5.614-.415 8.077-1.525-.09-.041-.182-.08-.272-.123z"/>
                <path fill="#FF9079" d="M80.496 32.09c-.28 0-.564-.063-.83-.195-.893-.443-1.245-1.502-.786-2.364 8.098-15.22-4.56-22.124-5.102-22.41-.88-.465-1.207-1.53-.73-2.38.479-.851 1.576-1.17 2.459-.71.17.087 4.188 2.21 7.006 6.624 2.613 4.091 4.665 10.966-.398 20.481-.322.606-.96.954-1.619.954z"/>
                <path fill="#FFEACF" d="M78.887 52.776H76.19c-.423 0-.826.075-1.193.208-.29.106-.633.008-.778-.234-.513-.859-1.546-1.446-2.74-1.446H67.52c-.786 0-1.5.255-2.045.674a.679.679 0 0 1-.85-.038c-.564-.524-1.365-.852-2.256-.852h-3.835c-.727 0-1.393.218-1.92.583-.278.192-.676.149-.89-.097a2.86 2.86 0 0 0-.328-.314V30.746c0-2.211-1.836-4.004-4.1-4.004-2.266 0-4.102 1.793-4.102 4.004v27.5h.042v16.558c0 1.478-1.382 2.675-3.087 2.675h-9.603c-4.103 0-7.429 2.882-7.429 6.437 0 1.603 1.499 2.901 3.348 2.901h11.584c3.142 0 6.143 1.132 8.284 3.125l4.03 3.75V116.9h25.085V93.557l3.358-3.74H82.8c.548-.633.876-1.417.876-2.268V56.925c0-2.29-2.144-4.149-4.789-4.149z"/>
                <g fill="#FFD59A">
                    <path d="M30.77 86.857c0-3.572 3.336-6.467 7.452-6.467h9.635c1.71 0 3.097-1.204 3.097-2.688V61.064h-.043V33.432c0-2.222 1.842-4.023 4.115-4.023.14 0 .28.007.417.02a4.114 4.114 0 0 0-3.81-2.51c-2.273 0-4.115 1.802-4.115 4.025v27.631h.042v16.638c0 1.485-1.386 2.688-3.097 2.688H34.83c-4.116 0-7.453 2.896-7.453 6.468 0 1.61 1.504 2.915 3.359 2.915h.075c-.025-.14-.04-.281-.04-.427zM58.104 117.51V96.68l-3.394-2.489v23.317z"/>
                </g>
                <path fill="#FFC34C" d="M84.45 105.217v26.42c0 2.41-1.992 4.363-4.45 4.363H52.486c-2.458 0-4.451-1.954-4.451-4.363v-26.42c0-2.41 1.993-4.363 4.451-4.363H80c2.459 0 4.451 1.954 4.451 4.363z"/>
                <path fill="#F49F0A" d="M60.708 104.995H84.45c0-2.287-1.89-4.141-4.224-4.141H52.26c-2.333 0-4.224 1.854-4.224 4.14v26.865c0 2.287 1.891 4.141 4.224 4.141h4.224v-26.864c0-2.287 1.892-4.141 4.224-4.141z"/>
                <path fill="#FCF9DE" d="M79.414 87.101c-1.07 0-1.937-.77-1.937-1.72V68.956c0-.95.868-1.721 1.937-1.721 1.07 0 1.937.77 1.937 1.721V85.38c0 .95-.867 1.721-1.937 1.721z"/>
                <path fill="#FFDF74" d="M80.19 130.652c-1.07 0-1.938-.77-1.938-1.72v-17.19c0-.95.868-1.72 1.937-1.72 1.07 0 1.937.77 1.937 1.72v17.19c0 .95-.867 1.72-1.937 1.72z"/>
                <ellipse cx="62.757" cy="111.551" fill="#FFA730" rx="4.649" ry="4.584"/>
                <ellipse cx="25.568" cy="22.921" fill="#FF4B34" rx="4.649" ry="2.292"/>
            </g>
        </g>
    </g>
</svg>
