<?xml version="1.0" encoding="utf-8"?>
<!-- Generator: Adobe Illustrator 23.0.3, SVG Export Plug-In . SVG Version: 6.00 Build 0)  -->
<svg version="1.1" id="Capa_1" xmlns="http://www.w3.org/2000/svg" xmlns:xlink="http://www.w3.org/1999/xlink" x="0px" y="0px"
	 viewBox="0 0 202 220.5" style="enable-background:new 0 0 202 220.5;" xml:space="preserve">
<style type="text/css">
	.st0{fill:url(#SVGID_1_);}
	.st1{fill:url(#SVGID_2_);}
	.st2{fill:url(#SVGID_3_);}
	.st3{fill:url(#SVGID_4_);}
	.st4{fill:#F3AEAC;}
	.st5{fill:#F49F0A;}
	.st6{fill:#383838;}
	.st7{fill:#00A0FF;}
	.st8{fill:#E6E6E7;}
	.st9{fill:#FFFFFF;}
	.st10{fill:#4EBAFB;}
	.st11{fill:#E93D37;}
</style>
<g transform="translate(1 1)">
	
		<linearGradient id="SVGID_1_" gradientUnits="userSpaceOnUse" x1="-196.6027" y1="528.6191" x2="-195.7344" y2="528.6191" gradientTransform="matrix(220.0003 0 0 -188.0001 43253.5508 99474.7031)">
		<stop  offset="0" style="stop-color:#00A0FF"/>
		<stop  offset="1" style="stop-color:#83D1FF"/>
	</linearGradient>
	<path class="st0" d="M149.2,76.4c-16.2-10-20-22.2-31.1-36.3c-16-20.4-43.7-33.7-69.7-26.9C31.3,17.6,17.2,30.8,9.3,46.8
		C-2.7,71-5.6,102.6,8,126.2c33.1,57.7,111.8,65.8,162.8,27.3c10.3-7.8,19.8-18.2,21.8-31C197.1,94,167.6,87.7,149.2,76.4z"/>
	
		<linearGradient id="SVGID_2_" gradientUnits="userSpaceOnUse" x1="-192.7565" y1="526.9866" x2="-192.4317" y2="527.0374" gradientTransform="matrix(44 0 0 -87.9997 8561.5 46546.1094)">
		<stop  offset="0" style="stop-color:#F3AEAC"/>
		<stop  offset="1" style="stop-color:#F6DDAA"/>
	</linearGradient>
	<path class="st1" d="M87.2,202.4c2.1,2.9,7.1,7.3,10.6,7.4c-8.8-8.3-6.8-21.2-7-31.2c-0.2-10,0.1-20.4-3.4-29.7
		c-3.6-9.2-12.2-17.5-22-16.7l-6.4,9l23.6,21.9C82.6,163.2,83.9,198.3,87.2,202.4L87.2,202.4z"/>
	
		<linearGradient id="SVGID_3_" gradientUnits="userSpaceOnUse" x1="-187.8037" y1="513.0658" x2="-186.9355" y2="513.0658" gradientTransform="matrix(18.9999 0 0 -16.0005 3652.9834 8416.4814)">
		<stop  offset="0" style="stop-color:#00A0FF"/>
		<stop  offset="1" style="stop-color:#83D1FF"/>
	</linearGradient>
	<path class="st2" d="M95.8,208.8c1.9,0.9,3.7,2.1,5.3,3.5c0.3,0.4,0.4,0.9,0.1,1.3c-0.2,0.4-0.7,0.7-1.1,0.6
		c-2.7-0.8-5.3-2-7.6-3.6c-5-2.4-6.9-2.4-7.8-3.9c-0.6-1.2,2.3-6.6,2.3-6.6C89.2,203.7,92.2,206.7,95.8,208.8L95.8,208.8z"/>
	
		<linearGradient id="SVGID_4_" gradientUnits="userSpaceOnUse" x1="-194.6595" y1="527.1005" x2="-193.7783" y2="527.1005" gradientTransform="matrix(67.0001 0 0 -91.0004 13080.0283 48140.457)">
		<stop  offset="0" style="stop-color:#F3AEAC"/>
		<stop  offset="1" style="stop-color:#F6DDAA"/>
	</linearGradient>
	<path class="st3" d="M74.5,170.2c0,16.4,9.1,29.2,8.1,37.3c0,0.2-0.3,2.3-0.3,2.5c1.8,1.2,3.8,2.2,5.9,2.9c2.7,1.2,5.7,1.6,8.7,1.3
		c-8.2-4-11.1-19.9-11.2-29.3c-0.1-6.4,0.9-12.9-0.9-19c-2.4-8.7-9.7-15-16.6-20.8c-6.9-5.8-24.2-18.1-29.9-5.9
		c-1.7,3.7,1.5,10.3,7.6,16.3C49.7,159.2,74.5,168.5,74.5,170.2L74.5,170.2z"/>
	<path class="st4" d="M63.9,95.6c2,4.8,2.8,10,2.1,15.1c-0.1,1.6-1.1,6.3-0.9,7.9c0.3,1.6,1.1,4.4,2.6,5.3l-7.4,1.2l-5-34.4
		L63.9,95.6z"/>
	<path class="st5" d="M53.7,86.8c-2.8,3.3-0.5,4,1,4.3c0.7,0.1,1.9,3.7,4,8c1.5,3.1,2.8,6.6,2.1,9.9c-0.5,2-1.8,3.8-2.2,5.9
		c-0.9,4.2,2,8.4,4.1,12.2c1.3,2.3,3.9,5.9,5.5,6.3c6.7,2,12.3,9.2,14.2,11.9c0.4,0.6,0.5,1,0.1,0.6c-1.1-1-3.7-2.8-8.2-0.2
		c-3.7,2.2-6,2.7-14.4,3.4c-3.8,0.3-8.5,1.6-11.1,4.7c-1.5,1.6-2.5,3.7-2.8,5.9c-10.9-5.1-10.8-11.7-10.8-11.7
		c-0.4-3.6,1.6-11.1,3.7-16.6c1.2-3.4,2.3-6.9,3.4-10.4c1-3.5,1.2-7.3,0.4-10.9c-0.8-4.1-2-8.2-3.6-12.1c0,0-2.8-4.6-3.8-5.9
		c-1-1.2,4-3.3,5.7-3.9c1.7-0.6,5.5-4.4,5.7-6.2L53.7,86.8L53.7,86.8z"/>
	<path class="st4" d="M55.9,86.8c1.2-0.4,2.3-1.1,3.2-1.9c2.8-2.9,5.6-8,5.1-10.8c-0.3-2-1.8-3.7-3.7-4.2c-0.6-0.2-1.3-0.2-1.9-0.2
		c-2.6,0.1-6.4,2.8-8.6,6.8c-1,1.8-1.5,3.9-1.5,6C48.7,85.5,51.5,88.3,55.9,86.8z"/>
	<path class="st6" d="M58.9,84.6c-0.6,0.5-1.2,0.8-1.9,1.2c-0.8,0.4-1.5,0.5-1.9,1.3c-0.4,0.7-0.5,1.6-0.3,2.4
		c0.3,1.3,3.8,1,3.3,3.8c-0.5,2.8,4.5,4.3,7.3,3.2c2.7-1,4-4.2,5-7c2-5.7,4.1-12.1,1.7-17.7c-1.8-3.6-4.7-6.4-8.3-7.9
		c-6.7-3.3-15.6-3.4-20.8,2c-3.2,3.3-4.9,8.3-9,10.4c-3.3,1.7-7.7,1.3-10,4.2C21,84.2,23.7,90,22,94.4c-1.8,4.4-6.9,5.6-9.7,9.2
		c-3.6,4.6-1.7,12.3,3.4,15.1c5.1,2.8,12.1,0.4,15-4.7c2.4-4.1,2.8-9,3.4-13.7c0.6-4.7,2.1-9.7,6.5-11.3c2.1-0.8,4.4-1,6.3-2.2
		c3.2-2,3.2-6.6,4.7-10.1c2-4.6,5.5-7.9,9.7-7.2c1.6,0.3,2.7,1.7,2.7,3.3c0,3-0.8,6-2.3,8.6C61,82.5,60,83.7,58.9,84.6z"/>
	<path class="st7" d="M93.5,214.5c2.3,0.5,4.4,1.4,6.4,2.5c0.4,0.3,0.6,0.9,0.5,1.5c-0.1,0.6-0.6,1-1.1,1c-3.1-0.2-6.1-0.8-8.9-1.9
		c-5.8-1.3-7.9-0.6-9.1-2.2c-0.9-1.2,0.8-8.2,0.8-8.2C85.4,210.6,89.3,213.1,93.5,214.5z"/>
	<path class="st8" d="M52.1,142.8l-8.1-4.2l24.7-1.1L52.1,142.8z"/>
	<path class="st9" d="M83.7,119.9l-3,19.7L51,143.7l1.7-23L83.7,119.9z"/>
	<path class="st4" d="M42.9,120.2c1.9,4.7,5.8,8.8,10.8,9.6c1.2,0.1,2.4,0.3,3.6,0.6c1.2,0.3,2.1,1.2,2.5,2.3
		c0.2,1.2-0.4,2.5-1.4,3.2c-1.1,0.6-2.4,0.8-3.6,0.7c-4.1-0.5-7.2-3.6-10.1-6.5c-2.9-2.9-7.9-7.1-8.9-11.3c-1-4.2-0.8-9.7-1.3-14.1
		c-0.5-4.5-0.7-9.4,2.2-12.7c1.1-1.3,2.6-2,4.3-2c4.2,0.4,1.9,8.5,1.3,10.8c-1,4.9-1.5,10-1.3,15C41.2,115.7,42.5,119.3,42.9,120.2
		L42.9,120.2z"/>
	<circle class="st10" cx="171.4" cy="33.8" r="29.6"/>
	<path class="st9" d="M176.3,25.8l6,3.2l-1.1-6.7l4.8-4.7l-6.7-1l-3-6.1l-3,6.1l-6.7,1l4.8,4.7l-1.1,6.7L176.3,25.8z"/>
	<path class="st7" d="M72.2,32.1c0,5.1-4.2,9.3-9.3,9.2c-5.1,0-9.3-4.2-9.3-9.3c0-5.1,4.1-9.3,9.3-9.3C68.1,22.8,72.2,27,72.2,32.1
		C72.2,32.1,72.2,32.1,72.2,32.1z M38.7,39.1c0,2.7-2,4.9-4.4,4.9s-4.4-2.2-4.4-4.9s2-4.9,4.4-4.9S38.7,36.5,38.7,39.1z M84.6,35.6
		c0,0.7-0.6,1.3-1.3,1.3s-1.3-0.6-1.3-1.3s0.6-1.3,1.3-1.3S84.6,34.9,84.6,35.6z M73.1,51.7c-0.1,1.2-1.1,2.1-2.4,2
		c-1.2-0.1-2.1-1.1-2-2.4c0,0,0,0,0,0c0.1-1.2,1.2-2.1,2.4-2C72.3,49.4,73.2,50.5,73.1,51.7z"/>
	<path class="st10" d="M160.4,181.2c0-3.2,2.6-5.7,5.7-5.7s5.7,2.6,5.7,5.7c0,3.2-2.6,5.7-5.7,5.7c0,0,0,0,0,0
		C163,186.9,160.4,184.3,160.4,181.2C160.4,181.2,160.4,181.2,160.4,181.2z"/>
	<circle class="st5" cx="91.2" cy="12.7" r="13.7"/>
	<path class="st9" d="M84.2,11.4c0.3,0,0.5-0.3,0.5-0.6c0-0.5,0.2-1,0.5-1.3c0.4-0.3,0.8-0.3,1.2,0s0.6,0.8,0.5,1.3
		c0,0.4,0.2,0.6,0.5,0.6c0.3,0,0.5-0.3,0.5-0.6c0.1-1-0.3-2-1.1-2.5c-0.7-0.5-1.6-0.5-2.3,0c-0.7,0.5-1.1,1.5-1.1,2.5
		c0,0.2,0.1,0.3,0.2,0.5C83.9,11.3,84.1,11.3,84.2,11.4z M93.9,11.4c0.3,0,0.5-0.3,0.5-0.6c0-0.5,0.2-1,0.5-1.3
		c0.4-0.3,0.8-0.3,1.2,0c0.4,0.3,0.6,0.8,0.5,1.3c0,0.4,0.2,0.6,0.5,0.6c0.3,0,0.5-0.3,0.5-0.6c0.1-1-0.3-2-1.1-2.5
		c-0.7-0.5-1.6-0.5-2.3,0c-0.7,0.5-1.1,1.5-1.1,2.5C93.4,11.1,93.6,11.4,93.9,11.4z M99.1,15.8c-0.4-0.1-0.8,0-1,0.3
		c-0.3,0.6-0.8,1.1-1.5,1.6c-0.7,0.5-1.5,0.8-2.3,1.1c-1.8,0.5-3.8,0.5-5.6,0c-1.7-0.5-3.1-1.5-3.8-2.7c-0.2-0.3-0.6-0.4-1-0.3
		c-0.2,0.1-0.3,0.2-0.4,0.3c-0.1,0.1-0.1,0.3,0,0.4c0.4,0.7,1,1.4,1.8,1.9c1.6,1.1,3.8,1.8,6.1,1.8c2.3,0,4.5-0.6,6.1-1.8
		c0.8-0.6,1.4-1.2,1.8-2C99.6,16.2,99.5,15.9,99.1,15.8z"/>
	<g>
		<path class="st7" d="M130.4,129.4c-3.6,0-6.8,2.1-8.2,5.2c-1.4,3.2-0.6,6.8,1.9,9.2c2.5,2.4,6.3,3.1,9.6,1.8
			c3.3-1.3,5.4-4.4,5.4-7.8C139.2,133.2,135.3,129.4,130.4,129.4L130.4,129.4z M130.4,145.2c-3.1,0-5.9-1.8-7.1-4.5
			c-1.2-2.7-0.5-5.9,1.7-8c2.2-2.1,5.5-2.7,8.3-1.6c2.9,1.1,4.7,3.8,4.7,6.8C138.1,141.9,134.7,145.2,130.4,145.2L130.4,145.2z"/>
		<path class="st7" d="M126.2,135.4c0.3,0,0.6-0.3,0.6-0.7c0-0.2,0.1-0.5,0.2-0.6c0.1-0.2,0.3-0.3,0.5-0.3c0.4,0,0.8,0.4,0.8,0.9
			c0,0.4,0.3,0.7,0.6,0.7c0.3,0,0.6-0.3,0.6-0.7c0-1.3-0.9-2.3-2-2.3c-0.5,0-1,0.2-1.4,0.7c-0.4,0.4-0.6,1-0.6,1.6
			c0,0.2,0.1,0.4,0.2,0.5C125.9,135.3,126.1,135.4,126.2,135.4L126.2,135.4z M132,135.4c0.3,0,0.6-0.3,0.6-0.7
			c0-0.5,0.3-0.9,0.8-0.9c0.4,0,0.8,0.4,0.8,0.9c0,0.4,0.3,0.7,0.6,0.7c0.3,0,0.6-0.3,0.6-0.7c0-1.3-0.9-2.3-2-2.3
			c-1.1,0-1.9,1-1.9,2.3C131.4,135,131.7,135.3,132,135.4L132,135.4z M135.5,137.8c-0.6-0.5-1.4-0.3-2.5-0.1c-1.6,0.4-3.2,0.4-4.8,0
			c-1.1-0.2-2-0.4-2.5,0.1c-0.3,0.3-0.5,0.8-0.5,1.2c0.1,1.5,0.7,2.8,1.7,3.8c1,1,2.3,1.6,3.6,1.6h0.2c1.3,0,2.6-0.6,3.5-1.6
			c1-1,1.6-2.4,1.7-3.8C136,138.6,135.8,138.2,135.5,137.8L135.5,137.8z M133.4,142.1c-0.8,0.8-1.8,1.3-2.9,1.2
			c-1.1,0-2.1-0.4-2.9-1.2c-0.8-0.8-1.3-1.9-1.4-3c0-0.2,0-0.3,0.1-0.4c0.1,0,1,0,1.7,0.1c0.8,0.2,1.7,0.3,2.6,0.3
			c0.9,0,1.7-0.1,2.6-0.2c0.7-0.1,1.5-0.3,1.7-0.1c0.1,0.1,0.1,0.2,0.1,0.4C134.8,140.2,134.2,141.3,133.4,142.1L133.4,142.1z"/>
	</g>
	<g>
		<path class="st7" d="M109.3,112.6c-3.6,0-6.8,2.1-8.2,5.2s-0.6,6.8,1.9,9.2c2.5,2.4,6.3,3.1,9.6,1.8c3.3-1.3,5.4-4.4,5.4-7.8
			C118.1,116.4,114.1,112.6,109.3,112.6L109.3,112.6z M109.3,128.4c-3.1,0-5.9-1.8-7.1-4.5c-1.2-2.7-0.5-5.9,1.7-8
			c2.2-2.1,5.5-2.7,8.3-1.6c2.9,1.1,4.7,3.8,4.7,6.8C116.9,125.1,113.5,128.4,109.3,128.4L109.3,128.4z"/>
		<path class="st7" d="M105.5,120.2c0.3,0,0.6-0.3,0.6-0.7c0-0.2,0.1-0.5,0.2-0.6c0.1-0.2,0.3-0.3,0.5-0.3c0.4,0,0.8,0.4,0.8,0.9
			c0,0.4,0.3,0.7,0.6,0.7c0.3,0,0.6-0.3,0.6-0.7c0-1.3-0.9-2.3-2-2.3c-0.5,0-1,0.2-1.4,0.7c-0.4,0.4-0.6,1-0.6,1.6
			c0,0.2,0.1,0.4,0.2,0.5C105.1,120.1,105.3,120.2,105.5,120.2z M110.7,120.2c0.3,0,0.6-0.3,0.6-0.7c0-0.5,0.3-0.9,0.8-0.9
			c0.4,0,0.8,0.4,0.8,0.9c0,0.4,0.3,0.7,0.6,0.7c0.3,0,0.6-0.3,0.6-0.7c0-1.3-0.9-2.3-2-2.3c-1.1,0-1.9,1-1.9,2.3
			C110.1,119.9,110.4,120.2,110.7,120.2z M113.4,121.7c-0.2-0.1-0.4,0-0.5,0.3c-0.2,0.6-0.5,1.1-0.8,1.6c-0.3,0.4-0.8,0.8-1.3,1.1
			c-1,0.5-2.1,0.5-3.1,0c-1-0.5-1.7-1.5-2.1-2.7c-0.1-0.3-0.3-0.4-0.5-0.3c-0.1,0.1-0.2,0.2-0.2,0.3c0,0.1,0,0.3,0,0.4
			c0.2,0.7,0.6,1.4,1,1.9c0.9,1.1,2.1,1.8,3.4,1.8c1.3,0,2.5-0.6,3.4-1.8c0.4-0.6,0.8-1.3,1-2C113.7,122,113.6,121.8,113.4,121.7
			L113.4,121.7z"/>
	</g>
	<path class="st9" d="M110.2,35.2h56.4c7.8,0,14.1,6.8,14.1,15.2v42c0,8.4-6.4,15.2-14.1,15.2H161l-10.4,20.1l-10.4-20.1h-30.1
		c-7.8,0-14.1-6.8-14.1-15.2v-42C96,42,102.4,35.2,110.2,35.2z"/>
	<path class="st11" d="M156.1,65.5c-0.8-2.1-2.2-3.8-4.1-5.1c-6.6-4.4-12.8,2.9-12.8,2.9s-6.2-7.3-12.8-2.9c-1.9,1.2-3.3,3-4.1,5.1
		c-1.6,3.9-2.6,13,16.8,23.5C158.8,78.5,157.7,69.3,156.1,65.5z"/>
</g>
</svg>
