<svg xmlns="http://www.w3.org/2000/svg" width="143" height="161" viewBox="0 0 143 161">
    <defs>
        <linearGradient id="a" x1=".985%" x2="99.415%" y1="50.004%" y2="50.004%">
            <stop offset="0%" stop-color="#00A0FF"/>
            <stop offset="100%" stop-color="#83D1FF"/>
        </linearGradient>
    </defs>
    <g fill="none" fill-rule="nonzero">
        <path fill="url(#a)" d="M111.703 63.112C99.82 53.42 96.2 41.57 88.1 27.886 76.343 8.05 56.063-4.844 37.044 1.73 24.46 6.076 14.092 18.928 8.304 34.417c-8.747 23.46-10.867 54.158-.933 77.11 24.234 56.02 81.948 63.92 119.286 26.466 7.57-7.59 14.524-17.662 15.998-30.12 3.275-27.663-17.488-33.786-30.952-44.761z"/>
        <path fill="#D9EAFC" d="M64.176 126.523c3.513 0 6.75 1.687 8.657 4.512a.28.28 0 0 0 .213.12c.1.001.176-.031.229-.088 2.86-3.089 6.972-4.86 11.281-4.86 1.469 0 2.887.205 4.23.581l-4.956-12.125H66.295l-5.01 12.258a10.702 10.702 0 0 1 2.891-.398z"/>
        <g fill="#AEC1ED">
            <path d="M68.355 113.14h-2.307l-5.055 12.106a11.05 11.05 0 0 1 2.464-.377l4.898-11.73z"/>
            <path d="M58.527 137.227a.26.26 0 0 0 .111.173.292.292 0 0 0 .21.048c1-.149 2.005-.224 2.986-.224 4.791 0 9.362 1.682 12.87 4.736a.29.29 0 0 0 .192.07.29.29 0 0 0 .19-.07c3.51-3.054 8.08-4.736 12.871-4.736.981 0 1.986.075 2.986.224l.044.003c.06 0 .118-.018.166-.051a.26.26 0 0 0 .111-.173c.518-3.256 1.83-6.34 3.798-9.03-2.768-2.428-6.49-3.918-10.586-3.918-4.617 0-8.76 1.892-11.595 4.888-1.898-2.752-5.206-4.576-8.97-4.576-3.613 0-6.803 1.679-8.733 4.245 1.718 2.536 2.872 5.39 3.349 8.391z"/>
        </g>
        <path fill="#445EA0" d="M58.929 138.513c-1.667-10.829-11.336-19.137-23.017-19.137-8.109 0-15.246 4.005-19.412 10.077 6.378 10.342 15.624 18.84 26.678 24.479 1.182-7.904 7.6-14.169 15.75-15.419z"/>
        <path fill="#293D7C" d="M38.442 122.106c5.99 0 11.482 2.01 15.772 5.348-4.308-4.932-10.823-8.078-18.118-8.078-8.186 0-15.39 3.96-19.596 9.962.555.882 1.134 1.75 1.732 2.603 4.506-5.953 11.876-9.835 20.21-9.835z"/>
        <path fill="#445EA0" d="M114.159 119.376c-11.681 0-21.35 8.308-23.016 19.137 8.15 1.25 14.568 7.515 15.75 15.419 11.054-5.64 20.3-14.138 26.678-24.48-4.165-6.07-11.303-10.076-19.412-10.076z"/>
        <g fill="#293D7C">
            <path d="M116.181 119.536c-.47-.026-.945-.04-1.423-.04-11.81 0-21.586 8.188-23.27 18.86.877.13 1.734.321 2.568.56 2.34-10.083 11.144-17.892 22.125-19.38z"/>
            <path d="M88.46 138.127c-5.044 0-9.63 1.838-13.05 4.836-3.42-2.999-8.005-4.836-13.05-4.836-9.64 0-17.615 6.704-18.952 15.427C52.963 158.305 63.852 161 75.411 161c11.559 0 22.447-2.695 32.002-7.446-1.337-8.723-9.312-15.427-18.953-15.427z"/>
        </g>
        <path fill="#1A2B63" d="M66.334 140.499c2.66 0 5.2.49 7.523 1.38-3.22-2.291-7.218-3.655-11.555-3.655-9.71 0-17.741 6.806-19.088 15.662a70.342 70.342 0 0 0 3.459 1.616c1.975-8.578 10.024-15.003 19.661-15.003z"/>
        <g fill="#AEC1ED">
            <path d="M81.828 113.138h-4.112l.524 3.896c.141 1.049 1.164 1.79 2.28 1.659 1.117-.133 1.909-1.09 1.768-2.14l-.46-3.415zM69.573 113.138l-1.078 8.01c-.141 1.049.65 2.007 1.768 2.14.087.01.173.014.258.014 1.013 0 1.891-.707 2.022-1.674l1.143-8.49h-4.113z"/>
        </g>
        <path fill="#E93D37" d="M54.004 77.217c0-2.187.083-4.369.238-6.534-6.53 3.634-11.028 11.73-11.028 21.102 0 4.95 1.246 9.67 3.602 13.652a1.204 1.204 0 0 0 1.49.5c3.097-1.252 6.406-1.894 9.837-1.921-2.71-8.242-4.139-17.446-4.139-26.799z"/>
        <path fill="#B7092B" d="M46.283 91.785c0-7.741 3.063-14.608 7.799-18.813.036-.765.078-1.528.132-2.29-6.513 3.635-11 11.73-11 21.103 0 4.95 1.243 9.67 3.592 13.652a1.2 1.2 0 0 0 1.488.5c.509-.207 1.026-.39 1.546-.564-2.327-3.967-3.557-8.664-3.557-13.588z"/>
        <g fill="#E93D37">
            <path d="M97.654 70.776c.161 2.114.247 4.243.247 6.378 0 9.129-1.485 18.112-4.301 26.157 3.566.026 7.005.653 10.223 1.874.153.059.314.086.471.086a1.27 1.27 0 0 0 1.078-.573c2.449-3.886 3.743-8.494 3.743-13.325 0-9.148-4.675-17.05-11.461-20.597zM65.414 106.319v6.035c0 .72.635 1.31 1.41 1.31h18.78c.776 0 1.41-.59 1.41-1.31v-6.035h-21.6z"/>
        </g>
        <path fill="#B7092B" d="M70.072 112.618v-5.808h-4.858v5.808c0 .693.643 1.26 1.428 1.26H71.5c-.785 0-1.428-.567-1.428-1.26z"/>
        <path fill="#E93D37" d="M32.27 20.7c-.764-1.837-2.093-3.413-3.812-4.524-6.138-3.924-11.933 2.615-11.933 2.615s-5.794-6.539-11.933-2.615c-1.74 1.103-3.088 2.68-3.868 4.524-1.472 3.44-2.477 11.587 15.746 20.924C34.748 32.287 33.757 24.14 32.27 20.7z"/>
        <path fill="#EEF6FF" d="M93.402 48.693H59.026c-3.15 8.579-4.812 18.236-4.812 28.123 0 10.279 1.805 20.382 5.218 29.218.18.466.65.776 1.175.776h31.215c.525 0 .994-.31 1.174-.776 3.414-8.836 5.218-18.94 5.218-29.218 0-9.887-1.661-19.544-4.812-28.123z"/>
        <path fill="#D9EAFC" d="M63.275 106.034c-3.355-8.836-5.128-18.94-5.128-29.218 0-9.887 1.633-19.544 4.729-28.123h-3.933c-3.096 8.579-4.729 18.236-4.729 28.123 0 10.279 1.773 20.382 5.128 29.218.177.466.637.776 1.153.776h3.934c-.516 0-.977-.31-1.154-.776z"/>
        <path fill="#E93D37" d="M67.571 48.693v4.828c0 .8.644 1.455 1.432 1.455H82.64c.787 0 1.431-.655 1.431-1.455v-4.828h-16.5z"/>
        <path fill="#B7092B" d="M70.298 53.52v-4.827H67.57v4.828c0 .8.541 1.455 1.203 1.455H71.5c-.661 0-1.202-.655-1.202-1.455z"/>
        <path fill="#E93D37" d="M75.036 25.132c-.273 0-.545.085-.769.254-6.166 4.667-11.36 11.747-15.018 20.474-.39.929-.755 1.876-1.106 2.833h33.786a66.915 66.915 0 0 0-1.106-2.833c-3.66-8.727-8.853-15.807-15.019-20.474a1.273 1.273 0 0 0-.768-.254z"/>
        <path fill="#B7092B" d="M76.214 26.326a35.644 35.644 0 0 0-1.138-.94 1.188 1.188 0 0 0-.737-.254c-.261 0-.522.085-.737.254-5.911 4.667-10.89 11.747-14.399 20.474a68.677 68.677 0 0 0-1.06 2.833h3.75c.337-.957.687-1.904 1.06-2.833 3.281-8.16 7.848-14.88 13.261-19.534z"/>
        <ellipse cx="74.643" cy="73.039" fill="#445EA0" rx="14.143" ry="13.351"/>
        <ellipse cx="75.036" cy="73.039" fill="#69CDFF" rx="9.036" ry="8.639"/>
        <path fill="#52BBEF" d="M69.408 73.039c0 4.23 3.272 7.748 7.592 8.492-.553.095-1.122.147-1.704.147-5.134 0-9.296-3.868-9.296-8.64 0-4.77 4.162-8.638 9.296-8.638.582 0 1.151.052 1.704.147-4.32.744-7.592 4.262-7.592 8.492z"/>
        <path fill="#FFD00D" d="M34.178 72.254a.77.77 0 0 1-.71-.45c-1.512-3.458-2.627-4.514-6.28-5.946a.728.728 0 0 1-.474-.672c0-.295.188-.56.474-.673 3.653-1.433 4.768-2.489 6.28-5.947a.77.77 0 0 1 .71-.449c.311 0 .591.177.71.45 1.513 3.457 2.628 4.513 6.28 5.946a.728.728 0 0 1 .475.673c0 .294-.187.56-.475.672-3.652 1.432-4.767 2.488-6.28 5.946a.77.77 0 0 1-.71.45z"/>
        <path fill="#FFAF10" d="M35.727 71.036c-1.645-3.637-2.857-4.748-6.827-6.255a.807.807 0 0 1-.436-.381c-.381.164-.788.328-1.234.497-.312.119-.516.398-.516.707 0 .31.204.59.516.707 3.97 1.507 5.183 2.618 6.827 6.255a.84.84 0 0 0 .772.473.84.84 0 0 0 .772-.473c.184-.408.364-.78.542-1.13a.8.8 0 0 1-.416-.4z"/>
        <path fill="#FFF" d="M119.036 94.244a.69.69 0 0 1-.636-.4c-1.353-3.074-2.35-4.012-5.618-5.285a.648.648 0 0 1-.425-.598c0-.262.168-.497.425-.597 3.268-1.274 4.265-2.213 5.618-5.287a.69.69 0 0 1 .636-.399.69.69 0 0 1 .635.4c1.353 3.073 2.351 4.012 5.62 5.286.256.1.423.335.423.597a.648.648 0 0 1-.424.598c-3.268 1.273-4.266 2.211-5.62 5.286a.689.689 0 0 1-.634.399z"/>
        <path fill="#D9EAFC" d="M119.868 91.82c-1.37-2.976-2.38-3.885-5.69-5.118a.668.668 0 0 1-.363-.312c-.317.134-.656.268-1.028.407-.26.097-.43.325-.43.579 0 .253.17.481.43.578 3.309 1.233 4.319 2.141 5.689 5.118a.7.7 0 0 0 .643.387.7.7 0 0 0 .643-.387c.154-.334.303-.64.452-.925a.66.66 0 0 1-.346-.327z"/>
        <path fill="#F49F0A" d="M110.393 49.478a.77.77 0 0 1-.71-.45c-1.513-3.458-2.628-4.514-6.28-5.946a.728.728 0 0 1-.474-.672c0-.294.187-.56.474-.672 3.652-1.433 4.767-2.49 6.28-5.947a.77.77 0 0 1 .71-.45.77.77 0 0 1 .71.45c1.513 3.458 2.628 4.514 6.28 5.947a.728.728 0 0 1 .474.672c0 .294-.187.56-.474.672-3.653 1.432-4.767 2.489-6.28 5.947a.77.77 0 0 1-.71.449z"/>
        <path fill="#EF8318" d="M111.941 48.261c-1.644-3.638-2.857-4.749-6.827-6.255a.809.809 0 0 1-.436-.382c-.38.164-.788.328-1.234.497-.312.119-.515.398-.515.708 0 .309.203.588.515.707 3.97 1.506 5.183 2.617 6.827 6.255a.84.84 0 0 0 .772.472.84.84 0 0 0 .772-.472c.185-.409.364-.782.542-1.13a.798.798 0 0 1-.416-.4z"/>
    </g>
</svg>
