<?xml version="1.0" encoding="utf-8"?>
<!-- Generator: Adobe Illustrator 23.0.2, SVG Export Plug-In . SVG Version: 6.00 Build 0)  -->
<svg version="1.1" id="Capa_1" xmlns="http://www.w3.org/2000/svg" xmlns:xlink="http://www.w3.org/1999/xlink" x="0px" y="0px"
	 viewBox="0 0 41 41" style="enable-background:new 0 0 41 41;" xml:space="preserve">
<style type="text/css">
	.st0{fill-rule:evenodd;clip-rule:evenodd;fill:#00A0FF;}
	.st1{fill:#FFFFFF;}
</style>
<g>
	<g>
		<path class="st0" d="M2.3,0h36.3C40,0,41,1,41,2.3v36.3c0,1.3-1,2.3-2.3,2.3H2.3C1,41,0,40,0,38.7V2.3C0,1,1,0,2.3,0z"/>
	</g>
	<path class="st1" d="M20.2,15.4l-8.4,7.4v8c0,0.4,0.3,0.8,0.7,0.8l5.1,0c0.4,0,0.7-0.4,0.7-0.8v-4.7c0-0.4,0.3-0.8,0.7-0.8H22
		c0.4,0,0.7,0.4,0.7,0.8v4.7c0,0.2,0.1,0.4,0.2,0.6c0.1,0.1,0.3,0.2,0.5,0.2l5.1,0c0.4,0,0.7-0.4,0.7-0.8v-8l-8.4-7.4
		C20.7,15.2,20.4,15.2,20.2,15.4z M33.8,20.9l-3.9-3.3v-6.6c0-0.3-0.2-0.6-0.6-0.6h-2.6c-0.3,0-0.6,0.3-0.6,0.6v3.4l-4.2-3.5
		c-0.8-0.7-2-0.7-2.9,0L7.2,20.9C7,21.1,7,21.5,7.2,21.7l1.2,1.5c0.2,0.2,0.5,0.3,0.8,0.1c0,0,0,0,0,0l11-9.2c0.2-0.2,0.5-0.2,0.7,0
		l11,9.2c0.2,0.2,0.6,0.2,0.8-0.1c0,0,0,0,0,0l1.2-1.5C34,21.5,34,21.1,33.8,20.9z"/>
</g>
</svg>
