<?xml version="1.0" encoding="utf-8"?>
<!-- Generator: Adobe Illustrator 23.0.3, SVG Export Plug-In . SVG Version: 6.00 Build 0)  -->
<svg version="1.1" id="Capa_1" focusable="false" xmlns="http://www.w3.org/2000/svg" xmlns:xlink="http://www.w3.org/1999/xlink"
	 x="0px" y="0px" viewBox="0 0 512 512" style="enable-background:new 0 0 512 512;" xml:space="preserve">
<style type="text/css">
	.st0{fill:#D1D1D1;}
</style>
<path class="st0" d="M432,256H184V152.9c0-39.6,31.7-72.5,71.3-72.9c40-0.4,72.7,32.1,72.7,72v16c0,13.3,10.7,24,24,24h32
	c13.3,0,24-10.7,24-24v-16C408,68,339.5-0.3,255.5,0S104,69.5,104,153.5V256H80c-26.5,0-48,21.5-48,48v160c0,26.5,21.5,48,48,48h352
	c26.5,0,48-21.5,48-48V304C480,277.5,458.5,256,432,256z M296,408c0,22.1-17.9,40-40,40s-40-17.9-40-40v-48c0-22.1,17.9-40,40-40
	s40,17.9,40,40V408z"/>
</svg>
