<?xml version="1.0" encoding="utf-8"?>
<!-- Generator: Adobe Illustrator 23.0.3, SVG Export Plug-In . SVG Version: 6.00 Build 0)  -->
<svg version="1.1" id="Capa_1" xmlns="http://www.w3.org/2000/svg" xmlns:xlink="http://www.w3.org/1999/xlink" x="0px" y="0px"
	 viewBox="0 0 40 40" style="enable-background:new 0 0 40 40;" xml:space="preserve">
<style type="text/css">
	.st0{fill-rule:evenodd;clip-rule:evenodd;fill:#FFFFFF;}
	.st1{fill:#00A0FF;}
</style>
<g>
	<g>
		<path class="st0" d="M20,0L20,0c11,0,20,9,20,20l0,0c0,11-9,20-20,20l0,0C9,40,0,31,0,20l0,0C0,9,9,0,20,0z"/>
	</g>
</g>
<path class="st1" d="M28.7,12H11.3c-1.1,0-2,0.9-2,2v12c0,1.1,0.9,2,2,2h17.3c1.1,0,2-0.9,2-2V14C30.7,12.9,29.8,12,28.7,12z
	 M28.7,14v1.7c-0.9,0.8-2.4,1.9-5.6,4.4C22.4,20.7,21,22,20,22c-1,0-2.4-1.3-3.1-1.9c-3.2-2.5-4.7-3.7-5.6-4.4V14H28.7z M11.3,26
	v-7.7c1,0.8,2.3,1.8,4.4,3.4c0.9,0.7,2.5,2.3,4.3,2.3c1.8,0,3.4-1.5,4.3-2.3c1.5-1.1,2.9-2.3,4.4-3.4V26H11.3z"/>
</svg>
