<?xml version="1.0" encoding="utf-8"?>
<!-- Generator: Adobe Illustrator 23.0.3, SVG Export Plug-In . SVG Version: 6.00 Build 0)  -->
<svg version="1.1" id="Capa_1" xmlns="http://www.w3.org/2000/svg" xmlns:xlink="http://www.w3.org/1999/xlink" x="0px" y="0px"
	 viewBox="0 0 41 41" style="enable-background:new 0 0 41 41;" xml:space="preserve">
<style type="text/css">
	.st0{fill-rule:evenodd;clip-rule:evenodd;}
	.st1{fill-rule:evenodd;clip-rule:evenodd;fill:#00A0FF;}
	.st2{fill:#FFFFFF;}
</style>
<g>
	<g transform="translate(10 8)">
		<g>
			<path id="b" class="st0" d="M-7.7-8h36.3C30-8,31-7,31-5.7v36.3c0,1.3-1,2.3-2.3,2.3H-7.7C-9,33-10,32-10,30.7V-5.7
				C-10-7-9-8-7.7-8z"/>
		</g>
		<g>
			<path class="st1" d="M-7.7-8h36.3C30-8,31-7,31-5.7v36.3c0,1.3-1,2.3-2.3,2.3H-7.7C-9,33-10,32-10,30.7V-5.7C-10-7-9-8-7.7-8z"/>
		</g>
	</g>
	<path class="st2" d="M31.6,20.5c0,6.1-5,11.1-11.1,11.1s-11.1-5-11.1-11.1c0-6.1,5-11.1,11.1-11.1S31.6,14.4,31.6,20.5z M20.8,13.1
		c-2.4,0-4,1-5.2,2.9c-0.2,0.2-0.1,0.6,0.1,0.7l1.6,1.2c0.2,0.2,0.6,0.1,0.7-0.1c0.8-1,1.4-1.6,2.6-1.6c0.9,0,2.1,0.6,2.1,1.5
		c0,0.7-0.6,1-1.5,1.5c-1.1,0.6-2.5,1.3-2.5,3.2v0.2c0,0.3,0.2,0.5,0.5,0.5h2.5c0.3,0,0.5-0.2,0.5-0.5v-0.1c0-1.3,3.7-1.3,3.7-4.8
		C26,15,23.3,13.1,20.8,13.1z M20.5,24.2c-1.1,0-2.1,0.9-2.1,2.1c0,1.1,0.9,2.1,2.1,2.1s2.1-0.9,2.1-2.1
		C22.6,25.1,21.6,24.2,20.5,24.2z"/>
</g>
</svg>
