<?xml version="1.0" encoding="utf-8"?>
<!-- Generator: Adobe Illustrator 23.0.3, SVG Export Plug-In . SVG Version: 6.00 Build 0)  -->
<svg version="1.1" id="Capa_1" xmlns="http://www.w3.org/2000/svg" xmlns:xlink="http://www.w3.org/1999/xlink" x="0px" y="0px"
	 viewBox="0 0 41 41" style="enable-background:new 0 0 41 41;" xml:space="preserve">
<style type="text/css">
	.st0{fill-rule:evenodd;clip-rule:evenodd;}
	.st1{fill-rule:evenodd;clip-rule:evenodd;fill:#00A0FF;}
	.st2{fill:#FFFFFF;}
</style>
<g>
	<g transform="translate(10 8)">
		<g>
			<path id="b_1_" class="st0" d="M-7.7-8h36.3C30-8,31-7,31-5.7v36.3c0,1.3-1,2.3-2.3,2.3H-7.7C-9,33-10,32-10,30.7V-5.7
				C-10-7-9-8-7.7-8z"/>
		</g>
		<g>
			<path class="st1" d="M-7.7-8h36.3C30-8,31-7,31-5.7v36.3c0,1.3-1,2.3-2.3,2.3H-7.7C-9,33-10,32-10,30.7V-5.7C-10-7-9-8-7.7-8z"/>
		</g>
	</g>
	<path class="st2" d="M19.8,10.1L17,15.9l-6.4,0.9C9.4,17,9,18.4,9.8,19.2l4.6,4.5L13.3,30c-0.2,1.1,1,2,2,1.5l5.7-3l5.7,3
		c1,0.5,2.2-0.3,2-1.5l-1.1-6.3l4.6-4.5c0.8-0.8,0.4-2.2-0.8-2.4l-6.4-0.9l-2.9-5.8C21.8,9.1,20.3,9.1,19.8,10.1L19.8,10.1z"/>
</g>
</svg>
