<?xml version="1.0" encoding="utf-8"?>
<!-- Generator: Adobe Illustrator 23.0.3, SVG Export Plug-In . SVG Version: 6.00 Build 0)  -->
<svg version="1.1" id="Capa_1" xmlns="http://www.w3.org/2000/svg" xmlns:xlink="http://www.w3.org/1999/xlink" x="0px" y="0px"
	 viewBox="0 0 41 41" style="enable-background:new 0 0 41 41;" xml:space="preserve">
<style type="text/css">
	.st0{fill-rule:evenodd;clip-rule:evenodd;}
	.st1{fill-rule:evenodd;clip-rule:evenodd;fill:#00A0FF;}
	.st2{fill:#FFFFFF;}
</style>
<g>
	<g transform="translate(10 8)">
		<g>
			<path id="b" class="st0" d="M-7.7-8h36.3C30-8,31-7,31-5.7v36.3c0,1.3-1,2.3-2.3,2.3H-7.7C-9,33-10,32-10,30.7V-5.7
				C-10-7-9-8-7.7-8z"/>
		</g>
		<g>
			<path class="st1" d="M-7.7-8h36.3C30-8,31-7,31-5.7v36.3c0,1.3-1,2.3-2.3,2.3H-7.7C-9,33-10,32-10,30.7V-5.7C-10-7-9-8-7.7-8z"/>
		</g>
	</g>
	<path class="st2" d="M33.2,19.8c0-1-0.6-1.9-1.4-2.4v-6.6c0-0.4-0.3-1.4-1.4-1.4c-0.3,0-0.6,0.1-0.9,0.3l-3.7,3
		c-1.9,1.5-4.2,2.3-6.6,2.3H11c-1.5,0-2.8,1.2-2.8,2.8v4.2c0,1.5,1.2,2.8,2.8,2.8l0,0h1.5c-0.1,0.5-0.1,0.9-0.1,1.4
		c0,1.7,0.4,3.3,1.1,4.8c0.2,0.5,0.7,0.7,1.2,0.7h3.2c1.1,0,1.8-1.3,1.1-2.2c-0.7-1-1.1-2.2-1.1-3.4c0-0.5,0.1-0.9,0.2-1.4h1.2
		c2.4,0,4.7,0.8,6.6,2.3l3.7,3c0.2,0.2,0.6,0.3,0.9,0.3c1.1,0,1.4-1,1.4-1.4v-6.6C32.7,21.7,33.2,20.8,33.2,19.8z M29.1,26l-1.4-1.1
		c-2.4-1.9-5.3-2.9-8.3-2.9v-4.2c3,0,6-1,8.3-2.9l1.4-1.1V26z"/>
</g>
</svg>
