<?xml version="1.0" encoding="utf-8"?>
<!-- Generator: Adobe Illustrator 23.0.3, SVG Export Plug-In . SVG Version: 6.00 Build 0)  -->
<svg version="1.1" id="Capa_1" xmlns="http://www.w3.org/2000/svg" xmlns:xlink="http://www.w3.org/1999/xlink" x="0px" y="0px"
	 viewBox="0 0 41 41" style="enable-background:new 0 0 41 41;" xml:space="preserve">
<style type="text/css">
	.st0{fill-rule:evenodd;clip-rule:evenodd;}
	.st1{fill-rule:evenodd;clip-rule:evenodd;fill:#00A0FF;}
	.st2{fill:#FFFFFF;}
</style>
<g>
	<g transform="translate(10 8)">
		<g>
			<path id="b_10_" class="st0" d="M-7.7-8h36.3C30-8,31-7,31-5.7v36.3c0,1.3-1,2.3-2.3,2.3H-7.7C-9,33-10,32-10,30.7V-5.7
				C-10-7-9-8-7.7-8z"/>
		</g>
		<g>
			<path class="st1" d="M-7.7-8h36.3C30-8,31-7,31-5.7v36.3c0,1.3-1,2.3-2.3,2.3H-7.7C-9,33-10,32-10,30.7V-5.7C-10-7-9-8-7.7-8z"/>
		</g>
	</g>
	<path class="st2" d="M28.3,19.1h-1.1V16c0-3.6-3-6.6-6.8-6.6s-6.8,3-6.8,6.6v3.1h-1.1c-1.2,0-2.1,0.9-2.1,2.1v8.3
		c0,1.2,1,2.1,2.1,2.1h15.6c1.2,0,2.1-0.9,2.1-2.1v-8.3C30.5,20,29.5,19.1,28.3,19.1L28.3,19.1z M23.7,19.1h-6.4V16
		c0-1.7,1.4-3.1,3.2-3.1s3.2,1.4,3.2,3.1V19.1L23.7,19.1z"/>
</g>
</svg>
