<?xml version="1.0" encoding="utf-8"?>
<!-- Generator: Adobe Illustrator 23.0.3, SVG Export Plug-In . SVG Version: 6.00 Build 0)  -->
<svg version="1.1" id="Capa_1" xmlns="http://www.w3.org/2000/svg" xmlns:xlink="http://www.w3.org/1999/xlink" x="0px" y="0px"
	 viewBox="0 0 40 40" style="enable-background:new 0 0 40 40;" xml:space="preserve">
<style type="text/css">
	.st0{fill-rule:evenodd;clip-rule:evenodd;fill:#FFFFFF;}
	.st1{fill:#E93D37;}
</style>
<g>
	<g>
		<path class="st0" d="M20,0L20,0c11,0,20,9,20,20l0,0c0,11-9,20-20,20l0,0C9,40,0,31,0,20l0,0C0,9,9,0,20,0z"/>
	</g>
</g>
<g>
	<path class="st1" d="M18.5,20c3.4,0,4.6-3.3,4.9-6.1c0.4-3.4-1.2-5.9-4.9-5.9s-5.3,2.5-4.9,5.9C13.9,16.7,15.1,20,18.5,20z
		 M26.2,21.9c0.1,0,0.2,0,0.3,0c-0.2-0.2-0.4-0.4-0.6-0.6c-0.7-0.5-1.5-0.6-2.3-0.9c-0.3-0.1-0.7-0.3-1-0.4c-1,1.1-2.4,1.7-4,1.7
		c-1.6,0-2.9-0.6-4-1.7c-0.3,0.2-0.7,0.3-1,0.4c-0.8,0.3-1.6,0.4-2.3,0.9c-1.1,0.8-1.4,2.7-1.7,3.9c-0.2,1-0.3,2.1-0.4,3.2
		c0,0.8,0.4,0.9,1.1,1.2c0.9,0.3,1.8,0.5,2.7,0.7c1.8,0.4,3.6,0.6,5.4,0.7c0.9,0,1.8-0.1,2.6-0.2c-0.7-0.9-1-2.1-1-3.2
		C20.3,24.5,23,21.9,26.2,21.9L26.2,21.9z"/>
	<path class="st1" d="M26,23c2.5,0,4.5,2,4.5,4.5S28.5,32,26,32s-4.5-2-4.5-4.5S23.5,23,26,23z M28,25.9c-0.5-0.5-1.3-0.4-1.8,0.1
		L26,26.2L25.8,26c-0.5-0.5-1.3-0.6-1.8-0.1c-0.6,0.5-0.7,1.4-0.1,2c0,0,0,0,0,0.1l1.9,2c0.1,0.1,0.3,0.1,0.4,0l1.9-2
		C28.6,27.4,28.6,26.5,28,25.9C28.1,25.9,28,25.9,28,25.9L28,25.9z"/>
</g>
</svg>
