<?xml version="1.0" encoding="utf-8"?>
<!-- Generator: Adobe Illustrator 23.0.3, SVG Export Plug-In . SVG Version: 6.00 Build 0)  -->
<svg version="1.1" id="Capa_1" xmlns="http://www.w3.org/2000/svg" xmlns:xlink="http://www.w3.org/1999/xlink" x="0px" y="0px"
	 viewBox="0 0 40 40" style="enable-background:new 0 0 40 40;" xml:space="preserve">
<style type="text/css">
	.st0{fill-rule:evenodd;clip-rule:evenodd;fill:#FFFFFF;}
	.st1{fill:#F49F0A;}
</style>
<g>
	<g>
		<path class="st0" d="M20,0L20,0c11,0,20,9,20,20l0,0c0,11-9,20-20,20l0,0C9,40,0,31,0,20l0,0C0,9,9,0,20,0z"/>
	</g>
</g>
<path class="st1" d="M20,9.3c-3.3,0-5.5,1.4-7.2,3.8c-0.3,0.4-0.2,1,0.2,1.4l1.8,1.4c0.4,0.3,1,0.3,1.4-0.2c1-1.3,1.8-2.1,3.4-2.1
	c1.3,0,2.9,0.8,2.9,2.1c0,0.9-0.8,1.4-2,2.1c-1.5,0.8-3.4,1.9-3.4,4.4v0.4c0,0.6,0.4,1,1,1h3c0.6,0,1-0.4,1-1v-0.2
	c0-1.8,5.2-1.9,5.2-6.7C27.3,12.1,23.6,9.3,20,9.3z M19.6,24.9c-1.6,0-2.9,1.3-2.9,2.9c0,1.6,1.3,2.9,2.9,2.9c1.6,0,2.9-1.3,2.9-2.9
	S21.2,24.9,19.6,24.9z"/>
</svg>
