<?xml version="1.0" encoding="utf-8"?>
<!-- Generator: Adobe Illustrator 23.0.3, SVG Export Plug-In . SVG Version: 6.00 Build 0)  -->
<svg version="1.1" id="Capa_1" xmlns="http://www.w3.org/2000/svg" xmlns:xlink="http://www.w3.org/1999/xlink" x="0px" y="0px"
	 viewBox="0 0 41 41" style="enable-background:new 0 0 41 41;" xml:space="preserve">
<style type="text/css">
	.st0{fill-rule:evenodd;clip-rule:evenodd;}
	.st1{fill-rule:evenodd;clip-rule:evenodd;fill:#00A0FF;}
	.st2{fill:#FFFFFF;}
</style>
<g>
	<g transform="translate(10 8)">
		<g>
			<path id="b_1_" class="st0" d="M-7.7-8h36.3C30-8,31-7,31-5.7v36.3c0,1.3-1,2.3-2.3,2.3H-7.7C-9,33-10,32-10,30.7V-5.7
				C-10-7-9-8-7.7-8z"/>
		</g>
		<g>
			<path class="st1" d="M-7.7-8h36.3C30-8,31-7,31-5.7v36.3c0,1.3-1,2.3-2.3,2.3H-7.7C-9,33-10,32-10,30.7V-5.7C-10-7-9-8-7.7-8z"/>
		</g>
	</g>
	<path class="st2" d="M30,28.8H11.9c-0.4,0-0.7,0.3-0.7,0.7v1.4c0,0.4,0.3,0.7,0.7,0.7H30c0.4,0,0.7-0.3,0.7-0.7v-1.4
		C30.7,29.2,30.4,28.8,30,28.8L30,28.8z M32.8,14.9c-1.2,0-2.1,0.9-2.1,2.1c0,0.3,0.1,0.6,0.2,0.9l-3.1,1.9
		c-0.7,0.4-1.5,0.2-1.9-0.5c0,0,0,0,0,0l-3.5-6.2c0.5-0.4,0.8-1,0.8-1.6c0-1.2-1-2.1-2.2-2c-1.1,0-2,0.9-2,2c0,0.7,0.3,1.2,0.8,1.6
		l-3.5,6.2c-0.4,0.7-1.2,0.9-1.9,0.5c0,0,0,0,0,0L11,17.9c0.1-0.3,0.2-0.6,0.2-0.9c0-1.2-0.9-2.1-2.1-2.1c-1.2,0-2.1,1-2,2.1
		c0,1.1,0.9,2,2,2c0.1,0,0.2,0,0.3,0l3.1,8.4h16.7l3.1-8.4c0.1,0,0.2,0,0.3,0c1.2,0,2.1-1,2-2.1C34.8,15.9,33.9,15,32.8,14.9z"/>
</g>
</svg>
