<svg xmlns="http://www.w3.org/2000/svg" width="176" height="31" viewBox="0 0 176 31">
    <g fill="none" fill-rule="nonzero">
        <path fill="#383838" d="M38.679 9.102h-4.813c-.47 0-.854-.357-.868-.807.008-.46.395-.832.875-.84h11.516c.48.008.866.38.875.84-.009.456-.4.82-.875.817h-4.816V22.57c0 .503-.425.91-.949.91s-.948-.407-.948-.91l.003-13.468zM46.963 17.618v-.048c-.013-3.65 2.946-6.618 6.609-6.631 3.663-.014 6.644 2.934 6.657 6.582v.049a6.566 6.566 0 0 1-1.948 4.693 6.62 6.62 0 0 1-4.723 1.913 6.533 6.533 0 0 1-4.682-1.897 6.48 6.48 0 0 1-1.913-4.661zm11.32 0v-.048c0-2.72-2.043-4.951-4.725-4.951-2.765 0-4.652 2.23-4.652 4.902v.049c0 2.723 2.018 4.926 4.7 4.926 2.759 0 4.691-2.207 4.691-4.878h-.014zM63.724 11.975c0-.492.438-.89.978-.89s.978.398.978.89V13.6c1.07-1.436 2.615-2.661 5.031-2.661 3.15 0 6.277 2.274 6.277 6.2v.045c0 3.899-3.101 6.222-6.277 6.222-2.44 0-4.014-1.202-5.031-2.544v5.198a.83.83 0 0 1-.271.64c-.183.172-.434.267-.696.264-.265.004-.52-.09-.707-.26a.847.847 0 0 1-.285-.644l.003-14.085zm11.255 5.228v-.045c0-2.82-2.141-4.627-4.64-4.627-2.497 0-4.752 1.875-4.752 4.604v.045c0 2.778 2.312 4.627 4.753 4.627 2.555-.013 4.639-1.709 4.639-4.604zM79.78 9.268c0-1.001.782-1.813 1.746-1.813s1.746.812 1.746 1.813v13.096c0 1.001-.782 1.813-1.746 1.813s-1.745-.812-1.745-1.813V9.268zM88.16 12.855c0-1.006.773-1.822 1.726-1.822.954 0 1.727.816 1.727 1.822V13c.795-1.078 1.82-2.061 3.569-2.061 2.614 0 4.15 1.822 4.15 4.772v6.644c0 1.006-.773 1.822-1.727 1.822-.954 0-1.727-.816-1.727-1.822v-5.49c0-1.727-.773-2.613-2.09-2.613-1.32 0-2.162.886-2.162 2.614v5.489c0 1.006-.773 1.822-1.727 1.822-.953 0-1.727-.816-1.727-1.822l-.012-9.5zM103.078 14.208h-.144a1.531 1.531 0 0 1-1.064-.399 1.354 1.354 0 0 1-.444-.995 1.371 1.371 0 0 1 .44-1.005 1.55 1.55 0 0 1 1.068-.413h.144v-.765c0-1.328.36-2.295 1.028-2.923.668-.63 1.649-.948 2.941-.948.496-.009.991.022 1.481.091.716.107 1.243.69 1.243 1.372-.002.773-.66 1.403-1.481 1.419h-.312c-.837 0-1.317.404-1.317 1.305v.474h1.578c.82 0 1.483.624 1.483 1.395 0 .77-.664 1.395-1.483 1.395h-1.53v7.56c0 .944-.814 1.71-1.817 1.71-1.004 0-1.817-.766-1.817-1.71l.003-7.563zm8.68-5.714c0-.944.814-1.71 1.817-1.71 1.003 0 1.817.766 1.817 1.71v13.273c0 .945-.814 1.71-1.817 1.71-1.003 0-1.817-.765-1.817-1.71V8.494zM130.055 22.26c0 1.006-.773 1.823-1.727 1.823-.954 0-1.727-.817-1.727-1.823v-.145c-.795 1.081-1.82 2.062-3.569 2.062-2.614 0-4.15-1.823-4.15-4.775v-6.64c0-1.007.774-1.823 1.728-1.823.953 0 1.727.816 1.727 1.822v5.493c0 1.728.772 2.614 2.09 2.614 1.319 0 2.161-.886 2.161-2.614V12.76c0-1.006.773-1.822 1.727-1.822.954 0 1.727.816 1.727 1.822l.013 9.499zM141.347 24.174c-4.082 0-7.103-2.665-7.103-6.57v-.048c0-3.628 2.764-6.617 6.722-6.617 4.541 0 6.543 3.485 6.543 6.121.026.458-.154.906-.496 1.235-.342.33-.816.51-1.307.498h-7.63c.382 1.636 1.6 2.492 3.324 2.492a4.657 4.657 0 0 0 2.74-.853c.266-.195.598-.296.936-.283.403-.006.79.143 1.073.412.283.269.436.634.423 1.01.003.408-.181.796-.506 1.067-1.32 1.035-2.998 1.581-4.72 1.536zm2.493-7.64c-.228-1.613-1.243-2.706-2.85-2.706-1.606 0-2.639 1.07-2.942 2.705h5.792zM148.908 12.855c0-1.006.773-1.822 1.727-1.822.953 0 1.726.816 1.726 1.822V13c.795-1.078 1.82-2.061 3.57-2.061 2.613 0 4.149 1.822 4.149 4.772v6.644c0 1.006-.773 1.822-1.727 1.822-.954 0-1.727-.816-1.727-1.822v-5.49c0-1.727-.772-2.613-2.09-2.613-1.319 0-2.159.886-2.159 2.614v5.489c0 1.006-.773 1.822-1.726 1.822-.954 0-1.727-.816-1.727-1.822l-.016-9.5zM164.27 22.674v-.073c0-.714.232-1.186.794-1.828l5.82-6.795h-4.957a1.399 1.399 0 0 1-1.02-.437 1.564 1.564 0 0 1-.428-1.072c.006-.843.65-1.525 1.448-1.53h7.784c1.005 0 1.73.617 1.73 1.506v.072c0 .719-.233 1.187-.794 1.83l-5.844 6.794h5.19c.798.005 1.443.687 1.448 1.53-.007.838-.655 1.512-1.447 1.506h-7.995c-1.004.003-1.73-.614-1.73-1.503z"/>
        <path fill="#E93D37" d="M30.075 1.128a.597.597 0 0 0-.521-.517 16.36 16.36 0 0 0-13.557 4.65L12.01 9.236l-5.753.742a.602.602 0 0 0-.33.17L.352 15.693a.595.595 0 0 0 .33 1.008l4.195.775.825.823-1.753.95a.596.596 0 0 0-.139.945l6.655 6.64a.598.598 0 0 0 .423.174h.085a.598.598 0 0 0 .44-.306l.95-1.75.826.824.777 4.184a.597.597 0 0 0 1.01.313l5.548-5.535a.596.596 0 0 0 .172-.33l.743-5.74 3.986-3.977a16.274 16.274 0 0 0 4.65-13.562zm-25.1 15.14l-2.971-.546 4.597-4.59 4.012-.518-5.637 5.655zm5.774 9.144L5.23 19.906l1.364-.734 4.895 4.883-.74 1.357zm8.758-1.397l-4.6 4.587-.545-2.943 5.664-5.65-.519 4.006zm5.043-10.214L13.718 24.608l-7.715-7.697L16.835 6.104a15.233 15.233 0 0 1 5.615-3.54 7.148 7.148 0 0 0 5.644 5.655 15.192 15.192 0 0 1-3.534 5.592l-.01-.01zm3.907-6.739a5.96 5.96 0 0 1-4.878-4.866 15.292 15.292 0 0 1 5.344-.462 15.19 15.19 0 0 1-.456 5.338l-.01-.01z"/>
        <path fill="#E93D37" d="M16.669 9.271a3.826 3.826 0 0 0-.836 4.177 3.84 3.84 0 0 0 3.549 2.368 3.84 3.84 0 0 0 3.548-2.368 3.826 3.826 0 0 0-.836-4.177 3.846 3.846 0 0 0-5.425 0zm4.538 4.53c-1.004.999-2.63.998-3.632-.004a2.56 2.56 0 0 1 0-3.624 2.573 2.573 0 0 1 3.632-.003 2.564 2.564 0 0 1-.01 3.623l.01.007zM6.29 24.35a.594.594 0 0 0-.84 0L.353 29.436a.592.592 0 0 0 0 .838.595.595 0 0 0 .84 0l5.097-5.086a.592.592 0 0 0 0-.838zM7.543 25.048l-2.301 2.296a.593.593 0 0 0 0 .84c.232.231.609.231.841 0l2.301-2.297a.593.593 0 0 0-.266-.993.596.596 0 0 0-.575.154zM4.37 29.054a.698.698 0 0 0-.39 1.276.7.7 0 0 0 1.035-.845.706.706 0 0 0-.645-.43zM2.392 25.263a.7.7 0 0 0 1.276-.328.701.701 0 0 0-1.2-.546.702.702 0 0 0-.076.874zM4.605 23.32l.302-.301a.545.545 0 0 0-.245-.914.548.548 0 0 0-.529.142l-.302.301a.545.545 0 0 0 0 .772c.214.213.56.213.774 0z"/>
    </g>
</svg>
