<?xml version="1.0" encoding="utf-8"?>
<!-- Generator: Adobe Illustrator 23.0.2, SVG Export Plug-In . SVG Version: 6.00 Build 0)  -->
<svg version="1.1" id="Capa_1" xmlns="http://www.w3.org/2000/svg" xmlns:xlink="http://www.w3.org/1999/xlink" x="0px" y="0px"
	 viewBox="0 0 30 30" style="enable-background:new 0 0 30 30;" xml:space="preserve">
<style type="text/css">
	.st0{fill:#E93D37;}
</style>
<g>
	<path class="st0" d="M29.9,0.6c0-0.3-0.2-0.5-0.5-0.5c-5-0.6-10,1.1-13.6,4.7l-4,4L6.1,9.5C6,9.5,5.8,9.6,5.7,9.7l-5.6,5.5
		c-0.2,0.2-0.2,0.6,0,0.8c0.1,0.1,0.2,0.1,0.3,0.2L4.7,17l0.8,0.8l-1.8,1c-0.3,0.2-0.4,0.5-0.2,0.8c0,0.1,0.1,0.1,0.1,0.1l6.7,6.6
		c0.1,0.1,0.3,0.2,0.4,0.2h0.1c0.2,0,0.3-0.1,0.4-0.3l0.9-1.8l0.8,0.8l0.8,4.2c0.1,0.3,0.4,0.5,0.7,0.5c0.1,0,0.2-0.1,0.3-0.2
		l5.5-5.5c0.1-0.1,0.2-0.2,0.2-0.3l0.7-5.7l4-4C28.8,10.6,30.5,5.6,29.9,0.6L29.9,0.6z M4.8,15.8l-3-0.5l4.6-4.6l4-0.5L4.8,15.8
		L4.8,15.8z M10.6,24.9l-5.5-5.5l1.4-0.7l4.9,4.9C11.3,23.6,10.6,24.9,10.6,24.9z M19.3,23.5l-4.6,4.6l-0.5-2.9l5.7-5.6L19.3,23.5z
		 M24.4,13.3L13.5,24.1l-7.7-7.7L16.7,5.6c1.6-1.6,3.5-2.8,5.6-3.5c0.6,2.9,2.8,5.1,5.6,5.7C27.2,9.8,26,11.7,24.4,13.3
		C24.4,13.3,24.4,13.3,24.4,13.3z M28.3,6.6c-2.5-0.4-4.4-2.4-4.9-4.9c1.7-0.5,3.5-0.6,5.3-0.5C28.9,3,28.8,4.8,28.3,6.6
		C28.3,6.6,28.3,6.6,28.3,6.6z"/>
	<path class="st0" d="M16.5,8.8c-1.1,1.1-1.4,2.7-0.8,4.2c0.6,1.4,2,2.4,3.5,2.4c1.6,0,3-0.9,3.5-2.4c0.6-1.4,0.3-3.1-0.8-4.2
		C20.4,7.3,18,7.3,16.5,8.8z M21,13.3c-1,1-2.6,1-3.6,0c-1-1-1-2.6,0-3.6c0,0,0,0,0,0c1-1,2.6-1,3.6,0C22,10.7,22,12.3,21,13.3
		L21,13.3L21,13.3z M6.1,23.9c-0.2-0.2-0.6-0.2-0.8,0l-5.1,5.1c-0.2,0.2-0.2,0.6,0,0.8c0,0,0,0,0,0C0.4,30,0.8,30,1,29.8l5.1-5.1
		C6.3,24.5,6.3,24.1,6.1,23.9C6.1,23.9,6.1,23.9,6.1,23.9z M7.4,24.6l-2.3,2.3c-0.2,0.2-0.2,0.6,0,0.8c0,0,0,0,0,0
		c0.2,0.2,0.6,0.2,0.8,0l2.3-2.3c0.2-0.2,0.2-0.6,0-0.8c-0.1-0.1-0.2-0.1-0.3-0.2C7.7,24.4,7.5,24.4,7.4,24.6z M4.2,28.6
		c-0.4,0-0.7,0.3-0.7,0.7c0,0.2,0.1,0.4,0.3,0.6c0.3,0.2,0.8,0.1,1-0.2c0.1-0.2,0.2-0.4,0.1-0.6C4.7,28.7,4.5,28.6,4.2,28.6
		L4.2,28.6z M2.2,24.8c0.2,0.3,0.7,0.4,1,0.2c0.2-0.1,0.3-0.3,0.3-0.5c0-0.4-0.3-0.7-0.6-0.8c-0.2,0-0.4,0.1-0.6,0.2
		C2.1,24.1,2,24.5,2.2,24.8z M4.4,22.8l0.3-0.3c0.2-0.2,0.2-0.6,0-0.8c-0.1-0.1-0.2-0.1-0.2-0.1c-0.2-0.1-0.4,0-0.5,0.1l-0.3,0.3
		c-0.2,0.2-0.2,0.6,0,0.8c0,0,0,0,0,0C3.9,23,4.2,23,4.4,22.8z"/>
</g>
</svg>
