<svg xmlns="http://www.w3.org/2000/svg" width="233" height="162" viewBox="0 0 233 162">
    <g fill="none" fill-rule="nonzero">
        <path fill="#00A0FF" d="M167 110.254C167 124.89 158.27 130 147.5 130s-19.5-5.11-19.5-19.746C128 95.62 147.5 77 147.5 77S167 95.619 167 110.254z"/>
        <path fill="#3F3D56" d="M146.866 115.48L155 100.34l-8.104 13.221.088-5.503 5.606-10.954-5.582 9.498.158-9.898 6.003-8.72-5.979 7.164.1-18.148-.595 22.996-6.079-9.468 6.006 11.408-.57 11.054-.016-.294L139 102.694l7.015 11.039-.071 1.382-.013.021.006.114-1.443 14.75h1.928l.231-1.192 6.997-11.012-6.98 9.923z"/>
        <path fill="#F2F2F2" d="M233 63.371C233 91.261 216.435 101 196 101s-37-9.738-37-37.629C159 35.481 196 0 196 0s37 35.481 37 63.371z"/>
        <path fill="#3F3D56" d="M195.861 97.164l.379-23.445L212 44.713l-15.7 25.328.17-10.542 10.861-20.986-10.816 18.196.306-18.96 11.63-16.707-11.582 13.725L197.06 0l-1.202 46.025.099-1.899-11.826-18.21 11.636 21.855-1.102 21.176-.033-.562L181 49.222l13.591 21.148-.138 2.649-.024.04.011.217L191.645 127h3.734l.449-27.75 13.557-21.096z"/>
        <path fill="#3F3D56" d="M232 121.73c0 8.472-54.134 40.27-117.417 40.27C51.301 162 0 145.543 0 137.07c0-8.472 50.042 1.599 113.324 1.599 63.283 0 118.676-25.412 118.676-16.94z"/>
        <path fill="#000" d="M232 121.73c0 8.472-54.134 40.27-117.417 40.27C51.301 162 0 145.543 0 137.07c0-8.472 50.042 1.599 113.324 1.599 63.283 0 118.676-25.412 118.676-16.94z" opacity=".1"/>
        <path fill="#3F3D56" d="M232 122.406C232 130.578 177.866 152 114.583 152 51.301 152 0 145.375 0 137.203s50.042-7.706 113.324-7.706c63.283 0 118.676-15.263 118.676-7.09z"/>
        <ellipse cx="115.5" cy="139" fill="#000" opacity=".1" rx="48.5" ry="4"/>
        <path fill="#A0616A" d="M76.934 63s14.404.272 11.736 2.853c-2.667 2.581-12.67 0-12.67 0L76.934 63z"/>
        <path fill="#00A0FF" d="M47.41 33.097s5.73-1.026 7.721 3.611c1.992 4.638 6.083 17.864 6.083 17.864s10.948 7.266 12.94 7.028c1.99-.24 5.395.248 4.77 2.426-.624 2.179-.347 4.649-1.784 4.952-1.438.302-3.724-2.588-5.474-1.196-1.75 1.392-17.344-3.692-18.345-4.745C52.32 61.983 44 39.173 44 39.173s.333-6.15 3.41-6.076z"/>
        <path fill="#A0616A" d="M59.394 131l.606 5.547L54.91 138 52 136.547v-4.887zM44.394 134l.606 5.547L39.91 141 37 139.547v-4.887z"/>
        <path fill="#2F2E41" d="M60.543 70.461l2.504 9.166 3.69 18.596s1.054 4.516-1.055 9.963c-2.108 5.446-5.93 23.245-5.139 24.308.79 1.063-8.96 1.86-8.829.797.132-1.063 1.45-15.674 1.45-15.674s1.845-12.885 2.767-14.48c.923-1.593-4.217-5.578-4.217-5.578s-1.317 15.276-3.294 16.604c-1.976 1.328-1.713 21.917-2.635 22.183-.923.266-7.643 1.328-8.434 0-.79-1.328 0-23.511 0-23.511s4.48-16.87 3.558-19.261c-.922-2.391-.395-12.62-.395-12.62S37.088 73.119 38.933 69l21.61 1.461z"/>
        <path fill="#A0616A" d="M60 19.468s-5.547 6.852-5.283 9.883C54.981 32.38 46 23.817 46 23.817s6.472-8.697 6.472-10.542c0-1.845 7.528 6.193 7.528 6.193z"/>
        <circle cx="61" cy="14" r="9" fill="#A0616A"/>
        <path fill="#00A0FF" d="M37.852 64.878c-.39 1.458-.875 3.112-.806 4.504.044.902 2.433 1.494 5.737 1.881 3.063.36 6.913.543 10.412.638 3.675.099 6.96.099 8.54.099 4.702 0 .914-3.01-.915-4.45-1.829-1.44-1.437-21.859-1.306-24.477.13-2.618-1.176-10.21-1.176-11.649 0-1.44-3.074-5.198-3.074-5.198s-.714 2.057-3.588-.692C48.802 22.785 45.014 22 45.014 22c-2.874 1.047-7.707 12.565-7.968 14.529-.106.797-.018 4.88.16 9.54.257 6.813.706 14.867 1.015 15.722.245.674-.026 1.805-.37 3.087z"/>
        <path fill="#A0616A" d="M53.028 73L54 76.302 50.25 80 49 74.849z"/>
        <path fill="#2F2E41" d="M53.091 135.314s2.778 3.086 4.894 1.03c2.116-2.058 1.983-3.344 2.38-3.344.397 0 6.348 5.143 6.348 5.143s10.184 2.315 4.63 3.986c-5.555 1.672-21.294.514-21.294 0s-.396-7.329 1.058-7.329l1.984.514z"/>
        <path fill="#2F2E41" d="M38.091 139.314s2.778 3.086 4.894 1.03c2.116-2.058 1.983-3.344 2.38-3.344.397 0 6.348 5.143 6.348 5.143s10.184 2.315 4.63 3.986c-5.555 1.672-21.294.514-21.294 0s-.396-7.329 1.058-7.329l1.984.514zM50.482 20.743c-.287.18-.66.363-.947.183a40.842 40.842 0 0 1-2.38-8.015c-.182-.963-.308-2.034.243-2.854.217-.324.53-.588.688-.942.24-.536.082-1.157.162-1.736.168-1.215 1.349-2.062 2.536-2.473 1.187-.41 2.476-.538 3.608-1.077 1.074-.512 1.935-1.361 2.93-2.005.997-.644 2.273-1.085 3.383-.65.981.386 1.593 1.359 2.52 1.854.63.336 1.36.43 2.063.574a13.376 13.376 0 0 1 5.364 2.423c.383.266.714.598.976.979 1.19 1.906-.941 4.498 0 6.532l-2.034-1.56a7.11 7.11 0 0 0-1.816-1.123c-.673-.248-1.47-.278-2.082.092-.859.518-1.092 1.602-1.392 2.54-.3.94-.963 1.98-1.973 1.956-1.374-.033-1.855-1.898-3.088-2.488-.803-.385-1.815-.132-2.5.43-.686.561-1.097 1.376-1.399 2.196-.188.513-.365 1.09-.7 1.535-.369.49-.84.53-1.235.896-1.027.953-1.658 1.936-2.927 2.733z"/>
        <path fill="#000" d="M38.647 65.869c1.625 2.396 3.456 4.869 4.934 6.484 3.065.365 6.917.551 10.419.647a8.31 8.31 0 0 0-2.304-2.159c-1.7-1.063-5.752-13.69-5.752-13.69s4.967-13.027 6.274-17.945c1.308-4.918-3.79-7.71-3.79-7.71-2.353-1.993-6.405 2.66-6.405 2.66S39.955 40.497 38 46.767c.257 6.919.707 15.097 1.017 15.965.244.685-.026 1.833-.37 3.136z" opacity=".1"/>
        <path fill="#00A0FF" d="M47.85 30.49s5.094 2.751 3.788 7.6c-1.307 4.848-6.27 17.69-6.27 17.69s4.049 12.448 5.747 13.496c1.699 1.048 4.05 3.538 2.221 4.848-1.829 1.31-3.135 3.407-4.442 2.752-1.306-.655-1.306-4.324-3.527-4.324-2.22 0-11.235-13.628-11.365-15.069-.131-1.441 7.446-24.373 7.446-24.373s4.05-4.586 6.401-2.62z"/>
        <path fill="#E93D37" d="M153.653 65.825l-1.478-1.478a4.598 4.598 0 0 0-6.502 0L117 93.02 88.327 64.347a4.598 4.598 0 0 0-6.502 0l-1.478 1.478a4.598 4.598 0 0 0 0 6.502L109.02 101l-28.673 28.673a4.598 4.598 0 0 0 0 6.502l1.478 1.478a4.598 4.598 0 0 0 6.502 0L117 108.98l28.673 28.673a4.598 4.598 0 0 0 6.502 0l1.478-1.478a4.598 4.598 0 0 0 0-6.502L124.98 101l28.673-28.673a4.598 4.598 0 0 0 0-6.502z"/>
        <path fill="#000" d="M80 133l28-28.724-.27-.276-26.7 27.39A4.74 4.74 0 0 0 80 133zM80.63 66.707a4.676 4.676 0 0 1 6.53 0L115.954 95l28.795-28.293a4.676 4.676 0 0 1 6.53 0l1.485 1.459a4.48 4.48 0 0 1 1.028 4.877l.855-.84A4.497 4.497 0 0 0 156 68.995a4.497 4.497 0 0 0-1.352-3.208l-1.485-1.458a4.676 4.676 0 0 0-6.53 0l-28.795 28.293-28.796-28.293a4.676 4.676 0 0 0-6.53 0l-1.484 1.458A4.512 4.512 0 0 0 80 67.326l.63-.619zM126.15 102l-2.15 2.157 28.768 28.866a4.64 4.64 0 0 1 1.027 4.977l.854-.857a4.637 4.637 0 0 0 0-6.546L126.149 102z" opacity=".1"/>
        <path fill="#00A0FF" d="M34 120.607C34 132.757 26.837 137 18 137s-16-4.242-16-16.393C2 108.457 18 93 18 93s16 15.457 16 27.607z"/>
        <path fill="#3F3D56" d="M16.882 124.946L24 112.376l-7.09 10.977.076-4.569 4.906-9.094-4.885 7.885.138-8.217 5.252-7.24-5.23 5.949L17.253 93l-.52 19.09-5.319-7.859 5.255 9.47-.498 9.177-.014-.243L10 114.33l6.138 9.164-.062 1.148-.012.017.006.094L14.807 137h1.687l.202-.99 6.123-9.142-6.107 8.239z"/>
    </g>
</svg>
