<svg xmlns="http://www.w3.org/2000/svg" xmlns:xlink="http://www.w3.org/1999/xlink" width="155" height="155" viewBox="0 0 155 155">
    <defs>
        <linearGradient id="a" x1=".985%" x2="99.415%" y1="50.004%" y2="50.004%">
            <stop offset="0%" stop-color="#00A0FF"/>
            <stop offset="100%" stop-color="#83D1FF"/>
        </linearGradient>
        <path id="c" d="M52 31a.416.416 0 0 1-.38-.222c-.811-1.713-1.409-2.236-3.366-2.945-.154-.056-.254-.187-.254-.333 0-.146.1-.277.254-.333 1.957-.71 2.555-1.232 3.365-2.944A.416.416 0 0 1 52 24c.168 0 .318.088.381.223.811 1.712 1.409 2.235 3.366 2.944.154.056.254.187.254.333 0 .146-.1.277-.254.333-1.957.71-2.555 1.232-3.366 2.945A.416.416 0 0 1 52 31z"/>
        <filter id="b" width="500%" height="557.1%" x="-200%" y="-200%" filterUnits="objectBoundingBox">
            <feOffset dy="2" in="SourceAlpha" result="shadowOffsetOuter1"/>
            <feGaussianBlur in="shadowOffsetOuter1" result="shadowBlurOuter1" stdDeviation="5"/>
            <feColorMatrix in="shadowBlurOuter1" values="0 0 0 0 0 0 0 0 0 0 0 0 0 0 0 0 0 0 0.05 0"/>
        </filter>
        <path id="e" d="M71 19c-.333 0-.634-.138-.761-.35-1.621-2.69-2.816-3.512-6.73-4.627C63.2 13.936 63 13.73 63 13.5c0-.229.2-.435.508-.523 3.915-1.115 5.11-1.937 6.73-4.627.128-.212.429-.35.762-.35s.633.138.76.35c1.622 2.69 2.817 3.512 6.732 4.627.308.088.508.294.508.523 0 .23-.2.436-.508.523-3.915 1.115-5.11 1.937-6.731 4.627-.128.212-.428.35-.761.35z"/>
        <filter id="d" width="300%" height="390.9%" x="-100%" y="-127.3%" filterUnits="objectBoundingBox">
            <feOffset dy="2" in="SourceAlpha" result="shadowOffsetOuter1"/>
            <feGaussianBlur in="shadowOffsetOuter1" result="shadowBlurOuter1" stdDeviation="5"/>
            <feColorMatrix in="shadowBlurOuter1" values="0 0 0 0 0 0 0 0 0 0 0 0 0 0 0 0 0 0 0.05 0"/>
        </filter>
    </defs>
    <g fill="none" fill-rule="nonzero">
        <path fill="url(#a)" d="M125.731 60.76c-11.114-9.331-14.5-20.74-22.074-33.914C92.662 7.751 73.695-4.663 55.909 1.666 44.14 5.85 34.444 18.222 29.03 33.135c-8.18 22.586-10.163 52.14-.873 74.236 22.665 53.933 76.64 61.538 111.558 25.48 7.079-7.308 13.583-17.005 14.96-28.997 3.065-26.634-16.354-32.528-28.945-43.094z"/>
        <path fill="#AEBFCE" d="M42.116 37.001C38.753 36.941 36 39.585 36 42.723v3.727c0 .856.744 1.55 1.661 1.55H48v-5.403c0-3.055-2.624-5.538-5.884-5.596z"/>
        <path fill="#BF3530" d="M48 78l-8.42 3.81c-4.264 1.93-4.847 7.659-1.057 10.382L48 99V78z"/>
        <path fill="#E93D37" d="M142.824 81.81L133 78v21l11.056-6.808c4.422-2.723 3.742-8.452-1.232-10.382z"/>
        <path fill="#E2E9F2" d="M127.619 37H42c3.524 0 6.381 2.592 6.381 5.79v56.229l19.94 13.207c4.212 2.79 8.89 4.71 13.743 5.774.966-3.764 4.684-6.569 9.127-6.569 4.442 0 8.16 2.805 9.126 6.569 4.854-1.065 9.532-2.984 13.743-5.774L134 99.02v-56.23c0-3.197-2.857-5.789-6.381-5.789z"/>
        <path fill="#C7D6E5" d="M62 107V42.762C62 39.58 58.984 37 55.263 37H42c3.72 0 6.737 2.58 6.737 5.762v55.956L62 107z"/>
        <path fill="#ED5C57" d="M104.389 64.36c-3.482-3.147-9.18-3.147-12.661 0l-.366.332a.55.55 0 0 1-.724 0l-.366-.331c-3.481-3.148-9.179-3.148-12.66 0-3.482 3.147-3.482 8.298 0 11.446L89.28 86.356c.95.859 2.49.859 3.44 0l11.669-10.549c3.481-3.148 3.481-8.299 0-11.446z"/>
        <path fill="#E93D37" d="M85.49 71.92c-2.946-2.678-3.384-6.805-1.317-9.916-2.375-.067-4.773.717-6.575 2.355-3.464 3.148-3.464 8.299 0 11.447l11.606 10.55c.946.859 2.478.859 3.423 0L97 82.38c-1.177-1.07-11.18-10.163-11.51-10.461z"/>
        <path fill="#F3B03A" d="M100.735 56.424c-4.764-4.9-12.689-4.919-17.47 0a1.915 1.915 0 0 1-2.681.056 1.852 1.852 0 0 1-.056-2.645c6.255-6.435 16.666-6.458 22.944 0 .725.746.7 1.93-.056 2.645a1.915 1.915 0 0 1-2.68-.056z"/>
        <path fill="#C7D6E5" d="M97.549 97c-3.128 0-3.571-1.086-5.55-1.086-1.986 0-2.406 1.086-5.549 1.086-3.138 0-3.558-1.086-5.548-1.086-1.05 0-1.902-.652-1.902-1.457S79.851 93 80.902 93c3.138 0 3.558 1.086 5.548 1.086C88.437 94.086 88.854 93 92 93c3.138 0 3.558 1.086 5.549 1.086 1.987 0 2.406-1.086 5.55-1.086 1.05 0 1.901.652 1.901 1.457s-.851 1.457-1.902 1.457c-1.987 0-2.406 1.086-5.55 1.086zM97.549 104c-3.128 0-3.571-1.086-5.55-1.086-1.986 0-2.406 1.086-5.549 1.086-3.138 0-3.558-1.086-5.548-1.086-1.05 0-1.902-.652-1.902-1.457S79.851 100 80.902 100c3.138 0 3.558 1.086 5.548 1.086 1.987 0 2.404-1.086 5.55-1.086 3.133 0 3.569 1.086 5.549 1.086 2.022 0 2.37-1.086 5.55-1.086 1.05 0 1.901.652 1.901 1.457s-.851 1.457-1.902 1.457c-2.022 0-2.37 1.086-5.55 1.086z"/>
        <path fill="#F49F0A" d="M94 49.042c-4.84-.328-9.8 1.27-13.439 4.791-.77.746-.744 1.93.06 2.646.803.716 2.08.69 2.85-.055 2.682-2.596 6.293-3.815 9.85-3.671-1.69-.963-1.23-3.33.679-3.711z"/>
        <path fill="#ED5C57" d="M144.322 91.621l-29.982 19.82c-4.206 2.78-8.877 4.694-13.725 5.755.16.62.246 1.265.246 1.929 0 4.681-4.191 8.476-9.361 8.476-5.17 0-9.361-3.795-9.361-8.476 0-.664.087-1.309.246-1.929-4.848-1.061-9.52-2.975-13.725-5.755l-29.982-19.82C36.918 90.457 36.046 88.731 36 87v36.944c9.647 17.435 29.061 29.827 52.105 30.97 25.457 1.264 48.165-11.558 58.895-30.964V87c-.045 1.731-.917 3.457-2.678 4.621z"/>
        <path fill="#E93D37" d="M48 98.163l-9.478-6.588C36.864 90.422 36.042 88.715 36 87v36.575c3.041 5.778 7.114 10.996 12 15.425V98.163z"/>
        <ellipse cx="92" cy="119.5" fill="#F3B03A" rx="10" ry="8.5"/>
        <path fill="#F49F0A" d="M89.851 125.612c0-.735.262-1.409.698-1.935v-8.354a3.033 3.033 0 0 1 .451-4.311c-.15-.008-.3-.012-.451-.012-4.722 0-8.549 3.806-8.549 8.5 0 4.695 3.827 8.5 8.549 8.5.151 0 .301-.004.451-.012a3.033 3.033 0 0 1-1.149-2.376z"/>
        <g fill="#F28A00">
            <path d="M90.923 118.858c-1.043 0-1.9-.84-1.9-1.865 0-.85.6-1.636 1.53-1.825 1.147-.227 2.271.635 2.271 1.825 0 1.014-.84 1.865-1.901 1.865zM90.923 123.884c-1.06 0-1.9-.85-1.9-1.86 0-.856.601-1.638 1.53-1.827 1.154-.229 2.271.64 2.271 1.827 0 1.007-.834 1.86-1.901 1.86z"/>
        </g>
        <path fill="#F49F0A" d="M120 30c-.5 0-.95-.263-1.142-.667-2.432-5.138-4.224-6.707-10.096-8.834-.461-.167-.762-.562-.762-.998 0-.438.301-.832.762-1 5.872-2.128 7.665-3.696 10.096-8.833C119.05 9.263 119.5 9 120 9c.5 0 .95.263 1.141.668 2.433 5.137 4.225 6.706 10.097 8.834.461.167.762.56.762.999 0 .436-.301.83-.763.998-5.871 2.127-7.663 3.696-10.096 8.834-.191.404-.641.667-1.141.667zM7 54c-.292 0-.554-.138-.666-.35-1.419-2.69-2.464-3.512-5.89-4.627C.176 48.936 0 48.73 0 48.5c0-.229.176-.435.445-.523 3.425-1.115 4.47-1.937 5.889-4.627.112-.212.374-.35.666-.35.291 0 .554.138.666.35 1.419 2.69 2.464 3.512 5.89 4.627.269.088.444.294.444.523 0 .23-.176.436-.445.523-3.425 1.115-4.47 1.937-5.89 4.627-.11.212-.374.35-.665.35z"/>
        <use fill="#000" filter="url(#b)" xlink:href="#c"/>
        <use fill="#FFF" fill-rule="evenodd" xlink:href="#c"/>
        <g>
            <use fill="#000" filter="url(#d)" xlink:href="#e"/>
            <use fill="#FFF" fill-rule="evenodd" xlink:href="#e"/>
        </g>
    </g>
</svg>
