<svg xmlns="http://www.w3.org/2000/svg" width="187" height="113" viewBox="0 0 187 113">
    <g fill="none" fill-rule="evenodd" transform="translate(-18 -27)">
        <path fill="#F2F2F2" fill-rule="nonzero" d="M145.54 91.107l1.594-.277c.153-.027.305-.06.458-.087-5.2-3.236-7.47-9.652-5.467-15.45 2.003-5.797 7.745-9.43 13.826-8.749l-2.09 4.988 4.953-4.336a13.105 13.105 0 0 1 7.493 6.722 13.16 13.16 0 0 1 .54 10.033c-.083.236-.181.462-.276.69 1.398-.704 2.74-1.524 3.834-2.574 2.214-2.127 3.427-5.063 4.783-8.68a766.12 766.12 0 0 0 7.756-21.727c-5.658-3.07-8.252-9.806-6.12-15.89a13.191 13.191 0 0 1 .576-1.37c.166-.344.341-.68.534-1.004.031-.053.066-.102.098-.155.168-.272.344-.536.53-.793.07-.096.138-.192.21-.286.21-.276.428-.544.658-.8.077-.086.158-.166.237-.25.177-.187.358-.368.545-.544.098-.092.195-.185.296-.274.026-.023.05-.048.076-.07l.003.004a13.058 13.058 0 0 1 16.74-.377l-2.72 6.49 4.897-4.284a13.082 13.082 0 0 1 .484 15.461l.014.005c-.054.078-.114.15-.17.228a13.034 13.034 0 0 1-.748.952c-.111.13-.22.26-.337.384a13.1 13.1 0 0 1-.526.525c-.104.1-.204.205-.311.301-.282.252-.573.492-.874.718-.105.08-.217.149-.324.225-.212.149-.424.296-.643.432-.136.084-.276.161-.415.24a13.063 13.063 0 0 1-1.054.542c-.212.097-.427.187-.645.273-.146.057-.29.116-.438.168-.244.086-.492.16-.74.232-.126.037-.25.078-.377.11-.373.096-.75.177-1.133.24-.071.011-.145.016-.217.026-.316.046-.635.084-.955.106-.138.01-.277.011-.416.017-.259.01-.518.015-.78.01a12.663 12.663 0 0 1-1.22-.086c-.15-.018-.3-.036-.45-.058a13.073 13.073 0 0 1-.818-.156l-.054-.01a772.674 772.674 0 0 1-3.202 9.204 13.063 13.063 0 0 1 18.972 1.568l-4.527 5.02 6.13-2.454a13.114 13.114 0 0 1 .523 9.994 12.89 12.89 0 0 1-1.663 3.226 13.07 13.07 0 0 1-13.775 5.177 13.11 13.11 0 0 1-9.874-10.934c-.115.308-.226.62-.342.929-1.196 3.19-2.685 7.162-5.674 10.033-2.026 1.946-4.52 3.18-6.911 4.225a78.264 78.264 0 0 1-4.735 1.885 13.098 13.098 0 0 1-5.86 1.872 80.353 80.353 0 0 1-7.657 1.742l-1.608.278c-1.445.248-2.926.504-4.397.798.212.063.424.123.634.198a13.13 13.13 0 0 1 8.744 12.776l-10.08 3.102 9.121 1.452a13.107 13.107 0 0 1-9.844 7.982 13.08 13.08 0 0 1-11.983-4.098l.28.932c.184.616.368 1.229.544 1.836 2.4 8.269 1.368 14.774-2.909 18.315l-2.32-2.816c4.162-3.448 2.87-10.551 1.731-14.48-.173-.595-.354-1.197-.536-1.802-1.563-5.207-3.335-11.11-1.04-16.534 3.46-8.174 13.43-9.886 21.44-11.261z"/>
        <path fill="#3F3D56" fill-rule="nonzero" d="M143.177 139H71.823C66.95 139 63 135.104 63 130.298V98.054c0-.946.394-1.85 1.09-2.502l37.812-35.35c3.139-2.936 8.057-2.936 11.196 0l36.051 33.705a8.953 8.953 0 0 1 2.851 6.54v29.851c0 2.308-.93 4.521-2.584 6.153a8.885 8.885 0 0 1-6.239 2.549z"/>
        <path fill="#000" fill-rule="nonzero" d="M63 98h89v35.67c0 2.943-2.405 5.33-5.372 5.33H68.372c-2.967 0-5.372-2.387-5.372-5.33V98z" opacity=".1"/>
        <rect width="66" height="66" x="74" y="71" fill="#00A0FF" fill-rule="nonzero" rx="26.181"/>
        <path fill="#000" fill-rule="nonzero" d="M140 101v36H74v-36l33 15.83z" opacity=".1"/>
        <path fill="#3F3D56" fill-rule="nonzero" d="M107.5 118.493L65.449 98.17A1.706 1.706 0 0 0 63 99.706v34.967A5.327 5.327 0 0 0 68.327 140h78.346a5.328 5.328 0 0 0 5.327-5.327v-34.368a2.082 2.082 0 0 0-2.988-1.874L107.5 118.493z"/>
        <path fill="#F2F2F2" fill-rule="nonzero" d="M79 76h20v2H79zM78 86h56v1H78zM78 91h56v1H78zM78 96h56v1H78z"/>
        <path stroke="#3F3D56" d="M29 139h152"/>
        <path fill="#46455B" fill-rule="nonzero" d="M18 116c0 11.607 6.709 21 15 21"/>
        <path fill="#00A0FF" fill-rule="nonzero" d="M32 137c0-11.607 8.05-21 18-21M23 117c0 11.055 4.025 20 9 20"/>
        <path fill="#46455B" fill-rule="nonzero" d="M32 136c0-13.818 9.393-25 21-25"/>
        <path fill="#A8A8A8" fill-rule="nonzero" d="M30 136.43s2.15-.082 2.798-.65c.648-.567 3.307-1.245 3.468-.335.16.911 3.23 4.53.804 4.554-2.428.024-5.64-.465-6.287-.95-.647-.485-.783-2.62-.783-2.62z"/>
        <path fill="#000" fill-rule="nonzero" d="M37.113 139.733c-2.427.02-5.64-.39-6.287-.798-.492-.31-.689-1.422-.754-1.935a7.017 7.017 0 0 1-.072.003s.136 1.792.783 2.199c.647.407 3.86.818 6.287.797.7-.006.943-.263.93-.645-.098.23-.365.375-.887.38z" opacity=".2"/>
        <path fill="#A0616A" fill-rule="nonzero" d="M150.151 57.107c-.1.993-.786 1.793-1.04 2.752-.383 1.443.278 2.992 1.183 4.116 1.474 1.813 3.544 2.899 5.748 3.015.32.03.643-.008.95-.115a2.04 2.04 0 0 0 .723-.546c.681-.755 1.047-1.802 1.193-2.856.145-1.054.089-2.128.032-3.192 0-.22-.036-.438-.107-.644a1.629 1.629 0 0 0-.375-.51 8.835 8.835 0 0 0-1.61-1.292 1.882 1.882 0 0 1-.675-.57c-.11-.21-.18-.442-.209-.682l-.177-1.002a2.104 2.104 0 0 0-.262-.811c-.314-.469-.915-.532-1.442-.555l-1.932-.084c-.6-.026-1.393-.216-1.98-.086-.547.122-.365.68-.265 1.187a9.42 9.42 0 0 1 .245 1.875z"/>
        <path fill="#000" fill-rule="nonzero" d="M150.151 57.107c-.1.993-.786 1.793-1.04 2.752-.383 1.443.278 2.992 1.183 4.116 1.474 1.813 3.544 2.899 5.748 3.015.32.03.643-.008.95-.115a2.04 2.04 0 0 0 .723-.546c.681-.755 1.047-1.802 1.193-2.856.145-1.054.089-2.128.032-3.192 0-.22-.036-.438-.107-.644a1.629 1.629 0 0 0-.375-.51 8.835 8.835 0 0 0-1.61-1.292 1.882 1.882 0 0 1-.675-.57c-.11-.21-.18-.442-.209-.682l-.177-1.002a2.104 2.104 0 0 0-.262-.811c-.314-.469-.915-.532-1.442-.555l-1.932-.084c-.6-.026-1.393-.216-1.98-.086-.547.122-.365.68-.265 1.187a9.42 9.42 0 0 1 .245 1.875z" opacity=".1"/>
        <path fill="#605D82" fill-rule="nonzero" d="M162.874 101.925l-.807 9.96c-.21 2.613-.425 5.236-.838 7.815-.143.889-.31 1.773-.508 2.65-.551 2.433-1.351 4.811-1.609 7.306a10.7 10.7 0 0 0-.022.219 7.068 7.068 0 0 1-.275 1.62c-.13.382-.328.729-.468 1.105-.278.753-.315 1.585-.349 2.4a8.515 8.515 0 0 0-3.162-1.218c-.537-.09-1.134-.154-1.5-.605-.404-.499-.36-1.262-.291-1.932l.638-6.238c.07-.894.204-1.78.403-2.649.073-.289.162-.573.251-.858.124-.391.249-.783.343-1.185.135-.65.229-1.31.282-1.975.219-2.092.482-4.18.713-6.27l.012-.111c.346-3.17.61-6.354.534-9.546-.011-.473-.029-.945-.056-1.42-.038-.686-.094-1.05.412-1.48.558-.474 1.292-.806 1.93-1.117.344-.168 4.128-1.68 4.216-1.349.177.708.27 1.44.277 2.175a27.23 27.23 0 0 1-.126 2.703z"/>
        <path fill="#000" fill-rule="nonzero" d="M162 118.778a42.364 42.364 0 0 1-.516 2.661c-.56 2.445-1.372 4.835-1.634 7.341-.009.072-.016.146-.022.22-1.714-2.726-3.156-5.658-4.828-8.414.126-.393.252-.787.348-1.19.137-.654.233-1.317.286-1.985.223-2.102.49-4.2.725-6.3l.012-.111c.098.446.238.88.418 1.292 1.123 2.542 3.79 3.827 5.095 6.26.04.075.079.15.116.226z" opacity=".1"/>
        <path fill="#605D82" fill-rule="nonzero" d="M147.007 97.114c.064 1.997.393 3.975.722 5.947l.678 4.069c.37 2.226.757 4.498 1.843 6.493.812 1.492 1.982 2.765 3.041 4.103 2.602 3.29 4.558 7.018 7.025 10.405.718.984 1.743 2.049 2.967 1.843.803-.135 1.387-.784 2.018-1.284.745-.59 1.642-1.022 2.228-1.762.586-.74.7-1.97-.093-2.495a4.26 4.26 0 0 0-.908-.361c-1.23-.454-2.027-1.62-2.534-2.8-.506-1.178-.813-2.446-1.489-3.543-1.467-2.382-4.466-3.64-5.729-6.13-.707-1.395-.774-3.003-.828-4.556l-.138-3.96c-.015-.434-.027-.884.154-1.28.483-1.054 1.942-1.153 3.122-1.286 1.34-.153 2.639-.55 3.826-1.172.68-.356 1.345-.81 1.709-1.472.331-.604.377-1.312.416-1.996l.409-7.177c.035-.617.067-1.256-.157-1.834-.563-1.454-2.454-1.929-4.053-1.86-2.974.13-5.72 1.371-8.524 2.21-.695.213-1.4.391-2.114.535-.629.122-1.39.072-1.991.268-1.068.35-1.04 2.615-1.192 3.555a29.061 29.061 0 0 0-.408 5.54z"/>
        <path fill="#535070" fill-rule="nonzero" d="M162.55 130.458c.243.246.323.608.386.95.352 1.893.535 3.815.547 5.74-.017.18.019.361.102.521.069.096.162.17.27.217.703.337 1.52-.132 2.105-.648 1.087-.957 2.007-2.24 2.068-3.69a8.607 8.607 0 0 1 .04-1.12c.095-.545.412-1.021.692-1.499.475-.813.86-1.678 1.144-2.577.107-.338.178-.763-.086-.999a.957.957 0 0 0-.313-.163l-3.178-1.186c-.275-.102-.96 1.666-1.069 1.86-.266.472-.53.74-1.064.85-.545.111-1.194-.049-1.702.225-.86.461-.43 1.025.058 1.519zM159.003 132.544a.992.992 0 0 0-.268-.305 1.306 1.306 0 0 0-.54-.164c-.669-.102-1.462-.169-1.924.277-.433.418-.359 1.1-.72 1.57-.116.148-.27.27-.37.428-.124.24-.18.504-.162.768-.019.728-.038 1.457.018 2.183.047.608.162 1.246.586 1.723.681.765 1.91.875 3 .924l.883.04c.243.027.49.007.723-.059a1.12 1.12 0 0 0 .624-.616c.46-1.024-.268-2.128-.716-3.157-.516-1.182-.423-2.494-1.134-3.612z"/>
        <path fill="#3F3D56" fill-rule="nonzero" d="M149.555 50.825a.743.743 0 0 1 .042-.317c.109-.212.393-.154.608-.095.862.24 1.77.023 2.658.079.888.056 1.888.546 2.067 1.508a6.889 6.889 0 0 0 1.639-1.86c.246-.407.461-.873.428-1.361-.049-.704-.584-1.231-1.08-1.678l-1.477-1.331a2.21 2.21 0 0 0-.661-.464c-.341-.129-.713-.068-1.074-.067-1.075 0-2.221-.54-3.178.003-.399.227-.7.615-.99.994l-1.318 1.723a.945.945 0 0 0-.21.394c-.038.21.06.418.094.63.062.384-.088.795.027 1.165.192.613.867.7 1.28 1.052.153.131.394.575.578.57.33-.01.559-.662.567-.945z"/>
        <circle cx="152.5" cy="50.5" r="4.5" fill="#A0616A" fill-rule="nonzero"/>
        <path fill="#3F3D56" fill-rule="nonzero" d="M153.662 63.086c-.337-.94-1.262-1.558-2.285-1.529a.715.715 0 0 1-.422-.052.568.568 0 0 1-.173-.21 8.106 8.106 0 0 1-.707-1.624c-.077-.25-.183-.543-.442-.608a.605.605 0 0 0-.565.238 4.856 4.856 0 0 1-.403.493c-.61.53-1.69.047-2.337.533-.106.08-.193.18-.304.253-.111.065-.23.115-.356.148A34.73 34.73 0 0 0 142 62.125c.43 2.519.871 5.082 1.88 7.44.48 1.122 1.024 2.22 1.409 3.377.851 2.562.89 5.304.899 7.996.006 1.843-.003 3.725-.617 5.469a5.05 5.05 0 0 0-.346 1.201c-.037.416.087.874.434 1.12.2.128.43.206.67.229 1.062.151 2.134-.124 3.18-.36 2.805-.63 5.666-.992 8.522-1.353l4.784-.603c.343-.023.679-.107.99-.249.876-.466.959-1.746.415-2.56-.26-.39-.628-.71-.847-1.123-.22-.414-.238-.992.14-1.279.766-.582.537-1.663.574-2.609a90.407 90.407 0 0 0-.042-7.934 15.356 15.356 0 0 1-.027-1.645c.085-.93.262-1.85.528-2.746L166 60.932c-.38-.584-1.107-.954-1.796-1.122-.689-.168-1.406-.217-2.085-.422-1.39-.418-2.627-1.48-4.079-1.382a.758.758 0 0 0-.316.076c-.327.18-.275.638-.296 1.003-.046.808-.658 1.483-1.333 1.957-.675.473-1.446.818-2.066 1.358a.889.889 0 0 0-.367.686z"/>
        <path fill="#A0616A" fill-rule="nonzero" d="M135.524 67.795c-.315.21-.65.385-.999.526a3.254 3.254 0 0 0-.957.474c-.134.119-.247.26-.332.42a1.903 1.903 0 0 0 .038 1.9c.35.58.982.917 1.647.883.435-.05.857-.179 1.247-.38l3.349-1.483c.567-.25 1.179-.545 1.447-1.114a.263.263 0 0 0 .032-.176.29.29 0 0 0-.137-.148 7.552 7.552 0 0 1-1.95-1.879c-.138-.19-.306-.64-.5-.755-.709-.417-2.318 1.356-2.885 1.732zM171.106 66l1.252 1.495c.269.32.538.642.783.983a11.657 11.657 0 0 1 1.434 2.823c.272.746.498 1.54.403 2.333a5.911 5.911 0 0 1-.313 1.187c-.23.736-.514 1.452-.851 2.141a12.253 12.253 0 0 1-.957 1.5 34.6 34.6 0 0 1-3.174 3.793c-.428.443-.608 1.16-.794 1.758-.344 1.104-1.161 1.963-1.952 2.779-.254.28-.535.533-.838.754a2.644 2.644 0 0 1-1.526.454 1.613 1.613 0 0 1-.687-.15c-.541-.268-.816-.922-.872-1.545a3.42 3.42 0 0 1 .263-1.653c.718-1.663 2.563-2.384 3.867-3.597.765-.712 1.35-1.606 1.926-2.49a8.713 8.713 0 0 0 .974-1.784c.292-.812.178-1.774.433-2.6.107-.348.299-.663.414-1.01.116-.345.145-.756-.057-1.056a1.475 1.475 0 0 0-.567-.433c-.833-.442-1.766-1.01-1.926-1.973a2.185 2.185 0 0 1 .373-1.506 6.168 6.168 0 0 1 1.05-1.15c.365-.338.978-.716 1.342-1.053z"/>
        <path fill="#A0616A" fill-rule="nonzero" d="M134.517 69.161c-.211-.409-.475-.826-.901-1.03a1.727 1.727 0 0 0-1.31-.005c-.414.171-.801.396-1.15.667l-1.032.729a2.5 2.5 0 0 0-.612.541 2.227 2.227 0 0 0-.319.839 5.753 5.753 0 0 0-.162 2.074c.164 1.114.865 2.087 1.636 2.936.482.53 1.078 1.065 1.811 1.087.317.01.669-.11.8-.386a.928.928 0 0 0 .072-.343c.08-1.244-.385-2.458-.926-3.59a2.232 2.232 0 0 1-.298-.965.256.256 0 0 1 .044-.161.29.29 0 0 1 .176-.083c.74-.14 2.016.411 2.535-.377.337-.511-.124-1.47-.364-1.933z"/>
        <path fill="#3F3D56" fill-rule="nonzero" d="M149.555 49.825a.743.743 0 0 1 .042-.317c.109-.212.393-.154.608-.095.862.24 1.77.023 2.658.079.888.056 1.888.546 2.067 1.508a6.889 6.889 0 0 0 1.639-1.86c.246-.407.461-.873.428-1.361-.049-.704-.584-1.231-1.08-1.678l-1.477-1.331a2.21 2.21 0 0 0-.661-.464c-.341-.129-.713-.068-1.074-.067-1.075 0-2.221-.54-3.178.003-.399.227-.7.615-.99.994l-1.318 1.723a.945.945 0 0 0-.21.394c-.038.21.06.418.094.63.062.384-.088.795.027 1.165.192.613.867.7 1.28 1.052.153.131.394.575.578.57.33-.01.559-.662.567-.945zM140.608 62.509c-.197.118-.37.267-.51.442-.18.251-.216.569-.37.834-.328.568-1.097.77-1.576 1.237a.456.456 0 0 0-.152.242.516.516 0 0 0 .129.348l2.313 3.382c.77.063 1.509-.386 2.279-.326.288.022.582.114.858.035a2.5 2.5 0 0 0 .55-.313c.46-.27 1.072-.302 1.458-.658.37-.343.417-.878.412-1.364a5.112 5.112 0 0 0-.137-1.254c-.34-1.298-1.408-2.294-2.077-3.444-.326-.56-.503-.888-1.193-.503-.693.386-1.332.898-1.984 1.342zM167.742 61.14c.409.261.778.58 1.095.945.332.422.52.938.839 1.37.308.417.729.741 1.08 1.126.53.584.89 1.297 1.244 2a30.005 30.005 0 0 1-2.817 3.138.91.91 0 0 1-.428.277.695.695 0 0 1-.604-.243c-.157-.162-.268-.362-.418-.53a2.166 2.166 0 0 0-1.332-.635 9.275 9.275 0 0 0-1.508-.02.604.604 0 0 1-.322-.054.536.536 0 0 1-.176-.199c-.59-.989-.4-2.23-.192-3.36l.477-2.59c.07-.494.203-.978.398-1.439.18-.38.585-1.027 1.082-.913.5.115 1.16.827 1.582 1.126z"/>
        <ellipse cx="76" cy="71.5" fill="#FFF" fill-rule="nonzero" rx="7" ry="7.5"/>
        <path fill="#3ACC6C" fill-rule="nonzero" d="M69 49c-8.837 0-16 6.716-16 15 0 8.284 7.163 15 16 15s16-6.716 16-15c-.026-8.274-7.174-14.976-16-15zm-2.792 23L58 64.31l2.302-2.157 5.914 5.54L78.698 56 81 58.157 66.208 72z"/>
    </g>
</svg>
