<svg xmlns="http://www.w3.org/2000/svg" width="204" height="135" viewBox="0 0 204 135">
    <defs>
        <linearGradient id="a" x1="50.014%" x2="50.014%" y1="100.014%" y2="-.012%">
            <stop offset="0%" stop-color="gray" stop-opacity=".25"/>
            <stop offset="54%" stop-color="gray" stop-opacity=".12"/>
            <stop offset="100%" stop-color="gray" stop-opacity=".1"/>
        </linearGradient>
        <linearGradient id="b" x1="21555%" x2="21555%" y1="70396%" y2="30997%">
            <stop offset="0%" stop-color="gray" stop-opacity=".25"/>
            <stop offset="54%" stop-color="gray" stop-opacity=".12"/>
            <stop offset="100%" stop-color="gray" stop-opacity=".1"/>
        </linearGradient>
    </defs>
    <g fill="none" fill-rule="evenodd" transform="translate(-4 -13)">
        <path fill="#00A0FF" fill-rule="nonzero" d="M193.175 123.777a50.592 50.592 0 0 1-1.952 1.642c-.112.091-.228.179-.341.272a68.547 68.547 0 0 1-7.456 5.07l-.485.283a7.651 7.651 0 0 1-.355.204c-2.709 1.574-5.519 3.024-8.362 4.396l-.03.016-.215.102a170.386 170.386 0 0 1-6.984 3.177l-.057.022c-1.065.451-2.13.89-3.195 1.318-.435.18-.872.345-1.308.515-.822.316-1.646.627-2.477.926l-.103.039-.177.063-.222.082a122.06 122.06 0 0 1-6.588 2.158l-.039.011c-1.551.455-3.113.876-4.685 1.263l-.214.054a93.891 93.891 0 0 1-7.012 1.43l-.544.087a90.015 90.015 0 0 1-5.211.669c-9.833.956-19.783.178-29.555-1.155-19.733-2.695-39.205-7.746-56.964-15.664a165.274 165.274 0 0 1-10.026-4.879c-.027-.014-.05-.028-.077-.04a144.596 144.596 0 0 1-5.803-3.244c-.559-.325-1.114-.658-1.667-.992a148.29 148.29 0 0 1-4.692-2.965l-.415-.278-.16-.109a88.742 88.742 0 0 1-.67-.458c-8.344-5.718-15.784-12.648-19.298-21.32-4.062-10.006-1.463-22.694 8.597-28.609 3.458-2.037 7.477-3.143 11.538-4.056l.416-.093c.687-.152 1.374-.298 2.057-.445 2.395-.51 4.802-1.018 7.186-1.585a112.96 112.96 0 0 0 3.696-.938l.5-.14a59.577 59.577 0 0 0 8.63-3.059h.017c.3-.134.597-.273.888-.416.188-.09.376-.179.565-.277 3.017-1.512 6.213-3.608 8.671-6.106a20.962 20.962 0 0 0 .998-1.088c1.724-2.023 2.917-4.27 3.144-6.653a8.633 8.633 0 0 0-.107-2.4c-.278-1.5-.548-2.966-.747-4.398-.371-2.689-.497-5.26.018-7.739.523-2.527 1.711-4.959 3.978-7.317.342-.358.71-.715 1.106-1.073a23.284 23.284 0 0 1 6.147-3.91l.836-.357c6.228-2.537 13.71-3.066 20.7-2.716 6.532.338 13.021 1.247 19.396 2.716a133.793 133.793 0 0 1 17.49 5.33c13.56 5.135 26.357 12.263 38.313 20.129l.355.232a242.246 242.246 0 0 1 4.33 2.91l.633.435c.313.215.624.43.932.645l.952.663c.045.028.087.058.128.092l.81.564c.468.329.933.66 1.4.992l1.001.715c.208.15.417.298.625.45l1.065.783.238.178c.05.036.1.072.147.111l.03.02c2.887 2.132 5.704 4.342 8.344 6.685l.34.304.036.032c.288.257.575.518.857.78 3.448 3.16 6.537 6.555 9.061 10.308 11.595 17.333 8.153 41.334-7.978 55.606z" opacity=".1"/>
        <path fill="url(#a)" fill-rule="nonzero" d="M201.336 72.095c.113-.311-.735-2.038-.735-2.124 0-.086-.887-1.046-.887-1.586s-1.158-1.698-1.158-1.698-1.558-.653-1.728-2.067c-.17-1.415-1.803-1.445-1.867-1.447 0 0 0-.129.01-.325 0-.44-.012-1.225-.208-1.656a1.671 1.671 0 0 0-.962-.824s-.177-1.103-.511-1.443a1.634 1.634 0 0 1-.394-1.53c.094-.3.013-.857-.222-1.322-.177-.37-.464-.686-.826-.774h-.03c-.813-.198-1.723-.502-1.723-.502s-.092.017-.229.037l-.114-.037a5.035 5.035 0 0 1-.592.075.733.733 0 0 1-.48-.16c-.285-.312-2.577-.906-3-.906-.425 0-1.644-.567-1.644-.567l-1.215-.935c-.34-.26-.972-1.323-1.064-1.48l-.015-.02a4.884 4.884 0 0 1-.223-.624c-.013-.04-.021-.079-.034-.121.247-.261.473-.54.676-.837v-.01c.055-.076.106-.16.158-.24.074-.12.145-.243.213-.37.028-.056.055-.113.083-.167a.705.705 0 0 0 .178-.03l.076-.029a.898.898 0 0 0 .195-.123l.057-.052a1.397 1.397 0 0 0 .406-.728c0-.021.01-.045.016-.064.005-.02.02-.086.027-.13l.01-.072c0-.045.015-.086.022-.127.007-.041 0-.05 0-.074 0-.051.014-.107.02-.16.024-.202.045-.401.088-.598v-.009a4.59 4.59 0 0 1 .419-1.087c.177-.345.372-.684.532-1.04a5.18 5.18 0 0 0 .13-.31 6.04 6.04 0 0 0 .113-.345c0-.034.016-.07.025-.105.023-.084.042-.17.056-.256a3.936 3.936 0 0 0 .067-.47 4.419 4.419 0 0 0-.29-1.99c-.211-.536-.532-1.01-.743-1.541-.325-.807-.41-1.718-.808-2.487-.665-1.288-2.235-1.931-3.525-1.447-.614.23-1.148.678-1.774.88-.834.27-1.73.066-2.595-.056-.866-.121-1.824-.13-2.52.439-.8.656-1.02 1.89-1.774 2.608-.183.167-.38.316-.59.447-.153.106-.308.21-.451.33a1.692 1.692 0 0 0-.543.775.56.56 0 0 0-.02.073c0 .027-.009.056-.012.084-.004.03 0 .04 0 .06a1.04 1.04 0 0 0 0 .128v.022c0 .046.014.094.023.143v.039c0 .014.021.08.035.118a.09.09 0 0 1 0 .023c.015.044.033.087.052.129 0 .02.016.043.025.064.01.017.018.035.025.054a3.4 3.4 0 0 1 .262.656.698.698 0 0 1-.14.628 2.377 2.377 0 0 1-.199.221 5.93 5.93 0 0 0-1.37 2.328l.038.011.037.01c.07.02.14.035.211.044.047.008.095.013.142.016a2.182 2.182 0 0 0 .701-.077h.018c.159-.042.314-.096.465-.163.035-.016.072-.03.108-.048v.665a6.734 6.734 0 0 0 3.399 5.47c.101.058.2.114.303.166.01.06.018.123.025.179l.02.153-.078-.073a.513.513 0 0 0-.211-.043.674.674 0 0 0-.338.088 1.246 1.246 0 0 0-.441.434c-.48.739-1.388 1.073-1.388 1.073s-5.145.82-5.347 1.5l-2.405.143s-.85.113-.934 1.897v.041c-.012.213-.028.403-.048.572v.025c-.149 1.19-.486 1.316-.486 1.316s-.991 1.756-.906 2.663v.021c.011.123.004.246-.023.367a1.607 1.607 0 0 1-.742.963l-.112 1.61s-.933-.142-1.188.963c-.256 1.105-.71 1.61-.71 1.61s-1.556 1.303-1.641 2.406l-.963.595s-2.234-.51-2.745-1.416c0 0-.06-.06-.156-.148l-.014-.022a.05.05 0 0 0 0 .011c-.334-.318-1.045-.983-.935-.831a.706.706 0 0 1 .046.457l-.167-.178-.445-.501s-.637-.6-1.533-1.318c-.205-.164-.42-.332-.648-.504-1.146-.856-2.524-1.725-3.548-1.856-.021-.043-.106-.366-.307-.366a.336.336 0 0 0-.22.109c-.604.56-.95 1.349-.954 2.177-.004.828.335 1.62.935 2.185l.232.218.72.68 2.431 2.289c.03.021.059.044.089.064l.143.179.112.144.194.249.278.358c-.014.037-.03.073-.042.109-.105.257-.196.507-.27.736v.025l-.052.165c0 .018-.012.037-.017.055-.018.054-.032.108-.048.156s-.018.062-.025.093c-.007.03-.012.037-.018.055-.08.285-.13.503-.156.624l-.188-.059.177.08v.031l-.01.057c.055.027.113.052.177.077l.041.018.696.31c.14.062.292.128.455.203.164.075.29.13.448.199 1.816.815 4.362 1.986 4.543 2.22.282.37 2.15 1.445 3.85.537 1.7-.909 2.063-2.296 2.063-2.296s1.643-2.292 1.7-2.632c.042-.261.802-.556 1.153-.68l.034-.01.142-.047V72.39c0 .798-.011 2.532-.26 3.792v.011c-.055.326-.15.644-.282.948-.65 1.387-1.866 7.534-1.866 7.534h.028a.817.817 0 0 1 .213-.01c-.024.114-.04.203-.053.264l-.018.091h.022a.81.81 0 0 1 .275-.003c0 .035-.011.078-.018.128v.045c0 .007-.01.056-.014.086-.148 1.023-.573 3.685-.573 3.685s-.178 1.471-.454 1.981c-.12.216-.192.815-.238 1.43 0 .09-.013.18-.02.272a32.811 32.811 0 0 0-.053 1.468l-.012.047-.417 1.905a.551.551 0 0 0 .023.052c.03.058.078.156.147.277l.021.047c.251.515.583.986.983 1.395.093.092.193.178.298.255 0 .022-.009.045-.012.063-.004.018-.01.068-.016.1a2.912 2.912 0 0 1-.2.715c-.112.246-.18.51-.205.78a3.615 3.615 0 0 0-.017.579l-.023.105a29.01 29.01 0 0 0-.336 1.842 8.2 8.2 0 0 0-.057.456 2.232 2.232 0 0 0 0 .399c.011.223 0 .447-.035.668 0 .065-.014.13-.023.197-.096.63-.254 1.29-.254 1.29l-.509 4.925V110.5c0 .038 0 .08-.01.13 0 .115-.018.253-.03.414 0 .057-.004.117-.011.179 0 .053 0 .11-.011.17v.093c0 .032 0 .093-.009.14-.009.05 0 .092 0 .137v.127c-.016.263-.034.547-.046.835V113c0 .091 0 .179-.012.275V115.095c.003.19.018.38.042.57.02.139.034.285.04.435v.208c.003.034.003.069 0 .103V117.212c-.043.616-.127 1.114-.14 1.193v.168c0 .045.011.102.017.165v.089c0 .032 0 .068.01.104.011.035 0 .034 0 .053 0 .065.011.13.018.2.007.07.016.145.021.22l.011.142c0 .068.014.14.02.209v.071c0 .049.01.095.014.145l.016.22c0 .048.01.099.014.147.003.048 0 .05 0 .075l.023.29c0 .048 0 .094.009.143 0 .075.01.152.018.223.007.072 0 .165.012.24.012.075.009.15.01.218.02.201.02.404 0 .606-.045.204-.194.774-.28 1.393 0 .055-.016.11-.02.168-.006.057 0 .066 0 .1l-.012.134c0 .107-.012.216-.012.322-.008.24.019.482.08.715.04.155.07.313.089.472 0 .025 0 .052.008.079 0 .057.013.116.018.179l.013.178c0 .125.01.254.016.385v.259c.012.755-.024 1.493-.034 1.682v.047s.177 3.174.367 4.19c.025.135.043.27.055.41 0 .052 0 .104.009.156.024.59-.016 1.18-.12 1.76 0 0-.2 2.179-.283 2.179-.04 0-.225.336-.253.844v.014c-.025.567.147 1.346.93 2.117l.086.084.103-.04c.83-.298 1.653-.609 2.475-.925.436-.17.873-.34 1.307-.515 1.074-.428 2.139-.868 3.194-1.32a.204.204 0 0 1-.101-.129c-.164-.438.08-1.788.13-1.995.049-.207.508-4.618.508-4.618s-.177-1.386.057-1.98c.234-.593-.284-2.89-.284-2.89s-.177-.283.142-.623c.32-.34.199-3.37.199-3.37s-.028-1.53-.028-1.928c0-.397.34-1.841.649-2.324.309-.483.115-1.985.115-1.985l.018-.114c0-.043.014-.097.025-.16l.026-.151c.135-.83.318-1.651.55-2.459.37-1.189.793-3.284.793-3.284l2.475-6.689.082-.207.03-.083s1.215 2.268 1.215 4.363c0 0 .313 2.521.23 3.2-.084.68.253 3.88.253 3.88s.365 4.59.365 4.787c0 .196.454 3.728.738 4.264s-.284 2.181-.452 2.351c-.169.17.057 4.334.057 4.334s-.428 3.285-.511 3.964c-.016.124-.041.31-.068.537 2.839-1.374 5.65-2.824 8.358-4.399a27.9 27.9 0 0 0 .355-.204l.02-4.064s.198-1.897-.029-2.664c-.227-.767-.452-2.235-.14-2.632.312-.397.028-2.236.028-2.236s0-3.882.424-4.844c.424-.962.284-7.052.284-7.052l.112-3.994s.903-.862.71-5.326v-.152c.986-.063 2.098-.099 2.267.04.27.219 1.788 1.21 2.965.963.194-.038.379-.115.542-.227.256-.115 1.42-1.105 1.42-1.105l-.451-7.64-.048-.85c.085.131.16.247.224.358.177.272.275.438.275.438 0-1.189 3.34-5.04 3.34-5.04s3.114-4.05 3.792-4.533c.677-.482 2.01-3.03 2.01-3.03.196-.486.423-.96.68-1.416.3-.515-.723-1.876-.61-2.187zm-9.962 5.437a1.78 1.78 0 0 1-.376.764l-.043-.524v-.047c-.198-2.492-.411-5.507-.314-5.802.08-.236.109-.861.117-1.462.013-.685 0-1.337 0-1.337l.032-.045c.572 1.788 2.344 3.873 2.344 3.873s.312.906.68.935c.367.028.225 1.189.225 1.189-.171.027-.335.088-.483.178a4.226 4.226 0 0 0-.5.342c-.813.622-1.662 1.647-1.682 1.936z"/>
        <path fill="#65617D" fill-rule="nonzero" d="M149 76.344s.914-5.316 3.851-5.344L155 75.905l-1.445 1.09s-3.104.11-4.555-.65z"/>
        <path fill="#000" fill-rule="nonzero" d="M155 75.897l-1.44 1.098s-2.192.076-3.758-.35a4.01 4.01 0 0 1-.802-.301s0-.03.016-.086v-.02a13.09 13.09 0 0 1 .556-1.955c.09-.239.194-.485.304-.73.43-.92 1.036-1.822 1.865-2.269.306-.166.639-.263.98-.284h.13l.048.108.727 1.66 1.374 3.13z" opacity=".1"/>
        <path fill="#65617D" fill-rule="nonzero" d="M182.431 98.115s3.34-.326 3.635-.081c.294.244 2.191 1.498 3.315.708s.374-3.54.374-3.65c0-.109-.107-4.003-.107-4.003l-2.004-2.75-2.513-4.82L180 83l.133 7.653-.026 3.921 2.324 3.541z"/>
        <path fill="#000" fill-rule="nonzero" d="M182.431 98.115s3.34-.326 3.635-.081c.294.244 2.191 1.498 3.315.708s.374-3.54.374-3.65c0-.109-.107-4.003-.107-4.003l-2.004-2.75-2.513-4.82L180 83l.133 7.653-.026 3.921 2.324 3.541z" opacity=".1"/>
        <path fill="#A5636D" fill-rule="nonzero" d="M152 70.38s-.277 3.564-2.418 3.62c0 0-.603-.372-1.417-1.013-1.874-1.459-4.846-4.265-4.025-6.876 1.178-3.74 6.902 3.16 6.902 3.16l.44.512.518.597z"/>
        <path fill="#000" fill-rule="nonzero" d="M152 70.427s-.207 2.533-1.807 2.573c0 0-.451-.264-1.06-.72l-.133-.173c.27.14.569.22.874.234.4.008.85-.132 1.14-.712.168-.326.315-.662.442-1.005.075-.202.129-.411.16-.624l.384.427z" opacity=".1"/>
        <path fill="#E7EFFD" fill-rule="nonzero" d="M151.14 75l-.352-.525-1.177-1.767-.611-.902c.265.16.557.251.855.267.393.01.835-.152 1.119-.818.164-.374.309-.76.433-1.154.195-.643.19-.974.121-1.086-.069-.112.437.432.68.7l.01.01.112.124.043.097.596 1.382v.058c.054.438.255 3.22-1.83 3.614z"/>
        <path fill="#3F3D56" fill-rule="nonzero" d="M168.109 139.253a.806.806 0 0 0-.166-.109h-.014c-.332-.138-.029-1.848.028-2.068.056-.221.499-4.485.499-4.485s-.166-1.348.056-1.928c.223-.58-.278-2.805-.278-2.805s-.166-.275.14-.607c.304-.331.193-3.28.193-3.28s-.026-1.486-.026-1.874c0-.387.331-1.79.636-2.26.305-.47.111-1.928.111-1.928l.016-.112c.009-.04.016-.093.025-.154l.026-.147c0-.036.013-.072.02-.113l.053-.287a31.478 31.478 0 0 1 .227-1.097l.065-.267c.014-.054.027-.107.043-.161.04-.162.084-.318.132-.467.353-1.158.778-3.197.778-3.197l2.576-6.729.03-.08.081.156c.268.538 1.11 2.37 1.11 4.086 0 0 .306 2.455.222 3.114-.085.659.25 3.776.25 3.776s.353 4.463.353 4.656c0 .193.444 3.64.721 4.162.277.522-.277 2.123-.444 2.279-.168.156.056 4.218.056 4.218s-.416 3.196-.5 3.856c-.018.158-.054.423-.09.747l.213-.1.03-.015c2.821-1.347 5.616-2.769 8.307-4.313l.023-4.227s.194-1.847-.026-2.59c-.22-.744-.445-2.178-.141-2.566.303-.387.03-2.175.03-2.175s0-3.776.414-4.712c.415-.936.279-6.864.279-6.864l.11-3.884s.904-.858.69-5.332a39.898 39.898 0 0 0-.107-1.558 292.334 292.334 0 0 0-.487-4.875c-.014-.148-.032-.293-.046-.435-.033-.3-.065-.587-.097-.86-.01-.082-.02-.16-.028-.24l-.129-1.086c-.014-.13-.031-.258-.046-.379a44.74 44.74 0 0 1-.063-.514c0-.038-.01-.077-.016-.115 0-.07-.016-.137-.025-.202a108.94 108.94 0 0 0-.146-1.106h-.025l-2.788.025-6.085.057h-.179l-3.174.03h-.194l-1.523.016h-.26l-3.174.03h-.192l-1.303 5.34-2.661 6.064s-.041.664-.134 1.313v.038c0 .023 0 .044-.011.063-.01.02-.01.067-.016.098a3.39 3.39 0 0 1-.224.858 2.133 2.133 0 0 0-.176.605 3.526 3.526 0 0 0-.04.67v.038s-.212.955-.336 1.769a7.937 7.937 0 0 0-.056.447c-.024.17-.032.342-.025.513.01.176.003.352-.02.526 0 .063-.013.128-.022.193-.087.645-.261 1.367-.261 1.367l-.501 4.797V113.073c0 .036 0 .078-.01.126 0 .114-.018.249-.03.406 0 .057-.004.115-.011.176 0 .052 0 .108-.01.166v.091c0 .032 0 .092-.01.139-.008.047 0 .09 0 .133v.125c-.014.257-.031.536-.044.818v.27c0 .09 0 .176-.012.27V117.592c.002.196.016.391.042.585.018.13.032.263.04.4V119.668c-.043.603-.126 1.092-.139 1.169v.165c0 .043.011.1.016.16v.089c0 .031 0 .066.01.101.012.035 0 .034 0 .053 0 .063.012.128.019.196l.02.216.011.138c0 .067.014.137.02.205v.07c0 .048.01.093.014.143l.016.215c0 .048.01.097.014.144v.074l.023.284c0 .047 0 .092.009.14 0 .073.01.149.017.219.007.07 0 .161.013.235.012.073.008.147.01.214.018.191.018.383 0 .575-.116.456-.208.919-.275 1.385 0 .054-.016.108-.021.164-.005.057 0 .065 0 .099l-.01.131c0 .105-.013.212-.013.316-.004.223.022.445.08.66.047.192.08.386.096.583.014.112.023.231.03.35.007.12.01.25.016.377v.254c.01.833-.035 1.629-.035 1.629a.19.19 0 0 0 0 .021v.014c.017.35.176 3.115.353 4.044.03.165.05.331.061.498 0 .051 0 .102.01.153.012.54-.03 1.08-.126 1.61 0 0-.26 2.141-.342 2.141-.043 0-.254.39-.249.96v.013c0 .537.208 1.227.915 1.929l.198.196c.825-.293 1.643-.598 2.46-.908.434-.167.868-.333 1.3-.505 1.067-.42 2.125-.85 3.174-1.294l.062-.04z"/>
        <path fill="#A5636D" fill-rule="nonzero" d="M183 53.571L179.058 58s-5.058-2.139-4.526-2.851c.207-.282.17-1.171.054-2.153-.186-1.553-.586-3.34-.586-3.34s8.84-1.513 8.094.057c-.271.572-.226 1.247-.056 1.86a7.2 7.2 0 0 0 .962 1.998z"/>
        <path fill="#000" fill-rule="nonzero" d="M182.95 49.607c-.3.488-.444.535-.256 1.064-1.278 1.112-2.904 2.329-4.925 2.329a8.337 8.337 0 0 1-3.12-.593c-.207-1.323-.649-2.847-.649-2.847s9.777-1.291 8.95.047z" opacity=".1"/>
        <path fill="#A5636D" fill-rule="nonzero" d="M182 48.974c0 3.88-3.134 7.026-7 7.026s-7-3.146-7-7.026v-.102c.084-3.839 3.223-6.9 7.049-6.872 3.826.028 6.92 3.134 6.95 6.974H182z"/>
        <path fill="#000" fill-rule="nonzero" d="M183 91.917c-.855 0-3.67.025-6.824.066h-.04l-1.041.014h-.033c-3.74.05-7.426-.551-8.906-.437-3.147.243 1.129-2.393 1.129-2.393 2.344.468 4.756.67 7.166.597l.905-.04c2.858-.132 5.732-.353 7.234-.724.104.687.256 1.681.41 2.917z" opacity=".1"/>
        <path fill="#5F5D7E" fill-rule="nonzero" d="M183 91.917c-.855 0-3.67.024-6.824.066h-.04l-1.041.014h-.033c-3.74.05-7.426-.551-8.906-.437-3.147.242 1.129-2.393 1.129-2.393 2.344.468 4.756.669 7.166.596l.905-.038c2.858-.133 5.732-.355 7.234-.725.104.687.256 1.684.41 2.917z"/>
        <path fill="#000" fill-rule="nonzero" d="M173.708 55.977l-4.917 2.327L165 88s2.243-1.032 3.526-.379c1.283.654 5.236.056 5.236.056s2.889-.173 3.312.161c.423.334 5.452-1.352 5.452-1.352s.907-2.056.212-2.38c-.695-.323.214-3.522.214-3.522l-.426-21.425-.85-2.753L179.378 55l-2.35 1.893-1.121.163-2.2-1.079z" opacity=".1"/>
        <path fill="#E7EFFD" fill-rule="nonzero" d="M173.708 55.969l-4.915 2.326L165 88s2.243-1.032 3.526-.379c1.283.654 5.236.054 5.236.054s2.889-.162 3.312.162c.423.323 5.452-1.353 5.452-1.353s.907-2.055.212-2.38c-.695-.325.214-3.517.214-3.517l-.426-21.426-.85-2.753L179.378 55l-2.35 1.893-1.121.162-2.2-1.086z"/>
        <path fill="#000" fill-rule="nonzero" d="M174.025 57.425s1.496 1.67 1.468 2.016c-.03.346-.085 1.166-.085 1.166l-1.12 2.15s-.62 2.678-.62 3.235c0 .557-.987 5.384-.987 5.384l-1.184 7.423L170 88.533 171.523 91l1.806-1.432 2.395-17.344.508-3.421s.538-6.153.538-6.789c0-.636-.31-2.308-.31-2.308s.368-1.59 1.891-1.962c1.523-.371-.113-.081-.113-.081l-.874-.663-.762.292s-2.125-.61-2.577.133z" opacity=".1"/>
        <path fill="#00A0FF" fill-rule="nonzero" d="M174.035 56.425s1.494 1.67 1.467 2.015c-.027.344-.086 1.167-.086 1.167l-1.128 2.15s-.621 2.677-.621 3.234c0 .557-.987 5.385-.987 5.385l-1.186 7.424L170 87.533 171.523 90l1.805-1.432 2.395-17.343.508-3.422s.538-6.153.538-6.79c0-.638-.31-2.307-.31-2.307s.358-1.592 1.889-1.964c1.53-.37-.112-.079-.112-.079l-.875-.663-.76.292s-2.114-.61-2.566.133z"/>
        <path fill="#000" fill-rule="nonzero" d="M174.026 54s-.206.136-.256 1.045c-.05.91-.77 2.955-.77 2.955s2.666-1.636 4-1.454L174.026 54z" opacity=".1"/>
        <path fill="#E7EFFD" fill-rule="nonzero" d="M174.026 54s-.206.137-.256 1.045C173.72 55.953 173 58 173 58s2.666-1.636 4-1.454L174.026 54z"/>
        <path fill="#000" fill-rule="nonzero" d="M180.41 54L177 57.497s2.875 1.991 3.25 2.472c.375.48.75-4.76.75-4.76L180.41 54z" opacity=".1"/>
        <path fill="#E7EFFD" fill-rule="nonzero" d="M180.417 54L177 57.497s2.875 1.991 3.25 2.472c.375.48.75-4.761.75-4.761L180.417 54z"/>
        <path fill="#000" fill-rule="nonzero" d="M173.91 54.043s-.525-.254-1.02.475c-.495.73-1.428 1.07-1.428 1.07s-5.308.813-5.512 1.485l-2.478.139s-.875.101-.957 1.884c-.082 1.782-.556 1.932-.556 1.932s-1.022 1.737-.928 2.634c.095.897-.788 1.346-.788 1.346l3.652 9.097s.117 3.755-.557 5.128c-.673 1.372-1.925 7.454-1.925 7.454s.525-.112.495.224c-.03.337-.641 4.007-.641 4.007s-.175 1.456-.466 1.96c-.291.505-.32 3.14-.32 3.14L160 97.923s1.113 2.381 2.8 2.044c1.688-.337 4.752-6.696 4.752-6.696l1.953-6.864 1.517-6.782.438-4.595.7-10.172 1.02-6.725s1.143-3.615.73-4.09z" opacity=".1"/>
        <path fill="#65617D" fill-rule="nonzero" d="M173.912 54.042s-.525-.251-1.02.477c-.496.73-1.431 1.07-1.431 1.07s-5.308.812-5.512 1.484l-2.478.14s-.876.113-.963 1.877c-.087 1.764-.556 1.934-.556 1.934s-1.02 1.737-.928 2.634c.093.896-.787 1.343-.787 1.343l3.64 9.1s.117 3.754-.556 5.126c-.674 1.372-1.924 7.452-1.924 7.452s.525-.112.495.225c-.03.337-.642 4.006-.642 4.006s-.174 1.456-.465 1.96c-.292.504-.321 3.138-.321 3.138L160 97.922s1.113 2.38 2.8 2.046c1.686-.335 4.754-6.697 4.754-6.697l1.954-6.863 1.517-6.771.436-4.594.701-10.168 1.02-6.724s1.138-3.632.73-4.11z"/>
        <path fill="#000" fill-rule="nonzero" d="M155 75.928l-1.404 1.067s-2.137.074-3.664-.34l-.779-.38-.153-.077.161.056c.806.264 1.436.26 1.928.076 1.98-.736 1.76-4.348 1.687-5.166 0-.08-.013-.133-.016-.154V71l.013.02a.975.975 0 0 0 .179.244l.697 1.545v.064L155 75.928z" opacity=".1"/>
        <path fill="#65617D" fill-rule="nonzero" d="M161.038 65l-.759.235-.108 1.677s-.895-.145-1.139.998c-.243 1.142-.677 1.677-.677 1.677s-1.492 1.348-1.573 2.49l-.923.616s-2.142-.528-2.63-1.466c0 0 .976 7.56-4.229 5.715 0 0 5.83 2.755 6.1 3.136.27.38 2.061 1.49 3.687.559 1.627-.932 1.98-2.403 1.98-2.403s1.573-2.373 1.627-2.725c.053-.352 1.274-.762 1.274-.762L166 68.653 161.038 65z"/>
        <path fill="#000" fill-rule="nonzero" d="M180.59 57.714l.863-3.714s.379 1.21.774 1.491c.395.281 1.28.93 1.28.93s1.278.563 1.723.563c.444 0 2.857.59 3.154.895.297.304 1.487.084 1.487.084s.982.31 1.845.507 1.28 1.548 1.1 2.081c-.146.541.01 1.115.416 1.52.357.339.535 1.432.535 1.432.438.135.802.429 1.012.816.297.62.209 1.97.209 1.97l-4.432 5.907s.059 2.278-.119 2.785c-.178.506.624 9.118.624 9.118l.922 14.802s-1.219.984-1.487 1.097c-.27.113-.536-5.234-.536-5.43 0-.198-6.87-9.738-6.87-9.738s-.924-1.407-.924-1.717c0-.31-.862-3.15-.862-3.15L180 74.487l.59-16.773z" opacity=".1"/>
        <path fill="#65617D" fill-rule="nonzero" d="M195 65.978c0 .193-.012.322-.012.322l-4.429 5.905s.06 2.28-.117 2.786c-.104.293.123 3.32.333 5.806.15 1.79.291 3.307.291 3.307l.39 6.277.53 8.52s-1.219.985-1.485 1.097c-.267.113-.536-5.232-.536-5.43 0-.199-6.874-9.736-6.874-9.736s-.921-1.408-.921-1.718c0-.31-.863-3.15-.863-3.15L180 74.478l.594-16.766.505-3.713s.744 1.211 1.135 1.49c.392.28 1.277.93 1.277.93s1.279.563 1.725.563c.447 0 2.855.59 3.154.894.299.305 1.486.085 1.486.085s.98.31 1.843.506c.863.197 1.279 1.548 1.101 2.08a1.56 1.56 0 0 0 .416 1.52c.356.336.535 1.432.535 1.432.438.135.802.428 1.013.815.202.444.22 1.224.215 1.663z"/>
        <path fill="#000" fill-rule="nonzero" d="M163 139.412c-.33.204-.661.394-.992.588-1.039-.46-2.008-1-2.008-1 1.004.054 2.006.192 3 .412zM177 125s2.833.595 3 1l-3-1zM163.527 128s-1.161.576-.037 1.728c1.125 1.152.037-1.728.037-1.728zM173 101c.176 0 2.912-1.495 3.865-.83.954.666 2.135.664 2.135.664l-6 .166zM171 103.618l-.023.291-1.972 7.148s-.318 2.168-.593 3.398A29.81 29.81 0 0 0 168 117l1.749-15 1.251 1.618z" opacity=".1"/>
        <path fill="#3F3D56" fill-rule="nonzero" d="M177 91.981l-1.237.019h-.038L175 89.052c.355-.015.715-.032 1.074-.052l.926 2.981z"/>
        <path fill="#A5636D" fill-rule="nonzero" d="M190 89.397l-.68.513-2.266 1.712s-6.152 2.999-7.846.15c-1.494-2.51 5.48-4.302 7.16-4.693.228-.052.359-.079.359-.079L190 89.397z"/>
        <path fill="#000" fill-rule="nonzero" d="M163 60s.8.37.98.886c.182.516-.98-.886-.98-.886zM159 69s-1.444 2.08-.861 2.885C158.72 72.69 159 69 159 69zM191 60s-1.934.206-2 2l2-2zM176 84c.145-.124 3.273-4.348 4-3.977L176 84zM182 48.55a6.291 6.291 0 0 1-.829 3.118h-.052c-.443-.088-.674-.575-1.012-.883a1.442 1.442 0 0 0-1.588-.21c-.526.297-.829.849-.78 1.425-.225-.883-.154-1.834-.374-2.724-.221-.89-.878-1.792-1.78-1.808-.389 0-.841.136-1.122-.14-.17-.165-.204-.427-.331-.628-.645-.983-2.606-.486-3.406.02-.801.504-1.73 1.31-2.726 1.742.084-3.61 3.223-6.488 7.049-6.462 3.826.026 6.92 2.946 6.95 6.557l.001-.007z" opacity=".1"/>
        <path fill="#4C3E42" fill-rule="nonzero" d="M174.2 46.5c.117.21.147.481.302.653.255.284.666.138 1.02.145.82.015 1.418.951 1.616 1.875.2.923.135 1.905.34 2.827-.043-.597.232-1.17.71-1.477a1.181 1.181 0 0 1 1.44.218c.309.315.51.821.922.916.412.096.792-.326.939-.784.146-.458.134-.96.229-1.435.182-.9.726-1.636 1.02-2.49a4.837 4.837 0 0 0-.027-3.218c-.2-.55-.498-1.028-.702-1.568-.306-.821-.388-1.747-.762-2.529-.629-1.31-2.111-1.964-3.328-1.466-.582.236-1.087.693-1.676.896-.79.273-1.634.068-2.452-.055-.817-.123-1.722-.134-2.38.445-.756.667-.964 1.92-1.674 2.654-.3.308-.67.504-.984.788-.315.284-.587.707-.551 1.169.047.597.59 1.14.39 1.691a1.33 1.33 0 0 1-.298.422A6.165 6.165 0 0 0 167 48.55c1.431.481 2.978-1.219 4.099-2.016.736-.537 2.517-1.056 3.102-.033z"/>
        <path fill="#000" fill-rule="nonzero" d="M188 89.471l-.545.529c-.48-.942-2.455-2.822-2.455-2.822l.085-.096c.183-.054.287-.082.287-.082L188 89.471z" opacity=".1"/>
        <path fill="#E7EFFD" fill-rule="nonzero" d="M189 87.272s-.231.556-.47 1.037c-.237.48-.492.916-.512.562-.026-.7-3.018-3.047-3.018-3.047l.405-.381.471-.443L189 87.272z"/>
        <path fill="#000" fill-rule="nonzero" d="M188.694 83.444L189 90c-.725-1.418-2.719-5.057-4-4.94l3.108-4.484c.13-.181.25-.374.357-.576.117 1.865.229 3.444.229 3.444z" opacity=".1"/>
        <path fill="#000" fill-rule="nonzero" d="M188 87.06s-.194.504-.392.94c-.753-1.083-1.785-2.36-2.608-2.598l.394-.402L188 87.06z" opacity=".1"/>
        <path fill="#65617D" fill-rule="nonzero" d="M191.992 64l1.015.795s1.692.03 1.86 1.446c.169 1.418 1.72 2.075 1.72 2.075s1.157 1.165 1.157 1.705.873 1.506.873 1.59c0 .086.847 1.82.734 2.132-.113.312.896 1.677.591 2.189-.254.459-.48.933-.676 1.42 0 0-1.325 2.558-2.003 3.04-.678.483-3.777 4.547-3.777 4.547S190.16 88.803 190.16 90c0 0-3.243-5.457-5.16-5.314l3.75-4.347s.647-.71.676-1.137c.029-.427 1.804-2.388 2.65-2.473 0 0 .14-1.166-.225-1.193-.366-.027-.676-.938-.676-.938s-2.482-2.956-2.511-4.832c-.029-1.876 3.328-5.766 3.328-5.766z"/>
        <path fill="#000" fill-rule="nonzero" d="M194 68s-2.451 2.197-1.926 2.908C192.599 71.618 194 68 194 68zM194 76s3.633-2.25 4 0h-4zM164 68s0 5.432-.781 5.969C162.438 74.505 164 68 164 68zM189 69l.95 3s.378-2.944-.95-3z" opacity=".1"/>
        <g fill="#000" fill-rule="nonzero" opacity=".1">
            <path d="M168.779 43.871c.193-.553-.314-1.095-.381-1.687-.067.167-.096.35-.084.532.033.448.337.865.409 1.279.022-.04.04-.08.056-.124zM177.558 50.22c-.19-.938-.134-1.914-.326-2.843-.192-.928-.79-1.905-1.602-1.92-.35 0-.758.143-1.01-.148-.154-.176-.184-.453-.299-.667-.58-1.045-2.344-.516-3.067.02-1.083.801-2.57 2.477-3.96 2.099a7.223 7.223 0 0 0-.18.543c1.419.494 2.951-1.246 4.061-2.062.723-.534 2.486-1.065 3.067-.019.115.214.145.491.298.668.253.29.66.14 1.01.148.813.015 1.405.973 1.602 1.918.197.945.133 1.95.337 2.893a1.772 1.772 0 0 1 .07-.63zM181.54 49.114c-.145.468-.522.898-.93.802-.407-.095-.606-.611-.911-.937-.385-.406-.96-.495-1.43-.222-.45.299-.718.845-.702 1.427.106-.36.328-.663.623-.853.47-.274 1.044-.184 1.428.223.305.323.505.84.913.938.408.097.785-.334.93-.803.074-.276.123-.56.144-.847-.017.092-.039.182-.065.272zM182.784 45.1c-.298.873-.842 1.627-1.01 2.546a6.444 6.444 0 0 0-.078.562c.18-.915.718-1.667 1.01-2.539a4.88 4.88 0 0 0 .245-1.222c-.04.222-.096.44-.167.652z"/>
        </g>
        <circle cx="144.195" cy="65.195" r="1" fill="#E6E8EC" fill-rule="nonzero"/>
        <path fill="#00A0FF" fill-rule="nonzero" d="M87 104.555s1.471-.952 3-.362c0 0-.428.818-2.327.807l-.673-.445zM87.054 105s-.345 1.82.706 3c0 0 .589-.77-.078-2.563l-.628-.437z"/>
        <path fill="#00A0FF" fill-rule="nonzero" d="M85 104.022s.064-2.546 4-1.924c0 0 .062 1.64-1.292 2.492-1.354.852-2 .235-2.708-.568z"/>
        <path fill="#00A0FF" fill-rule="nonzero" d="M84.75 103s-1.675.565-.02 4c0 0 1.117-.272 1.251-1.667.134-1.394-.475-1.848-1.23-2.333zM81.007 100.414s-.36-2.533 3.979-2.41c0 0 .414 2.29-3.186 2.996l-.793-.586zM78 96.326s.381-2.942 4-2.209c0 0 .108 2.533-3.389 2.883L78 96.326zM77 93.45s.83-3.102 5-2.325c0 0-.87 2.787-4.706 2.875L77 93.45zM74 90.475s.672-3.14 4-2.346c0 0-1 2.999-3.762 2.867L74 90.475zM73 85.42s.519-4.082 4-3.327c0 0-.866 3.733-3.722 3.907L73 85.42zM72 81.397s.623-4.317 4-3.218c0 0-1.174 4.105-3.744 3.805L72 81.397zM71 77.181s1.174-4.183 4-4.181c0 0-1.196 4.416-3.732 5L71 77.181zM71 73.162s1.058-5.468 3-5.149c0 0-.72 4.175-2.91 5.987l-.09-.838zM70 68.833s1.04-4.56 3-4.833c0 0-.667 4.467-2.92 6L70 68.833zM70 63.33s1.52-4.18 3-4.33c0 0-.575 4.08-2.827 5L70 63.33zM69 59.689s1.11-4.283 3-4.689c0 0-.082 3.479-2.791 5L69 59.689zM69 54.15s1.337-3.567 3-4.15c0 0-.112 4.164-2.56 5l-.44-.85zM66.35 52.66L66 45s1.861 5.683.505 9l-.155-1.34zM64.096 46.695S62.38 41.288 62 41c0 0 3.145 3.407 2.995 8l-.899-2.305zM80.385 100.004s-2.588-.279-2.372 3.988c0 0 2.343.331 2.987-3.226l-.615-.762zM78.431 97s-2.756.11-2.4 3.99c0 0 2.33.366 2.969-3.284L78.431 97zM76.72 94.232s-2.982-1.374-4.72 2.564c0 0 2.749 1.135 5-1.951l-.28-.613zM73.73 89.29s-3.086-1.549-4.73 2.513c0 0 3.197 1.1 5-1.893l-.27-.62zM71.825 86.377s-3.359-3.28-5.825.284c0 0 3.408 2.67 6 .469l-.175-.753zM71.858 81.338s-3.404-3.258-5.858.394c0 0 3.783 2.632 6 .311l-.142-.705zM70.994 77.29S68.612 74.372 66 75.124c0 0 2.472 3.093 5 2.864l-.006-.698zM67.924 72.317S65.822 68.32 64 69.102c0 0 1.522 3.076 4 3.898l-.076-.683zM68.73 67.984s-2.518-3.448-4.73-2.931c0 0 2.083 3.514 5 3.947l-.27-1.016zM69 63.412S67.288 59.984 66 60c0 0 .891 3.436 2.915 4l.085-.588zM68 58.664S65.649 54.952 64 55c0 0 1.263 3.2 3.941 4l.059-.336z"/>
        <path fill="#00A0FF" fill-rule="nonzero" d="M67 54.207S65.307 51.292 64 51c0 0 .94 3.589 2.864 4l.136-.793z"/>
        <path fill="#00A0FF" fill-rule="nonzero" d="M65.483 51.037L62 46s1.033 5.061 4 6l-.517-.963zM63.274 44.817S59.158 42.406 59 42c0 0 2.194 3.505 6 4l-1.726-1.183zM62.9 44s-4.735-4.046-5.9-4c0 0 3.77.028 6 3.77l-.1.23z"/>
        <path fill="#444053" fill-rule="nonzero" d="M67 56.967l-.162.033C65.755 49.242 64.396 44.69 63 44.182l.047-.182c1.476.532 2.842 5.02 3.953 12.967zM72 72.966l-.357.034a41.925 41.925 0 0 1-.278-2.072c-.647-6.04-1.458-11.581-2.365-15.726l.198-.202c.898 4.152 1.88 9.856 2.528 15.897.072.7.166 1.395.274 2.069zM94.859 108c-.053-.02-5.235-1.997-10.731-6.965a40.256 40.256 0 0 1-8.04-9.994C73.453 86.398 71.728 80.634 71 75l.307.124c1.628 12.643 8.057 21.093 13.076 25.633 5.442 4.923 10.566 6.878 10.617 6.9l-.141.343z"/>
        <g fill-rule="nonzero" opacity=".7">
            <path fill="#00A0FF" d="M95.527 101.996s2.284-.76 3.96.677c0 0-.9.988-3.303.216l-.657-.893zM95.27 102s-1.197 2.1-.132 4.04c0 0 1.142-.69.87-3.215l-.738-.826zM93.433 99.173s.661-1.885 4.795-.073c0 0-.313 1.25-1.985 1.43-1.673.178-2.224-.515-2.81-1.357zM93.174 99.096s-1.983.095-1.449 4.608c0 0 1.275.057 1.923-1.504.648-1.562.157-2.307-.474-3.104zM91.46 95.702s.604-3.23 4.926-1.708c0 0-.456 2.948-4.35 2.68l-.575-.972zM89.506 91.334s1.568-3.421 5.682-1.154c0 0-.815 3.103-5.198 2.203l-.484-1.05zM88.367 87.062s1.954-3.225 6.038-.984c0 0-1.882 2.858-5.92 1.708l-.118-.724zM87.314 82.907s1.964-3.355 5.887-1.122c0 0-2.332 3.06-5.775 1.815l-.112-.693zM86.93 79.126s1.952-4.225 5.617-2.176c0 0-2.225 3.722-5.504 2.9l-.114-.724zM86.817 74.656s2.113-4.22 5.737-1.84c0 0-2.693 3.798-5.625 2.532l-.112-.692zM87.094 70.6s2.65-4.074 5.693-3.118c0 0-2.75 4.316-5.682 4.084l-.01-.967zM87.623 66.71s3.02-4.95 5.413-3.854c0 0-2.197 3.813-5.55 4.715l.137-.861zM88.557 62.145s2.682-4.078 5.2-3.585c0 0-2.19 4.136-5.459 4.766l.26-1.18zM89.378 57.886s3.049-3.986 4.709-3.643c0 0-1.987 4.199-4.743 4.424l.034-.78zM90.218 53.938s2.441-4.565 4.181-4.525c0 0-1.292 3.93-4.116 4.934l-.065-.41zM90.972 48.678s2.234-3.558 3.715-3.793c0 0-1.491 4.508-3.663 4.824l-.052-1.03zM91.36 45.193l1.598-6.912s1.077 5.836-1.74 8.17l.141-1.258zM91.28 37.87s-.434-5.483-.787-5.878c0 0 2.616 4.191 1.154 8.272l-.367-2.394zM91.347 95.641s-3.019-1.263-4.116 3.216c0 0 2.7 1.23 4.617-2.196l-.501-1.02zM89.39 91.173s-3.61-.993-4.537 3.637c0 0 2.886 1.37 5.022-2.583l-.485-1.054zM88.254 87.348s-2.864-2.44-6.038.984c0 0 2.683 2.114 6.153-.26l-.115-.724zM87.23 82.921s-2.915-2.56-5.935.811c0 0 3.173 2.162 6.048-.116l-.112-.695zM86.945 79.235s-2.399-3.985-5.82-1.545c0 0 2.615 3.455 5.783 2.276l.037-.73z"/>
            <path fill="#00A0FF" d="M87.03 74.6s-2.4-4.062-5.86-1.43c0 0 2.952 3.6 5.79 2.131l.07-.702zM87.46 70.562s-1.44-4.645-4.627-4.565c0 0 1.472 4.91 4.35 5.49l.277-.925zM87.703 66.705S86.52 61.02 83.9 61.239c0 0 .788 4.336 3.643 6.323l.16-.857zM88.797 61.936s-1.54-4.645-4.1-4.823c0 0 1.051 4.566 4.045 6.026l.055-1.203zM89.676 57.872s-.826-4.96-2.452-5.444c0 0-.21 4.645 2.118 6.15l.334-.706zM90.333 53.863s-1.035-5.078-2.713-5.538c0 0 .117 4.132 2.534 5.915l.18-.377zM91.256 49.05s-.68-4.154-1.953-4.95c0 0-.374 4.736 1.504 5.88l.45-.93z"/>
            <path fill="#00A0FF" d="M91.196 45.01l-2.2-6.744s-.56 5.912 2.452 7.984l-.252-1.24zM90.3 38.098s-3.536-4.198-3.552-4.727c0 0 1.081 4.824 4.972 6.685l-1.42-1.958zM90.402 36.671s-3.691-6.18-4.972-6.52c0 0 4.063 1.307 5.15 6.295l-.178.225z"/>
            <path fill="#444053" d="M91.015 49.752l-.188-.027c1.044-7.634.849-12.368-.55-13.327l.108-.158c1.482 1.017 1.7 5.687.63 13.512z"/>
            <path fill="#444053" d="M87.655 67.775l-.28-.052c.128-.706.271-1.43.431-2.133 1.378-6.18 2.486-11.9 3.074-16.258l.211-.153c-.596 4.357-1.626 10.28-3.008 16.466a57.97 57.97 0 0 0-.428 2.13z"/>
            <path fill="#444053" d="M99.705 106.902c-.042-.034-4.293-3.52-7.918-10.06a41.623 41.623 0 0 1-4.473-12.277c-1.044-5.381-.887-11.613.158-17.405l.25.213c-2.352 13.02 1.066 23.29 4.381 29.267 3.59 6.481 7.79 9.93 7.833 9.963l-.23.299z"/>
        </g>
        <path fill="url(#b)" fill-rule="nonzero" d="M59.398 90.468a6.788 6.788 0 0 1-1.299.387c-.777.145-1.567.22-2.358.223.023.207.041.401.06.577.042.483.067.816.067.816l-.836-.057-6.894-.47-4.031-.595c.194.26.405.508.632.741.235.248.507.459.806.624 0 0 3.637 2.937 4.267 2.964.089 0 .117.089.103.23 1.531 0 6.291.221 4.97 2.864a2.11 2.11 0 0 1-1.081 1.05c-1.528.645-3.832-.515-5.019-1.228-.116.226-.226.435-.324.615-.202.378-.343.629-.343.629L48 99.753l-6.117-4.343-1.34-1.134a4.69 4.69 0 0 1-1.16-.2l-.179-.058a2.482 2.482 0 0 0-.128.474v.065a4.98 4.98 0 0 0-.05.5c0 .113-.009.234-.009.355-.01 2.42.963 6.31.963 6.31s2.522 6.413 1.627 7.893a.667.667 0 0 1-.178.192c-.316.227-.505.632-.603 1.114-.333 1.57.252 3.968.252 3.968s-.054.089-.145.227a6.873 6.873 0 0 1-.78 1.017 3.1 3.1 0 0 1-.357.32l.073.217a4.32 4.32 0 0 1-.14 2.916 7.184 7.184 0 0 0-.45 1.878A14.326 14.326 0 0 0 39.37 125c-.026-.014-.05-.028-.076-.04a138.359 138.359 0 0 1-5.83-3.219c-.562-.323-1.12-.654-1.674-.986a149.062 149.062 0 0 1-4.71-2.948l-.417-.277-.16-.109c-.227-.15-.45-.302-.675-.455a34.124 34.124 0 0 1-2.52-3.731c-.126-.226-.24-.441-.335-.638v-.011l-.06-.13-.252-.089c-.472-.165-.771-.28-.771-.28a8.693 8.693 0 0 0 .31-2.435c-.014-1.599-.458-3.731-2.287-5.44-2.702-2.547-3.074-5.062-3.114-6.027v-.177c0-.082.003-.163.011-.244l.207-.197c-.524-.105-1.016-.153-1.016-.153s1.793-6.468 4.812-8.627c1.497-1.066 2.743-2.843 3.624-4.368a66.19 66.19 0 0 1 5.396-7.888l.544-.684.158-.2.034-.042.043-.056a16.143 16.143 0 0 0-.224-.331l-.05-.073c-.237-.355-.44-.71-.408-1.135v-.013-.09c.007-.071.02-.141.039-.21a.2.2 0 0 0 .021.032c.255-.74 1.237-1.066 1.96-1.475 1.706-.956 2.433-3.048 2.799-4.993.283-1.514.518-3.211 1.695-4.183.759-.626 1.782-.832 2.55-1.452a4.768 4.768 0 0 0 1.084-1.388c.178-.302.331-.615.497-.917.76-1.368 1.757-2.64 3.078-3.46 1.32-.819 2.996-1.137 4.443-.586.558.211 1.07.533 1.604.77.33.134.672.24 1.02.316 1.089.254 2.235.32 3.258.773 1.663.735 2.744 2.363 3.732 3.91.511.799 1.315 1.968 1.771 3.144v-.122a4.5 4.5 0 0 1 .357 1.635 2.48 2.48 0 0 1-.077.71c-.164.604-.583.987-1.108 1.267l-.084.041a3.57 3.57 0 0 1-.346.155 7.754 7.754 0 0 1-.089.417c-.023.1-.05.198-.078.295a6.836 6.836 0 0 1-2.14 3.26 7.194 7.194 0 0 1-2.39 1.35c-.063.021-.13.037-.192.057a1.53 1.53 0 0 1-.224.414c-.07.088-.151.167-.243.232a1.471 1.471 0 0 1-.226.127c-.642.288-1.52.062-2.139-.368-.032-.022-.062-.046-.092-.07 0 .102-.016.208-.034.319-.018.11-.03.177-.05.27-.02.092-.027.137-.04.202a8.86 8.86 0 0 1-.031.162l-.022.09a13.937 13.937 0 0 1-1.985 4.816c-.14.21-.29.413-.451.606l-.442.672v.09c.084 1.546-.426 2.988-1.146 4.228-.241.411-.506.808-.793 1.189l.1.058c.998.567 2.965 1.575 4.21 1.49 0 0 4.704.605 5.25.302.075-.043.148.016.216.142.76-.462 2.51-1.441 3.892-1.571.966-.093 1.752.23 1.898 1.421.146 1.193-.574 1.962-1.583 2.394z"/>
        <path fill="#FBBEBE" fill-rule="nonzero" d="M32.503 116.822c.566.938.653 2.078.238 3.087-.401.978-.446 2.197-.405 3.091-.52-.292-1.036-.59-1.55-.891a138.597 138.597 0 0 1-4.364-2.664l-.386-.25-.148-.098a.302.302 0 0 0-.048-.064c-.222-.228-1.511-2.026-2.277-3.391a9.773 9.773 0 0 1-.355-.694v-.01c-.165-.357-.243-.643-.193-.773.121-.414.41-.762.8-.964.952-.481 2.477-.036 3.986.672a27.717 27.717 0 0 1 3.721 2.204l.134.095.013.01c.496.341.783.568.783.568s.021.025.051.072z"/>
        <path fill="#000" fill-rule="nonzero" d="M32.502 116.82a3.43 3.43 0 0 1 .238 3.089c-.402.977-.446 2.195-.405 3.091a128.48 128.48 0 0 1-5.91-3.557l-.387-.25-.148-.098a.349.349 0 0 0-.048-.064c-.222-.226-1.512-2.024-2.279-3.39a9.766 9.766 0 0 1-.355-.693v-.01c-.165-.358-.243-.642-.193-.774.122-.413.41-.76.801-.963.952-.481 2.478-.036 3.989.671 1.299.638 2.544 1.375 3.724 2.204l.134.095.013.01c.496.341.783.567.783.567s.013.025.043.071z" opacity=".05"/>
        <path fill="#FBBEBE" fill-rule="nonzero" d="M39.932 121.894a4.54 4.54 0 0 1-.248.907 7.36 7.36 0 0 0-.399 1.632A14.885 14.885 0 0 0 39.3 128a135.023 135.023 0 0 1-5.745-3.284 109.16 109.16 0 0 1-1.65-1.007c-.122-.964-.298-1.813-.496-2.022-.26-.282-1.744-2.473-2.666-4.201-.12-.218-.223-.428-.32-.628v-.009a12.75 12.75 0 0 1-.105-.232c-.238-.526-.364-.936-.3-1.133.122-.43.376-.808.723-1.077 1.558-1.175 4.797.415 7.284 1.994l.061.038c.47.303.917.602 1.317.882l.234.163c1.03.725 1.713 1.29 1.713 1.29.17.27.306.56.405.866a4.522 4.522 0 0 1 .177 2.254z"/>
        <path fill="#000" fill-rule="nonzero" d="M23.653 115.536c1.368.39 3.387.909 4.486.923.114.003.228-.002.34-.014.774-.086 3.159.052 5.347.214.877.063 1.722.129 2.42.187L38 117v-.554a45.33 45.33 0 0 0-1.66-.885c-2.674-1.35-6.187-2.73-7.87-1.725-2.369-.935-4.774-1.384-5.457.28-.079.216.209.767.64 1.42z" opacity=".1"/>
        <path fill="#5C5C8E" fill-rule="nonzero" d="M18.004 100.044c.035.958.399 3.444 3 5.955 3.32 3.2 1.905 7.799 1.905 7.799s3.955 1.536 5.662 1.576c.109.004.217-.002.325-.016 1.023-.14 5.09.231 7.428.464L38 116v-13.6L19.67 98l-1.66 1.635a3.162 3.162 0 0 0-.006.409z"/>
        <g fill="#000" fill-rule="nonzero" opacity=".1">
            <path d="M36.533 115.786l.295.03v.146l-1.65-.177c-1.65-.167-4.174-.404-5.84-.473 1.152-.103 4.966.25 7.195.474zM17.152 99.669l1.634-1.628 1.09.263-1.361 1.365a3.185 3.185 0 0 0 0 .407c.035.954.393 3.427 2.954 5.93 3.267 3.185 1.874 7.763 1.874 7.763s3.222 1.265 5.068 1.525c-.178 0-.355.01-.531.03-.107.014-.214.02-.32.016-1.68-.042-5.574-1.571-5.574-1.571s1.393-4.578-1.874-7.763c-2.574-2.503-2.931-4.976-2.967-5.925a3.185 3.185 0 0 1 .007-.412z"/>
        </g>
        <path fill="#FBBEBE" fill-rule="nonzero" d="M54 90.647s4.645-3.463 4.984-.347C59.324 93.416 54 92.98 54 92.98v-2.332z"/>
        <path fill="#F7CDDD" fill-rule="nonzero" d="M45.152 88s3.078 1.81 4.782 1.703c0 0 4.652.556 5.193.278C55.667 89.703 56 94 56 94l-7.645-.482-4.903-.667S41 91.518 41 90.37C41 89.22 45.152 88 45.152 88z"/>
        <path fill="#00A0FF" fill-rule="nonzero" d="M45.152 88s3.078 1.81 4.782 1.703c0 0 4.652.556 5.193.278C55.667 89.703 56 94 56 94l-7.645-.482-4.903-.667S41 91.518 41 90.37C41 89.22 45.152 88 45.152 88z"/>
        <path fill="#FBBEBE" fill-rule="nonzero" d="M48.217 98.005s5.915-.204 4.59 2.09C51.48 102.386 47 99.602 47 99.602l1.217-1.598z"/>
        <path fill="#5C5C8E" fill-rule="nonzero" d="M42 90s4.582-3.859 3.938-8.558c-.644-4.7-3.938 3.592-3.938 3.592V90z"/>
        <path fill="#FBBEBE" fill-rule="nonzero" d="M43 67a6.993 6.993 0 0 0 4.375 6.483 7.114 7.114 0 0 0 1.894.48 6.904 6.904 0 0 0 3.028-.362 6.993 6.993 0 0 0-3.08-13.557A6.996 6.996 0 0 0 43 67.001z"/>
        <path fill="#000" fill-rule="nonzero" d="M18.004 100.149c.637.118 1.425.334 1.425.667 0 .56 8.894 3.59 8.894 3.59s-.333.782.556 2.13c.89 1.347 8.122 9.083 8.122 9.083l-.024.228-.093.89-.44 4.263s2.779-1.009 3.668-.897c.288.036.6-.15.888-.418a4.318 4.318 0 0 0-.58-1.434s-.72-.571-1.809-1.328v-14.296L19.721 98l-1.71 1.72a3.391 3.391 0 0 0-.007.429z" opacity=".1"/>
        <path fill="#00A0FF" fill-rule="nonzero" d="M16 98.957s2.061.213 2.061.75c0 .538 8.246 3.431 8.246 3.431s-.31.749.515 2.036c.825 1.288 7.53 8.682 7.53 8.682L33.835 119s2.577-.964 3.401-.857c.37.048.777-.307 1.114-.715a7.49 7.49 0 0 0 .743-1.102s-.929-4.075.31-5.04c1.238-.964-1.34-8.037-1.34-8.037s-1.167-5.03-.823-7.187a2.71 2.71 0 0 1 .1-.423c0-.016.008-.032.015-.049C38.09 93.53 46 76.24 46 76.24a12.788 12.788 0 0 0-.161-1.885 7.427 7.427 0 0 0-.16-.762 5.17 5.17 0 0 0-.15-.472c-.244-.653-.618-1.155-1.178-1.168 0 0-.619-.714-2.061-.903-1.066-.145-2.577 0-4.639.903-4.844 2.143-5.978 2.25-5.978 2.25l-2.435 3.317-.502.683a65.895 65.895 0 0 0-4.966 7.839c-.811 1.514-1.959 3.28-3.335 4.341C17.651 92.527 16 98.957 16 98.957z"/>
        <path fill="#000" fill-rule="nonzero" d="M35 88s-6.486 1.703-9 6l9-6zM33 94s-1.297 9.27-.937 9.967C32.423 104.665 33 94 33 94zM33.162 99.366c.492.706 2.487 6.158 2.487 6.158l-.577 9.152-.506 5.324s2.53-.998 3.341-.887c.361.05.762-.316 1.093-.74-.526-3.118-1.65-9.642-1.855-9.768-.268-.166-1.634-5.409-1.707-6.865-.072-1.457-1.974-4.74-1.974-4.74s-.796 1.66-.302 2.366z" opacity=".1"/>
        <path fill="#000" fill-rule="nonzero" d="M34.034 90.238c.129.408.333 2.775.333 2.775.145 2.087 1.68 2.77 2.634 2.987.022-.146.056-.29.102-.43C37.738 93.722 46 75.871 46 75.871a12.027 12.027 0 0 0-.33-2.687c-1.798-.544-4.647.293-4.647.293-.823-.11-3.507 5.376-3.507 5.376s-1.79 4.202-1.985 4.773c-.196.571 0 1.513-.08 1.84-.08.326-.916.608-1.034 1.06-.118.452-.04 1.344-.12 1.507-.08.163-.4 1.797-.263 2.205z" opacity=".1"/>
        <path fill="#00A0FF" fill-rule="nonzero" d="M35.035 89.807c.14.397.356 2.705.356 2.705.129 1.694 1.29 2.439 2.264 2.764.437.146.894.232 1.358.255l1.365 1.11L46.68 101s2.35-4.067 1.713-4.094c-.638-.026-4.313-2.917-4.313-2.917-1.132-.563-2.252-2.444-2.775-3.41.031-.116.054-.234.068-.353.228-1.802 4.981-8.7 4.981-8.7s1.837-2.029 2.554-5.786c.02-.085.034-.177.05-.264a2.71 2.71 0 0 0 .038-.354c.085-1.444-1.035-1.97-2.367-2.095-.691-.05-1.387-.03-2.074.06-.688.08-1.368.206-2.037.375-.566-.069-1.973 2.15-2.893 3.722-.496.853-.853 1.52-.853 1.52s-1.922 4.098-2.137 4.655c-.215.557 0 1.473-.085 1.793-.085.32-.978.595-1.103 1.035-.124.44-.045 1.31-.13 1.47-.085.158-.424 1.752-.281 2.15z"/>
        <path fill="#000" fill-rule="nonzero" d="M29 79.045c1.144 1.152 3.01 1.156 4.501.57 1.49-.584 2.756-1.652 4.14-2.474.903-.53 1.848-.977 2.733-1.53.13-.083.256-.166.379-.251 1.021-.707 1.904-1.614 2.96-2.262a4.673 4.673 0 0 1 2.378-.746c.391-.004.779.076 1.135.233.063.027.123.057.18.092.348.197.67.434.957.707.298.263.585.544.903.788.02-.085.032-.177.049-.263.019-.117.031-.235.036-.354a6.96 6.96 0 0 0 3.001-.36c0-.028.01-.058.016-.087.26-1.336.722-2.752 1.827-3.503.637-.436 1.655-.613 2.535-.945.84-2.863-.325-5.927-2.872-7.556a7.047 7.047 0 0 0-8.218.463c-2.34 1.904-3.138 5.078-1.969 7.828-1.119-.143-2.707 0-4.873.894-5.09 2.121-6.28 2.227-6.28 2.227l-2.545 3.288c.276.413.588.821.617 1.304.058.894-.823 1.511-1.59 1.937z" opacity=".1"/>
        <path fill="#7C5C5C" fill-rule="nonzero" d="M52.953 69.63c-1.044.752-1.489 2.163-1.736 3.495-.077.416-.15.855-.397 1.185-.555.739-1.67.529-2.393 0-.724-.53-1.294-1.334-2.102-1.71-1.074-.497-2.334-.133-3.338.514-1.003.647-1.844 1.552-2.815 2.256-.938.68-1.984 1.166-2.962 1.778-1.314.823-2.515 1.887-3.934 2.469-1.418.582-3.19.582-4.276-.568.729-.416 1.566-1.032 1.51-1.923-.057-.89-1.067-1.559-.999-2.469.069-.91 1.113-1.273 1.863-1.721 1.57-.938 2.23-2.998 2.573-4.903.26-1.487.475-3.15 1.558-4.104.696-.616 1.641-.817 2.343-1.425.665-.579 1.03-1.455 1.455-2.261.698-1.346 1.614-2.595 2.826-3.399 1.213-.804 2.755-1.115 4.086-.573.515.206.975.529 1.48.753 1.251.557 2.687.483 3.929 1.069 1.528.723 2.522 2.32 3.43 3.838.778 1.296 2.298 3.59 1.872 5.266-.434 1.709-2.839 1.617-3.973 2.434z"/>
        <g fill="#000" fill-rule="nonzero" opacity=".1">
            <path d="M29.54 75.35a1.25 1.25 0 0 1 .035-.218c.275.473.618.93.65 1.488.009.128-.001.257-.028.382-.306-.536-.7-1.036-.657-1.652zM32.98 79.246c1.412-.618 2.607-1.74 3.915-2.605.973-.646 2.014-1.157 2.948-1.875.967-.745 1.803-1.699 2.802-2.38.999-.68 2.254-1.066 3.322-.541.804.396 1.366 1.235 2.092 1.802.725.568 1.83.79 2.381.01.248-.348.32-.81.397-1.249.245-1.406.683-2.895 1.727-3.687 1.13-.86 3.523-.763 3.956-2.577.072-.322.092-.655.057-.984.278.806.42 1.617.252 2.324-.435 1.814-2.827 1.717-3.957 2.576-1.038.793-1.482 2.281-1.728 3.688-.077.439-.149.902-.394 1.248-.554.78-1.663.558-2.39-.009-.728-.567-1.288-1.407-2.092-1.803-1.069-.524-2.324-.14-3.323.542-.998.68-1.835 1.637-2.801 2.38-.934.72-1.976 1.229-2.949 1.874-1.308.871-2.503 1.991-3.915 2.605-1.412.614-3.175.612-4.256-.6a5.3 5.3 0 0 0 .792-.574c.987.393 2.165.27 3.164-.165z"/>
        </g>
        <path fill="#3ACC6C" fill-rule="nonzero" d="M147.888 61.552l-7.21-7.38A3.796 3.796 0 0 0 137.967 53a3.794 3.794 0 0 0-2.727 1.134L89.965 99.825 70.82 80.19a3.77 3.77 0 0 0-5.399-.04l-7.287 7.339a3.988 3.988 0 0 0-.037 5.534l29.072 29.822a3.82 3.82 0 0 0 5.438.04l55.24-55.8A3.93 3.93 0 0 0 149 64.326a3.933 3.933 0 0 0-1.112-2.774z"/>
        <path fill="#00A0FF" fill-rule="nonzero" d="M136.832 120.15s-4.218-.273-3.724 2.902c-.052.33.099.659.375.815 0 0 0-.236.431-.156.152.028.306.036.46.024a.914.914 0 0 0 .56-.248s1.185-.526 1.647-2.608c0 0 .34-.454.327-.57l-.712.327s.244.55.052 1.008c0 0-.023-.99-.16-.965-.027 0-.37.19-.37.19s.414.96.103 1.66c0 0 .12-1.185-.233-1.59l-.501.314s.488.993.157 1.802c0 0 .086-1.242-.263-1.725l-.454.38s.46.977.18 1.65c0 0-.037-1.446-.277-1.556 0 0-.397.377-.458.532 0 0 .315.71.12 1.085 0 0-.12-.965-.218-.968 0 0-.395.637-.437 1.074.02-.404.137-.796.34-1.136a1.169 1.169 0 0 0-.605.338s.061-.445.704-.492c0 0 .327-.483.414-.513 0 0-.639-.057-1.027.128 0 0 .341-.427 1.143-.233l.448-.392s-.84-.125-1.197.012c0 0 .413-.377 1.318-.103l.488-.312s-.717-.166-1.144-.107c0 0 .45-.26 1.288.022l.349-.169s-.526-.11-.68-.127c-.155-.016-.162-.064-.162-.064.333-.059.674-.018.987.119 0 0 .743-.298.73-.348zM128.887 94.06s-2.33 4.527.781 5.645a.708.708 0 0 0 .921.014s-.208-.132.072-.56c.1-.154.183-.32.249-.496.088-.238.106-.5.052-.751 0 0 .11-1.59-1.54-3.194 0 0-.241-.617-.353-.663l-.056.96s.616.02.936.473c0 0-.9-.494-.951-.33-.01.033-.011.513-.011.513s1.074.042 1.548.758c0 0-1.008-.754-1.55-.576l.037.72s1.137-.02 1.704.772c0 0-1.079-.748-1.686-.616l.118.703s1.11 0 1.577.667c0 0-1.322-.718-1.54-.514 0 0 .15.637.253.786 0 0 .796.024 1.038.438 0 0-.929-.374-.981-.268 0 0 .38.773.75 1.05a2.54 2.54 0 0 1-.857-.976 1.68 1.68 0 0 0 0 .857s-.376-.305-.094-1.029c0 0-.276-.615-.26-.728 0 0-.366.677-.391 1.2 0 0-.216-.602.354-1.389l-.132-.703s-.527.868-.581 1.334c0 0-.136-.653.56-1.514l-.042-.704s-.504.706-.66 1.21c0 0-.014-.636.654-1.414l.02-.475s-.36.525-.45.686c-.09.16-.136.145-.136.145.11-.399.315-.755.593-1.028 0 0 .105-.991.054-1.003zM110.867 55.11s-2.328 4.529.782 5.645a.705.705 0 0 0 .92.014s-.208-.132.074-.561c.1-.154.182-.32.248-.495.088-.238.106-.501.052-.751 0 0 .111-1.59-1.54-3.194 0 0-.242-.615-.353-.662l-.057.959s.618.02.936.473c0 0-.9-.494-.95-.331-.01.034-.01.514-.01.514s1.073.041 1.547.758c0 0-1.009-.754-1.55-.576l.038.72s1.135-.02 1.702.771c0 0-1.079-.745-1.686-.615l.119.703s1.11 0 1.578.668c0 0-1.323-.72-1.541-.514 0 0 .15.636.254.785 0 0 .795.024 1.036.437 0 0-.928-.373-.98-.267 0 0 .38.775.75 1.049a2.54 2.54 0 0 1-.857-.974c-.072.277-.072.57 0 .847 0 0-.377-.305-.095-1.037 0 0-.276-.615-.26-.729 0 0-.365.678-.391 1.2 0 0-.216-.601.356-1.388l-.134-.703s-.526.867-.579 1.334c0 0-.138-.653.558-1.514l-.042-.705s-.504.707-.66 1.21c0 0-.013-.635.654-1.412l.021-.476s-.36.524-.45.685c-.09.161-.136.146-.136.146.112-.4.32-.756.6-1.029 0 0 .097-.965.046-.985zM52.539 20.1s-11.309 7.59-3.823 13.602c0 0 .847 1.425 2.555 1.065 0 0-.442-.531.8-1.182.44-.234.849-.515 1.217-.839a2.85 2.85 0 0 0 .945-1.626s2-3.46-.898-8.928c0 0-.018-1.66-.282-1.89l-1.174 2.1s1.7.739 2.11 2.118c0 0-1.998-2.13-2.301-1.807-.061.063-.572 1.138-.572 1.138s2.953 1.298 3.512 3.445c0 0-2.011-2.834-3.717-3.04l-.663 1.664s3.19 1.231 3.93 3.653c0 0-2.215-2.892-4.05-3.28l-.415 1.718s3.088 1.256 3.689 3.275c0 0-2.935-3.105-3.755-2.875 0 0-.278 1.597-.131 2.055 0 0 2.195.948 2.43 2.15 0 0-2.193-1.883-2.452-1.702 0 0 .239 2.169.99 3.211 0 0-1.23-1.462-1.356-3.159 0 0-.839.904-.886 1.918 0 0-.728-1.112.836-2.445 0 0-.112-1.7.054-1.934 0 0-1.745 1.115-2.373 2.272 0 0 .037-1.598 2.465-2.731l.376-1.733s-2.389 1.36-3.033 2.349c0 0 .311-1.626 3.166-2.787l.634-1.635s-2.152 1.028-3.13 1.988c0 0 .64-1.446 3.326-2.453l.561-1.048s-1.565.777-1.986 1.037c-.42.26-.538.181-.538.181a6.084 6.084 0 0 1 2.751-1.657s1.319-2.104 1.188-2.189zM42.867 45.662s-13.594-5.717-15.376 4.59c0 0-.93 1.608.364 2.935 0 0 .278-.712 1.592.024.47.26.967.462 1.484.604.698.192 1.44.152 2.113-.113 0 0 4.469-.242 8.23-6.091 0 0 1.611-.996 1.693-1.371l-2.696.182s.207 1.973-.91 3.156c0 0 .992-3.062.515-3.147-.096-.018-1.423.156-1.423.156s.343 3.431-1.455 5.206c0 0 1.67-3.49.942-5.144l-1.987.384s.545 3.609-1.422 5.707c0 0 1.616-3.71.993-5.593l-1.906.64s.46 3.53-1.185 5.273c0 0 1.436-4.475.76-5.09 0 0-1.713.694-2.08 1.09 0 0 .272 2.545-.775 3.464 0 0 .644-3.091.326-3.219 0 0-1.991 1.499-2.599 2.791 0 0 .759-1.974 2.348-3.09 0 0-1.335-.228-2.364.332 0 0 .69-1.31 2.846-.689 0 0 1.598-1.107 1.918-1.09 0 0-2.04-.91-3.515-.797 0 0 1.58-.91 4.013.609l1.896-.687s-2.634-1.351-3.956-1.346c0 0 1.756-.68 4.45 1.211l1.946-.402s-2.182-1.336-3.654-1.645c0 0 1.765-.28 4.214 1.554l1.331-.11s-1.61-.95-2.098-1.18c-.487-.231-.465-.38-.465-.38 1.16.2 2.24.72 3.121 1.501 0 0 2.759-.056 2.771-.225zM34.905 31.246S29.89 20.354 22.68 25.35c0 0-1.527.416-1.514 1.903 0 0 .595-.26.97.9.139.412.33.806.567 1.176.317.501.799.891 1.373 1.111 0 0 2.906 2.35 8.703 1.047 0 0 1.587.318 1.86.148l-1.773-1.4s-1.04 1.263-2.437 1.323c0 0 2.427-1.226 2.183-1.541-.049-.064-.972-.7-.972-.7s-1.822 2.183-3.973 2.216c0 0 3.1-1.098 3.63-2.462l-1.456-.889s-1.83 2.406-4.287 2.532c0 0 3.197-1.253 3.93-2.697l-1.558-.68s-1.808 2.31-3.854 2.397c0 0 3.54-1.799 3.485-2.533 0 0-1.47-.551-1.935-.52 0 0-1.338 1.628-2.531 1.581 0 0 2.23-1.438 2.107-1.689 0 0-2.119-.238-3.26.178 0 0 1.639-.725 3.283-.487 0 0-.69-.876-1.656-1.12 0 0 1.206-.379 2.169 1.182 0 0 1.644.25 1.835.434 0 0-.72-1.67-1.703-2.421 0 0 1.513.355 2.12 2.59l1.58.66s-.826-2.255-1.647-2.985c0 0 1.489.583 2.033 3.182l1.436.851s-.556-1.99-1.28-2.992c0 0 1.256.822 1.683 3.252l.89.676s-.436-1.448-.6-1.853c-.165-.405-.06-.48-.06-.48a4.93 4.93 0 0 1 1.038 2.61s1.74 1.491 1.846 1.397zM125.872 35.773s-.977-5-4.063-3.481a.836.836 0 0 0-.718.678s.242-.062.287.458c.017.185.055.367.111.542.078.236.225.44.42.58 0 0 .888 1.227 3.143 1.15 0 0 .564.263.68.213l-.546-.733s-.49.447-1.011.358c0 0 1-.318.938-.471-.015-.032-.305-.375-.305-.375s-.853.771-1.658.61c0 0 1.24-.21 1.548-.742l-.468-.492s-.866.864-1.788.715c0 0 1.29-.266 1.678-.815l-.522-.416s-.859.823-1.626.695c0 0 1.46-.47 1.5-.784 0 0-.5-.351-.677-.376 0 0-.625.576-1.067.46 0 0 .938-.424.92-.54 0 0-.767-.274-1.225-.192.418-.096.851-.075 1.258.062a1.4 1.4 0 0 0-.523-.607s.478-.062.71.667c0 0 .588.238.645.333 0 0-.132-.762-.435-1.167 0 0 .534.272.577 1.265l.532.407s-.123-1.017-.368-1.393c0 0 .504.368.495 1.5l.469.476s-.044-.885-.231-1.365c0 0 .398.449.359 1.5l.275.359s-.042-.645-.07-.834c-.029-.188.015-.208.015-.208.16.37.22.782.174 1.187 0 0 .52.806.567.776zM105.931 135.793s-.975-5-4.062-3.481a.837.837 0 0 0-.72.678s.242-.062.287.458c.017.185.055.367.112.542.078.236.225.44.42.58 0 0 .887 1.227 3.143 1.15 0 0 .564.263.678.213l-.544-.733s-.489.447-1.012.358c0 0 1-.318.937-.471-.012-.032-.304-.375-.304-.375s-.854.771-1.658.61c0 0 1.24-.21 1.548-.742l-.469-.5s-.856.867-1.78.713c0 0 1.288-.266 1.677-.815l-.522-.416s-.857.823-1.625.695c0 0 1.461-.469 1.5-.784 0 0-.501-.351-.676-.376 0 0-.625.576-1.069.46 0 0 .938-.424.92-.54 0 0-.767-.274-1.225-.192a2.312 2.312 0 0 1 1.26.062 1.41 1.41 0 0 0-.524-.607s.477-.062.708.667c0 0 .59.238.647.333 0 0-.131-.762-.434-1.167 0 0 .534.272.575 1.265l.534.407s-.125-1.017-.37-1.393c0 0 .506.368.497 1.5l.468.476s-.043-.885-.232-1.365c0 0 .4.449.36 1.5l.276.359s-.044-.645-.072-.834c-.028-.188.015-.206.015-.206.16.37.22.78.174 1.185 0 0 .519.811.562.786z" opacity=".5"/>
    </g>
</svg>
