<svg xmlns="http://www.w3.org/2000/svg" xmlns:xlink="http://www.w3.org/1999/xlink" width="289" height="262" viewBox="0 0 289 262">
    <defs>
        <linearGradient id="a" x1="-46.878%" x2="89.045%" y1="129.835%" y2="7.026%">
            <stop offset="0%" stop-color="#00A0FF"/>
            <stop offset="100%" stop-color="#83D1FF"/>
        </linearGradient>
        <linearGradient id="b" x1=".985%" x2="99.415%" y1="50.004%" y2="50.004%">
            <stop offset="0%" stop-color="#00A0FF"/>
            <stop offset="100%" stop-color="#83D1FF"/>
        </linearGradient>
        <path id="d" d="M248.174 49.85L254 44.584l-4.982-12.074-7.844.411a29.14 29.14 0 0 0-3.089-3.085l.391-7.858L226.453 17l-5.27 5.842h-4.365L211.548 17l-12.024 4.978.411 7.858a29.326 29.326 0 0 0-3.109 3.085l-7.844-.411L184 44.584l5.847 5.266v4.382L184 59.498l4.982 12.095 7.844-.39a29.326 29.326 0 0 0 3.027 2.982l-.412 7.858L211.465 87l5.27-5.821h4.365L226.37 87l12.024-4.957-.391-7.858a29.14 29.14 0 0 0 3.088-3.086l7.844.391 4.983-11.992-5.827-5.266c.124-.74.124-3.662.083-4.382zm-13.568 8.496l-9.141 9.133h-12.93l-9.14-9.133V45.428l9.14-9.133h12.93l9.14 9.133v12.918z"/>
        <filter id="c" width="145.7%" height="145.7%" x="-22.9%" y="-20%" filterUnits="objectBoundingBox">
            <feOffset dy="2" in="SourceAlpha" result="shadowOffsetOuter1"/>
            <feGaussianBlur in="shadowOffsetOuter1" result="shadowBlurOuter1" stdDeviation="5"/>
            <feColorMatrix in="shadowBlurOuter1" values="0 0 0 0 0 0 0 0 0 0 0 0 0 0 0 0 0 0 0.05 0"/>
        </filter>
    </defs>
    <g fill="none" fill-rule="nonzero">
        <path fill="url(#a)" d="M279.8 74.79c1.283-18.975-3.56-38.592-16.062-52.76-17.49-19.928-47.13-25.645-72.94-19.928-25.812 5.718-48.331 21.481-68.181 38.964-21.692 19.078-41.542 41.429-51.746 68.358-9.956 26.307-11.674 67.383 12.585 86.648 25.81 20.507 61.018 23.863 91.57 12.428 32.226-12.035 57.665-37.72 77.225-66.058 12.419-17.918 22.975-37.617 26.556-59.119a85.51 85.51 0 0 0 .993-8.534z"/>
        <path fill="url(#b)" d="M215.213 118.528c-23.233-14.21-28.683-31.583-44.517-51.645-22.985-29.08-62.632-47.984-99.813-38.346-24.6 6.391-44.87 25.233-56.186 47.943-17.098 34.395-21.244 79.38-1.824 112.989 47.378 82.13 160.206 93.713 233.2 38.8 14.798-11.127 28.394-25.915 31.275-44.178 6.404-40.496-35.814-49.452-62.135-65.563z"/>
        <path fill="#E93D37" d="M95 195.557c3.822.002 7.485 1.601 10.181 4.443l7.819-8.203c-4.776-5.001-11.252-7.806-18-7.797v11.578-.021z"/>
        <path fill="#00A0FF" d="M76.61 191.7c-10.147 10.304-10.147 26.996 0 37.3l7.988-8.101c-4.2-4.272-5.456-10.687-3.18-16.261 2.275-5.575 7.633-9.214 13.582-9.224V184c-6.895-.01-13.51 2.76-18.39 7.7z"/>
        <path fill="#FFF" d="M113.194 192L105 200.036a14.653 14.653 0 0 1 4.42 10.464c0 3.925-1.59 7.689-4.42 10.464l8.194 8.036a25.825 25.825 0 0 0 0-37z"/>
        <path fill="#ED5C57" d="M105.947 221c-2.769 2.839-6.532 4.435-10.457 4.438-3.926-.005-7.688-1.601-10.458-4.438L77 229.193a25.823 25.823 0 0 0 37 0L105.947 221z"/>
        <path fill="#FFF" d="M139.027 230a1.05 1.05 0 0 1-.966-1.394c.093-.259.285-.468.534-.581l53.868-25.466 24.566-59.914c.1-.257.3-.461.552-.567a1 1 0 0 1 .787.005c.52.22.769.824.556 1.352l-24.71 60.288a1.097 1.097 0 0 1-.515.54l-54.219 25.633a1.103 1.103 0 0 1-.453.104z"/>
        <path fill="#383838" d="M242.721 239.719l-18.858-18.859c10.217-15.842 6.84-36.839-7.828-48.679-14.668-11.84-35.905-10.71-49.235 2.62-13.329 13.329-14.459 34.566-2.619 49.234s32.837 18.045 48.679 7.828l18.859 18.858a7.78 7.78 0 1 0 11.002-11.002zm-31.856-20.854c-9.936 9.93-26.04 9.926-35.973-.008-9.932-9.935-9.932-26.039 0-35.973 9.932-9.934 26.037-9.938 35.973-.009a25.44 25.44 0 0 1 0 35.99z"/>
        <path fill="#00A0FF" d="M223 140.481a5.5 5.5 0 1 1-5.481-5.481 5.481 5.481 0 0 1 5.481 5.481z"/>
        <path fill="#F49F0A" d="M144 227.5a5.5 5.5 0 1 1-11 0 5.5 5.5 0 0 1 11 0z"/>
        <circle cx="193.5" cy="200.5" r="14.5" fill="#E93D37"/>
        <path fill="#E93D37" d="M17 128h144v23H17z"/>
        <path fill="#FFF" d="M156.628 146.49l-3.169-3.21c2.318-2.993 1.849-7.363-1.049-9.758-2.897-2.396-7.126-1.91-9.444 1.084-2.428 2.51-2.632 6.508-.474 9.268 2.159 2.76 5.985 3.393 8.869 1.467.776.824 3.106 3.21 3.106 3.21a1.45 1.45 0 0 0 2.098 0 1.57 1.57 0 0 0 0-2.169l.063.109zm-5.477-3.578c-1.325 1.374-3.321 1.787-5.056 1.047-1.735-.741-2.867-2.49-2.867-4.43 0-1.94 1.132-3.689 2.867-4.43 1.735-.74 3.73-.327 5.056 1.047 1.804 1.87 1.804 4.896 0 6.766zM26 147c-.553 0-1-.47-1-1.05v-11.9c.01-.575.452-1.039 1-1.05.55 0 .998.47.998 1.05v11.838c.017.289-.081.572-.27.783a.977.977 0 0 1-.729.329zM114.957 159H24.043c-.571.01-1.032.452-1.043 1 0 .552.467 1 1.043 1h90.914c.576 0 1.043-.448 1.043-1s-.467-1-1.043-1zM90.964 167H24.036c-.572 0-1.036.448-1.036 1s.464 1 1.036 1h66.928c.572 0 1.036-.448 1.036-1s-.464-1-1.036-1zM61.973 175H24.027c-.567 0-1.027.448-1.027 1 .01.548.464.99 1.027 1h37.946c.567 0 1.027-.448 1.027-1s-.46-1-1.027-1z"/>
        <use fill="#000" filter="url(#c)" xlink:href="#d"/>
        <use fill="#FFF" fill-rule="evenodd" xlink:href="#d"/>
        <path fill="#00A0FF" d="M139 109V53.868c-4.638-2.238-9.13.103-11.647 4.144-2.267 3.75-2.516 9.012-5.386 12.43a4.9 4.9 0 0 1-6.24 1.306c-1.497-1.098-1.892-3.108-2.828-4.703-2.808-4.724-8.32-4.579-10.607 0-1.685 3.087-4.555 11.064-9.505 8.785-1.518-.705-2.724-2.072-4.284-2.611a7.504 7.504 0 0 0-7.882 2.445c-3.495 3.874-7.093 21.858-15.37 16.575a29.468 29.468 0 0 1-4.16-3.854 8.329 8.329 0 0 0-4.95-2.631 7.805 7.805 0 0 0-6.239 3.605c-1.497 2.072-2.516 4.392-4.16 6.34-3.39 4.143-6.384 2.59-10.773 1.74-6.052-1.18-10.648 3.025-14.392 7.169-.645.704-2.85 4.392-3.577 4.392h122z"/>
        <path fill="#F3B03A" d="M150 114.898v-56.81c-7.27-3.497-12.304 2.045-14.935 7.975-1.18 2.7-3.004 5.583-5.945 6.135-4.288.696-7.975-4.09-12.284-3.517-3.19.47-5.033 3.722-6.65 6.483-1.615 2.76-4.142 5.787-7.353 5.296-1.574-.245-2.92-1.33-4.495-1.656-2.928-.231-5.7 1.336-6.98 3.947-1.45 2.454-2.072 5.296-3.294 7.852-1.049 2.72-3.505 4.668-6.422 5.092-5.613.184-8.803-8.18-14.5-7.607-3.562.327-5.613 4.09-6.628 7.526-1.015 3.435-1.906 7.26-4.992 9.08a10.27 10.27 0 0 1-8.286.142c-4.64-1.533-9.55-3.885-14.272-1.227C27.08 106.922 23.953 115 23 115l127-.102z"/>
        <path fill="#F49F0A" d="M160 122V64.916c-5.188-2.187-11.212-.348-14.258 4.353-3.316 4.456-4.145 10.267-6.902 15.133-2.756 4.867-8.683 8.85-13.823 6.53-4.145-1.93-6.466-7.68-11.13-7.946-7.77-.37-8.994 14.189-16.745 14.373-5.492 0-8.58-7.556-14.072-7.72-4.621-.144-7.377 4.969-8.973 9.28-1.596 4.313-4.145 9.447-8.891 9.447-3.067 0-5.534-2.382-8.29-3.532-5.077-2.054-11.108 0-15.108 3.778S33 122 33 122h127z"/>
        <path fill="#E93D37" d="M281.01 72.271L285.95 75l-.955-5.784L289 65.112l-5.52-.851L281.01 59l-2.47 5.26-5.54.852 4.005 4.104-.934 5.784zM263.49 87.47l2.785 1.53-.52-3.255L268 83.451l-3.118-.48L263.49 80l-1.393 2.97-3.097.481 2.245 2.294-.54 3.255zM245.512 102.99l2.135 1.01-.403-2.172 1.756-1.527-2.42-.323L245.512 98l-1.092 1.978-2.42.323 1.756 1.527-.403 2.172zM225.5 116.49l.924.51-.182-1.085.758-.766-1.03-.16-.47-.989-.455.99-1.045.159.758.766-.182 1.085z"/>
    </g>
</svg>
