<?xml version="1.0" encoding="utf-8"?>
<!-- Generator: Adobe Illustrator 23.0.2, SVG Export Plug-In . SVG Version: 6.00 Build 0)  -->
<svg version="1.1" id="Capa_1" xmlns="http://www.w3.org/2000/svg" xmlns:xlink="http://www.w3.org/1999/xlink" x="0px" y="0px"
	 viewBox="0 0 40 40" style="enable-background:new 0 0 40 40;" xml:space="preserve">
<style type="text/css">
	.st0{fill-rule:evenodd;clip-rule:evenodd;fill:#FFFFFF;}
	.st1{fill:#00A0FF;}
</style>
<g>
	<g>
		<path class="st0" d="M20,0L20,0c11,0,20,9,20,20l0,0c0,11-9,20-20,20l0,0C9,40,0,31,0,20l0,0C0,9,9,0,20,0z"/>
	</g>
	<g>
		<path class="st1" d="M20,20c3.4,0,4.6-3.3,4.9-6.1C25.3,10.5,23.7,8,20,8s-5.3,2.5-4.9,5.9C15.4,16.7,16.6,20,20,20z M27.7,21.9
			c0.1,0,0.2,0,0.3,0c-0.2-0.2-0.4-0.4-0.6-0.6c-0.7-0.5-1.5-0.6-2.3-0.9c-0.3-0.1-0.7-0.3-1-0.4c-1,1.1-2.4,1.7-4,1.7
			c-1.6,0-2.9-0.6-4-1.7c-0.3,0.2-0.7,0.3-1,0.4c-0.8,0.3-1.6,0.4-2.3,0.9c-1.1,0.8-1.4,2.7-1.7,3.9c-0.2,1-0.3,2.1-0.4,3.2
			c0,0.8,0.4,0.9,1.1,1.2c0.9,0.3,1.8,0.5,2.7,0.7c1.8,0.4,3.6,0.6,5.4,0.7c0.9,0,1.8-0.1,2.6-0.2c-0.7-0.9-1-2.1-1-3.2
			C21.8,24.5,24.5,21.9,27.7,21.9L27.7,21.9z"/>
		<path class="st1" d="M27.5,23C25,23,23,25,23,27.5s2,4.5,4.5,4.5s4.5-2,4.5-4.5S30,23,27.5,23z M29.5,28.3h-1.2v1.2
			c0,0.4-0.3,0.8-0.8,0.8c-0.4,0-0.8-0.3-0.8-0.8c0,0,0,0,0,0v-1.2h-1.2c-0.4,0-0.8-0.3-0.8-0.8c0-0.4,0.3-0.8,0.8-0.8c0,0,0,0,0,0
			h1.2v-1.2c0-0.4,0.3-0.8,0.8-0.8c0.4,0,0.8,0.3,0.8,0.8v1.2h1.2c0.4,0,0.8,0.3,0.8,0.8C30.2,27.9,29.9,28.3,29.5,28.3L29.5,28.3z"
			/>
	</g>
</g>
</svg>
