<?xml version="1.0" encoding="utf-8"?>
<!-- Generator: Adobe Illustrator 23.0.3, SVG Export Plug-In . SVG Version: 6.00 Build 0)  -->
<svg version="1.1" id="Capa_1" xmlns="http://www.w3.org/2000/svg" xmlns:xlink="http://www.w3.org/1999/xlink" x="0px" y="0px"
	 viewBox="0 0 40 40" style="enable-background:new 0 0 40 40;" xml:space="preserve">
<style type="text/css">
	.st0{fill-rule:evenodd;clip-rule:evenodd;fill:#FFFFFF;}
	.st1{fill:#383838;}
</style>
<g>
	<g>
		<path class="st0" d="M20,0L20,0c11,0,20,9,20,20l0,0c0,11-9,20-20,20l0,0C9,40,0,31,0,20l0,0C0,9,9,0,20,0z"/>
	</g>
</g>
<g transform="translate(-198 -16.17)">
	<path class="st1" d="M218,36.2c3.4,0,4.6-3.3,4.9-6.1c0.4-3.4-1.2-5.9-4.9-5.9s-5.3,2.5-4.9,5.9C213.4,32.8,214.6,36.2,218,36.2z
		 M225.7,38.1c0.1,0,0.2,0,0.3,0c-0.2-0.2-0.4-0.4-0.6-0.6c-0.7-0.5-1.5-0.6-2.3-0.9c-0.3-0.1-0.7-0.3-1-0.4c-1,1.1-2.4,1.7-4,1.7
		c-1.6,0-2.9-0.6-4-1.7c-0.3,0.2-0.7,0.3-1,0.4c-0.8,0.3-1.6,0.4-2.3,0.9c-1.1,0.8-1.4,2.7-1.7,3.9c-0.2,1-0.3,2.1-0.4,3.2
		c0,0.8,0.4,0.9,1.1,1.2c0.9,0.3,1.8,0.5,2.7,0.7c1.8,0.4,3.6,0.6,5.4,0.7c0.9,0,1.8-0.1,2.6-0.2c-0.7-0.9-1-2.1-1-3.2
		C219.8,40.6,222.5,38.1,225.7,38.1L225.7,38.1z"/>
	<path class="st1" d="M225.5,39.2c2.5,0,4.5,2,4.5,4.5s-2,4.5-4.5,4.5s-4.5-2-4.5-4.5S223,39.2,225.5,39.2z M227.5,42.1
		c-0.5-0.5-1.3-0.4-1.8,0.1l-0.2,0.2l-0.2-0.2c-0.5-0.5-1.3-0.6-1.8-0.1c-0.6,0.5-0.7,1.4-0.1,2c0,0,0,0,0,0.1l1.9,2
		c0.1,0.1,0.3,0.1,0.4,0l1.9-2C228.1,43.6,228.1,42.7,227.5,42.1C227.6,42.1,227.5,42.1,227.5,42.1L227.5,42.1z"/>
</g>
</svg>
